/* XPM */
static char *result[] = {
/* columns rows colors chars-per-pixel */
"40 40 131 2 ",
"   c #0B1D26",
".  c #242527",
"X  c #262628",
"o  c #27292C",
"O  c #5A282B",
"+  c #083345",
"@  c #273C44",
"#  c #3B3D42",
"$  c #473E43",
"%  c #37464A",
"&  c #326578",
"*  c #42454A",
"=  c #644F56",
"-  c #675C64",
";  c #4E6575",
":  c #56747D",
">  c #666972",
",  c #696D76",
"<  c #FE0405",
"1  c #FD0C0D",
"2  c #EF1418",
"3  c #F51214",
"4  c #FB1415",
"5  c #FA1618",
"6  c #FA1A1C",
"7  c #F91D20",
"8  c #F7262A",
"9  c #F62C30",
"0  c #F53338",
"q  c #C13242",
"w  c #F33E43",
"e  c #DF4147",
"r  c #F2444A",
"t  c #ED4E55",
"y  c #F04C53",
"u  c #EE545C",
"i  c #ED5C64",
"p  c #EC626B",
"a  c #E96E78",
"s  c #757881",
"d  c #7A779D",
"f  c #70789E",
"g  c #E77A84",
"h  c #E57D88",
"j  c #539FBB",
"k  c #678BBA",
"l  c #688CB9",
"z  c #7091BE",
"x  c #299FD3",
"c  c #25AEE9",
"v  c #2AAFE9",
"b  c #2EB1E9",
"n  c #31B1E7",
"m  c #3AB6E7",
"M  c #35B3E9",
"N  c #38B5E8",
"B  c #56A2CC",
"V  c #56B7DB",
"C  c #6FA9CB",
"Z  c #43B5E7",
"A  c #44B7E9",
"S  c #49B6E9",
"D  c #51BAEB",
"F  c #66BEEB",
"G  c #6EC9E8",
"H  c #75C7EA",
"J  c #7DC5EC",
"K  c #7ACDE9",
"L  c #888C96",
"P  c #B98F9B",
"I  c #B9929D",
"U  c #E38C97",
"Y  c #E28F9B",
"T  c #E2909D",
"R  c #DE99A8",
"E  c #E199A6",
"W  c #E09AA7",
"Q  c #DEA5B3",
"!  c #84A2C7",
"~  c #9DB4D3",
"^  c #AEB3C3",
"/  c #B0B5C5",
"(  c #A7BCD7",
")  c #A9BDD7",
"_  c #ACBFD9",
"`  c #CCB9C8",
"'  c #DBB3C2",
"]  c #D9BDCD",
"[  c #9DC2D3",
"{  c #92CDDD",
"}  c #AEC2DA",
"|  c #B3C3DD",
" . c #BDC0D8",
".. c #8BC0E0",
"X. c #80CDE6",
"o. c #82C7EC",
"O. c #8BC7EC",
"+. c #8BC9ED",
"@. c #95CAEC",
"#. c #9ACCEC",
"$. c #84D1E9",
"%. c #8AD4E9",
"&. c #94D6E9",
"*. c #98D8E9",
"=. c #A2CFEC",
"-. c #ADCFEA",
";. c #BAC8E0",
":. c #ADD2ED",
">. c #B5D3ED",
",. c #BED4EC",
"<. c #C1C7D9",
"1. c #C4CCDD",
"2. c #D7C5D7",
"3. c #D8C3D4",
"4. c #D7C7D9",
"5. c #C7CEE0",
"6. c #C9CFE1",
"7. c #D5CEE0",
"8. c #CCD3E5",
"9. c #C4D7EE",
"0. c #CDD6EA",
"q. c #CBD9ED",
"w. c #D4D3E6",
"e. c #D3D7E9",
"r. c #D3DAED",
"t. c #DADFEF",
"y. c #D6DFF0",
"u. c #D9DEF0",
"i. c #D5E0F0",
"p. c #DCE0F1",
"a. c #E3E5F4",
/* pixels */
"} ) ) ) ) ( ( ( ( ( ( ( ( ( ) ( ( ( ( ( ( ( ( ( ( ( ( ( ( ( ( ( ( ( ( ( ( ) ~ ( ",
") r.r.r.r.r.r.r.r.r.r.r.0.r.r.r.r.r.r.r.r.r.r.e.r.0.e.r.r.r.0.r.r.r.r.r.r.t.| ~ ",
"} t.i.r.r.r.r.r.r.r.r.r.r.r.r.r.r.r.r.r.r.r.r.r.r.r.r.t.r.y.r.r.r.t.r.r.r.p.| l ",
") r.r.r.r.e.r.r.r.r.r.r.r.r.r.r.r.r.r.r.r.r.r.r.r.0.L / r.r.r.r.r.r.r.r.r.t.| l ",
") r.r.r.r.r.r.r.r.r.r.r.r.r.r.r.r.r.r.r.r.r.r.r.r.r.> o / r.r.r.r.r.r.r.r.t.| l ",
") r.r.r.r.r.r.r.r.r.r.r.r.r.r.r.r.r.r.r.r.r.r.r.r.r.w.= X / r.r.r.r.r.r.r.t.| l ",
") t.y.r.r.r.r.r.r.r.r.r.r.r.r.r.r.r.r.r.r.r.r.r.r.] p t - o ^ r.r.r.r.r.e.t.| l ",
"} r.r.r.r.r.r.r.r.r.r.r.r.r.r.r.r.r.r.r.r.r.r.2.h 7 5 W e.> . ^ r.q.r.r.r.t.| l ",
") y.r.r.r.r.r.r.r.r.r.r.r.r.r.r.r.r.r.r.r.w.T 0 < < g r.r.0., o C V S +.q.t.| l ",
") r.r.r.r.r.r.r.r.r.r.r.r.r.r.r.r.r.r.r.r.w.i 1 < 9 2.r.r.r.r.;   j G b H p.| l ",
"} r.r.r.r.r.r.r.r.r.r.r.r.r.r.r.r.r.r.r.r.7.i 5 1 g e.r.r.r.r.Z & % &.K b i.| l ",
") t.r.r.r.r.r.r.r.r.r.r.r.r.r.r.r.r.r.r.4.u 6 Y g 2.r.r.r.r.r.Z G ~ *.%.c i.| l ",
"} r.r.r.r.r.r.r.r.r.r.r.r.r.r.r.r.r.r.3.y 4 U e.r.r.r.r.r.r.r.o.n $.%.A D u.| l ",
"} r.r.r.r.r.r.r.r.r.r.r.r.r.r.9.#.O._ r 3 T e.r.r.r.r.r.r.r.r.9.J b c D ,.u.| l ",
"( r.r.r.r.r.r.r.r.r.r.r.r.r.9.M b B q 5 U e.r.r.r.r.r.r.r.r.r.r.r.9.9.r.r.u.| l ",
"} r.r.r.r.r.r.r.r.r.r.r.r.r.J A [ w 4 d 9.r.r.r.r.r.r.r.r.r.r.r.r.r.r.r.r.u.| l ",
"( u.r.r.r.r.r.r.r.r.r.r.r.r.F C e 2 P M -.y.0.r.r.y.r.r.r.r.r.r.r.r.r.r.r.u.| l ",
"( r.r.r.r.r.r.r.r.r.r.r.r.r.~ q 2 I X.v ,.r.r.r.r.r.r.r.r.r.r.r.r.r.r.r.r.u.| l ",
"_ y.r.r.r.r.r.r.r.r.r.r.r.] w 2 f A v J 0.y.r.r.r.r.q.r.r.r.r.r.r.r.r.r.r.p.| l ",
"_ r.r.r.r.r.r.r.r.r.r.y.] w 4 R -.#.>.r.r.r.r.r.r.r.r.r.r.r.r.r.r.r.r.r.r.u.| l ",
") r.u.r.r.r.r.r.r.r.r.] w 7 E r.r.r.r.r.r.r.r.r.r.r.r.r.r.r.r.r.r.r.r.r.r.p._ l ",
"( u.r.r.r.r.r.r.r.r.7.w 5 W e.r.r.r.r.r.r.r.r.r.r.r.r.r.r.r.r.r.r.r.r.r.r.u.;.l ",
") t.r.r.r.r.e.w.g a t 7 R r.r.r.r.r.r.r.r.0.y.r.r.r.r.r.r.r.r.r.r.r.r.r.e.u.;.l ",
") r.r.r.r.r.r.' 7 4 7 Q r.r.r.r.r.r.r.r.r.y.r.r.r.r.r.r.r.r.r.r.r.r.r.r.r.u._ l ",
") r.r.r.r.r.e.u < < 4 E r.r.r.r.r.r.r.r.r.r.r.r.r.r.r.r.r.r.r.r.r.r.r.r.r.u.;.l ",
") t.r.6.8.r.Q 1 < w h 7.r.r.r.r.r.r.r.r.r.r.r.r.r.r.r.r.r.r.r.r.r.r.r.r.r.u._ l ",
") t.r.s * ` w 8 T 7.r.r.r.r.r.r.r.r.r.r.r.r.r.r.r.r.r.r.r.r.r.r.r.r.r.r.r.p._ l ",
") r.y.<.# O w ' r.r.r.r.r.r.r.r.r.r.r.r.r.r.r.r.r.r.r.r.r.r.r.r.r.r.r.r.r.u.;.l ",
"} r.r.r.5.# $ 1.r.r.r.r.r.r.r.r.r.r.r.r.r.r.r.r.r.r.r.r.r.r.r.r.r.r.r.r.r.p.| l ",
") r.r.r.0.1.# * ;.r.r.r.r.r.r.r.r.r.r.r.r.r.r.r.r.r.r.r.r.r.r.r.r.r.r.r.r.p.| l ",
") r.r.r.r.r.6.# $ 9.:.=.9.r.r.r.y.r.r.r.r.r.r.r.r.q.r.r.r.r.r.r.r.r.r.r.r.p.| l ",
") t.r.r.r.r.r.1.# @ x M M @.q.r.r.r.r.r.r.r.r.r.r.r.r.r.r.r.r.r.r.r.r.r.r.u.| k ",
"} y.r.r.r.r.r.r...+ @ { K n 9.r.r.r.r.r.r.r.r.r.r.r.r.r.r.r.r.r.r.r.r.r.r.u.| k ",
"( r.r.r.r.r.r.r.F V : { *.n -.r.r.r.r.r.r.r.r.r.r.r.r.r.r.r.r.r.r.r.r.r.r.u.| k ",
"} r.r.r.r.r.r.r.@.m &.*.%.v >.y.r.r.r.r.r.r.r.r.r.r.r.r.r.r.r.r.r.r.r.r.r.u.| k ",
") t.r.r.r.r.r.r.q.D N D b F q.r.r.r.r.r.r.r.r.r.r.r.r.r.r.r.r.r.r.r.r.r.r.u.| k ",
") r.r.r.r.r.r.r.r.q.#.O.=.r.r.r.r.r.r.r.r.r.r.r.r.r.e.r.r.e.r.r.r.r.r.r.r.u.| k ",
"} a.p.p.p.p.u.a.u.u.u.p.u.p.u.u.p.p.p.p.p.p.u.u.u.u.u.u.u.u.u.u.u.u.u.u.p.a.;.k ",
"~ } } _ _ _ _ _ | _ _ _ _ | _ _ _ _  ._ _ _ _ | _ | | | | | _ _ | | _ _ |  .~ k ",
"~ ! l l l k l k k k k k k l l l k k k k k k k k k k k k k k k k k k k k k k k z "
};
