/* XPM */
static char *result[] = {
/* columns rows colors chars-per-pixel */
"40 40 131 2 ",
"   c #0B1D26",
".  c #1F1F21",
"X  c #222325",
"o  c #2F2F33",
"O  c #3D3437",
"+  c #33353A",
"@  c #38393E",
"#  c #542224",
"$  c #083244",
"%  c #2B3C41",
"&  c #553F45",
"*  c #37464A",
"=  c #316578",
"-  c #554A50",
";  c #52555D",
":  c #405765",
">  c #56747D",
",  c #61646B",
"<  c #72757D",
"1  c #FD0404",
"2  c #FA0B0C",
"3  c #F30F12",
"4  c #F80E10",
"5  c #ED1116",
"6  c #F61213",
"7  c #F41719",
"8  c #F31A1C",
"9  c #F01F22",
"0  c #D92D31",
"q  c #ED2427",
"w  c #EC272A",
"e  c #E73136",
"r  c #E53539",
"t  c #E3383D",
"y  c #B93548",
"u  c #C13242",
"i  c #DB3E43",
"p  c #E13E44",
"a  c #DE444A",
"s  c #DC484E",
"d  c #DA4D54",
"f  c #D25B63",
"g  c #CE646C",
"h  c #D06068",
"j  c #CC6770",
"k  c #C6737D",
"l  c #C87179",
"z  c #537095",
"x  c #5A7498",
"c  c #6E769C",
"v  c #757298",
"b  c #C27A85",
"n  c #C27E88",
"m  c #529FBB",
"M  c #6B89A4",
"N  c #7D8EA8",
"B  c #7C92AE",
"V  c #279DD0",
"C  c #3DAADC",
"Z  c #25ABE5",
"A  c #2DACE4",
"S  c #39ACE0",
"D  c #2DB1E7",
"F  c #34B3E7",
"G  c #3DB7E7",
"H  c #56A1CC",
"J  c #44ADDD",
"K  c #54ACD7",
"L  c #5AADD7",
"P  c #56B7DB",
"I  c #72A7C5",
"U  c #74ADCE",
"Y  c #7DAFCD",
"T  c #7EB0CD",
"R  c #64ADD3",
"E  c #6BAFD3",
"W  c #70AFD1",
"Q  c #6CB2D5",
"!  c #67B3D9",
"~  c #76B2D3",
"^  c #44B9E8",
"/  c #4EBEE8",
"(  c #6EC9E8",
")  c #75CBE8",
"_  c #7ACDE9",
"`  c #8D919D",
"'  c #BE848F",
"]  c #B98F9B",
"[  c #B9929D",
"{  c #8C99AF",
"}  c #9A9FAD",
"|  c #8196B2",
" . c #8398B3",
".. c #8E9BB0",
"X. c #879DBA",
"o. c #909CB1",
"O. c #A995A1",
"+. c #B596A3",
"@. c #B498A6",
"#. c #B19EAB",
"$. c #9BA1AE",
"%. c #95A0B4",
"&. c #B0A0AE",
"*. c #A0A5B4",
"=. c #AFA4B2",
"-. c #A2A8B6",
";. c #A4ACBB",
":. c #A9AFBE",
">. c #ABB0BF",
",. c #8DAEC7",
"<. c #92ACC2",
"1. c #9CAFC2",
"2. c #85B0CB",
"3. c #8BB1CA",
"4. c #94B1C7",
"5. c #9DB1C4",
"6. c #90B0C8",
"7. c #A6AFC1",
"8. c #A2B1C2",
"9. c #AEB3C0",
"0. c #AEB8C5",
"q. c #B0B4C1",
"w. c #B8B9C4",
"e. c #8BC2D0",
"r. c #9DC2D3",
"t. c #92CDDD",
"y. c #80CDE6",
"u. c #84D1E9",
"i. c #8AD4E9",
"p. c #94D6E9",
"a. c #98D8E9",
/* pixels */
" . . .| | | | | B | | | | | | | | | | | | | | | | |  .| | | | | B | | B  . .N B ",
" .>.>.>.:.;.:.:.:.:.:.:.:.:.:.:.:.:.:.;.:.:.;.:.:.:.:.:.:.:.:.:.:.:.:.:.>.>.%.B ",
" .>.>.>.>.>.>.>.:.>.:.>.:.:.:.:.:.:.:.:.:.9.9.>.:.:.:.:.>.:.:.:.:.>.>.>.>.>.%.z ",
" .>.>.>.:.:.;.:.:.:.:.:.:.:.:.:.:.:.:.:.;.:.:.:.:.;.< ` :.:.:.:.:.:.:.:.>.>.%.z ",
" .>.:.:.:.:.:.:.:.:.:.:.:.>.:.:.:.:.:.:.:.>.:.:.:.:.; X ` :.:.:.:.:.:.:.>.>.{ z ",
" .>.:.:.:.:.:.:.:.:.:.>.:.>.8.:.:.:.:.:.:.:.:.:.:.:.:.& . ` :.:.:.>.:.:.>.>.%.z ",
" .>.>.:.:.:.:.:.>.:.:.:.:.:.:.:.:.:.:.:.:.:.>.:.:.+.d i - X ` :.:.:.>.>.;.>.%.z ",
" .>.>.:.:.>.:.:.:.:.:.:.:.>.:.:.:.:.>.:.:.:.:.#.h 8 4 b :.; . ` :.>.>.>.>.>.{ z ",
" .>.>.:.:.:.:.>.:.:.:.:.>.:.:.:.:.:.:.:.:.:.k q 1 1 g :.:.;.; X M C C ~ :.0.%.z ",
" .>.>.:.:.>.:.:.:.:.>.:.:.:.:.:.:.>.:.:.:.:.s 2 1 w #.:.:.:.7.:   m ( D R >...z ",
" .>.>.:.:.:.:.>.>.:.:.:.:.:.:.:.:.:.:.:.:.&.d 6 2 f 7.:.:.:.>.C = * t._ Z 0...z ",
" .>.:.:.:.:.:.:.:.:.:.:.:.:.:.:.>.:.:.:.#.a 6 k f #.9.:.:.>.:.S ) e.a.i.Z 0.o.z ",
" .>.:.:.:.:.:.:.:.:.:.:.:.>.:.:.:.:.:.#.p 4 l :.:.:.:.:.:.:.:.Q F u.i.^ J >.o.z ",
" .>.>.:.:.:.:.:.:.:.:.:.:.:.:.;.T W } t 2 k :.:.:.:.:.9.:.:.:.8.! D Z J 5.>.o.z ",
" .>.>.:.:.:.:.:.:.>.>.>.:.:.5.A F H y 3 k :.:.:.:.:.:.:.:.>.:.:.:.5.5.>.>.>.o.z ",
" .>.>.:.:.:.>.:.>.;.;.>.:.:.E G r.p 6 v 1.:.:.:.:.:.:.:.:.:.:.:.:.>.>.>.>.>.o.z ",
"{ >.:.:.:.:.:.:.:.7.:.:.:.:.K U a 6 ] F 3.:.:.:.:.:.:.9.:.:.:.:.:.>.;.;.:.>.o.z ",
" .>.>.:.:.:.:.:.:.:.:.:.:.:.X.u 6 +.y.Z 1.:.:.9.:.:.:.:.:.:.:.7.:.:.>.>.>.>.o.z ",
" .:.>.:.:.:.:.:.:.:.:.:.:.@.e 5 c ^ Z E :.:.:.:.:.:.:.:.:.:.:.:.:.:.:.:.>.>.$.z ",
" .>.>.:.:.>.:.:.:.:.:.:.#.e 4 b ,.Y <.:.:.:.:.:.7.:.:.:.:.:.:.:.:.>.:.:.>.>...z ",
" .>.>.:.:.:.:.:.:.:.:.+.e 7 b :.:.:.:.:.:.:.:.7.:.:.:.:.:.:.:.:.:.:.:.:.>.>.o.z ",
" .>.:.:.:.:.:.:.:.:.=.r 4 n :.:.7.:.:.:.:.:.9.:.:.:.:.9.:.:.9.:.:.:.>.:.>.>.o.z ",
" .>.:.:.:.:.:.>.f f p 8 n :.:.:.:.:.:.:.:.:.:.:.:.:.:.:.:.:.:.:.:.:.>.>.>.>.o.z ",
" .>.:.:.:.:.:.] 7 4 7 ' :.:.>.:.:.:.:.:.7.:.:.:.:.:.:.:.:.:.:.:.>.:.>.>.>.>.o.z ",
" .>.>.:.:.:.>.p 1 1 4 b :.:.:.:.:.:.:.:.:.:.:.:.:.:.:.:.:.9.:.:.:.:.:.:.:.>.o.z ",
" .>.>.-.-.:.' 2 1 w j =.:.:.:.>.:.:.:.:.7.:.:.:.:.7.:.:.:.:.:.:.>.:.:.:.>.>.o.z ",
" .>.>., @ O.e 9 b =.:.:.:.:.:.:.:.:.:.9.:.:.:.:.:.:.:.:.:.:.:.:.:.:.>.:.>.>.%.z ",
" .>.>.$.+ # 0 [ :.:.:.:.:.:.:.:.:.:.:.:.:.:.:.:.:.:.:.:.:.:.:.:.:.:.:.:.>.>.} z ",
" .>.:.:.*.o O *.:.:.:.:.:.9.:.:.9.:.:.:.:.:.:.:.:.:.:.:.:.:.:.:.>.:.:.:.:.q.{ z ",
" .>.:.:.:.$.+ @ $.7.:.:.:.:.:.:.:.:.:.:.:.:.:.9.:.:.:.:.9.:.:.:.:.:.:.:.:.>.o.z ",
" .>.:.:.:.:.*.o + %.6.2.7.7.:.:.:.:.7.:.:.:.:.:.:.:.:.:.:.:.:.:.:.:.>.>.:.>.o.z ",
" .>.:.:.:.:.>.$.+ % V F A U :.:.:.:.:.:.:.:.:.9.:.:.:.:.7.:.:.:.:.:.>.>.>.>.o.z ",
" .>.>.:.:.:.:.:.I $ % t.) A 8.:.7.:.:.:.:.:.:.:.:.:.:.:.:.:.7.:.:.:.:.:.:.q.o.z ",
" .>.>.:.:.:.:.:.L P > t.a.D 3.:.:.:.:.:.:.:.:.:.:.:.:.:.:.:.:.:.:.:.:.:.:.q.o.z ",
"{ >.>.:.:.:.:.:.U G p.a.i.Z 4.:.:.:.:.:.:.:.:.9.:.:.:.7.:.:.:.:.:.9.:.:.:.q.o.z ",
" .>.:.:.:.:.:.:.9.J F / A K 7.:.:.:.:.:.:.:.:.:.:.:.:.:.:.:.:.:.:.:.:.:.:.q.o.z ",
" .>.>.:.:.:.:.:.:.7.Y E 2.7.:.:.:.:.:.:.:.:.:.:.:.:.:.:.:.:.:.:.:.:.:.:.:.9.o.z ",
"X.q.q.>.q.>.q.q.9.9.9.9.q.q.9.9.q.9.9.q.q.q.q.q.q.q.q.q.q.9.q.9.q.q.q.9.q.w.o.z ",
"B { { { { { { {  .{ { { { { ..{ { { { { { { { { { ..{ { { { { { { { { { { ..N z ",
"B M z z x z z z z z z z z z z z z z z z z z z z z z z z z z z z z z z z z z z x "
};
