/* XPM */
static char *result[] = {
/* columns rows colors chars-per-pixel */
"40 40 175 2 ",
"   c black",
".  c #020000",
"X  c #020202",
"o  c gray1",
"O  c #040404",
"+  c #060607",
"@  c #0C0000",
"#  c #1A1B1C",
"$  c #202022",
"%  c #242526",
"&  c #262729",
"*  c #2B2C2E",
"=  c #2D2E32",
"-  c #313234",
";  c #313337",
":  c #323336",
">  c #36373A",
",  c #7F0000",
"<  c #501E21",
"1  c #64373C",
"2  c #3B3D40",
"3  c #404145",
"4  c #414246",
"5  c #404348",
"6  c #47494D",
"7  c #46484E",
"8  c #484A50",
"9  c #524D53",
"0  c #4F5156",
"q  c #4E5057",
"w  c #55585F",
"e  c #56595F",
"r  c #59585F",
"t  c #74737C",
"y  c #72767E",
"u  c #D60101",
"i  c red",
"p  c #FE0101",
"a  c #FF0101",
"s  c #FE0303",
"d  c #FD0304",
"f  c #FE0505",
"g  c #FD0606",
"h  c #FC0707",
"j  c #FD0909",
"k  c #FA0B0C",
"l  c #F80E10",
"z  c #F61315",
"x  c #FB1111",
"c  c #F41618",
"v  c #F41719",
"b  c #F11C1F",
"n  c #F81B1C",
"m  c #ED2528",
"M  c #EB282B",
"N  c #EA2B2F",
"B  c #E53539",
"V  c #E3393E",
"C  c #E33A3F",
"Z  c #E23B40",
"A  c #E93F43",
"S  c #DA4B52",
"D  c #D6545B",
"F  c #D4585F",
"G  c #E94246",
"H  c #D15D65",
"J  c #CC6770",
"K  c #CA6B74",
"L  c #CA6C76",
"P  c #C96E77",
"I  c #537094",
"U  c #537095",
"Y  c #547094",
"T  c #547196",
"R  c #547296",
"E  c #5A7498",
"W  c #767982",
"Q  c #757984",
"!  c #7B7F88",
"~  c #C27C86",
"^  c #C27D88",
"/  c #7F838E",
"(  c #7F848F",
")  c #6B84A3",
"_  c #7D8EA8",
"`  c #7A91AD",
"'  c #7B91AD",
"]  c #7D93AF",
"[  c #7E94AF",
"{  c #81858E",
"}  c #858992",
"|  c #888C96",
" . c #8C909A",
".. c #BD8793",
"X. c #B8909C",
"o. c #BE929D",
"O. c #8C99AF",
"+. c #9195A0",
"@. c #9397A2",
"#. c #969BA6",
"$. c #9B9DA7",
"%. c #969BA8",
"&. c #999FAC",
"*. c #8196B2",
"=. c #8398B2",
"-. c #8298B3",
";. c #8398B3",
":. c #8399B3",
">. c #8499B3",
",. c #869BB5",
"<. c #879BB5",
"1. c #8D9BB0",
"2. c #8E9AB0",
"3. c #8F9CB1",
"4. c #909CB1",
"5. c #929DB2",
"6. c #B499A6",
"7. c #BD99A5",
"8. c #B29CA9",
"9. c #9BA0AC",
"0. c #9EA3AF",
"q. c #95A0B4",
"w. c #9FA4B0",
"e. c #B0A1AF",
"r. c #BBA2AE",
"t. c #AFA2B0",
"y. c #AEA4B2",
"u. c #AEA5B3",
"i. c #AEA5B4",
"p. c #A3A9B7",
"a. c #ACA9B7",
"s. c #A6ACBA",
"d. c #A8AEBD",
"f. c #A9AEBD",
"g. c #A9AFBD",
"h. c #AAAEBD",
"j. c #A8AEBE",
"k. c #A8AFBE",
"l. c #A9AFBE",
"z. c #A9AFBF",
"x. c #AAAEBE",
"c. c #AAAFBE",
"v. c #ABAFBE",
"b. c #ACAFBD",
"n. c #B6A4B1",
"m. c #AAB0BD",
"M. c #A9B0BE",
"N. c #AAB0BE",
"B. c #ABB0BE",
"V. c #ABB1BE",
"C. c #AAB0BF",
"Z. c #ABB0BF",
"A. c #ABB1BF",
"S. c #ACB0BE",
"D. c #ACB1BE",
"F. c #CD828B",
"G. c #C58791",
"H. c #A4B4C6",
"J. c #ADB1C0",
"K. c #AEB3C0",
"L. c #AFB3C0",
"P. c #AFB4C0",
"I. c #B0B4C0",
"U. c #B0B4C1",
"Y. c #B2B5C1",
"T. c #B2B5C2",
"R. c #B4B6C2",
"E. c #B4B8C5",
"W. c #B4B9C6",
"Q. c #B5BBC7",
"!. c #B7BBC6",
"~. c #B8B9C4",
"^. c #BBBFCC",
"/. c #BBC0CC",
"(. c #BFC3CE",
/* pixels */
"<.=.;.*.*.*.*.*.*.*.*.*.*.*.*.*.*.*.*.*.*.*.*.*.*.*.*.*.*.*.*.*.*.*.*.*.*.>.' [ ",
"=.m.C.d.d.d.d.d.d.d.d.d.d.d.d.d.d.d.d.d.d.d.d.d.d.d.d.d.d.d.d.d.d.d.d.d.d.L.4.' ",
":.K.J.Z.Z.Z.Z.Z.Z.Z.Z.Z.Z.Z.Z.Z.Z.Z.Z.Z.Z.Z.Z.Z.Z.Z.Z.Z.Z.Z.Z.Z.Z.Z.Z.Z.Z.Y.5.I ",
";.D.C.d.d.d.d.d.d.d.d.d.d.d.d.d.d.d.d.d.d.d.d.d.d.d.d.d.d.d.l.l.l.d.d.d.d.P.4.Y ",
";.D.Z.d.l.l.l.l.l.l.l.l.l.l.l.l.l.l.l.l.l.l.l.l.l.l.l.l.j.l.l.l.l.l.l.l.d.I.4.Y ",
";.D.Z.d.l.l.l.l.l.l.l.l.l.l.l.l.l.l.l.l.l.l.l.l.l.l.j.j.B.l.l.l.l.l.l.l.d.I.4.Y ",
";.D.Z.d.l.l.l.l.l.l.l.l.l.l.l.l.l.l.l.l.l.l.l.l.l.j.c.v.l.l.l.l.l.l.l.l.d.I.4.Y ",
";.D.Z.d.l.l.l.l.l.l.l.l.l.l.l.l.l.l.l.l.l.l.l.l.k.x.c.l.l.l.l.l.l.j.l.l.d.I.4.Y ",
";.D.Z.d.l.l.l.l.l.l.l.l.l.l.l.l.l.p.l.l.l.l.l.k.j.N.l.l.l.l.l.l.l.S.j.l.d.I.4.Y ",
";.D.Z.d.l.l.l.l.l.l.l.l.l.l.l.l.l.5 ; s.l.l.l.k.v.l.l.l.l.l.l.l.l.l.j.l.d.I.4.Y ",
";.D.Z.d.l.l.l.l.l.l.l.l.l.l.l.l.%.O q l.l.l.l.k.v.l.l.l.f.l.l.l.l.l.l.l.d.I.4.Y ",
";.D.Z.d.l.l.l.l.l.l.l.l.l.l.l.l.8 + &.l.l.l.l.k.d.l.l.l.l.M.l.l.l.l.l.l.d.I.4.Y ",
";.D.Z.d.l.l.l.l.l.l.l.l.l.l.l.&.+ 7 l.l.l.j.M.l.l.l.l.l.l.l.l.l.l.l.l.l.d.I.4.Y ",
";.D.Z.d.l.l.l.l.l.l.l.l.l.l.l.9 o %.l.j.l.l.l.l.l.l.l.l.l.l.l.l.l.l.l.l.d.I.4.Y ",
";.D.Z.d.l.l.l.l.l.l.l.l.l.l.l.@ < t.l.l.l.l.l.l.l.l.l.l.l.l.l.l.l.l.z.l.d.I.4.Y ",
";.D.Z.d.l.l.l.l.l.l.l.l.l.l.t . u s N D ~ t.l.l.l.l.l.l.l.l.l.l.l.z.l.l.d.I.4.Y ",
";.D.Z.d.l.l.l.l.l.l.l.l.l.Z.# 0 o.g i i i M l.l.l.l.l.z.z.l.l.l.l.l.l.l.d.I.4.Y ",
";.D.Z.d.l.l.l.l.l.l.l.l.l.y X w.l.J i a k L l.l.l.l.z.l.l.l.l.l.l.l.l.l.d.I.4.Y ",
";.D.Z.d.l.l.l.l.l.l.j.l.A.$ 6 l.l.l.B f x z 8.l.l.l.l.l.l.l.l.l.l.l.l.l.d.I.4.Y ",
";.D.Z.d.l.l.l.l.l.j.l.l.!   9.j.l.l.e.K n.n b i.z.l.l.l.l.l.l.l.l.l.l.l.d.I.4.Y ",
";.D.Z.d.l.l.l.l.l.M.l.C.& 4 l.l.l.l.l.l.l.7.j C l.l.l.l.l.l.l.l.l.l.l.l.d.I.4.Y ",
";.D.Z.d.l.l.l.l.l.l.l.{   @.l.l.l.l.l.l.l.l.F.i P l.l.l.l.l.l.l.l.l.l.l.d.I.4.Y ",
";.D.Z.d.l.l.l.l.l.l.l.- 2 l.l.l.l.l.l.l.l.l.l.A l u.l.l.l.l.l.l.l.l.l.l.d.I.4.Y ",
";.D.Z.d.l.l.l.l.g.l.|    .l.l.l.l.l.l.l.l.z.l.r.p F l.l.l.l.l.l.l.l.l.l.d.I.4.Y ",
";.D.Z.d.l.l.l.l.l.l.> : l.l.l.l.l.l.l.l.l.l.l.l.G h m ..l.l.l.l.l.l.l.l.d.I.4.Y ",
";.D.Z.d.l.j.M.j.l.+.  } l.l.l.l.l.l.l.l.z.l.l.X.d i i v l.l.l.l.l.l.l.l.d.I.4.Y ",
";.D.Z.d.l.M.l.l.l.3 * C.l.l.l.l.l.l.l.z.l.l.l.a.c i i M l.l.l.l.l.l.l.l.d.I.4.Y ",
";.D.Z.d.l.l.l.l.#.  ! l.l.l.l.l.l.l.l.l.l.l.l.l.^ i i Z l.l.l.l.l.l.l.l.d.I.4.Y ",
";.D.Z.d.k.l.l.l.6 % A.l.l.l.l.l.z.l.l.l.l.l.l.l.l.V i S l.l.l.l.l.l.l.l.d.I.4.Y ",
";.D.Z.d.j.l.l.0.  W l.l.l.l.l.l.l.l.l.l.l.l.l.l.l.G.i H l.l.l.l.l.l.l.l.d.I.4.Y ",
";.D.Z.d.j.l.l.=   e w w w w w w w w w w w w w w w r , 1 w w w w w ( l.l.d.I.4.Y ",
";.D.Z.d.j.f.Q                                                     w l.l.d.I.4.Y ",
";.D.Z.d.l.^.$./ !.(./.H.W.W.W.W.W.W.W.W.W./.(.Q.W.E.6.y.l.l.l.l.l.l.l.l.d.I.4.Y ",
";.D.Z.d.l.l.j.b.l.l.l.l.l.l.l.l.l.l.l.l.l.l.l.l.l.l.l.l.l.l.l.l.l.l.l.l.d.I.4.Y ",
";.D.Z.d.l.l.l.j.h.l.l.l.l.l.l.z.l.l.l.l.l.l.l.l.l.l.l.l.l.l.l.l.l.l.l.l.d.I.4.Y ",
";.D.Z.d.l.l.l.l.k.d.l.l.l.l.z.l.l.l.l.l.l.l.l.l.l.l.l.l.l.l.l.l.l.l.l.l.d.I.4.Y ",
"-.V.C.d.d.d.d.d.d.d.d.d.d.d.d.d.d.d.d.d.d.d.d.d.d.d.d.d.d.d.d.d.d.d.d.d.d.P.3.Y ",
",.R.T.I.U.U.U.U.U.U.U.U.U.U.U.U.U.U.U.U.U.U.U.U.U.U.U.U.U.U.U.U.U.U.U.U.I.~.q.I ",
"` 1.2.O.O.O.O.O.O.O.O.O.O.O.O.O.O.O.O.O.O.O.O.O.O.O.O.O.O.O.O.O.O.O.O.O.O.4._ T ",
"] ) U U U U U U U U U U U U U U U U U U U U U U U U U U U U U U U U U U U U R E "
};
