/* XPM */
static char *result[] = {
/* columns rows colors chars-per-pixel */
"40 40 181 2 ",
"   c black",
".  c #020000",
"X  c #020202",
"o  c #030304",
"O  c #050506",
"+  c #0C0000",
"@  c #070808",
"#  c #1D1E1F",
"$  c #242527",
"%  c #292A2C",
"&  c #2B2C2E",
"*  c #313234",
"=  c #36383C",
"-  c #38393C",
";  c #393A3E",
":  c #7F0000",
">  c #582629",
",  c #3D3F45",
"<  c #3E4043",
"1  c #44464A",
"2  c #494B4F",
"3  c #4B4D52",
"4  c #50535A",
"5  c #53555A",
"6  c #53555B",
"7  c #71444A",
"8  c #575A62",
"9  c #595C64",
"0  c #5D5F66",
"q  c #656068",
"w  c #61646D",
"e  c #6C6B74",
"r  c #696C75",
"t  c #6A6D77",
"y  c #D60101",
"u  c red",
"i  c #FF0101",
"p  c #FF0202",
"a  c #FE0304",
"s  c #FE0405",
"d  c #FE0506",
"f  c #FE0707",
"g  c #FD0909",
"h  c #FE0A0A",
"j  c #FC0E0F",
"k  c #FB1214",
"l  c #FD1314",
"z  c #FA181A",
"x  c #F91B1E",
"c  c #F91D20",
"v  c #FB1F20",
"b  c #F82326",
"n  c #F62E32",
"m  c #F53236",
"M  c #F4363B",
"N  c #F24248",
"B  c #F1474D",
"V  c #F1484E",
"C  c #F44A4F",
"Z  c #F04A50",
"A  c #F44D52",
"S  c #EC5E66",
"D  c #EA6871",
"F  c #E96D77",
"G  c #E8747E",
"H  c #678BB8",
"J  c #678BBA",
"K  c #678CB8",
"L  c #688CB9",
"P  c #698DBB",
"I  c #698EBB",
"U  c #7091BE",
"Y  c #898D98",
"T  c #8E8D99",
"R  c #8E929C",
"E  c #9297A5",
"W  c #9499A4",
"Q  c #9BA0AB",
"!  c #9EA3B2",
"~  c #9FA4B2",
"^  c #A0A5B1",
"/  c #A4A9B6",
"(  c #A9ADBB",
")  c #E5808B",
"_  c #E48591",
"`  c #E48793",
"'  c #E38995",
"]  c #E09AA7",
"[  c #E59BA7",
"{  c #E09CA9",
"}  c #DDA8B7",
"|  c #E1A4B1",
" . c #84A2C7",
".. c #9AB3D1",
"X. c #9CB1D2",
"o. c #9CB3D2",
"O. c #9EB6D4",
"+. c #9FB7D4",
"@. c #AFB4C2",
"#. c #B2B7C5",
"$. c #B7BAC5",
"%. c #B6BBC9",
"&. c #A7BBD6",
"*. c #A7BCD7",
"=. c #A9BDD7",
"-. c #A9BED8",
";. c #A9BFD8",
":. c #ABBFD8",
">. c #ACBFD9",
",. c #AEBFDA",
"<. c #AFBFDA",
"1. c #DEB2C0",
"2. c #DBB4C3",
"3. c #DDBAC9",
"4. c #D9BFCF",
"5. c #AEC1DA",
"6. c #AEC2DA",
"7. c #BBC1D2",
"8. c #BCC1D1",
"9. c #BFC5D7",
"0. c #B1C0DC",
"q. c #B0C1DC",
"w. c #B2C3DD",
"e. c #B3C3DD",
"r. c #B4C3DD",
"t. c #B6C4DE",
"y. c #BAC8E0",
"u. c #C0C5D5",
"i. c #C1C7D6",
"p. c #D8C2D3",
"a. c #DCC4D4",
"s. c #D6C9DA",
"d. c #D6CADB",
"f. c #D6CCDE",
"g. c #D6CDDF",
"h. c #DAC9D9",
"j. c #D5CEE0",
"k. c #CCD2E5",
"l. c #CFD6E8",
"z. c #C4D9EF",
"x. c #D5D2E5",
"c. c #D6DBE9",
"v. c #D1D9EC",
"b. c #D1D9ED",
"n. c #D2D9EC",
"m. c #D3D9EC",
"M. c #D2D9ED",
"N. c #D3DAEC",
"B. c #D2DAED",
"V. c #D3DAED",
"C. c #D3DBED",
"Z. c #D3DAEE",
"A. c #D4D9EC",
"S. c #D4D9ED",
"D. c #D4DBEC",
"F. c #D4DAED",
"G. c #D5DAED",
"H. c #D4DBED",
"J. c #D5DBED",
"K. c #D7DAEC",
"L. c #D6DBED",
"P. c #D4DBEE",
"I. c #D5DBEE",
"U. c #D5DDED",
"Y. c #D6DDED",
"T. c #D9DEEE",
"R. c #D9DFEF",
"E. c #DADFEF",
"W. c #D8DDF0",
"Q. c #D9DFF0",
"!. c #DAE0F0",
"~. c #DBE0F0",
"^. c #DCE0F0",
"/. c #DCE0F1",
"(. c #DCE1F1",
"). c #DCE2F1",
"_. c #DEE2F1",
"`. c #DEE2F2",
"'. c #DEE3F2",
"]. c #E0E3F2",
"[. c #E6E7F5",
/* pixels */
"5.;.=.&.*.*.*.*.*.*.*.*.*.*.*.*.*.*.*.*.*.*.*.*.*.*.*.*.*.*.*.*.*.*.*.*.&.>.o.+.",
"-.D.P.v.n.n.n.n.n.n.n.n.n.n.n.n.n.n.n.n.n.n.n.n.n.n.n.n.n.n.n.n.n.n.n.n.v.E.e.o.",
":.R.W.I.I.I.I.I.I.I.I.I.I.I.I.I.I.I.I.I.I.I.I.I.I.I.I.I.I.I.I.I.I.I.I.I.I._.t.K ",
"-.Y.P.n.n.n.n.n.n.n.n.n.n.n.n.n.n.n.n.n.n.n.n.n.n.n.n.n.n.n.V.V.V.n.n.n.n.!.e.L ",
"-.Y.I.n.V.V.V.V.V.V.V.V.V.V.V.V.V.V.V.V.V.V.V.V.V.V.V.V.M.V.V.V.V.V.V.V.n.~.e.L ",
"-.Y.I.n.V.V.V.V.V.V.V.V.V.V.V.V.V.V.V.V.V.V.V.V.V.V.M.b.J.V.V.V.V.V.V.V.n.~.e.L ",
"-.Y.I.n.V.V.V.V.V.V.V.V.V.V.V.V.V.V.V.V.V.V.V.V.V.M.F.G.V.V.V.V.V.V.V.V.n.~.e.L ",
"-.Y.I.n.V.V.V.V.V.V.V.V.V.V.V.V.V.V.V.V.V.V.V.V.B.S.F.V.V.V.V.V.V.b.V.V.n.~.e.L ",
"-.Y.I.n.V.V.V.V.V.V.V.V.V.V.V.V.V.k.V.V.V.V.V.B.M.H.V.V.V.V.V.V.V.L.M.V.n.~.e.L ",
"-.Y.I.n.V.V.V.V.V.V.V.V.V.V.V.V.V.4 , l.V.V.V.B.G.V.V.V.V.V.V.V.V.V.b.V.n.~.e.L ",
"-.Y.I.n.V.V.V.V.V.V.V.V.V.V.V.V.7.O w V.V.V.V.B.G.V.V.V.m.V.V.V.V.V.V.V.n.~.e.L ",
"-.Y.I.n.V.V.V.V.V.V.V.V.V.V.V.V.9 @ 9.V.V.V.V.B.n.V.V.V.V.C.V.V.V.V.V.V.n.~.e.L ",
"-.Y.I.n.V.V.V.V.V.V.V.V.V.V.V.9.@ 8 V.V.V.M.C.V.V.V.V.V.V.V.V.V.V.V.V.V.n.~.e.L ",
"-.Y.I.n.V.V.V.V.V.V.V.V.V.V.V.q o 7.V.M.V.V.V.V.V.V.V.V.V.V.V.V.V.V.V.V.n.~.e.L ",
"-.Y.I.n.V.V.V.V.V.V.V.V.V.V.V.+ > d.V.V.V.V.V.V.V.V.V.V.V.V.V.V.V.V.Z.V.n.~.e.L ",
"-.Y.I.n.V.V.V.V.V.V.V.V.V.V.T . y a M D ] d.V.V.V.V.V.V.V.V.V.V.V.Z.V.V.n.~.e.L ",
"-.Y.I.n.V.V.V.V.V.V.V.V.V.N.# 0 1.f u u u m V.V.V.V.V.Z.Z.V.V.V.V.V.V.V.n.~.e.L ",
"-.Y.I.n.V.V.V.V.V.V.V.V.V.Y X i.V.) u i j ` V.V.V.V.Z.V.V.V.V.V.V.V.V.V.n.~.e.L ",
"-.Y.I.n.V.V.V.V.V.V.M.V.V.$ 6 V.V.V.N d l z p.V.V.V.V.V.V.V.V.V.V.V.V.V.n.~.e.L ",
"-.Y.I.n.V.V.V.V.V.M.V.V.W   8.M.V.V.s._ h.v b j.Z.V.V.V.V.V.V.V.V.V.V.V.n.~.e.L ",
"-.Y.I.n.V.V.V.V.V.C.V.F.& 3 V.V.V.V.V.V.V.3.h V V.V.V.V.V.V.V.V.V.V.V.V.n.~.e.L ",
"-.Y.I.n.V.V.V.V.V.V.V.Q   #.V.V.V.V.V.V.V.V.[ u ' V.V.V.V.V.V.V.V.V.V.V.n.~.e.L ",
"-.Y.I.n.V.V.V.V.V.V.V.- 1 V.V.V.V.V.V.V.V.V.V.C k g.V.V.V.V.V.V.V.V.V.V.n.~.e.L ",
"-.Y.I.n.V.V.V.V.N.V./   ( V.V.V.V.V.V.V.V.Z.V.a.p F V.V.V.V.V.V.V.V.V.V.n.~.e.L ",
"-.Y.I.n.V.V.V.V.V.V.< ; V.V.V.V.V.V.V.V.V.V.V.V.A g n } V.V.V.V.V.V.V.V.n.~.e.L ",
"-.Y.I.n.V.M.C.M.V.@.  ^ V.V.V.V.V.V.V.V.Z.V.V.2.s u u c V.V.V.V.V.V.V.V.n.~.e.L ",
"-.Y.I.n.V.C.V.V.V.2 * F.V.V.V.V.V.V.V.Z.V.V.V.x.x u u m V.V.V.V.V.V.V.V.n.~.e.L ",
"-.Y.I.n.V.V.V.V.%.  W V.V.V.V.V.V.V.V.V.V.V.V.V.{ u u Z V.V.V.V.V.V.V.V.n.~.e.L ",
"-.Y.I.n.B.V.V.V.5 % H.V.V.V.V.V.Z.V.V.V.V.V.V.V.V.B u S V.V.V.V.V.V.V.V.n.~.e.L ",
"-.Y.I.n.M.V.V.u.  R V.V.V.V.V.V.V.V.V.V.V.V.V.V.V.| u G V.V.V.V.V.V.V.V.n.~.e.L ",
"-.Y.I.n.M.V.V.=   r t t t t t t t t t t t t t t t e : 7 t t t t t ~ V.V.n.~.e.L ",
"-.Y.I.n.M.m.E                                                     t V.V.n.~.e.L ",
"-.Y.I.n.V.(.$.! c.'.).z.R.R.R.R.R.R.R.R.R.).'.Q.R.T.4.f.V.V.V.V.V.V.V.V.n.~.e.L ",
"-.Y.I.n.V.V.b.K.V.V.V.V.V.V.V.V.V.V.V.V.V.V.V.V.V.V.V.V.V.V.V.V.V.V.V.V.n.~.e.L ",
"-.Y.I.n.V.V.V.M.A.V.V.V.V.V.V.Z.V.V.V.V.V.V.V.V.V.V.V.V.V.V.V.V.V.V.V.V.n.~.e.L ",
"-.Y.I.n.V.V.V.V.B.n.V.V.V.V.Z.V.V.V.V.V.V.V.V.V.V.V.V.V.V.V.V.V.V.V.V.V.n.~.e.L ",
"=.U.P.n.n.n.n.n.n.n.n.n.n.n.n.n.n.n.n.n.n.n.n.n.n.n.n.n.n.n.n.n.n.n.n.n.n.!.w.L ",
"6.].`.^././././././././././././././././././././././././././././././././.^.[.y.H ",
"..q.0.,.<.<.<.<.<.<.<.<.<.<.<.<.<.<.<.<.<.<.<.<.<.<.<.<.<.<.<.<.<.<.<.<.,.r.X.P ",
"O. .J J J J J J J J J J J J J J J J J J J J J J J J J J J J J J J J J J J J I U "
};
