/* XPM */
static char *result[] = {
/* columns rows colors chars-per-pixel */
"40 40 112 2 ",
"   c #010102",
".  c #070808",
"X  c #0C0C0D",
"o  c #131314",
"O  c #171718",
"+  c #18191A",
"@  c #1D1E21",
"#  c #1F2022",
"$  c #212224",
"%  c #242528",
"&  c #27282C",
"*  c #292B2E",
"=  c #2D2E31",
"-  c #333336",
";  c #35373B",
":  c #37383D",
">  c #3A3B3E",
",  c #125775",
"<  c #42454A",
"1  c #48494E",
"2  c #4A4C51",
"3  c #4F5259",
"4  c #515257",
"5  c #54565D",
"6  c #595B62",
"7  c #64676E",
"8  c #636770",
"9  c #676B74",
"0  c #6B6E77",
"q  c #6C6F78",
"w  c #72757D",
"e  c #777B86",
"r  c #787B84",
"t  c #797D88",
"y  c #5B8AA3",
"u  c #678BBA",
"i  c #688CB9",
"p  c #7091BE",
"a  c #329DCD",
"s  c #07A4E7",
"d  c #0EA6E7",
"f  c #0DA6E8",
"g  c #13A7E8",
"h  c #15A9E8",
"j  c #1AAAE8",
"k  c #24AEE8",
"l  c #2DAFE9",
"z  c #2BB1E8",
"x  c #35B3E9",
"c  c #3EB8E8",
"v  c #44BAE8",
"b  c #4EB9EB",
"n  c #54BCEA",
"m  c #5EBDEB",
"M  c #60BEEC",
"N  c #54C0E8",
"B  c #5EC3E9",
"V  c #64C5E9",
"C  c #69C7E9",
"Z  c #6DC9E9",
"A  c #7DC4EB",
"S  c #75CCE9",
"D  c #828692",
"F  c #868A95",
"G  c #8A8F9B",
"H  c #8D919D",
"J  c #8F94A1",
"K  c #9296A4",
"L  c #9A9EAC",
"P  c #A4A9B6",
"I  c #A7ABB8",
"U  c #84A2C7",
"Y  c #9DB4D3",
"T  c #AEB4C3",
"R  c #B0B5C3",
"E  c #B6BCCB",
"W  c #B8BECE",
"Q  c #A7BCD7",
"!  c #A9BDD7",
"~  c #ACBFD9",
"^  c #BBC0CE",
"/  c #AEC2DA",
"(  c #BDC3D3",
")  c #B3C3DD",
"_  c #81C6EC",
"`  c #8CC9EC",
"'  c #94CBEC",
"]  c #98CBEC",
"[  c #87D2E9",
"{  c #8BD4E9",
"}  c #94D7E9",
"|  c #97D8EA",
" . c #99D9EA",
".. c #BAC8E0",
"X. c #A5D0ED",
"o. c #ABD2ED",
"O. c #B4D4ED",
"+. c #BCD6ED",
"@. c #C5CBDD",
"#. c #C9CEDE",
"$. c #C7CEE0",
"%. c #CCD2E4",
"&. c #C3D6EC",
"*. c #CFD6E8",
"=. c #C3D9EE",
"-. c #CEDAEE",
";. c #D1D7E9",
":. c #D3DAED",
">. c #DADFEF",
",. c #D8DDF0",
"<. c #DCE0F1",
"1. c #E3E5F4",
/* pixels */
"/ ! ! Q Q Q Q Q Q Q Q Q Q Q Q Q Q Q Q Q Q Q Q Q Q Q Q Q Q Q Q Q Q Q Q Q Q ! Y Q ",
"! :.:.:.:.:.:.;.:.:.:.:.:.;.;.:.:.:.:.;.:.:.:.;.:.:.:.:.:.;.;.:.:.:.:.:.:.,.) Y ",
"/ >.<.:.:.:.:.:.:.:.:.:.:.:.:.:.:.:.:.:.:.:.:.:.:.:.:.:.:.:.:.,.:.:.:.:.:.<.) i ",
"! :.:.:.:.:.:.:.:.:.:.:.:.:.:.:.:.:.:.:.&.M h k A :.:.:.:.:.:.:.:.:.:.;.:.<.) i ",
"! >.:.:.:.:.:.:.:.:.:.:.:.:.:.:.:.:.:.&.l x C B h n :.:.:.:.:.:.:.:.:.:.:.<.) i ",
"/ :.:.:.:.:.:.:.:.:.:.:.:.:.$.F < % X , k |  . .` f +.:.:.:.:.:.:.:.:.:.;.>.) i ",
"Q :.:.:.:.:.:.:.:.:.:.:.W 3 .   + 5 8 a N  . . . .z _ :.:.:.:.:.:.:.:.:.:.<.) i ",
"/ :.:.:.:.:.:.:.:.:.%.6 . X q ^ :.:.:.M v  . . .| h ] :.:.:.:.:.:.:.:.:.-.<.) i ",
"/ >.:.;.:.:.:.:.:.( *   8 *.:.:.:.:.:.X.f S  .| N h -.:.:.:.:.:.:.:.:.:.:.,.) i ",
"Q :.:.:.:.:.:.:.E O O T :.:.:.:.:.:.:.:._ s j g j o.:.:.:.:.:.:.:.:.:.:.:.<.) i ",
"/ :.:.:.:.:.:.@.# # ( :.:.:.:.:.:.:.:.:.,.=.A ` :.:.:.:.:.:.:.:.:.:.:.:.:.<.) i ",
"/ >.:.:.:.:.;.; X W :.:.:.:.:.:.:.:.:.:.:.:.:.:.:.:.:.:.:.:.:.:.:.:.:.:.:.>.) i ",
"Q :.:.:.:.:.H   L :.:.:.:.:.:.:.:.:.:.:.:.:.:.:.:.:.:.:.:.:.:.:.:.:.:.:.:.<.) i ",
"/ :.:.:.:.;.@ > :.:.:.:.:.:.:.:.:.:.:.-.:.:.:.:.:.:.:.:.:.:.:.:.:.:.:.:.;.>.) i ",
"/ :.:.:.:.G   R :.:.:.:.:.:.:.:.:.:.:.:.:.:.:.:.:.:.:.:.:.:.:.:.:.:.:.:.:.<.) i ",
"Q :.:.:.:.< - :.:.:.:.:.:.:.:.:.:.:.:.:.:.:.:.:.:.:.-.:.:.:.:.:.:.:.:.:.:.<.) i ",
"! >.:.:.@.. 0 :.:.:.:.:.:.:.:.:.:.:.=.A ` -.:.:.:.:.:.:.:.:.:.:.:.:.:.:.:.<.) i ",
"! :.:.:.L   E :.:.:.:.:.:.:.:.:.:._ s j g j o.:.:.:.:.:.:.:.:.:.:.:.:.:.:.<.) i ",
"! :.:.:.D   *.:.:.:.:.:.:.:.:.:.X.g S  .| n j -.:.:.:.:.:.:.:.:.:.:.:.:.-.>.) i ",
"/ >.:.:.q   :.:.:.-.:.:.:.:.:.:.M v  . . .| j ] :.:.:.:.:.:.:.:.:.:.:.:.;.<.) i ",
"Q >.:.:.8 . :.:.:.:.:.:.-.:.:.:.b N  . . . .z _ :.:.:.:.:.:.:.:.:.:.:.:.;.>.) i ",
"! :.:.;.e   :.:.:.:.:.:.:.:.:.:.A k | |  .[ f O.:.:.:.:.:.:.:.' x d b O.:.>.) i ",
"/ >.:.:.H   $.:.:.:.:.:.:.:.:.:.-.l z C B h n :.:.:.:.:.:.:.` f n C c g O.>.) i ",
"Q >.:.:.T   J :.:.:.:.:.:.:.:.:.:.=.M g k A ,.:.:.:.:.:.:.-.h Z  . . .v n ,.) i ",
"Q :.:.:.:.@ 5 :.:.:.:.:.:.:.:.:.:.:.:.:.:.:.:.:.:.:.:.:.:.O.f |  . . .S j ,.) i ",
"/ >.:.:.:.7 X :.:.:.:.:.:.:.:.:.:.:.:.:.:.:.:.:.:.:.:.:.:.=.f {  .|  .V l ,.) i ",
"Q :.:.:.:.E . r :.:.:.:.:.:.:.:.:.:.:.:.:.:.:.:.:.:.:.:.:.:.c x } | [ h _ 1.) i ",
"/ -.:.:.:.:.5 . %.:.:.:.:.:.:.:.:.:.:.:.:.:.:.:.:.:.:.:.:.:.+.k s k d m :.,.) i ",
"/ >.:.:.:.:.( . 2 :.:.:.:.:.:.:.:.:.:.:.:.:.:.:.:.:.:.:.:.:.I X y M &.:.:.<.~ i ",
"Q :.:.:.:.:.;.H   q :.:.:.:.:.:.:.:.:.:.:.:.:.:.:.:.:.:.:.W o : ;.:.,.:.;.1.) u ",
"/ :.:.:.:.:.:.:.9   0 :.:.:.:.:.:.:.:.:.:.:.:.:.:.:.:.:.R + @ @.:.:.:.:.:.<.) p ",
"/ :.:.:.:.;.:.:.:.0   1 $.:.:.:.:.:.:.:.:.:.:.:.:.:.:.J . & W ;.:.:.:.:.;.<.~ u ",
"/ :.:.:.:.:.:.:.:.:.J . . r ;.;.:.:.:.:.:.:.:.:.:.P =   < %.:.:.:.:.:.:.:.,.~ u ",
"Q :.:.:.:.:.:.:.:.:.:.W 5     4 D ( *.:.;.#.P 7 $   % K :.:.:.:.:.:.:.:.:.,...u ",
"/ >.:.:.:.:.:.;.:.:.:.:.:.W 8 @               . < J ;.:.:.:.:.:.:.:.:.:.:.,.) u ",
"/ :.:.:.:.:.:.:.:.:.:.:.:.:.:.:.T J e e w D L %.:.:.:.:.:.:.:.:.:.:.:.:.:.,.) u ",
"Q ;.:.:.:.;.:.:.:.:.:.:.;.:.:.:.,.:.:.:.:.:.:.:.:.:.:.:.:.:.:.:.:.;.:.:.:.<.) u ",
"/ 1.<.>.<.<.,.1.,.<.<.<.,.,.<.<.,.,.,.,.<.<.<.1.<.<.,.1.<.,.<.<.<.,.<.<.<.1.$.u ",
"Y / / / / / ~ ~ ~ ~ ~ ) ~ ~ ~ ~ X.~ ~ ~ ~ ~ ~ ~ ~ ~ ~ ~ ~ ~ ~ ) ) ~ ~ ~ ~ ..Y u ",
"Y U i i i u u u u u u u u u p i p t p u u u u u u u i u i i i i u u u u u u u p "
};
