/* XPM */
static char *result[] = {
/* columns rows colors chars-per-pixel */
"40 40 112 2 ",
"   c #020202",
".  c #070708",
"X  c #0C0C0C",
"o  c #141516",
"O  c #17181A",
"+  c #1B1B1D",
"@  c #1C1E20",
"#  c #1F2023",
"$  c #212225",
"%  c #28292B",
"&  c #2C2D30",
"*  c #323336",
"=  c #34363A",
"-  c #37393D",
";  c #3D3E42",
":  c #125775",
">  c #41444A",
",  c #46484C",
"<  c #474950",
"1  c #4B4D51",
"2  c #4F5259",
"3  c #53555C",
"4  c #55585F",
"5  c #575B62",
"6  c #5A5D63",
"7  c #61636B",
"8  c #65686E",
"9  c #676B74",
"0  c #696C76",
"q  c #64707E",
"w  c #6E727B",
"e  c #71757F",
"r  c #4D7B93",
"t  c #537095",
"y  c #5A7498",
"u  c #737781",
"i  c #767A82",
"p  c #7A7E89",
"a  c #6B84A3",
"s  c #7D8EA8",
"d  c #7C92AE",
"f  c #2E98C8",
"g  c #209FD7",
"h  c #06A2E6",
"j  c #0CA4E6",
"k  c #0CA6E8",
"l  c #14A5E5",
"z  c #1FA7E3",
"x  c #15A9E8",
"c  c #1AABE8",
"v  c #24A8E3",
"b  c #2BAAE3",
"n  c #23AEE8",
"m  c #38ABE0",
"M  c #2BB1E8",
"N  c #37B5E8",
"B  c #3EB8E8",
"V  c #46AEDD",
"C  c #51AEDC",
"Z  c #4AB0DE",
"A  c #75AFCF",
"S  c #7DB0CF",
"D  c #65AED3",
"F  c #69ABD0",
"G  c #6CB2D5",
"H  c #73B2D4",
"J  c #7BB2D1",
"K  c #43AFE0",
"L  c #44BAE8",
"P  c #52BFE9",
"I  c #54C0E8",
"U  c #5EC3E9",
"Y  c #64C5E9",
"T  c #69C7E9",
"R  c #6DC9E9",
"E  c #75CCE9",
"W  c #82858E",
"Q  c #888C96",
"!  c #8B8F9A",
"~  c #8D919D",
"^  c #8F94A1",
"/  c #8C99AF",
"(  c #9296A2",
")  c #959AA6",
"_  c #969BA9",
"`  c #989DA8",
"'  c #8196B2",
"]  c #8398B3",
"[  c #8E9BB0",
"{  c #909CB1",
"}  c #9DA2AD",
"|  c #95A0B4",
" . c #9EA3B1",
".. c #A1A6B5",
"X. c #A4AAB7",
"o. c #A7ACBA",
"O. c #A9AFBE",
"+. c #ABB0BF",
"@. c #8BB3CD",
"#. c #95B4CA",
"$. c #9CB5C9",
"%. c #A2AFC0",
"&. c #A6B3C3",
"*. c #ACB2C1",
"=. c #A3B7C9",
"-. c #B0B4C1",
";. c #B8B9C4",
":. c #87D2E9",
">. c #8BD4E9",
",. c #94D7E9",
"<. c #97D8EA",
"1. c #99D9EA",
/* pixels */
"] ] ] ' ' d ] ' ' ' ' ' ' ' ' ' ' ' ' ' ' ' ' ' ' ' ' ' ' ' ' ' d ] ' d ] ] d ' ",
"] +.+.+.O.O.O.O.O.O.O.O.o.O.O.O.O.O.O.o.o.O.O.O.O.o.o.o.*.o.o.*.o.O.O.O.+.*.{ d ",
"] +.+.+.O.O.+.+.O.O.+.+.O.O.O.O.O.O.O.O.O.*.O.O.*.*.O.*.%.*.*.*.+.+.+.+.*.-.{ t ",
"] +.+.+.O.O.O.O.O.O.O.O.O.O.O.O.O.O.O.O.O.&.C l z D *.o.o.o.*.o.O.O.O.O.O.*.{ t ",
"] +.O.O.O.O.O.O.O.O.+.O.+.O.O.O.O.O.O.O.%.b M R U z K *.*.*.%.o.O.O.O.O.+.-.{ t ",
"] +.O.O.O.O.O.O.O.O.O.O.O.O.O...w - + X : n 1.1.1.:.j #.*.o.o.*.O.O.O.O.O.-.{ t ",
"] +.+.O.O.O.O.O.O.O.O.O.O.) >     O 1 3 f P 1.1.1.1.b F *.*.*.*.O.O.+.+.o.*.[ t ",
"] +.O.O.+.O.O.O.+.O.O.X.<   X 5 ` +.O.O.C L 1.1.1.<.l S o.o.*.o.O.O.+.+.+.+.[ t ",
"] +.+.O.O.+.O.O.O.O._ $ . 3 O.O.O.O.O.O.@.j E 1.<.P l *.*.*.o.*.O.+.O.O.O.+.| t ",
"] +.+.O.O.O.O.O.O.^ o o ~ O.O.O.O.O.O.O.&.G h c l l @.o.%.o.o.*.O.O.O.O.+.-.[ t ",
"] +.+.O.O.O.O.O. .+ + } +.O.O.O.O.O.O.*.*.%.%.F A %.*.*.o.o.*.o.O.O.O.O.O.+.| t ",
"] +.O.O.O.O.+.O.& X ) O.O.O.O.%.O.O.O.O.o.*.O.O.*.*.%.*.*.*.o.*.O.O.O.O.o.*._ t ",
"] +.+.O.O.O.O.w   W O.O.+.O.O.O.O.O.O.*.O.O.O.O.O.O.O.O.o.*.O.O.O.O.O.+.+.-.{ t ",
"/ +.+.o.O.O.O.+ * O.O.O.O.O.O.O.O.O.O.O.O.O.O.O.O.O.O.O.*.o.O.O.O.O.O.O.+.+.{ t ",
"] +.+.O.O.O.w   ^ O.O.O.O.O.+.O.O.O.O.O.O.O.*.O.O.O.O.O.O.O.O.O.O.O.+.+.+.+.[ t ",
"] +.+.O.+.O.= % O.O.+.O.O.O.O.O.O.O.O.O.O.O.O.O.O.O.O.*.O.O.O.O.O.O.+.+.+.+.[ t ",
"[ +.O.O.O.... 6 O.O.O.O.O.O.O.O.O.O.O.&.F A &.*.*.*.O.&.O.O.O.O.O.O.O.O.O.*.| t ",
"' +.O.O.O.p   ` O.O.O.O.O.O.*.O.O.O.G h c l l @.*.%.O.O.O.O.O.O.O.O.O.O.+.+.[ t ",
"] +.O.O.O.9   O.O.O.O.O.O.O.O.O.*.@.j E 1.1.P l %.O.O.O.O.O.O.O.O.O.O.+.+.+.| t ",
"] +.O.O.O.4   *.O.O.O.O.O.O.O.O.O.C L 1.1.1.1.c @.O.O.O.O.O.O.O.+.O.O.o.O.+._ t ",
"] +.+.O.*.2 . O.O.*.O.O.o.*.o.O.%.K P 1.1.1.1.b F O.*.O.O.*.O.O.+.O.O.+.+.+.{ t ",
"] +.+.O.%.7   +.O.O.O.O.*.o.*.o.O.G n 1.1.1.:.j #.O.O.O.O.O.O.O.J b j V #.-.{ t ",
"] +.+.O.*.w   o.O.O.O.O.%.*.*.o.O.%.v M T U x K O.O.O.O.O.O.O.H j I R B j $.{ t ",
"] +.O.O.*.~   u O.O.O.O.o.*.o.*.O.O.%.C l v G &.O.O.O.O.O.O.&.l R 1.1.1.L Z { t ",
"] +.O.O.O.O.O 1 *.o.%.*.o.*.*.o.O.O.*.O.O.O.O.O.O.O.O.O.O.O.#.j ,.1.1.1.E l { t ",
"] +.+.O.O.O.3 X *.o.o.*.*.o.*.o.O.O.O.O.O.O.O.*.O.*.O.O.O.O.=.j >.1.1.1.Y b { t ",
"] +.+.O.O.+.(   8 *.o.*.%.o.*.*.O.O.O.O.O.O.O.O.O.O.O.O.O.O.*.m N ,.1.:.x G { t ",
"] +.+.O.O.O.+.> . ..*.*.o.*.*.o.O.O.O.O.O.O.O.O.O.O.O.O.O.O.&.%.g k n h V -.{ t ",
"] +.O.O.O.O.O._ . ; *.o.*.O.O.O.O.O.O.O.O.O.O.O.o.*.o.*.O.O.O.Q X r D #.+.-.{ t ",
"] +.O.O.O.O.O.O.u   6 *.O.O.O.O.O.O.O.O.O.O.O.O.*.o.*.o.O.O._ X % o.&.O.O.-.{ t ",
"] +.O.O.O.O.O.O.o.3   6 *.O.O.O.O.O.*.O.O.O.O.O.o.*.*.%.*.^ O O  .O.+.O.O.+.{ t ",
"] +.O.O.O.O.+.O.*.o.5 . ; ..O.O.O.O.O.O.O.O.*.o.*.o.*.*.i . # _ O.O.O.O.+.-._ t ",
"] +.+.O.O.O.O.O.O.O.O.q . . 7 O.O.O.O.O.O.O.O.+.O.+.Q %   = ..O.O.O.O.*.O.+.{ t ",
"] +.+.O.O.+.O.O.O.O.O.O.` >     , 0  .+.+.+.X.! 3 +   @ i O.O.O.O.O.O.O.O.-.{ t ",
"/ +.+.O.O.O.O.O.O.O.O.O.O.O.( 3 O               . - u O.O.O.O.O.O.O.O.O.O.-.{ t ",
"] +.O.O.O.O.O.O.O.O.O.O.O.O.O.O.*.! e 7 4 6 9 p ..O.O.O.O.O.O.O.O.O.O.O.O.-.{ t ",
"] +.+.+.O.O.O.O.o.O.O.O.O.O.O.O.*.%.o.*.o.*.o.*.O.O.O.O.O.O.O.O.O.O.O.O.O.*.{ t ",
"] -.-.-.-.*.-.-.-.-.-.*.-.-.-.-.-.-.-.-.*.-.*.-.-.+.-.*.-.*.-.-.-.-.-.*.+.;.| t ",
"d { / / / / / / / / / / / / / / / / / / / / / / / / / [ / / / / [ / / / / { s t ",
"d a t t t t t t t t t t t t t t t t t t t t t t t t t t t t t t t t t t t t t y "
};
