/* XPM */
static char *result[] = {
/* columns rows colors chars-per-pixel */
"40 40 255 2 ",
"   c black",
".  c #020202",
"X  c #030304",
"o  c #040404",
"O  c #040405",
"+  c #050506",
"@  c #060607",
"#  c #0D0E0E",
"$  c #0D0E0F",
"%  c #131314",
"&  c #151517",
"*  c #171718",
"=  c #191A1C",
"-  c #1E1F21",
";  c #1F2022",
":  c #202122",
">  c #202124",
",  c #212225",
"<  c #222326",
"1  c #232426",
"2  c #232427",
"3  c #252627",
"4  c #292B2E",
"5  c #2C2D2F",
"6  c #2F3135",
"7  c #343639",
"8  c #37383D",
"9  c #2B3D46",
"0  c #1E4454",
"q  c #155B78",
"w  c #21546B",
"e  c #404144",
"r  c #404246",
"t  c #404248",
"y  c #43454B",
"u  c #4C4D52",
"i  c #4F5259",
"p  c #595B61",
"a  c #595B63",
"s  c #5A5D65",
"d  c #5E6166",
"f  c #5F6167",
"g  c #5E616A",
"h  c #62676D",
"j  c #636770",
"k  c #676A74",
"l  c #686A72",
"z  c #686B73",
"x  c #696C73",
"c  c #696D76",
"v  c #6A6D76",
"b  c #6D717B",
"n  c #747781",
"m  c #757982",
"M  c #777A82",
"N  c #797D88",
"B  c #7A7E89",
"V  c #3F81A2",
"C  c #3491BA",
"Z  c #7C808B",
"A  c #7F828C",
"S  c #678BB8",
"D  c #678BBA",
"F  c #678CB8",
"G  c #688CB9",
"H  c #698DBB",
"J  c #698EBB",
"K  c #7091BE",
"L  c #03A0E4",
"P  c #07A4E7",
"I  c #0AA1E2",
"U  c #0BA2E3",
"Y  c #0CA5E7",
"T  c #0FA6E7",
"R  c #0AA5E8",
"E  c #0BA6E8",
"W  c #0DA5E8",
"Q  c #0CA6E8",
"!  c #0EA6E8",
"~  c #0FA6E8",
"^  c #15A7E8",
"/  c #13A8E8",
"(  c #16A8E8",
")  c #17A8E9",
"_  c #16AAE8",
"`  c #17AAE8",
"'  c #1AA9E8",
"]  c #18AAE8",
"[  c #19AAE9",
"{  c #1CACE8",
"}  c #23ABE7",
"|  c #20ADE8",
" . c #24ACE9",
".. c #25AFE8",
"X. c #2CAFE9",
"o. c #2EAFEA",
"O. c #31AFE8",
"+. c #30AFE9",
"@. c #28B0E8",
"#. c #2DB2E8",
"$. c #37B5E8",
"%. c #3EB8E8",
"&. c #41B5EB",
"*. c #42B9E8",
"=. c #45BAE8",
"-. c #4CB9EB",
";. c #4DB9EB",
":. c #4FB9EB",
">. c #53BAEB",
",. c #54BAEA",
"<. c #57BAEA",
"1. c #57BBEB",
"2. c #52BFE9",
"3. c #5EBDEB",
"4. c #5EBDEC",
"5. c #60BDEC",
"6. c #53C0E8",
"7. c #55C0E8",
"8. c #5EC3E9",
"9. c #64C5E9",
"0. c #69C7E9",
"q. c #6CC9E9",
"w. c #6EC9E9",
"e. c #79C3EB",
"r. c #7EC3EA",
"t. c #7CC4EC",
"y. c #7CC5EC",
"u. c #7FC5EC",
"i. c #74CBE9",
"p. c #75CCE9",
"a. c #818591",
"s. c #848995",
"d. c #878B97",
"f. c #8A8F9B",
"g. c #8B909C",
"h. c #8D919E",
"j. c #90949F",
"k. c #969AA5",
"l. c #989DAB",
"z. c #9EA3AF",
"x. c #9DA2B1",
"c. c #AAAFBB",
"v. c #AAAFBF",
"b. c #ABB0BD",
"n. c #84A2C7",
"m. c #9AB3D1",
"M. c #9CB1D2",
"N. c #9CB3D2",
"B. c #9EB6D4",
"V. c #9FB7D4",
"C. c #AEB3C1",
"Z. c #B1B7C7",
"A. c #B3B9C9",
"S. c #B6BCCB",
"D. c #B8BECE",
"F. c #A7BBD6",
"G. c #A7BCD7",
"H. c #A9BDD7",
"J. c #A9BED8",
"K. c #A9BFD8",
"L. c #ABBFD8",
"P. c #ACBFD9",
"I. c #AEBFDA",
"U. c #AFBFDA",
"Y. c #AEC1DA",
"T. c #AEC2DA",
"R. c #B9C0D2",
"E. c #BEC3D1",
"W. c #BDC3D4",
"Q. c #BFC5D7",
"!. c #B1C0DC",
"~. c #B0C1DC",
"^. c #B2C3DD",
"/. c #B3C3DD",
"(. c #B4C3DD",
"). c #B6C4DE",
"_. c #82C2E5",
"`. c #80C4EB",
"'. c #81C7EC",
"]. c #8EC8EB",
"[. c #8EC9EC",
"{. c #98CBEC",
"}. c #9DCDED",
"|. c #86D2E9",
" X c #87D2E9",
".X c #8BD4E9",
"XX c #94D7E9",
"oX c #96D8E9",
"OX c #97D8EA",
"+X c #99D9EA",
"@X c #BAC8E0",
"#X c #A5D0ED",
"$X c #ABD2ED",
"%X c #B0D2ED",
"&X c #B3D3ED",
"*X c #B3D4EE",
"=X c #B6D4EE",
"-X c #BCD3ED",
";X c #B8D5ED",
":X c #BFD6ED",
">X c #C0C6D6",
",X c #C2C8D7",
"<X c #C5CBDD",
"1X c #C8CEDD",
"2X c #C7CEE0",
"3X c #CCD2E5",
"4X c #CCD3E6",
"5X c #CED4E5",
"6X c #CFD5E6",
"7X c #CFD5E7",
"8X c #C3D7ED",
"9X c #C1D6EE",
"0X c #C4D9EE",
"qX c #CBD9EE",
"wX c #CDD9ED",
"eX c #CFDBED",
"rX c #CEDAEE",
"tX c #D0D6E7",
"yX c #D1D7EA",
"uX c #D3D9EA",
"iX c #D1D9EC",
"pX c #D1D9ED",
"aX c #D2D9EC",
"sX c #D3D9EC",
"dX c #D2D9ED",
"fX c #D2DAED",
"gX c #D3DAED",
"hX c #D3DBED",
"jX c #D3DAEE",
"kX c #D2DBEE",
"lX c #D3DBEE",
"zX c #D4D9EC",
"xX c #D4D9ED",
"cX c #D4DBEC",
"vX c #D4DAED",
"bX c #D5DAED",
"nX c #D4DBED",
"mX c #D5DBED",
"MX c #D6DAEC",
"NX c #D7DAEC",
"BX c #D4DBEE",
"VX c #D5DBEE",
"CX c #D5DDED",
"ZX c #D6DDED",
"AX c #D9DFEF",
"SX c #DADFEF",
"DX c #D8DDF0",
"FX c #DAE0F0",
"GX c #DBE0F0",
"HX c #DCE0F0",
"JX c #DCE0F1",
"KX c #DEE2F1",
"LX c #DEE2F2",
"PX c #E0E3F2",
"IX c #E6E7F5",
/* pixels */
"Y.K.H.F.G.G.G.G.G.G.G.G.G.G.G.G.G.G.G.G.G.G.G.G.G.G.G.G.G.G.G.G.G.G.G.G.F.P.N.V.",
"J.cXBXiXaXaXaXaXaXaXaXaXaXaXaXaXaXaXaXaXaXaXaXaXaXaXaXaXaXaXaXaXaXaXaXaXiXSX/.N.",
"L.AXDXVXVXVXVXVXVXVXVXVXVXVXVXVXVXVXVXVXVXVXVXVXVXVXVXVXVXVXVXVXVXVXVXVXVXKX).F ",
"J.ZXBXaXaXaXaXaXaXaXaXaXaXaXaXaXaXaXaXaXaXaXaXaXaXaXaXaXaXaXgXgXgXaXaXaXaXFX/.G ",
"J.ZXVXaXgXgXgXgXgXgXgXgXgXgXgXgXgX2Xl.a.b j N h.Z.gXgXgXdXgXgXgXgXgXgXgXaXGX/.G ",
"J.ZXVXaXgXgXgXgXgXgXgXgXgXgXyXf.t @               , k R.mXgXgXgXgXgXgXgXaXGX/.G ",
"J.ZXVXaXgXgXgXgXgXgXgXgXaXg.-   3 l c.1XuXgX5XE.A u o + s Q.gXgXgXgXgXgXaXGX/.G ",
"J.ZXVXaXgXgXgXgXgXgXgX<X8   7 b.gXgXgXgXgXgXgXgXfXxX6Xx o w O.T :.%XgXgXaXGX/.G ",
"J.ZXVXaXgXgXgXgXgXgXA.; # k.vXgXgXgXgXgXgXgXgXfXdXnXgXgX_.I 6.q.%.! &XgXaXGX/.G ",
"J.ZXVXaXgXgXgXgXgXW.& : S.gXgXgXgXgXgXgXgXgXgXfXbXgXgXeX( w.+X+X+X*.>.gXaXGX/.G ",
"J.ZXVXaXgXgXgXgX3X4 * >XgXgXgXgXgXgXgXgXgXgXgXfXbXgXgX=XE oX+X+X+Xi.) gXaXGX/.G ",
"J.ZXVXaXgXgXgXgXa @ C.gXgXgXgXgXgXgXgXgXgXgXgXfXaXgXgX0XY .X+X+X+X9.o.gXaXGX/.G ",
"J.ZXVXaXgXgXgXD.+ x gXgXgXgXgXgXgXgXgXgXgXdXhXgXgXgXgXgX&.$.XX+X|.` u.gXaXGX/.G ",
"J.ZXVXaXgXgXgXi % 7XgXgXgXgXgXgXgXgXgXdXgXgXgXgXgXgXgXgX:X+.Q | R ,.lXgXaXGX/.G ",
"J.ZXVXaXgXgX2X@ m gXgXgXgXgXgXgXgXgXgXgXgXgXgXgXgXgXgXgXgXkX}.e.*XgXjXgXaXGX/.G ",
"J.ZXVXaXgXgXd.  ,XgXgXgXgXgXgXdXgXgXgXgXgXgXgXgXgXgXgXgXgXgXgXgXgXjXgXgXaXGX/.G ",
"J.ZXVXaXgXgXy 1 gXgXgXgXgXgXgXgXgXgXgXgXgXgXgXgXgXgXgXjXjXgXgXgXgXgXgXgXaXGX/.G ",
"J.ZXVXaXgXgX< f gXgXgXgXgXgXgXgXgXgXgXgXgXgXgXgXgXgXjXgXgXgXgXgXgXgXgXgXaXGX/.G ",
"J.ZXVXaXgXgX$ z gXgXdXgXgXgXgXgXgXgXgXgXgXgXgXgXgXgXgXgXgXgXgXgXgXgXgXgXaXGX/.G ",
"J.ZXVXaXgX4X  n gXdXgXgXgXgXjXdXgXgXgXgXgXgXgXgXjXgXgXgXgXgXgXgXgXgXgXgXaXGX/.G ",
"J.ZXVXaXgXgXO v gXhXgXgXgXgXgXgXgXgXgXgXgXgXgXjXgXgXgXgXgXgXgXgXgXgXgXgXaXGX/.G ",
"J.ZXVXaXgXgX9 V [.rXgXgXgXgXgXgXgXgXgXgXgXgXjXgXgXgXgXgXgXgXgXgXgXgXgXgXaXGX/.G ",
"J.ZXVXaXgX'.L { / [ $XgXgXgXgXgXgXgXgXgXgXgXgXgXgXgXgXgXgXgXgXgXgXgXgXgXaXGX/.G ",
"J.ZXVXaX#X~ p.+XOX2.' rXgXgXgXgXgXgXgXgXgXjXgXgXgXgXgXgXgXgXgXgXgXgXgXgXaXGX/.G ",
"J.ZXVXaX5.=.+X+X+XOX] {.gXgXgXgXgXgXgXgXgXgXgXgXgXgXgXgXgXgXgXgXgXgXgXgXaXGX/.G ",
"J.ZXVXaX-.7.+X+X+X+X@.`.gXgXgXgXgXgXgXgXjXgXgXgXgXgXgXgXgXgXgXgXgXgXgXgXaXGX/.G ",
"J.ZXVXaXt...oX+X+X XW ;XgXgXgXgXgXgXgXjXgXgXgXgXgXgXgXgXgXgXgXgXgXgXgXgXaXGX/.G ",
"J.ZXVXaXqXX.#.0.8._ <.gXgXgXgXgXgXgXgXgXgXgXgXgXgXgXgXgXgXgXgXgXgXgXgXgXaXGX/.G ",
"J.ZXVXaXfX8X3.^ } q h gXgXgXgXgXjXgXgXgXgXgXgXgXgXgXgXgXgXgXgXgXgXgXgXgXaXGX/.G ",
"J.ZXVXaXdXgXgXgXgXB   M gXgXgXgXgXgXgXgXgXgXgX8X4.^  .y.lXgXgXgXgXgXgXgXaXGX/.G ",
"J.ZXVXaXdXgXgXgXgXgXg   p vXgXgXgXgXgXgXgXgXqXX.#.0.8._ 1.gXgXgXgXgXgXgXaXGX/.G ",
"J.ZXVXaXdXsXgXgXgXgXgXZ X 5 z.gXgXgXgXgXgXgXt...oX+X+X XW ;XgXgXgXgXgXgXaXGX/.G ",
"J.ZXVXaXgXdXMXgXgXgXgX-Xx.2   r j.tXgXgXgXgX;.7.+X+X+X+X@.`.gXgXgXgXgXgXaXGX/.G ",
"J.ZXVXaXgXgXpXNXgXgXgXgXgXaXs.>   . e d x c C =.+X+X+XOX] {.gXgXgXgXgXgXaXGX/.G ",
"J.ZXVXaXgXgXgXdXzXgXgXgXgXgXgXjXv.j 6 = +   0 U p.+XOX2.' rXgXgXgXgXgXgXaXGX/.G ",
"J.ZXVXaXgXgXgXgXfXaXgXgXgXgXjXgXgXgXgXgXgXgXgX'.P { / [ $XgXgXgXgXgXgXgXaXGX/.G ",
"H.CXBXaXaXaXaXaXaXaXaXaXaXaXaXaXaXaXaXaXaXaXaXaX9Xr.].wXaXaXaXaXaXaXaXaXaXFX^.G ",
"T.PXLXHXJXJXJXJXJXJXJXJXJXJXJXJXJXJXJXJXJXJXJXJXJXJXJXJXJXJXJXJXJXJXJXJXHXIX@XS ",
"m.~.!.I.U.U.U.U.U.U.U.U.U.U.U.U.U.U.U.U.U.U.U.U.U.U.U.U.U.U.U.U.U.U.U.U.I.(.M.H ",
"B.n.D D D D D D D D D D D D D D D D D D D D D D D D D D D D D D D D D D D D J K "
};
