/* XPM */
static char *result[] = {
/* columns rows colors chars-per-pixel */
"40 40 243 2 ",
"   c black",
".  c #020202",
"X  c gray1",
"o  c #030304",
"O  c #040404",
"+  c gray2",
"@  c #060606",
"#  c #0B0B0C",
"$  c #0C0C0D",
"%  c #111112",
"&  c #111113",
"*  c #141516",
"=  c #18191B",
"-  c #19191C",
";  c #1A1B1D",
":  c #1B1B1E",
">  c #1B1C1F",
",  c #1C1D1E",
"<  c #1C1D1F",
"1  c #1F2021",
"2  c #212123",
"3  c #212225",
"4  c #272729",
"5  c #26272A",
"6  c #2C2D31",
"7  c #2E2F31",
"8  c #333539",
"9  c #36383C",
"0  c #38393C",
"q  c #273942",
"w  c #1C4252",
"e  c #1F5269",
"r  c #155B78",
"t  c #424347",
"y  c #404248",
"u  c #474950",
"i  c #484B51",
"p  c #4C4E52",
"a  c #4C4E55",
"s  c #515358",
"d  c #505259",
"f  c #525458",
"g  c #52555D",
"h  c #55595E",
"j  c #57595F",
"k  c #565960",
"l  c #575A60",
"z  c #575B62",
"x  c #595B61",
"c  c #5E6169",
"v  c #62646B",
"b  c #61646D",
"n  c #61656E",
"m  c #65676E",
"M  c #636770",
"N  c #676B74",
"B  c #686C74",
"V  c #6A6E77",
"C  c #6C7079",
"Z  c #6F737C",
"A  c #6F737D",
"S  c #71757F",
"D  c #367798",
"F  c #537094",
"G  c #537095",
"H  c #547094",
"J  c #547196",
"K  c #547296",
"L  c #5A7498",
"P  c #777A83",
"I  c #7A7E89",
"U  c #308DB6",
"Y  c #7D818A",
"T  c #7E828E",
"R  c #6B84A3",
"E  c #7D8EA8",
"W  c #7A91AD",
"Q  c #7B91AD",
"!  c #7D93AF",
"~  c #7E94AF",
"^  c #039FE4",
"/  c #06A2E6",
"(  c #0AA1E2",
")  c #0AA2E3",
"_  c #09A3E7",
"`  c #0AA3E6",
"'  c #0BA4E7",
"]  c #0CA4E4",
"[  c #0CA5E6",
"{  c #0DA5E7",
"}  c #0BA6E8",
"|  c #0CA6E8",
" . c #17A5E3",
".. c #12A4E5",
"X. c #13A5E5",
"o. c #15A6E5",
"O. c #1EA6E2",
"+. c #1FA7E3",
"@. c #13A8E8",
"#. c #16AAE8",
"$. c #17AAE8",
"%. c #18AAE8",
"&. c #1CACE8",
"*. c #26A8E2",
"=. c #29A8E1",
"-. c #2BA9E1",
";. c #28A9E4",
":. c #20ADE8",
">. c #25AFE8",
",. c #38ABE0",
"<. c #28B0E8",
"1. c #2DB2E8",
"2. c #37B5E8",
"3. c #3EB8E8",
"4. c #47ADDC",
"5. c #44AEDE",
"6. c #47AEDE",
"7. c #4BADDC",
"8. c #4AAEDC",
"9. c #50AEDB",
"0. c #50AEDC",
"q. c #52AFDC",
"w. c #66AACF",
"e. c #74AECE",
"r. c #74AFCF",
"t. c #7DB0CE",
"y. c #61ABD0",
"u. c #67AFD4",
"i. c #68ABD0",
"p. c #6AAFD4",
"a. c #68B0D5",
"s. c #6DB2D5",
"d. c #70B0D0",
"f. c #43AEE0",
"g. c #43AFE0",
"h. c #42B9E8",
"j. c #45BAE8",
"k. c #52BFE9",
"l. c #53C0E8",
"z. c #55C0E8",
"x. c #5EC3E9",
"c. c #64C5E9",
"v. c #69C7E9",
"b. c #6CC9E9",
"n. c #6EC9E9",
"m. c #74CBE9",
"M. c #75CCE9",
"N. c #838791",
"B. c #888D99",
"V. c #8D919C",
"C. c #8F939E",
"Z. c #8E939F",
"A. c #8F94A1",
"S. c #8C99AF",
"D. c #9398A5",
"F. c #969AA6",
"G. c #959AA8",
"H. c #979CAA",
"J. c #999FAC",
"K. c #8196B2",
"L. c #8398B2",
"P. c #8298B3",
"I. c #8398B3",
"U. c #8399B3",
"Y. c #8499B3",
"T. c #869BB5",
"R. c #879BB5",
"E. c #8D9BB0",
"W. c #8E9AB0",
"Q. c #8F9CB1",
"!. c #909CB1",
"~. c #929DB2",
"^. c #9DA2AE",
"/. c #9EA3AE",
"(. c #95A0B4",
"). c #9EA3B1",
"_. c #97A9BE",
"`. c #A1A5B1",
"'. c #A0A5B4",
"]. c #A3A9B7",
"[. c #A6ABB7",
"{. c #A4AAB8",
"}. c #A7ADBC",
"|. c #A9AEBB",
" X c #A9AEBC",
".X c #A8AEBD",
"XX c #A9AEBD",
"oX c #AAAFBC",
"OX c #AAAEBD",
"+X c #AAAFBD",
"@X c #A8AEBE",
"#X c #A8AFBE",
"$X c #A9AFBE",
"%X c #A9AFBF",
"&X c #AAAEBE",
"*X c #ABAFBE",
"=X c #ACAFBD",
"-X c #AAB0BD",
";X c #A9B0BE",
":X c #AAB0BE",
">X c #ABB0BE",
",X c #ABB1BE",
"<X c #AAB0BF",
"1X c #ABB0BF",
"2X c #ABB1BF",
"3X c #ACB1BE",
"4X c #ACB2BF",
"5X c #81B1CE",
"6X c #88B2CD",
"7X c #8DB3CC",
"8X c #9CB2C5",
"9X c #9FB2C5",
"0X c #90B1C9",
"qX c #93B1C9",
"wX c #95B4CB",
"eX c #97B5CB",
"rX c #9FB3C8",
"tX c #98B5CA",
"yX c #A7B2C2",
"uX c #A7B3C3",
"iX c #A5B2C4",
"pX c #ABB1C1",
"aX c #AAB2C1",
"sX c #A8B3C2",
"dX c #A8B3C3",
"fX c #ADB1C0",
"gX c #AEB3C0",
"hX c #AFB3C0",
"jX c #AFB4C0",
"kX c #A3B7C9",
"lX c #B0B4C0",
"zX c #B0B4C1",
"xX c #B2B5C1",
"cX c #B2B5C2",
"vX c #B4B6C2",
"bX c #B8B9C4",
"nX c #86D2E9",
"mX c #87D2E9",
"MX c #8BD4E9",
"NX c #94D7E9",
"BX c #96D8E9",
"VX c #97D8EA",
"CX c #99D9EA",
/* pixels */
"R.L.I.K.K.K.K.K.K.K.K.K.K.K.K.K.K.K.K.K.K.K.K.K.K.K.K.K.K.K.K.K.K.K.K.K.K.Y.Q ~ ",
"L.-X<X.X.X.X.X.X.X.X.X.X.X.X.X.X.X.X.X.X.X.X.X.X.X.X.X.X.X.X.X.X.X.X.X.X.XhX!.Q ",
"U.gXfX1X1X1X1X1X1X1X1X1X1X1X1X1X1X1X1X1X1X1X1X1X1X1X1X1X1X1X1X1X1X1X1X1X1XxX~.F ",
"I.3X<X.X.X.X.X.X.X.X.X.X.X.X.X.X.X.X.X.X.X.X.X.X.X.X.X.X.X.X$X$X$X.X.X.X.XjX!.H ",
"I.3X1X.X$X$X$X$X$X$X$X$X$X$X$X$X$X'.I N z d b S Z.$X$X$X@X$X$X$X$X$X$X$X.XlX!.H ",
"I.3X1X.X$X$X$X$X$X$X$X$X$X$X}.Z 8 +               : g G.>X$X$X$X$X$X$X$X.XlX!.H ",
"I.3X1X.X$X$X$X$X$X$X$X$X.XA =   2 j V.[.4X2XoX/.B t X O i J.$X$X$X$X$X$X.XlX!.H ",
"I.3X1X.X$X$X$X$X$X$X$X).6   7 V.$X$X$X$X$X$X$X$X#X&X|.x X e -.] 5.0X$X$X.XlX!.H ",
"I.3X1X.X$X$X$X$X$X$XA.- $ Y <X$X$X$X$X$X$X$X$X#X@X:X$X$Xd.( l.b.3.[ qX$X.XlX!.H ",
"I.3X1X.X$X$X$X$X$XH.& , F.$X$X$X$X$X$X$X$X$X$X#X*X$X$XsXX.n.CXCXCXh.6.$X.XlX!.H ",
"I.3X1X.X$X$X$X$X].3 * ^.$X$X$X$X$X$X$X$X$X$X$X#X*X$X$XeX} BXCXCXCXm.X.$X.XlX!.H ",
"I.3X1X.X$X$X$X$Xu @ C.$X$X$X$X$X$X$X$X$X$X$X$X#X.X$X$XkX` MXCXCXCXc.;.$X.XlX!.H ",
"I.3X1X.X$X$X$XD.O x $X$X$X$X$X$X$X$X$X$X$X@X;X$X$X$X$X$X,.2.NXCXnX$.p.$X.XlX!.H ",
"I.3X1X.X$X$X$Xy %  X$X$X$X$X$X$X$X$X$X@X$X$X$X$X$X$X$X$X8X=.| :._ 4.pX$X.XlX!.H ",
"I.3X1X.X$X$X'.+ v $X$X$X$X$X$X$X$X$X$X$X$X$X$X$X$X$X$X$X$XaX5Xy.wX$X%X$X.XlX!.H ",
"I.3X1X.X$X$XC   `.$X$X$X$X$X$X@X$X$X$X$X$X$X$X$X$X$X$X$X$X$X$X$X$X%X$X$X.XlX!.H ",
"I.3X1X.X$X$X9 1 $X$X$X$X$X$X$X$X$X$X$X$X$X$X$X$X$X$X$X%X%X$X$X$X$X$X$X$X.XlX!.H ",
"I.3X1X.X$X$X> f $X$X$X$X$X$X$X$X$X$X$X$X$X$X$X$X$X$X%X$X$X$X$X$X$X$X$X$X.XlX!.H ",
"I.3X1X.X$X$X# j $X$X@X$X$X$X$X$X$X$X$X$X$X$X$X$X$X$X$X$X$X$X$X$X$X$X$X$X.XlX!.H ",
"I.3X1X.X$X{.  c $X@X$X$X$X$X%X@X$X$X$X$X$X$X$X$X%X$X$X$X$X$X$X$X$X$X$X$X.XlX!.H ",
"I.3X1X.X$X$Xo k $X;X$X$X$X$X$X$X$X$X$X$X$X$X$X%X$X$X$X$X$X$X$X$X$X$X$X$X.XlX!.H ",
"I.3X1X.X$X$Xq D r.dX$X$X$X$X$X$X$X$X$X$X$X$X%X$X$X$X$X$X$X$X$X$X$X$X$X$X.XlX!.H ",
"I.3X1X.X$Xs.^ &.@.o.7X$X$X$X$X$X$X$X$X$X$X$X$X$X$X$X$X$X$X$X$X$X$X$X$X$X.XlX!.H ",
"I.3X1X.X6X{ M.CXVXk. .uX$X$X$X$X$X$X$X$X$X%X$X$X$X$X$X$X$X$X$X$X$X$X$X$X.XlX!.H ",
"I.3X1X.Xq.j.CXCXCXVX%.t.$X$X$X$X$X$X$X$X$X$X$X$X$X$X$X$X$X$X$X$X$X$X$X$X.XlX!.H ",
"I.3X1X.Xg.z.CXCXCXCX<.i.$X$X$X$X$X$X$X$X%X$X$X$X$X$X$X$X$X$X$X$X$X$X$X$X.XlX!.H ",
"I.3X1X.Xu.>.BXCXCXmX' tX$X$X$X$X$X$X$X%X$X$X$X$X$X$X$X$X$X$X$X$X$X$X$X$X.XlX!.H ",
"I.3X1X.XiX*.1.v.x.#.7.$X$X$X$X$X$X$X$X$X$X$X$X$X$X$X$X$X$X$X$X$X$X$X$X$X.XlX!.H ",
"I.3X1X.X#X9X9...O.r h $X$X$X$X$X%X$X$X$X$X$X$X$X$X$X$X$X$X$X$X$X$X$X$X$X.XlX!.H ",
"I.3X1X.X@X$X$X$X$Xn   m $X$X$X$X$X$X$X$X$X$X$X9X0...+.a.pX$X$X$X$X$X$X$X.XlX!.H ",
"I.3X1X.X@X$X$X$X$X$Xa   p 2X$X$X$X$X$X$X$X$XiX*.1.v.x.#.8.$X$X$X$X$X$X$X.XlX!.H ",
"I.3X1X.X@XXX$X$X$X$X$XM X 4 N.$X$X$X$X$X$X$Xu.>.BXCXCXmX' tX$X$X$X$X$X$X.XlX!.H ",
"I.3X1X.X$X@X=X$X$X$X$X_.T <   0 P +X$X$X$X$Xf.z.CXCXCXCX<.i.$X$X$X$X$X$X.XlX!.H ",
"I.3X1X.X$X$X@X=X$X$X$X$X$X.XV ;   . 0 s l k U j.CXCXCXVX%.t.$X$X$X$X$X$X.XlX!.H ",
"I.3X1X.X$X$X$X@XOX$X$X$X$X$X$X%XB.d 5 * O   w ) M.CXVXk. .uX$X$X$X$X$X$X.XlX!.H ",
"I.3X1X.X$X$X$X$X#X.X$X$X$X$X%X$X$X$X$X$X$X$X$Xs./ &.@.o.7X$X$X$X$X$X$X$X.XlX!.H ",
"P.,X<X.X.X.X.X.X.X.X.X.X.X.X.X.X.X.X.X.X.X.X.X.XrXw.e.yX.X.X.X.X.X.X.X.X.XjXQ.H ",
"T.vXcXlXzXzXzXzXzXzXzXzXzXzXzXzXzXzXzXzXzXzXzXzXzXzXzXzXzXzXzXzXzXzXzXzXlXbX(.F ",
"W E.W.S.S.S.S.S.S.S.S.S.S.S.S.S.S.S.S.S.S.S.S.S.S.S.S.S.S.S.S.S.S.S.S.S.S.!.E J ",
"! R G G G G G G G G G G G G G G G G G G G G G G G G G G G G G G G G G G G G K L "
};
