/* XPM */
static char *result[] = {
/* columns rows colors chars-per-pixel */
"40 40 218 2 ",
"   c black",
".  c #010101",
"X  c #020202",
"o  c gray1",
"O  c #030304",
"+  c #050506",
"@  c #070808",
"#  c #080809",
"$  c #090A0A",
"%  c #0B0B0C",
"&  c #0D0D0E",
"*  c #0F1011",
"=  c #141516",
"-  c #171719",
";  c #1B1B1E",
":  c #1E1F22",
">  c #222427",
",  c #282A2D",
"<  c #2A2B2F",
"1  c #2C2E32",
"2  c #2E3034",
"3  c #323338",
"4  c #34363A",
"5  c #383A3F",
"6  c #133949",
"7  c #393B40",
"8  c #404248",
"9  c #46494F",
"0  c #4A4D53",
"q  c #4C4E55",
"w  c #51545B",
"e  c #565961",
"r  c #595C64",
"t  c #5C5F68",
"y  c #60646D",
"u  c #63666F",
"i  c #636770",
"p  c #696C76",
"a  c #6A6E77",
"s  c #6E727C",
"d  c #71757F",
"f  c red",
"g  c #FF0101",
"h  c #FE0202",
"j  c #FE0303",
"k  c #FD0404",
"l  c #FC0506",
"z  c #FC0707",
"x  c #FA0A0A",
"c  c #F90C0D",
"v  c #F90D0E",
"b  c #F80E10",
"n  c #F71012",
"m  c #F41618",
"M  c #F21A1C",
"N  c #EF2124",
"B  c #EE2326",
"V  c #EC262A",
"C  c #EB282C",
"Z  c #E82E32",
"A  c #E73136",
"S  c #E63338",
"D  c #E4383C",
"F  c #E13D42",
"G  c #BE4F5F",
"H  c #DF4248",
"J  c #DE444A",
"K  c #DC474D",
"L  c #D6535A",
"P  c #CF5C66",
"I  c #D35A62",
"U  c #D15D65",
"Y  c #CD656E",
"T  c #CD666E",
"R  c #CB6972",
"E  c #CA6B74",
"W  c #CA6C76",
"Q  c #C06C79",
"!  c #C87079",
"~  c #1677A1",
"^  c #537094",
"/  c #537095",
"(  c #547094",
")  c #547196",
"_  c #547296",
"`  c #5A7498",
"'  c #757983",
"]  c #767A85",
"[  c #C57781",
"{  c #C37984",
"}  c #C27D88",
"|  c #7B808B",
" . c #6B84A3",
".. c #7D8EA8",
"X. c #7A91AD",
"o. c #7B91AD",
"O. c #7D93AF",
"+. c #7E94AF",
"@. c #1E97D6",
"#. c #338EC5",
"$. c #3E9BC5",
"%. c #06A2E6",
"&. c #0BA2E4",
"*. c #0BA3E6",
"=. c #12A4E5",
"-. c #15A6E5",
";. c #1FA7E3",
":. c #13A8E8",
">. c #16AAE8",
",. c #18AAE8",
"<. c #1CACE8",
"1. c #25AFE8",
"2. c #28B0E8",
"3. c #2DB2E8",
"4. c #50AEDC",
"5. c #66ABCF",
"6. c #75AFCF",
"7. c #7DB0CE",
"8. c #67AFD4",
"9. c #68ABD0",
"0. c #6DB2D5",
"q. c #43AEE0",
"w. c #45BAE8",
"e. c #52BFE9",
"r. c #55C0E8",
"t. c #5EC3E9",
"y. c #69C7E9",
"u. c #75CCE9",
"i. c #818692",
"p. c #858995",
"a. c #868B97",
"s. c #8A8F9B",
"d. c #8E939F",
"f. c #BD8691",
"g. c #BB8B97",
"h. c #BC8894",
"j. c #BA8D99",
"k. c #8C99AF",
"l. c #9398A5",
"z. c #9499A7",
"x. c #969BA8",
"c. c #999FAC",
"v. c #9A9FAD",
"b. c #8196B2",
"n. c #8398B2",
"m. c #8298B3",
"M. c #8398B3",
"N. c #8399B3",
"B. c #8499B3",
"V. c #869BB5",
"C. c #879BB5",
"Z. c #8D9BB0",
"A. c #8E9AB0",
"S. c #8F9CB1",
"D. c #909CB1",
"F. c #929DB2",
"G. c #B694A1",
"H. c #B596A3",
"J. c #B796A3",
"K. c #B498A5",
"L. c #B19EAB",
"P. c #9CA1AF",
"I. c #95A0B4",
"U. c #9DA2B0",
"Y. c #9FA5B3",
"T. c #97A9BE",
"R. c #B0A1AE",
"E. c #B0A1AF",
"W. c #A2A7B7",
"Q. c #AFA3B1",
"!. c #AEA5B4",
"~. c #ADA7B6",
"^. c #A3A9B7",
"/. c #ACA9B7",
"(. c #A4AAB9",
"). c #A5ABBA",
"_. c #A6ACBC",
"`. c #A7ADBC",
"'. c #ABACBA",
"]. c #A8AEBD",
"[. c #A9AEBD",
"{. c #A9AFBD",
"}. c #AAAEBD",
"|. c #A8AEBE",
" X c #A8AFBE",
".X c #A9AFBE",
"XX c #A9AFBF",
"oX c #AAAEBE",
"OX c #AAAFBE",
"+X c #ABAFBE",
"@X c #ACAFBD",
"#X c #AAB0BD",
"$X c #A9B0BE",
"%X c #AAB0BE",
"&X c #ABB0BE",
"*X c #ABB1BE",
"=X c #AAB0BF",
"-X c #ABB0BF",
";X c #ACB0BE",
":X c #ACB1BE",
">X c #C0808B",
",X c #98B5CA",
"<X c #9FB4C8",
"1X c #A8B3C3",
"2X c #ADB1C0",
"3X c #AEB3C0",
"4X c #AFB3C0",
"5X c #AFB4C0",
"6X c #B0B4C0",
"7X c #B0B4C1",
"8X c #B2B5C1",
"9X c #B2B5C2",
"0X c #B4B6C2",
"qX c #B8B9C4",
"wX c #87D2E9",
"eX c #96D8E9",
"rX c #97D8EA",
"tX c #99D9EA",
/* pixels */
"C.n.M.b.b.b.b.b.b.b.b.b.b.b.b.b.b.b.b.b.b.b.b.b.b.b.b.b.b.b.b.b.b.b.b.b.b.B.o.+.",
"n.#X=X].].].].].].].].].].].].].].].].].].].].].].].].].].].].].].].].].].4XD.o.",
"N.3X2X-X-X-X-X-X-X-X-X-X-X-X-X-X-X-X-X-X-X-X-X-X-X-X-X-X-X-X-X-X-X-X-X-X-X8XF.^ ",
"M.:X=X].].].].].].].].].].].].].].].].].].].].].].].].].].]..X.X.X].].].].5XD.( ",
"M.:X-X]..X.X.X.X.X.X.X.X.X.X.X.X.X.X.X.X.X.X.X.X.X.X.X.X|..X.X.X.X.X.X.X].6XD.( ",
"M.:X-X]..X.X.X.X.X.X.X.X.X.X.X.X.X.X.X.X.X.X.X.X.X.X|.|.&X.X.X.X.X.X.X.X].6XD.( ",
"M.:X-X]..X.X.X.X.X.X.X.X.X.X.X.X.X.X.X.X.X.X.X.X.X|.OX+X.X.X.X.X.X.X.X.X].6XD.( ",
"M.:X-X]..X.X.X.X.X.X.X.X.X.X.X.X.X.X.X.X.X.X.X.X XoXOX.X.X.X.X.X.X|..X.X].6XD.( ",
"M.:X-X]..X.X.X.X.X.X.X.X.X.X.X.X.X.X.X.X.X.X.X X|.%X.X.X.X.X.X.X.X;X|..X].6XD.( ",
"M.:X-X]..X.X.X.X.X.X.X.X.X.X.X.X.X.X.X.X.X.X.X X+X.X.X.X.X.X.X.X.X.X|..X].6XD.( ",
"M.:X-X]..X.X.X.X.X.X.X.X.X.X.X.X.X.X.X.X.X.X.X X+X.X.X.X[..X.X.X.X.X.X.X].6XD.( ",
"M.:X-X]..X.X.X.X.X.X.X.X.X.X.X.X.X.X.X.X.X.X.X X]..X.X.X.X$X.X.X.X.X.X.X].6XD.( ",
"M.:X-X]..X.X.XH.U .X.X.X.X.X.X.X.X.X.X.X.X|.$X.X.X.X.X.X.X.X.X.X.X.X.X.X].6XD.( ",
"M.:X-X]..X.X.XY f J }..X.X.X.X.X.X.X.X|..X.X.X.X.X.X.X.X.X.X.X.X] r .X.X].6XD.( ",
"M.:X-X]..X.X.X.XR h S /..X.X.X.X.X.X.X.X.X.X.X.X.X.X.X.X.X.XY.8   < _..X].6XD.( ",
"M.:X-X]..X.X.X.X.X{ z V E..X.X|..X.X.X.X.X.X.X.X.X.X.X.X.X| = + t |..X.X].6XD.( ",
"M.:X-X]..X.X.X.X.X.Xh.v M K..X.X.X.X.X.X.X.X.X.X.X.X.XW.9 . > d..X.X.X.X].6XD.( ",
"M.:X-X]..X.X.X.X.X.X.XG.m n j..X.X.X.X.X.X.X.X.X.X.Xi.- O e `..X.X.X.X.X].6XD.( ",
"M.:X-X]..X.X.X.X.X.X|..XL.N x >X.X.X.X.X.X.X.X.X(.q . : s..X.X.X.X.X.X.X].6XD.( ",
"M.:X-X]..X.X.X.X.X|..X.X.X!.Z k ! .X.X.X.X.X.Xa.; X w )..X.X.X.X.X.X.X.X].6XD.( ",
"M.:X-X]..X.X.X.X.X$X.X.X.X.X'.F g Q 4.=.;.8.r o ; p..X.X.X.X.X.X.X.X.X.X].6XD.( ",
"M.:X-X]..X.X.X.X.X.X.X.X.X.X.X.XP #.3.y.t.>.~ 0 ^..X.X.X.X.X.X.X.X.X.X.X].6XD.( ",
"M.:X-X]..X.X.X.X.X.X.X.X.X.X.X.X8.1.eXtXtXwX*.,X.X.X.X.X.X.X.X.X.X.X.X.X].6XD.( ",
"M.:X-X]..X.X.X.X{..X.X.X.X.X.X.Xq.r.tXtXtXtX2.9..X.X.X.X.X.X.X.X.X.X.X.X].6XD.( ",
"M.:X-X]..X.X.X.X.X.X.X.X.X.X.X].$.w.tXtXtXrX,.7..X.X.X.X.X.X.X.X.X.X.X.X].6XD.( ",
"M.:X-X]..X|.$X|..X.X.X.X.X.Xl., 6 &.u.tXrXe.@.J..X.X.X.X.X.X.X.X.X.X.X.X].6XD.( ",
"M.:X-X]..X$X.X.X.X.X.X.X.Xi # * ' 0.%.<.:.-.G c f..X.X.X.X.X.X.X.X.X.X.X].6XD.( ",
"M.:X-X]..X.X.X.X.X.X.Xx.2   5 P..X.X<X5.6.1XQ.C l [ .X.X.X.X.X.X.X.X.X.X].6XD.( ",
"M.:X-X]. X.X.X.X.X.Xa % & s .X.XXX.X.X.X.X.X.X/.D h T .X.X.X.X.X.X.X.X.X].6XD.( ",
"M.:X-X].|..X.X.Xv.4   3 c..X.X.X.X.X.X.X.X.X.X.X}.K f L .X.X.X.X.X.X.X.X].6XD.( ",
"M.:X-X].|..X.Xd & $ p .X.X.X.X.X.X.X.X.X.X.X.X.X.X.XI g H '..X.X.X.X.X.X].6XD.( ",
"M.:X-X].|.U.7   1 x..X.X.X.X.X.X.X.X.X.X.X.X.X.X.X.X.XW j A ~..X.X.X.X.X].6XD.( ",
"M.:X-X]..Xy @ u .X.X.XT..X.X.X.X.X.X.X.X.X.X.X.X.X.X.X.X} z B R..X.X.X.X].6XD.( ",
"M.:X-X]..X].z.@X.X.X.X.X.X.X.X.X.X.X.X.X.X.X.X.X.X.X.X.X.Xg.b E .X.X.X.X].6XD.( ",
"M.:X-X]..X.X.X|.}..X.X.X.X.X.XXX.X.X.X.X.X.X.X.X.X.X.X.X.X.XE..X.X.X.X.X].6XD.( ",
"M.:X-X]..X.X.X.X X]..X.X.X.XXX.X.X.X.X.X.X.X.X.X.X.X.X.X.X.X.X.X.X.X.X.X].6XD.( ",
"m.*X=X].].].].].].].].].].].].].].].].].].].].].].].].].].].].].].].].].].5XS.( ",
"V.0X9X6X7X7X7X7X7X7X7X7X7X7X7X7X7X7X7X7X7X7X7X7X7X7X7X7X7X7X7X7X7X7X7X7X6XqXI.^ ",
"X.Z.A.k.k.k.k.k.k.k.k.k.k.k.k.k.k.k.k.k.k.k.k.k.k.k.k.k.k.k.k.k.k.k.k.k.k.D...) ",
"O. ./ / / / / / / / / / / / / / / / / / / / / / / / / / / / / / / / / / / / _ ` "
};
