/* XPM */
static char *result[] = {
/* columns rows colors chars-per-pixel */
"40 40 232 2 ",
"   c black",
".  c #010101",
"X  c #020202",
"o  c #020303",
"O  c #030304",
"+  c #040405",
"@  c #070707",
"#  c #09090A",
"$  c #0A0A0B",
"%  c #0C0C0D",
"&  c #0D0E0F",
"*  c #101012",
"=  c #131415",
"-  c #191A1C",
";  c #1C1D20",
":  c #212225",
">  c #25262A",
",  c #2B2C30",
"<  c #323439",
"1  c #34363B",
"2  c #37393E",
"3  c #133949",
"4  c #3A3C41",
"5  c #3E4046",
"6  c #414348",
"7  c #46494F",
"8  c #474A50",
"9  c #4F5259",
"0  c #585B63",
"q  c #5D6069",
"w  c #5E616A",
"e  c #656871",
"r  c #6C6F79",
"t  c #6C707A",
"y  c #6F737D",
"u  c red",
"i  c #FF0101",
"p  c #FE0303",
"a  c #FE0304",
"s  c #FE0506",
"d  c #FE0707",
"f  c #FD0909",
"g  c #FD0C0D",
"h  c #FC0F10",
"j  c #FC1012",
"k  c #FB1214",
"l  c #FB1516",
"z  c #F91B1E",
"x  c #F82023",
"c  c #F7292D",
"v  c #F62C2F",
"b  c #F53034",
"n  c #F53237",
"m  c #F3393E",
"M  c #F33E43",
"N  c #F24046",
"B  c #F1454B",
"V  c #EF4C53",
"C  c #EE5259",
"Z  c #EE555C",
"A  c #C35565",
"S  c #ED5961",
"D  c #EA6770",
"F  c #E06D79",
"G  c #E8707A",
"H  c #E8747E",
"J  c #1677A1",
"K  c #737781",
"L  c #797C87",
"P  c #7B7F8A",
"I  c #E67E89",
"U  c #E57F8A",
"Y  c #7C808B",
"T  c #678BB8",
"R  c #678BBA",
"E  c #678CB8",
"W  c #688CB9",
"Q  c #698DBB",
"!  c #698EBB",
"~  c #7091BE",
"^  c #1E98D6",
"/  c #338EC5",
"(  c #07A4E7",
")  c #0BA3E4",
"_  c #0CA4E7",
"`  c #15A7E8",
"'  c #13A8E8",
"]  c #16AAE8",
"[  c #18AAE8",
"{  c #19AAE9",
"}  c #1CACE8",
"|  c #24ACE9",
" . c #25AFE8",
".. c #28B0E8",
"X. c #2DB2E8",
"o. c #47A4CF",
"O. c #45BAE8",
"+. c #4DB9EB",
"@. c #52BFE9",
"#. c #5EBDEC",
"$. c #55C0E8",
"%. c #5EC3E9",
"&. c #69C7E9",
"*. c #7BC4EB",
"=. c #7EC4EB",
"-. c #7CC4EC",
";. c #75CCE9",
":. c #838793",
">. c #848995",
",. c #898E9A",
"<. c #8D919E",
"1. c #9296A4",
"2. c #9398A5",
"3. c #9A9FAD",
"4. c #A1A7B5",
"5. c #A5ABBA",
"6. c #A7ADBC",
"7. c #D4808F",
"8. c #E5838E",
"9. c #E48591",
"0. c #E48793",
"q. c #E38B97",
"w. c #DF9FAD",
"e. c #E194A1",
"r. c #E097A5",
"t. c #E09CA9",
"y. c #DDA7B5",
"u. c #DDA9B8",
"i. c #DCAEBD",
"p. c #DBB0BF",
"a. c #84A2C7",
"s. c #9AB3D1",
"d. c #9CB1D2",
"f. c #9CB3D2",
"g. c #9EB6D4",
"h. c #9FB7D4",
"j. c #ACB2C1",
"k. c #B1B7C7",
"l. c #B8BECE",
"z. c #BCBFCF",
"x. c #A7BBD6",
"c. c #A7BCD7",
"v. c #A9BDD7",
"b. c #A9BED8",
"n. c #A9BFD8",
"m. c #ABBFD8",
"M. c #ACBFD9",
"N. c #AEBFDA",
"B. c #AFBFDA",
"V. c #D6B6C6",
"C. c #DAB9C9",
"Z. c #D9BBCC",
"A. c #D9BECE",
"S. c #AEC1DA",
"D. c #AEC2DA",
"F. c #BBC1D2",
"G. c #BFC5D7",
"H. c #B1C0DC",
"J. c #B0C1DC",
"K. c #B2C3DD",
"L. c #B3C3DD",
"P. c #B4C3DD",
"I. c #B6C4DE",
"U. c #80C4EB",
"Y. c #81C7EC",
"T. c #8FC9EC",
"R. c #98CBEC",
"E. c #87D2E9",
"W. c #96D8E9",
"Q. c #97D8EA",
"!. c #99D9EA",
"~. c #BAC8E0",
"^. c #BCD3ED",
"/. c #B8D5ED",
"(. c #C0C6D8",
"). c #C2C9DA",
"_. c #C4CBDC",
"`. c #C7CDDF",
"'. c #D7C5D6",
"]. c #D7C8D9",
"[. c #D6C9DA",
"{. c #D6CBDC",
"}. c #D5CEE0",
"|. c #CAD1E3",
" X c #CCD2E5",
".X c #CDD4E6",
"XX c #CED5E7",
"oX c #C1D7EE",
"OX c #CEDAEE",
"+X c #D5D1E3",
"@X c #D5D2E5",
"#X c #D0D7E9",
"$X c #D1D7EA",
"%X c #D4D6E8",
"&X c #D4D6E9",
"*X c #D1D8EB",
"=X c #D3D8EB",
"-X c #D1D8EC",
";X c #D1D9EC",
":X c #D1D9ED",
">X c #D2D9EC",
",X c #D3D9EC",
"<X c #D2D9ED",
"1X c #D3DAEC",
"2X c #D2DAED",
"3X c #D3DAED",
"4X c #D3DBED",
"5X c #D3DAEE",
"6X c #D4D9EC",
"7X c #D4D9ED",
"8X c #D4DBEC",
"9X c #D4DAED",
"0X c #D5DAED",
"qX c #D4DBED",
"wX c #D5DBED",
"eX c #D7DAEC",
"rX c #D6DBED",
"tX c #D4DBEE",
"yX c #D5DBEE",
"uX c #D5DDED",
"iX c #D6DDED",
"pX c #D9DFEF",
"aX c #DADFEF",
"sX c #D8DDF0",
"dX c #DAE0F0",
"fX c #DBE0F0",
"gX c #DCE0F0",
"hX c #DCE0F1",
"jX c #DEE2F1",
"kX c #DEE2F2",
"lX c #E0E3F2",
"zX c #E6E7F5",
/* pixels */
"S.n.v.x.c.c.c.c.c.c.c.c.c.c.c.c.c.c.c.c.c.c.c.c.c.c.c.c.c.c.c.c.c.c.c.c.x.M.f.h.",
"b.8XtX;X>X>X>X>X>X>X>X>X>X>X>X>X>X>X>X>X>X>X>X>X>X>X>X>X>X>X>X>X>X>X>X>X;XaXL.f.",
"m.pXsXyXyXyXyXyXyXyXyXyXyXyXyXyXyXyXyXyXyXyXyXyXyXyXyXyXyXyXyXyXyXyXyXyXyXjXI.E ",
"b.iXtX>X>X>X>X>X>X>X>X>X>X>X>X>X>X>X>X>X>X>X>X>X>X>X>X>X>X>X3X3X3X>X>X>X>XdXL.W ",
"b.iXyX>X3X3X3X3X3X3X3X3X3X3X3X3X3X3X3X3X3X3X3X3X3X3X3X3X<X3X3X3X3X3X3X3X>XfXL.W ",
"b.iXyX>X3X3X3X3X3X3X3X3X3X3X3X3X3X3X3X3X3X3X3X3X3X3X<X:XwX3X3X3X3X3X3X3X>XfXL.W ",
"b.iXyX>X3X3X3X3X3X3X3X3X3X3X3X3X3X3X3X3X3X3X3X3X3X<X9X0X3X3X3X3X3X3X3X3X>XfXL.W ",
"b.iXyX>X3X3X3X3X3X3X3X3X3X3X3X3X3X3X3X3X3X3X3X3X2X7X9X3X3X3X3X3X3X:X3X3X>XfXL.W ",
"b.iXyX>X3X3X3X3X3X3X3X3X3X3X3X3X3X3X3X3X3X3X3X2X<XqX3X3X3X3X3X3X3XrX<X3X>XfXL.W ",
"b.iXyX>X3X3X3X3X3X3X3X3X3X3X3X3X3X3X3X3X3X3X3X2X0X3X3X3X3X3X3X3X3X3X:X3X>XfXL.W ",
"b.iXyX>X3X3X3X3X3X3X3X3X3X3X3X3X3X3X3X3X3X3X3X2X0X3X3X3X,X3X3X3X3X3X3X3X>XfXL.W ",
"b.iXyX>X3X3X3XZ.H 3X3X3X3X3X3X3X3X3X3X3X3X3X3X2X>X3X3X3X3X4X3X3X3X3X3X3X>XfXL.W ",
"b.iXyX>X3X3X3XI u Z =X3X3X3X3X3X3X3X3X3X3X<X4X3X3X3X3X3X3X3X3X3X2.y 3X3X>XfXL.W ",
"b.iXyX>X3X3X3X3X8.p N @X3X3X3X3X3X3X3X<X3X3X3X3X3X3X3X3X3X3X`.9   1 #X3X>XfXL.W ",
"b.iXyX>X3X3X3X3X3Xr.f b [.3X3X3X3X3X3X3X3X3X3X3X3X3X3X3X3X3.- @ K *X5X3X>XfXL.W ",
"b.iXyX>X3X3X3X3X3X3Xu.j x A.3X<X3X3X3X3X3X3X3X3X3X3X3X|.0 . , k.3X5X3X3X>XfXL.W ",
"b.iXyX>X3X3X3X3X3X3X3XC.z l p.3X3X3X3X3X3X3X3X3X3X3X4.; + r $X3X3X3X3X3X>XfXL.W ",
"b.iXyX>X3X3X3X3X3X3X3X3X'.c g w.3X3X3X3X3X3X3X3X.Xw X > j.3X3X3X3X3X3X3X>XfXL.W ",
"b.iXyX>X3X3X3X3X3X3X<X3X3X}.m s q.3X3X3X3X3X3X6.: o e XX3X3X3X3X3X3X3X3X>XfXL.W ",
"b.iXyX>X3X3X3X3X3X<X3X3X3X3X&XV i 7.#.` | *.t O : 5.3X3X3X3X3X3X3X3X3X3X>XfXL.W ",
"b.iXyX>X3X3X3X3X3X4X3X3X3X3X3X3XF / X.&.%.] J q  X3X3X3X3X3X3X3X3X3X3X3X>XfXL.W ",
"b.iXyX>X3X3X3X3X3X3X3X3X3X3X3X3X-. .W.!.!.E._ /.3X3X3X3X3X3X3X3X3X3X3X3X>XfXL.W ",
"b.iXyX>X3X3X3X3X3X3X3X3X3X3X3X3X+.$.!.!.!.!...U.3X3X3X3X3X3X3X3X3X3X3X3X>XfXL.W ",
"b.iXyX>X3X3X3X3X1X3X3X3X3X3X3X>Xo.O.!.!.!.Q.[ R.3X3X3X3X3X3X3X3X3X3X3X3X>XfXL.W ",
"b.iXyX>X3X3X3X3X3X3X3X3X3X3Xl.< 3 ) ;.!.Q.@.^ V.3X3X3X3X3X3X3X3X3X3X3X3X>XfXL.W ",
"b.iXyX>X3X<X4X<X3X3X3X3X3XY $ = 1.Y.( } ' { A h y.3X3X3X3X3X3X3X3X3X3X3X>XfXL.W ",
"b.iXyX>X3X4X3X3X3X3X3XF.4   7 ).3X3XoX=.T.OX{.n d e.3X3X3X3X3X3X3X3X3X3X>XfXL.W ",
"b.iXyX>X3X3X3X3X3X3X>.& * ,.3X3X3X3X3X3X3X3X3X@XB p U 3X3X3X3X3X3X3X3X3X>XfXL.W ",
"b.iXyX>X2X3X3X3X(.6   5 G.3X3X3X5X3X3X3X3X3X3X3X=XS u D 3X3X3X3X3X3X3X3X>XfXL.W ",
"b.iXyX>X<X3X3X<.* % :.3X3X3X3X3X3X3X3X3X3X3X3X3X3X3XG i C %X3X3X3X3X3X3X>XfXL.W ",
"b.iXyX>X<X_.8   2 F.3X3X3X3X3X3X3X3X3X3X3X3X3X3X3X3X3X0.a M +X3X3X3X3X3X>XfXL.W ",
"b.iXyX>X<XL # P 3X3X3X3X3X3X3X3X3X3X3X3X3X3X3X3X3X3X3X3Xt.f v ].3X3X3X3X>XfXL.W ",
"b.iXyX>X3X-Xz.3X3X3X3X^.3X3X3X3X3X3X3X3X3X3X3X3X3X3X3X3X3Xi.k 9.3X3X3X3X>XfXL.W ",
"b.iXyX>X3X3X:XeX3X3X3X3X3X3X3X3X3X3X3X3X3X3X3X3X3X3X3X3X3X3X[.3X3X3X3X3X>XfXL.W ",
"b.iXyX>X3X3X3X<X6X3X3X3X3X3X3X5X3X3X3X3X3X3X3X3X3X3X3X3X3X3X3X3X3X3X3X3X>XfXL.W ",
"b.iXyX>X3X3X3X3X2X>X3X3X3X3X5X3X3X3X3X3X3X3X3X3X3X3X3X3X3X3X3X3X3X3X3X3X>XfXL.W ",
"v.uXtX>X>X>X>X>X>X>X>X>X>X>X>X>X>X>X>X>X>X>X>X>X>X>X>X>X>X>X>X>X>X>X>X>X>XdXK.W ",
"D.lXkXgXhXhXhXhXhXhXhXhXhXhXhXhXhXhXhXhXhXhXhXhXhXhXhXhXhXhXhXhXhXhXhXhXgXzX~.T ",
"s.J.H.N.B.B.B.B.B.B.B.B.B.B.B.B.B.B.B.B.B.B.B.B.B.B.B.B.B.B.B.B.B.B.B.B.N.P.d.Q ",
"g.a.R R R R R R R R R R R R R R R R R R R R R R R R R R R R R R R R R R R R ! ~ "
};
