/* XPM */
static char *result[] = {
/* columns rows colors chars-per-pixel */
"40 40 140 2 ",
"   c #020303",
".  c #030304",
"X  c #040405",
"o  c #050506",
"O  c #060607",
"+  c #0A0A0B",
"@  c #0B0B0C",
"#  c #0C0D0E",
"$  c #0F0F11",
"%  c #111214",
"&  c #141516",
"*  c #161719",
"=  c #232427",
"-  c #292A2E",
";  c #2E3034",
":  c #303236",
">  c #33353A",
",  c #36383C",
"<  c #383A3F",
"1  c #3B3D42",
"2  c #3C3E43",
"3  c #3C3E44",
"4  c #414348",
"5  c #45474D",
"6  c #494B52",
"7  c #4D5056",
"8  c #51545B",
"9  c #555860",
"0  c #595B63",
"q  c #61646D",
"w  c #757983",
"e  c #757984",
"r  c #787C87",
"t  c #797D88",
"y  c #7C808B",
"u  c #7F848F",
"i  c #678BB8",
"p  c #678BBA",
"a  c #678CB8",
"s  c #688CB9",
"d  c #698DBB",
"f  c #698EBB",
"g  c #7091BE",
"h  c #808590",
"j  c #858A96",
"k  c #8A8F9B",
"l  c #9095A2",
"z  c #9296A4",
"x  c #969BA8",
"c  c #989DAB",
"v  c #9CA1AF",
"b  c #9DA2B1",
"n  c #A0A5B3",
"m  c #A1A7B5",
"M  c #A2A8B6",
"N  c #AAAFBF",
"B  c #84A2C7",
"V  c #9AB3D1",
"C  c #9CB1D2",
"Z  c #9CB3D2",
"A  c #9EB6D4",
"S  c #9FB7D4",
"D  c #ACB2C1",
"F  c #AEB4C3",
"G  c #AFB4C4",
"H  c #B8BECE",
"J  c #B9BFCF",
"K  c #A7BBD6",
"L  c #A7BCD7",
"P  c #A9BDD7",
"I  c #A9BED8",
"U  c #A9BFD8",
"Y  c #ABBFD8",
"T  c #ACBFD9",
"R  c #AEBFDA",
"E  c #AFBFDA",
"W  c #AEC1DA",
"Q  c #AEC2DA",
"!  c #BAC0D1",
"~  c #BDC3D4",
"^  c #BFC5D7",
"/  c #B1C0DC",
"(  c #B0C1DC",
")  c #B2C3DD",
"_  c #B3C3DD",
"`  c #B4C3DD",
"'  c #B6C4DE",
"]  c #BAC8E0",
"[  c #BCD3ED",
"{  c #C1C8D9",
"}  c #C3CADB",
"|  c #C5CBDD",
" . c #C6CCDE",
".. c #C7CDDF",
"X. c #C7CEE0",
"o. c #C8CFE1",
"O. c #CAD1E3",
"+. c #CCD2E5",
"@. c #CCD3E6",
"#. c #CDD4E6",
"$. c #CED5E7",
"%. c #CFD6E8",
"&. c #D0D7E9",
"*. c #D1D7EA",
"=. c #D1D8EB",
"-. c #D1D9EC",
";. c #D1D9ED",
":. c #D2D9EC",
">. c #D3D9EC",
",. c #D2D9ED",
"<. c #D3DAEC",
"1. c #D2DAED",
"2. c #D3DAED",
"3. c #D3DBED",
"4. c #D3DAEE",
"5. c #D4D9EC",
"6. c #D4D9ED",
"7. c #D4DBEC",
"8. c #D4DAED",
"9. c #D5DAED",
"0. c #D4DBED",
"q. c #D5DBED",
"w. c #D6DAEC",
"e. c #D7DAEC",
"r. c #D6DBED",
"t. c #D4DBEE",
"y. c #D5DBEE",
"u. c #D5DDED",
"i. c #D6DDED",
"p. c #D9DFEF",
"a. c #DADFEF",
"s. c #D8DDF0",
"d. c #DAE0F0",
"f. c #DBE0F0",
"g. c #DCE0F0",
"h. c #DCE0F1",
"j. c #DEE2F1",
"k. c #DEE2F2",
"l. c #E0E3F2",
"z. c #E6E7F5",
/* pixels */
"W U P K L L L L L L L L L L L L L L L L L L L L L L L L L L L L L L L L K T Z S ",
"I 7.t.-.:.:.:.:.:.:.:.:.:.:.:.:.:.:.:.:.:.:.:.:.:.:.:.:.:.:.:.:.:.:.:.:.-.a._ Z ",
"Y p.s.y.y.y.y.y.y.y.y.y.y.y.y.y.y.y.y.y.y.y.y.y.y.y.y.y.y.y.y.y.y.y.y.y.y.j.' a ",
"I i.t.:.:.:.:.:.:.:.:.:.:.:.:.:.:.:.:.:.:.:.:.:.:.:.:.:.:.:.2.2.2.:.:.:.:.d._ s ",
"I i.y.:.2.2.2.2.2.2.2.2.2.2.2.2.2.2.2.2.2.2.2.2.2.2.2.2.,.2.2.2.2.2.2.2.:.f._ s ",
"I i.y.:.2.2.2.2.2.2.2.2.2.2.2.2.2.2.2.2.2.2.2.2.2.2.,.;.q.2.2.2.2.2.2.2.:.f._ s ",
"I i.y.:.2.2.2.2.2.2.2.2.2.2.2.2.2.2.2.2.2.2.2.2.2.,.8.9.2.2.2.2.2.2.2.2.:.f._ s ",
"I i.y.:.2.2.2.2.2.2.2.2.2.2.2.2.2.2.2.2.2.2.2.2.1.6.8.2.2.2.2.2.2.;.2.2.:.f._ s ",
"I i.y.:.2.2.2.2.2.2.2.2.2.2.2.2.2.2.2.2.2.2.2.1.,.0.2.2.| 8 F 2.2.r.,.2.:.f._ s ",
"I i.y.:.2.2.2.2.2.2.2.2.2.2.2.2.2.2.2.2.2.2.2.1.9.2.2.| 3   9 2.2.2.;.2.:.f._ s ",
"I i.y.:.2.2.2.2.2.2.2.2.2.2.2.2.2.2.2.2.2.2.2.1.9.2. .4   1 } 2.2.2.2.2.:.f._ s ",
"I i.y.:.2.2.2.2.2.2.2.2.2.2.2.2.2.2.2.2.2.2.2.1.:...5   < { 2.2.2.2.2.2.:.f._ s ",
"I i.y.:.2.2.2.2.2.2.2.2.2.2.2.2.2.2.2.2.2.,.3.2.X.6   , ^ 2.2.2.2.2.2.2.:.f._ s ",
"I i.y.:.2.2.2.2.2.2.2.2.2.2.2.2.2.2.2.,.2.2.2.o.7   > ~ 2.2.2.2.2.2.2.2.:.f._ s ",
"I i.y.:.2.2.2.2.2.2.2.2.2.2.2.2.2.2.2.2.2.2.+.8 . : ! 2.2.2.2.2.2.2.4.2.:.f._ s ",
"I i.y.:.2.2.2.2.2.2.2.2.2.2.2.,.2.2.2.2.2.2.X.2 ; H 2.2.2.2.2.2.2.4.2.2.:.f._ s ",
"I i.y.:.2.2.2.2.2.2.2.2.2.2.2.2.2.2.2.2.2.2.2.~ J 2.2.4.4.2.2.2.2.2.2.2.:.f._ s ",
"I i.y.:.2.2.2.2.2.2.2.2.2.2.2.2.2.2.2.+.z #.2.2.2.2.4.2.2.2.2.2.2.2.2.2.:.f._ s ",
"I i.y.:.2.2.2.2.2.2.,.2.2.2.2.2.2.2.@.q + u 2.2.2.2.2.2.2.2.2.2.2.2.2.2.:.f._ s ",
"I i.y.:.2.2.2.2.2.,.2.2.2.2.4.,.2.2.r X = G 2.2.4.2.2.2.2.2.2.2.2.2.2.2.:.f._ s ",
"I i.y.:.2.2.2.2.2.3.2.2.2.2.2.2.2.2.m , D 2.2.4.2.2.2.2.2.2.2.2.2.2.2.2.:.f._ s ",
"I i.y.:.2.2.2.2.2.2.2.2.2.2.2.*.:.2.2.o.2.2.4.2.2.2.2.2.2.2.2.2.2.2.2.2.:.f._ s ",
"I i.y.:.2.2.2.2.2.2.2.2.2.2.%.e l :.2.2.2.2.2.2.2.2.2.2.2.2.2.2.2.2.2.2.:.f._ s ",
"I i.y.:.2.2.2.2.<.2.2.2.2.&.w o - O.2.2.2.4.2.2.2.2.2.2.2.2.2.2.2.2.2.2.:.f._ s ",
"I i.y.:.2.2.2.2.2.2.2.2.*.t o * M 2.2.2.2.2.2.2.2.2.2.2.2.2.2.2.2.2.2.2.:.f._ s ",
"I i.y.:.2.,.3.,.2.2.2.=.y O & n 2.2.2.2.4.2.2.2.2.2.2.2.2.2.2.2.2.2.2.2.:.f._ s ",
"I i.y.:.2.3.2.2.2.2.=.h O % b 2.2.2.2.4.2.2.2.2.2.2.2.2.2.2.2.2.2.2.2.2.:.f._ s ",
"I i.y.:.2.2.2.2.2.:.j O $ v 2.2.2.2.2.2.2.2.2.2.2.2.2.2.2.2.2.2.2.2.2.2.:.f._ s ",
"I i.y.:.1.2.2.2.2.k O # c 2.2.2.4.2.2.2.2.2.2.2.2.2.2.2.2.2.2.2.2.2.2.2.:.f._ s ",
"I i.y.:.,.2.2.2.2.0 @ x 2.2.2.2.2.2.2.2.2.2.2.2.2.2.2.2.2.2.2.2.2.2.2.2.:.f._ s ",
"I i.y.:.,.2.2.2.2.$.N 2.2.2.2.2.2.2.2.2.2.2.2.2.2.2.2.2.2.2.2.2.2.2.2.2.:.f._ s ",
"I i.y.:.,.>.2.2.2.2.2.2.2.2.2.2.2.2.2.2.2.2.2.2.2.2.2.2.2.2.2.2.2.2.2.2.:.f._ s ",
"I i.y.:.2.,.w.2.2.2.2.[ 2.2.2.2.2.2.2.2.2.2.2.2.2.2.2.2.2.2.2.2.2.2.2.2.:.f._ s ",
"I i.y.:.2.2.;.e.2.2.2.2.2.2.2.2.2.2.2.2.2.2.2.2.2.2.2.2.2.2.2.2.2.2.2.2.:.f._ s ",
"I i.y.:.2.2.2.,.5.2.2.2.2.2.2.4.2.2.2.2.2.2.2.2.2.2.2.2.2.2.2.2.2.2.2.2.:.f._ s ",
"I i.y.:.2.2.2.2.1.:.2.2.2.2.4.2.2.2.2.2.2.2.2.2.2.2.2.2.2.2.2.2.2.2.2.2.:.f._ s ",
"P u.t.:.:.:.:.:.:.:.:.:.:.:.:.:.:.:.:.:.:.:.:.:.:.:.:.:.:.:.:.:.:.:.:.:.:.d.) s ",
"Q l.k.g.h.h.h.h.h.h.h.h.h.h.h.h.h.h.h.h.h.h.h.h.h.h.h.h.h.h.h.h.h.h.h.h.g.z.] i ",
"V ( / R E E E E E E E E E E E E E E E E E E E E E E E E E E E E E E E E R ` C d ",
"A B p p p p p p p p p p p p p p p p p p p p p p p p p p p p p p p p p p p p f g "
};
