/* XPM */
static char *result[] = {
/* columns rows colors chars-per-pixel */
"40 40 131 2 ",
"   c #020202",
".  c gray1",
"X  c #030304",
"o  c #040404",
"O  c gray2",
"+  c #080809",
"@  c #09090A",
"#  c #0A0A0B",
"$  c #0C0C0D",
"%  c #0E0E10",
"&  c #101012",
"*  c #121314",
"=  c #1C1D1F",
"-  c #202225",
";  c #25262A",
":  c #26282B",
">  c #292B2E",
",  c #2B2D30",
"<  c #2D2F33",
"1  c #2F3135",
"2  c #303136",
"3  c #303236",
"4  c #34353A",
"5  c #37393E",
"6  c #3A3C42",
"7  c #3E4045",
"8  c #414349",
"9  c #44474D",
"0  c #474950",
"q  c #4E5057",
"w  c #5D6169",
"e  c #5E616A",
"r  c #60646C",
"t  c #61646D",
"y  c #636770",
"u  c #666A73",
"i  c #676A73",
"p  c #6B6E78",
"a  c #6F737C",
"s  c #537094",
"d  c #537095",
"f  c #547094",
"g  c #547196",
"h  c #547296",
"j  c #5A7498",
"k  c #737782",
"l  c #757983",
"z  c #787C87",
"x  c #7A7E89",
"c  c #7D818C",
"v  c #7E828E",
"b  c #6B84A3",
"n  c #7D8EA8",
"m  c #7A91AD",
"M  c #7B91AD",
"N  c #7D93AF",
"B  c #7E94AF",
"V  c #808490",
"C  c #818691",
"Z  c #828792",
"A  c #888D99",
"S  c #8A8F9B",
"D  c #8B909C",
"F  c #8C919D",
"G  c #8C99AF",
"H  c #9398A5",
"J  c #9499A6",
"K  c #959AA8",
"L  c #979CAA",
"P  c #999FAC",
"I  c #8196B2",
"U  c #8398B2",
"Y  c #8298B3",
"T  c #8398B3",
"R  c #8399B3",
"E  c #8499B3",
"W  c #869BB5",
"Q  c #879BB5",
"!  c #8D9BB0",
"~  c #8E9AB0",
"^  c #8F9CB1",
"/  c #909CB1",
"(  c #929DB2",
")  c #9AA0AE",
"_  c #95A0B4",
"`  c #9CA2B0",
"'  c #9EA3B1",
"]  c #9EA4B2",
"[  c #9FA5B3",
"{  c #97A9BE",
"}  c #A0A5B4",
"|  c #A0A6B4",
" . c #A2A7B6",
".. c #A3A9B7",
"X. c #A4AAB8",
"o. c #A4AAB9",
"O. c #A5ABBA",
"+. c #A6ACBA",
"@. c #A6ACBB",
"#. c #A7ADBC",
"$. c #A8AEBD",
"%. c #A9AEBD",
"&. c #A9AFBD",
"*. c #AAAEBD",
"=. c #A8AEBE",
"-. c #A8AFBE",
";. c #A9AFBE",
":. c #A9AFBF",
">. c #AAAEBE",
",. c #AAAFBE",
"<. c #ABAFBE",
"1. c #ACAFBD",
"2. c #AAB0BD",
"3. c #A9B0BE",
"4. c #AAB0BE",
"5. c #ABB0BE",
"6. c #ABB1BE",
"7. c #AAB0BF",
"8. c #ABB0BF",
"9. c #ACB0BE",
"0. c #ACB1BE",
"q. c #ADB1C0",
"w. c #AEB3C0",
"e. c #AFB3C0",
"r. c #AFB4C0",
"t. c #B0B4C0",
"y. c #B0B4C1",
"u. c #B2B5C1",
"i. c #B2B5C2",
"p. c #B4B6C2",
"a. c #B8B9C4",
/* pixels */
"Q U T I I I I I I I I I I I I I I I I I I I I I I I I I I I I I I I I I I E M B ",
"U 2.7.$.$.$.$.$.$.$.$.$.$.$.$.$.$.$.$.$.$.$.$.$.$.$.$.$.$.$.$.$.$.$.$.$.$.e./ M ",
"R w.q.8.8.8.8.8.8.8.8.8.8.8.8.8.8.8.8.8.8.8.8.8.8.8.8.8.8.8.8.8.8.8.8.8.8.u.( s ",
"T 0.7.$.$.$.$.$.$.$.$.$.$.$.$.$.$.$.$.$.$.$.$.$.$.$.$.$.$.$.;.;.;.$.$.$.$.r./ f ",
"T 0.8.$.;.;.;.;.;.;.;.;.;.;.;.;.;.;.;.;.;.;.;.;.;.;.;.;.=.;.;.;.;.;.;.;.$.t./ f ",
"T 0.8.$.;.;.;.;.;.;.;.;.;.;.;.;.;.;.;.;.;.;.;.;.;.;.=.=.5.;.;.;.;.;.;.;.$.t./ f ",
"T 0.8.$.;.;.;.;.;.;.;.;.;.;.;.;.;.;.;.;.;.;.;.;.;.=.,.<.;.;.;.;.;.;.;.;.$.t./ f ",
"T 0.8.$.;.;.;.;.;.;.;.;.;.;.;.;.;.;.;.;.;.;.;.;.-.>.,.;.;.;.;.;.;.=.;.;.$.t./ f ",
"T 0.8.$.;.;.;.;.;.;.;.;.;.;.;.;.;.;.;.;.;.;.;.-.=.4.;.;.;.' 8 D ;.9.=.;.$.t./ f ",
"T 0.8.$.;.;.;.;.;.;.;.;.;.;.;.;.;.;.;.;.;.;.;.-.<.;.;.;.' 3   9 ;.;.=.;.$.t./ f ",
"T 0.8.$.;.;.;.;.;.;.;.;.;.;.;.;.;.;.;.;.;.;.;.-.<.;.;.] 4   1 ` ;.;.;.;.$.t./ f ",
"T 0.8.$.;.;.;.;.;.;.;.;.;.;.;.;.;.;.;.;.;.;.;.-.$.;.[ 5   < ) ;.;.;.;.;.$.t./ f ",
"T 0.8.$.;.;.;.;.;.;.;.;.;.;.;.;.;.;.;.;.;.=.3.;.;.} 6   , P ;.;.;.;.;.;.$.t./ f ",
"T 0.8.$.;.;.;.;.;.;.;.;.;.;.;.;.;.;.;.=.;.;.;.;.| 7   > L ;.;.;.;.;.;.;.$.t./ f ",
"T 0.8.$.;.;.;.;.;.;.;.;.;.;.;.;.;.;.;.;.;.;.;...8 . : K ;.;.;.;.;.;.:.;.$.t./ f ",
"T 0.8.$.;.;.;.;.;.;.;.;.;.;.;.=.;.;.;.;.;.;.;.} 2 ; H ;.;.;.;.;.;.:.;.;.$.t./ f ",
"T 0.8.$.;.;.;.;.;.;.;.;.;.;.;.;.;.;.;.;.;.;.;.;.L J ;.:.:.;.;.;.;.;.;.;.$.t./ f ",
"T 0.8.$.;.;.;.;.;.;.;.;.;.;.;.;.;.;.;.;...l o.;.;.;.:.;.;.;.;.;.;.;.;.;.$.t./ f ",
"T 0.8.$.;.;.;.;.;.;.=.;.;.;.;.;.;.;.;.X.q + u ;.;.;.;.;.;.;.;.;.;.;.;.;.$.t./ f ",
"T 0.8.$.;.;.;.;.;.=.;.;.;.;.:.=.;.;.;.r X = F ;.:.;.;.;.;.;.;.;.;.;.;.;.$.t./ f ",
"T 0.8.$.;.;.;.;.;.3.;.;.;.;.;.;.;.;.;.C , S ;.:.;.;.;.;.;.;.;.;.;.;.;.;.$.t./ f ",
"T 0.8.$.;.;.;.;.;.;.;.;.;.;.;.;.#.$.;.;.| ;.:.;.;.;.;.;.;.;.;.;.;.;.;.;.$.t./ f ",
"T 0.8.$.;.;.;.;.;.;.;.;.;.;.;.+.e k $.;.;.;.;.;.;.;.;.;.;.;.;.;.;.;.;.;.$.t./ f ",
"T 0.8.$.;.;.;.;.&.;.;.;.;.;.@.w o -  .;.;.:.;.;.;.;.;.;.;.;.;.;.;.;.;.;.$.t./ f ",
"T 0.8.$.;.;.;.;.;.;.;.;.;.#.t o * Z ;.;.;.;.;.;.;.;.;.;.;.;.;.;.;.;.;.;.$.t./ f ",
"T 0.8.$.;.=.3.=.;.;.;.;.$.y O & V ;.;.;.:.;.;.;.;.;.;.;.;.;.;.;.;.;.;.;.$.t./ f ",
"T 0.8.$.;.3.;.;.;.;.;.$.i O % v ;.;.;.:.;.;.;.;.;.;.;.;.;.;.;.;.;.;.;.;.$.t./ f ",
"T 0.8.$.;.;.;.;.;.;.$.p O $ c ;.;.;.;.;.;.;.;.;.;.;.;.;.;.;.;.;.;.;.;.;.$.t./ f ",
"T 0.8.$.-.;.;.;.;.;.a O # x ;.;.:.;.;.;.;.;.;.;.;.;.;.;.;.;.;.;.;.;.;.;.$.t./ f ",
"T 0.8.$.=.;.;.;.;.;.0 @ z ;.;.;.;.;.;.;.;.;.;.;.;.;.;.;.;.;.;.;.;.;.;.;.$.t./ f ",
"T 0.8.$.=.;.;.;.;.;.O.A ;.;.;.;.;.;.;.;.;.;.;.;.;.;.;.;.;.;.;.;.;.;.;.;.$.t./ f ",
"T 0.8.$.=.%.;.;.;.;.;.;.;.;.;.;.;.;.;.;.;.;.;.;.;.;.;.;.;.;.;.;.;.;.;.;.$.t./ f ",
"T 0.8.$.;.=.1.;.;.;.;.{ ;.;.;.;.;.;.;.;.;.;.;.;.;.;.;.;.;.;.;.;.;.;.;.;.$.t./ f ",
"T 0.8.$.;.;.=.1.;.;.;.;.;.;.;.;.;.;.;.;.;.;.;.;.;.;.;.;.;.;.;.;.;.;.;.;.$.t./ f ",
"T 0.8.$.;.;.;.=.*.;.;.;.;.;.;.:.;.;.;.;.;.;.;.;.;.;.;.;.;.;.;.;.;.;.;.;.$.t./ f ",
"T 0.8.$.;.;.;.;.-.$.;.;.;.;.:.;.;.;.;.;.;.;.;.;.;.;.;.;.;.;.;.;.;.;.;.;.$.t./ f ",
"Y 6.7.$.$.$.$.$.$.$.$.$.$.$.$.$.$.$.$.$.$.$.$.$.$.$.$.$.$.$.$.$.$.$.$.$.$.r.^ f ",
"W p.i.t.y.y.y.y.y.y.y.y.y.y.y.y.y.y.y.y.y.y.y.y.y.y.y.y.y.y.y.y.y.y.y.y.t.a._ s ",
"m ! ~ G G G G G G G G G G G G G G G G G G G G G G G G G G G G G G G G G G / n g ",
"N b d d d d d d d d d d d d d d d d d d d d d d d d d d d d d d d d d d d d h j "
};
