/* XPM */
static char *result[] = {
/* columns rows colors chars-per-pixel */
"40 40 81 1 ",
"  c black",
". c #080909",
"X c #17181A",
"o c #222326",
"O c #35373B",
"+ c #575A62",
"@ c #636770",
"# c #6A6D77",
"$ c #777B86",
"% c #678BB8",
"& c #678BBA",
"* c #678CB8",
"= c #688CB9",
"- c #698DBB",
"; c #698EBB",
": c #7091BE",
"> c #848995",
", c #9296A4",
"< c #84A2C7",
"1 c #9AB3D1",
"2 c #9CB1D2",
"3 c #9CB3D2",
"4 c #9EB6D4",
"5 c #9FB7D4",
"6 c #AFB5C5",
"7 c #B7BDCD",
"8 c #A7BBD6",
"9 c #A7BCD7",
"0 c #A9BDD7",
"q c #A9BED8",
"w c #A9BFD8",
"e c #ABBFD8",
"r c #ACBFD9",
"t c #AEBFDA",
"y c #AFBFDA",
"u c #AEC1DA",
"i c #AEC2DA",
"p c #B1C0DC",
"a c #B0C1DC",
"s c #B2C3DD",
"d c #B3C3DD",
"f c #B4C3DD",
"g c #B6C4DE",
"h c #BAC8E0",
"j c #BCD3ED",
"k c #C3CADB",
"l c #D1D9EC",
"z c #D1D9ED",
"x c #D2D9EC",
"c c #D3D9EC",
"v c #D2D9ED",
"b c #D3DAEC",
"n c #D2DAED",
"m c #D3DAED",
"M c #D3DBED",
"N c #D3DAEE",
"B c #D4D9EC",
"V c #D4D9ED",
"C c #D4DBEC",
"Z c #D4DAED",
"A c #D5DAED",
"S c #D4DBED",
"D c #D5DBED",
"F c #D6DAEC",
"G c #D7DAEC",
"H c #D6DBED",
"J c #D4DBEE",
"K c #D5DBEE",
"L c #D5DDED",
"P c #D6DDED",
"I c #D9DFEF",
"U c #DADFEF",
"Y c #D8DDF0",
"T c #DAE0F0",
"R c #DBE0F0",
"E c #DCE0F0",
"W c #DCE0F1",
"Q c #DEE2F1",
"! c #DEE2F2",
"~ c #E0E3F2",
"^ c #E6E7F5",
/* pixels */
"uw08999999999999999999999999999999998r35",
"qCJlxxxxxxxxxxxxxxxxxxxxxxxxxxxxxxxxlUd3",
"eIYKKKKKKKKKKKKKKKKKKKKKKKKKKKKKKKKKKQg*",
"qPJxxxxxxxxxxxxxxxxxxxxxxxxxxxmmmxxxxTd=",
"qPKxmmmmmmmmmmmmmmmmmmmmmmmmvmmmmmmmxRd=",
"qPKxmmmmmmmmmmmmmmmmmmmmmmvzDmmmmmmmxRd=",
"qPKxmmmmmmmmmmmmmmmmmmmmmvZAmmmmmmmmxRd=",
"qPKxm>#######>kmmmmmmmmmnVZmmmmmmzmmxRd=",
"qPKxmO       oX@mmmmmmmnvSmmmmmmmHvmxRd=",
"qPKxmmmmmmmmmm+ @mmmmmmnAmmmmmmmmmzmxRd=",
"qPKxmmmmmmmmmmm+ @mmmmmnAmmmcmmmmmmmxRd=",
"qPKxmmmmmmmmmmmm+ @mmmmnxmmmmMmmmmmmxRd=",
"qPKxmmmmmmmmmmmmm+ @mvMmmmmmmmmmmmmmxRd=",
"qPKxmmmmmmmmmmmmmm+ @mmmmmmmmmmmmmmmxRd=",
"qPKxmmmmmmmmmmmmmmm+ @mmmmmmmmmmmmNmxRd=",
"qPKxmmmmmmmmmmmvmmmm+ @mmmmmmmmmmNmmxRd=",
"qPKxmmmmmmmmmmmmmmmmm+ @mmmNNmmmmmmmxRd=",
"qPKxmmmmmmmmmmmmmmmmmm+ @mNmmmmmmmmmxRd=",
"qPKxmmmmmmvmmmmmmmmmmmm+ @mmmmmmmmmmxRd=",
"qPKxmmmmmvmmmmNvmmmmmmmm+ @mmmmmmmmmxRd=",
"qPKxmmmmmMmmmmmmmmmmmmmNm+.6mmmmmmmmxRd=",
"qPKxmmmmmmmmmmmmmmmmmmNmmm $mmmmmmmmxRd=",
"qPKxmmmmmmmmmmmmmmmmmmmmmm $mmmmmmmmxRd=",
"qPKxmmmmbmmmmmmmmmmmmNmmmm $mmmmmmmmxRd=",
"qPKxmmmmmmmmmmmmmmmmmmmmmm $mmmmmmmmxRd=",
"qPKxmvMvmmmmmmmmmmmmNmmmmm $mmmmmmmmxRd=",
"qPKxmMmmmmmmmmmmmmmNmmmmmm $mmmmmmmmxRd=",
"qPKxmmmmmmmmmmmmmmmmmmmmmm $mmmmmmmmxRd=",
"qPKxnmmmmmmmmmmmNmmmmmmmmm $mmmmmmmmxRd=",
"qPKxvmmmmmmmmmmmmmmmmmmmmm $mmmmmmmmxRd=",
"qPKxvmmmmmmmmmmmmmmmmmmmmm $mmmmmmmmxRd=",
"qPKxvcmmmmmmmmmmmmmmmmmmmm $mmmmmmmmxRd=",
"qPKxmvFmmmmjmmmmmmmmmmmmmm $mmmmmmmmxRd=",
"qPKxmmzGmmmmmmmmmmmmmmmmmm,7mmmmmmmmxRd=",
"qPKxmmmvBmmmmmmNmmmmmmmmmmmmmmmmmmmmxRd=",
"qPKxmmmmnxmmmmNmmmmmmmmmmmmmmmmmmmmmxRd=",
"0LJxxxxxxxxxxxxxxxxxxxxxxxxxxxxxxxxxxTs=",
"i~!EWWWWWWWWWWWWWWWWWWWWWWWWWWWWWWWWE^h%",
"1aptyyyyyyyyyyyyyyyyyyyyyyyyyyyyyyyytf2-",
"4<&&&&&&&&&&&&&&&&&&&&&&&&&&&&&&&&&&&&;:"
};
