/* XPM */
static char *result[] = {
/* columns rows colors chars-per-pixel */
"40 40 74 1 ",
"  c black",
". c #070707",
"X c #131315",
"o c #1B1C1F",
"O c #2A2C30",
"+ c #45484E",
"@ c #46484E",
"# c #505259",
"$ c #55585F",
"% c #5F636B",
"& c #6A6E77",
"* c #537094",
"= c #537095",
"- c #547094",
"; c #547196",
": c #547296",
"> c #5A7498",
", c #757983",
"< c #6B84A3",
"1 c #7D8EA8",
"2 c #7A91AD",
"3 c #7B91AD",
"4 c #7D93AF",
"5 c #7E94AF",
"6 c #8D919E",
"7 c #8C99AF",
"8 c #9298A5",
"9 c #8196B2",
"0 c #8398B2",
"q c #8298B3",
"w c #8398B3",
"e c #8399B3",
"r c #8499B3",
"t c #869BB5",
"y c #879BB5",
"u c #8D9BB0",
"i c #8E9AB0",
"p c #8F9CB1",
"a c #909CB1",
"s c #929DB2",
"d c #95A0B4",
"f c #9CA2B0",
"g c #97A9BE",
"h c #A8AEBD",
"j c #A9AEBD",
"k c #A9AFBD",
"l c #AAAEBD",
"z c #A8AEBE",
"x c #A8AFBE",
"c c #A9AFBE",
"v c #A9AFBF",
"b c #AAAEBE",
"n c #AAAFBE",
"m c #ABAFBE",
"M c #ACAFBD",
"N c #AAB0BD",
"B c #A9B0BE",
"V c #AAB0BE",
"C c #ABB0BE",
"Z c #ABB1BE",
"A c #AAB0BF",
"S c #ABB0BF",
"D c #ACB0BE",
"F c #ACB1BE",
"G c #ADB1C0",
"H c #AEB3C0",
"J c #AFB3C0",
"K c #AFB4C0",
"L c #B0B4C0",
"P c #B0B4C1",
"I c #B2B5C1",
"U c #B2B5C2",
"Y c #B4B6C2",
"T c #B8B9C4",
/* pixels */
"y0w9999999999999999999999999999999999r35",
"0NAhhhhhhhhhhhhhhhhhhhhhhhhhhhhhhhhhhJa3",
"eHGSSSSSSSSSSSSSSSSSSSSSSSSSSSSSSSSSSIs*",
"wFAhhhhhhhhhhhhhhhhhhhhhhhhhhhccchhhhKa-",
"wFShcccccccccccccccccccccccczccccccchLa-",
"wFShcccccccccccccccccccccczzCccccccchLa-",
"wFShcccccccccccccccccccccznmcccccccchLa-",
"wFShcc&$$$$$$$&fccccccccxbncccccczcchLa-",
"wFShccO       oX#ccccccxzVcccccccDzchLa-",
"wFShccccccccccc@ #cccccxmccccccccczchLa-",
"wFShcccccccccccc@ #ccccxmcccjccccccchLa-",
"wFShccccccccccccc@ #cccxhccccBcccccchLa-",
"wFShcccccccccccccc@ #zBccccccccccccchLa-",
"wFShccccccccccccccc+ #cccccccccccccchLa-",
"wFShcccccccccccccccc@ #cccccccccccvchLa-",
"wFShccccccccccczccccc@ #cccccccccvcchLa-",
"wFShcccccccccccccccccc@ #ccvvccccccchLa-",
"wFShccccccccccccccccccc@ #vccccccccchLa-",
"wFShcccccczccccccccccccc@ #ccccccccchLa-",
"wFShccccczccccvzccccccccv@ #cccccccchLa-",
"wFShcccccBcccccccccccccvcc@.6ccccccchLa-",
"wFShccccccccccccccccccvcccc %ccccccchLa-",
"wFShccccccccccccccccccccccc %ccccccchLa-",
"wFShcccckccccccccccccvccccc %ccccccchLa-",
"wFShccccccccccccccccccccccc %ccccccchLa-",
"wFShczBzccccccccccccvcccccc %ccccccchLa-",
"wFShcBcccccccccccccvccccccc %ccccccchLa-",
"wFShccccccccccccccccccccccc %ccccccchLa-",
"wFShxcccccccccccvcccccccccc %ccccccchLa-",
"wFShzcccccccccccccccccccccc %ccccccchLa-",
"wFShzcccccccccccccccccccccc %ccccccchLa-",
"wFShzjccccccccccccccccccccc %ccccccchLa-",
"wFShczMccccgccccccccccccccc %ccccccchLa-",
"wFShcczMccccccccccccccccccc,8ccccccchLa-",
"wFShccczlccccccvcccccccccccccccccccchLa-",
"wFShccccxhccccvccccccccccccccccccccchLa-",
"qZAhhhhhhhhhhhhhhhhhhhhhhhhhhhhhhhhhhKp-",
"tYULPPPPPPPPPPPPPPPPPPPPPPPPPPPPPPPPLTd*",
"2ui7777777777777777777777777777777777a1;",
"4<====================================:>"
};
