/* XPM */
static char *result[] = {
/* columns rows colors chars-per-pixel */
"40 40 119 2 ",
"   c #020202",
".  c #070808",
"X  c #0B0C0C",
"o  c #0F0F11",
"O  c #131314",
"+  c #161618",
"@  c #191A1B",
"#  c #1D1E21",
"$  c #1F2022",
"%  c #222325",
"&  c #252629",
"*  c #292A2E",
"=  c #2B2C30",
"-  c #313336",
";  c #35373B",
":  c #3A3B3E",
">  c #123E51",
",  c #3D3E42",
"<  c #3F4248",
"1  c #354E5B",
"2  c #44464C",
"3  c #48494E",
"4  c #515257",
"5  c #53555C",
"6  c #5C5E65",
"7  c #5D6068",
"8  c #4C6A7A",
"9  c #63666E",
"0  c #636770",
"q  c #676B74",
"w  c #6E717A",
"e  c #72757E",
"r  c #3A7D9A",
"t  c #51798D",
"y  c #777B86",
"u  c #1A82B0",
"i  c #288AB6",
"p  c #7F8591",
"a  c #478BAC",
"s  c #678BBA",
"d  c #688CB9",
"f  c #7091BE",
"g  c #019EE1",
"h  c #07A2E5",
"j  c #0DA6E8",
"k  c #13A7E8",
"l  c #15A9E8",
"z  c #1AAAE8",
"x  c #2CABE4",
"c  c #24AEE8",
"v  c #2DAFE9",
"b  c #2BB1E8",
"n  c #35B3E9",
"m  c #3EB8E8",
"M  c #589FC2",
"N  c #41B4EA",
"B  c #44BAE8",
"V  c #4DB9EB",
"C  c #51B4E2",
"Z  c #53BDEA",
"A  c #5EBDEC",
"S  c #60BEEC",
"D  c #7BBFE6",
"F  c #54C0E8",
"G  c #5EC3E9",
"H  c #64C5E9",
"J  c #69C7E9",
"K  c #6DC9E9",
"L  c #7DC4EB",
"P  c #75CCE9",
"I  c #828692",
"U  c #868A95",
"Y  c #8A8F9B",
"T  c #8C909D",
"R  c #899EAF",
"E  c #9499A6",
"W  c #999DAB",
"Q  c #A6ABB8",
"!  c #84A2C7",
"~  c #9DB4D3",
"^  c #AEB4C3",
"/  c #B0B5C3",
"(  c #B6BCCB",
")  c #B8BECE",
"_  c #A7BCD7",
"`  c #A9BDD7",
"'  c #ACBFD9",
"]  c #AEC2DA",
"[  c #BEC4D4",
"{  c #B3C3DD",
"}  c #80C4EB",
"|  c #8CC8EC",
" . c #94CBEC",
".. c #98CBEC",
"X. c #87D2E9",
"o. c #8BD4E9",
"O. c #94D7E9",
"+. c #97D8EA",
"@. c #99D9EA",
"#. c #A5D0ED",
"$. c #ABD2ED",
"%. c #B4D4EE",
"&. c #BAD5ED",
"*. c #C0C6D8",
"=. c #C5CBDD",
"-. c #C8CDDD",
";. c #C7CEE1",
":. c #C9CFE0",
">. c #CDD4E5",
",. c #C3D7ED",
"<. c #CFD6E8",
"1. c #C4D9EF",
"2. c #CDDAEE",
"3. c #D1D7E9",
"4. c #D3DAED",
"5. c #DADFEF",
"6. c #D8DDF0",
"7. c #DCE0F1",
"8. c #E3E5F4",
/* pixels */
"] ` ` _ _ _ _ _ _ _ _ _ _ _ _ _ _ _ _ _ _ _ _ _ _ _ _ _ _ _ _ _ ` ` _ _ _ ' ~ _ ",
"` 4.4.4.4.4.4.3.4.4.4.4.4.3.4.4.3.4.3.4.4.4.4.4.3.4.4.4.4.4.4.3.4.4.4.3.4.5.{ ~ ",
"] 5.7.4.4.4.4.4.4.4.4.4.4.4.4.4.4.4.4.6.4.4.4.4.4.4.4.4.6.4.4.4.4.4.4.4.4.7.{ d ",
"` 4.4.4.4.4.4.4.4.4.4.2.4.4.4.4.4.4.3.4.4.4.4.3.4.4.4.4.4.4.4.4.4.4.4.2.4.7.{ d ",
"` 5.4.4.4.4.4.4.4.4.4.4.4.4.4.4.4.4.4.4.4.4.4.4.4.4.4.4.4.4.4.4.4.4.4.4.4.5.{ d ",
"] 4.4.4.4.4.4.4.4.4.4.4.4.4.4.4.^ T y 9 w I W >.4.,.} | 2.4.4.4.4.4.4.4.3.7.{ d ",
"_ 4.4.4.4.4.4.4.4.4.4.4.4.( 0 #               . a h z l z $.4.4.4.4.4.4.4.7.{ d ",
"] 4.4.4.4.4.4.4.4.4.4.) 6     4 I *.>.4.3.-.Q t h P +.+.Z z 2.4.4.4.4.4.4.7.{ d ",
"] 5.4.3.4.4.4.4.4.4.Y . . e <.4.4.4.4.4.4.4.4.A B @.@.@.O.z ..4.4.4.4.4.3.7.{ d ",
"_ 4.4.4.4.4.4.4.4.q   3 ;.4.4.4.4.4.4.2.4.4.4.V Z @.@.@.@.b D 4.4.4.4.4.4.7.{ d ",
"] 4.4.4.4.4.4.4.q   w 4.4.4.4.4.4.4.4.4.4.4.4.L b @.@.@.X.h 1 =.4.4.4.4.3.7.{ d ",
"] 5.4.4.4.4.4.T   w 4.4.4.4.4.4.4.4.4.4.4.4.4.2.v b J G l C o ; 3.4.4.4.4.7.{ d ",
"_ 4.4.4. .n j u 8 3.4.4.4.4.4.4.4.4.4.4.4.4.4.4.,.A l c L 4.Q   q 4.4.4.3.7.{ d ",
"] 4.4.X.j F K m j %.4.4.4.4.4.4.4.4.4.4.4.4.4.4.4.4.4.4.4.4.4.6 X *.3.4.4.7.{ d ",
"] 4.4.l K @.@.@.B Z 4.4.4.4.4.4.4.4.4.4.4.4.4.4.4.4.4.4.4.4.4.:.X 7 4.4.4.7.{ d ",
"_ 4.&.j O.@.@.@.P l 4.4.4.4.4.4.4.4.4.4.4.4.4.4.4.4.4.4.4.4.4.4.q X 2.4.3.7.{ d ",
"] 5.1.j o.@.@.@.H v 4.4.4.4.4.4.4.4.4.4.4.4.4.4.4.4.4.4.2.4.4.4.(   E 4.3.7.{ d ",
"` 4.4.N n O.@.X.z L 4.4.4.4.4.4.4.4.4.4.4.4.4.4.4.4.4.4.4.4.4.4.4.+ 4 4.4.7.{ d ",
"` 4.4.,.x j z j Z 6.2.4.4.4.4.4.4.4.4.4.4.4.4.6.4.4.4.4.4.4.4.4.4.5 - 4.4.7.{ d ",
"] 4.4.4.p > L %.4.4.4.4.4.4.4.4.4.4.4.4.4.4.4.6.4.4.4.4.4.4.4.4.4.9 @ 4.3.7.{ d ",
"] 5.4.3.9 . 4.4.4.4.4.4.4.4.4.4.4.4.4.4.4.4.4.2.4.4.4.4.4.4.4.4.4.q . 4.2.7.{ d ",
"_ 4.4.4.w   4.4.4.4.4.4.4.4.4.4.4.4.4.4.4.4.2.4.4.4.4.4.4.2.4.4.4.q O 4.3.5.{ d ",
"] 4.4.4.I   3.4.4.4.2.4.4.4.4.4.4.4.4.4.4.4.4.4.4.4.4.4.6.4.4.4.4.7 & 4.4.7.{ d ",
"] 5.4.4.W   ( 4.4.4.4.4.4.4.4.4.4.4.4.4.4.4.4.4.4.4.4.4.4.4.4.4.4.: < 4.4.5.{ d ",
"_ 4.4.4.:.. w 4.4.4.4.4.4.4.4.4.4.4.4.4.4.4.4.4.4.4.2.6.4.4.4.4.>.  e 4.4.7.{ d ",
"] 4.4.4.4.< - 4.4.4.4.4.4.4.4.4.4.4.4.4.4.4.4.4.4.4.6.2.,.A k c M X ( 4.3.7.{ d ",
"] 4.4.4.4.T   ^ 4.4.4.4.4.4.4.4.4.4.4.4.4.4.4.4.4.4.4.2.v v J S l i 4.4.4.7.{ d ",
"_ 4.4.4.4.3.$ : 4.4.4.4.4.4.4.4.4.4.4.4.4.4.4.4.4.4.4.D c +.@.@.| j %.4.4.7.{ d ",
"] 5.4.4.4.4.T   W 4.4.4.4.4.4.4.4.4.4.4.4.4.4.4.4.4.4.V Z @.@.@.@.c } 4.4.7.{ d ",
"_ 4.4.4.3.4.4.; o ) 4.4.4.4.4.4.4.4.4.4.4.4.4.4.4.4.4.A B @.@.@.+.z ..6.4.6.{ s ",
"] 4.4.4.4.4.4.=.# # [ 4.4.4.6.4.4.4.4.4.4.4.4.4.4.4.4.#.k P @.@.Z z 4.4.4.6.) f ",
"] 4.4.4.4.3.4.4.( + + ^ 4.4.2.4.4.4.4.4.4.4.4.4.4.4.4.4.r g z l z $.4.4.4.7.' s ",
"_ 4.4.4.4.4.4.4.4.*.= . 9 :.6.4.4.4.4.4.4.4.4.4.4.4.E & . R } | 4.4.4.4.4.7.' s ",
"] 4.4.4.4.4.4.4.4.4.:.6   o w ) 4.3.4.4.4.4.4.>.Y ,   * Q 4.4.4.4.4.4.4.4.7.{ f ",
"] 4.4.4.4.4.4.4.4.4.4.4.) 4 .   + 6 0 q q 7 ,     & Y 4.4.4.4.4.4.4.4.4.4.7.' s ",
"] 4.4.4.4.4.4.4.4.3.4.4.4.4.;.U 2 % o . . + - q / 4.4.4.4.4.4.4.4.4.4.4.4.7.{ s ",
"] 3.4.4.4.4.4.4.4.6.4.4.4.4.4.4.4.4.4.4.4.4.4.4.4.4.6.4.4.3.4.4.4.4.4.3.4.6.{ f ",
"] 7.7.5.7.7.6.8.6.7.6.8.6.6.8.6.7.8.7.7.7.7.7.8.6.6.7.8.7.6.7.7.6.6.8.7.7.8.{ s ",
"~ ] { ] ] ' ' ' ' ' ' ' ' ' ' ' ' ) ' ' ' ' ' ' ' ' ' ' ' ' ' ' ' ' { ' ' { ~ s ",
"~ ! d d d d d s s s d d d s s s s s s s s s s s d d d d s s f s s s s s s s f f "
};
