/* XPM */
static char *result[] = {
/* columns rows colors chars-per-pixel */
"40 40 108 2 ",
"   c #020202",
".  c #070708",
"X  c #0B0B0B",
"o  c #141516",
"O  c #17181A",
"+  c #1B1B1D",
"@  c #1E1E21",
"#  c #212225",
"$  c #25262A",
"%  c #28292B",
"&  c #2C2D30",
"*  c #323336",
"=  c #343639",
"-  c #37393E",
";  c #3D3E42",
":  c #3F4044",
">  c #024865",
",  c #424449",
"<  c #46484C",
"1  c #4B4D52",
"2  c #4E535A",
"3  c #505257",
"4  c #53555C",
"5  c #57595F",
"6  c #575A61",
"7  c #5A5D64",
"8  c #5E6066",
"9  c #606269",
"0  c #65686E",
"q  c #696C76",
"w  c #6E727B",
"e  c #71757E",
"r  c #537095",
"t  c #5A7498",
"y  c #737781",
"u  c #767A83",
"i  c #797E88",
"p  c #7D818B",
"a  c #6B84A3",
"s  c #7D8EA8",
"d  c #7C92AE",
"f  c #0299D9",
"g  c #329BCB",
"h  c #07A2E5",
"j  c #0CA4E7",
"k  c #0CA6E8",
"l  c #14A5E5",
"z  c #15A9E8",
"x  c #1AABE8",
"c  c #26A8E2",
"v  c #2AA9E2",
"b  c #23AEE8",
"n  c #38ABE0",
"m  c #2BB1E8",
"M  c #37B5E8",
"N  c #3EB8E8",
"B  c #49AEDD",
"V  c #50AEDC",
"C  c #66ABCF",
"Z  c #75AFCF",
"A  c #7DB0CF",
"S  c #66AED4",
"D  c #69ADD2",
"F  c #6BB1D5",
"G  c #73B2D4",
"H  c #7BB2D1",
"J  c #43AEE0",
"K  c #44BAE8",
"L  c #52BFE9",
"P  c #5EC3E9",
"I  c #64C5E9",
"U  c #69C7E9",
"Y  c #6DC9E9",
"T  c #75CCE9",
"R  c #83868F",
"E  c #868A96",
"W  c #8B8F9A",
"Q  c #8D929D",
"!  c #8C99AF",
"~  c #9196A2",
"^  c #959AA6",
"/  c #969BA8",
"(  c #999EAB",
")  c #8196B2",
"_  c #8398B3",
"`  c #8E9BB0",
"'  c #909CB1",
"]  c #9DA2AD",
"[  c #95A0B4",
"{  c #9EA3B2",
"}  c #A1A6B5",
"|  c #A4A9B6",
" . c #A7ACBB",
".. c #A9AFBE",
"X. c #ABB0BF",
"o. c #8BB3CD",
"O. c #9EB2C5",
"+. c #94B3CA",
"@. c #9CB5C9",
"#. c #A6B3C4",
"$. c #ACB2C1",
"%. c #A3B7C9",
"&. c #B0B4C1",
"*. c #B8B9C4",
"=. c #87D2E9",
"-. c #8BD4E9",
";. c #97D8EA",
":. c #99D9EA",
/* pixels */
"_ _ _ ) ) d _ ) ) ) ) ) ) ) ) ) ) ) ) ) ) ) ) ) ) ) ) ) ) ) ) ) d _ _ d _ _ d d ",
"_ X.X.X............... ....... ... ..................... ... ... .........&.' d ",
"_ X.X.X...X.X.X.....$.....$...$.$.$.$.......X.X.........X.X.....X.X.X.X.$.&.[ r ",
"_ X.X.X... ............... ... . . ... ............................... ...X.' r ",
"_ X.............................$. .............................X. .X...X.X.[ r ",
"_ X...........................W y 9 2 7 q i } X.................X. .....X.X.! r ",
"_ X.$.......X.....$.....~ 3 O               . - u  ...X.........X.X.X.X. .X.' r ",
"_ X.....X.........../ ,   . < w { ....X.| W 4 +   @ u X......... .X.X.X.X.X.' r ",
"_ X.X.............w . . 9 ................$.....E %   = } ........X.......X.' r ",
"_ X.....X.......4   ; } ......X...$.............X...u . @ / ....X.........&.' r ",
"_ X.X.......X.4   8 X.X.....#...................X.....~ o O } ............X.[ r ",
"_ X.......X.w   8 ....................................../ o % | ..........X.[ r ",
"_ X.X...../ . : X.........................................W   3 ........X.X.[ r ",
"! X.X. ..., . | ......X.................$.............X.....3 . ] X.....X.X.! r ",
"_ X.X...~ . 0 ..............X.......#...........X...........| . 1  .X.X.X.X.! r ",
"_ X.X...3 X ................................X.................5 X | X.X.X.X.[ r ",
"_ X.....O 1 ........#. ...............................$......./   u X... .X.' r ",
"_ X...W   u ........ .$.........#.B j c S $.......$...$.....H v f g +...X.&.' r ",
"_ X.X.e    ...................#.c m U P z B ..............G l L Y N j +...X.[ r ",
"_ X...9   X...X.............$.S b ;.:.:.=.j +...........#.l Y :.:.;.K B  .&.' r ",
"_ X.X.3 . ........$. .$.......J L :.:.:.:.m D ..........+.k ;.:.:.:.T l X.X.' r ",
"_ X...7   ......$. .$. .$.....V K :.:.:.;.x A ..........%.j -.:.:.:.I c X.X.' r ",
"_ X...q   ..#. .$. . .$.......o.l T :.:.L l $.............n M ;.:.=.x F X.X.' r ",
"_ X...i   /  .$. .$. .$.........F h x z l o.$.............O.v k b h B X.X.X.' r ",
"_ X.X.}   7 ......................@.C Z #.X.....X.....$.....$.A > t X.X.X.X.' r ",
"_ X.X...= & ....$.............................................e   / X.X.X.X./ r ",
"_ X.X...e   ~ ........................$.....X.......X.........* $ ......X.X.[ r ",
"_ X.X... .+ * ..............$...........X...................p   u ...... .X.[ r ",
"_ X.$.....e   R ................$.......X.................X.# $ ........$.&./ r ",
"_ ..........% X / ......................................X., . E ..........$.` r ",
"_ X... .....} O + ] ..........$.................X.......5   w ............$.' r ",
"_ X.$... .....~ o o Q ......................X.........,   6 ..............&.' r ",
"_ X.X...........( #   4  .........................p #   w ................&.' r ",
"_ X.X.........X...| 1   X 7 ( $...............e *   # E ..................&.' r ",
"_ X.X.................^ ,     o 1 4 6 6 3 -     @ e ..............X.......$.' r ",
"_ X.......................} w - @ X     o % 5 W ........................$.&.' r ",
"_ X.X...........$. . .$..... ...$. .#. . .$. .$...........................X.` r ",
"` X.&.&.&.&.&.&.$.&.&.&.&.&.&.&.&.&.$.&.$.&.$.&.&.&.&.$.&.&.&.$.&.&.&.&.X.*.[ r ",
"d ! ' ! ! ! ! _ ! ! ! ! ! ! ! ! ! ! ! ! ! ! ! ! ! ! ! ! ! ! ! ! ` _ ! ! / ' s r ",
") a r r r r r r r r r r r r r r r r r r r r r r r r r r r r r r r r r r r r r t "
};
