/* XPM */
static char *result[] = {
/* columns rows colors chars-per-pixel */
"40 40 114 2 ",
"   c #020202",
".  c #0B0B0C",
"X  c #131415",
"o  c #171719",
"O  c #1B1B1D",
"+  c #1E1F22",
"@  c #1F2227",
"#  c #212224",
"$  c #26282B",
"%  c #2C2D30",
"&  c #313236",
"*  c #353639",
"=  c #123E51",
"-  c #3D3E42",
";  c #2F4855",
":  c #414349",
">  c #46484C",
",  c #494B4E",
"<  c #4A4D52",
"1  c #505257",
"2  c #53565C",
"3  c #55585F",
"4  c #575A61",
"5  c #5A5D64",
"6  c #5D6066",
"7  c #436170",
"8  c #606269",
"9  c #676B74",
"0  c #696D77",
"q  c #6E727B",
"w  c #71747E",
"e  c #357895",
"r  c #537095",
"t  c #5A7498",
"y  c #777B85",
"u  c #7A7E89",
"i  c #1A82AF",
"p  c #2486B1",
"a  c #728796",
"s  c #4D94B6",
"d  c #6B84A3",
"f  c #7D8EA8",
"g  c #7C92AE",
"h  c #26A5DD",
"j  c #019EE1",
"k  c #07A1E4",
"l  c #0BA4E6",
"z  c #0CA6E8",
"x  c #14A5E5",
"c  c #1FA7E3",
"v  c #15A9E8",
"b  c #1AABE8",
"n  c #24A8E3",
"m  c #2AAAE3",
"M  c #23AEE8",
"N  c #38ABE0",
"B  c #2BB1E8",
"V  c #37B5E8",
"C  c #3EB8E8",
"Z  c #46A9D6",
"A  c #47ADDC",
"S  c #51AEDC",
"D  c #64A7CC",
"F  c #66ABCF",
"G  c #7DB0CE",
"H  c #65ADD3",
"J  c #69AED3",
"K  c #68B0D5",
"L  c #73B2D4",
"P  c #43AFE0",
"I  c #44BAE8",
"U  c #52BFE9",
"Y  c #54C0E8",
"T  c #5EC3E9",
"R  c #64C5E9",
"E  c #69C7E9",
"W  c #6DC9E9",
"Q  c #75CCE9",
"!  c #83868F",
"~  c #848994",
"^  c #8B8F9A",
"/  c #8D929D",
"(  c #8F94A1",
")  c #8C99AF",
"_  c #9297A3",
"`  c #959AA6",
"'  c #969BA8",
"]  c #999EAB",
"[  c #8196B2",
"{  c #8398B3",
"}  c #8E9BB0",
"|  c #909CB1",
" . c #9DA2AD",
".. c #95A0B4",
"X. c #9EA3B1",
"o. c #A1A6B5",
"O. c #A4AAB7",
"+. c #A6ACBB",
"@. c #A9AFBE",
"#. c #ABB0BF",
"$. c #8BB3CC",
"%. c #9EB2C5",
"&. c #95B3CA",
"*. c #9CB5C9",
"=. c #A6B2C3",
"-. c #ACB2C1",
";. c #A2B6C8",
":. c #B0B4C1",
">. c #B8B9C4",
",. c #87D2E9",
"<. c #8BD4E9",
"1. c #94D7E9",
"2. c #97D8EA",
"3. c #99D9EA",
/* pixels */
"{ { { [ [ g { [ [ [ [ [ [ [ [ [ [ [ [ [ [ [ [ [ [ [ [ [ [ [ [ [ g [ [ [ [ { g g ",
"{ #.#.#.@.@.@.@.@.@.@.@.@.@.@.@.@.@.@.+.@.@.@.@.@.@.@.@.+.@.@.@.@.@.@.@.@.-.) g ",
"{ #.#.#.@.@.#.#.@.@.@.-.@.@.#.@.#.@.@.#.@.@.#.@.@.@.@.@.@.@.@.@.#.#.@.#.#.>.| r ",
"{ #.#.#.@.@.@.@.@.@.@.@.@.+.@.@.@.@.@.@.@.@.@.@.@.@.@.@.@.@.@.@.#.+.@.@.@.#.| r ",
"{ #.@.@.@.@.@.@.@.@.@.@.@.@.@.@.@.@.@.@.@.@.@.@.@.@.@.@.@.@.@.@.@.@.@.@.@.:.| r ",
"{ #.@.@.@.@.@.@.@.@.@.@.@.@.@.=.@.^ w 8 1 5 0 u o.@.;.H G =.@.@.@.@.@.#.@.:.| r ",
"{ #.#.@.@.#.@.@.@.@.@.@.@.@.` 1 o                 s k b v x $.@.@.@.#.#.@.#.| r ",
"{ #.#.@.@.@.@.@.@.@.@.@.' >     , q  .@.@.-.O.^ 7 j Q 3.2.U c =.@.@.#.#.#.#.} r ",
"{ #.#.@.@.@.@.@.@.@.@.q   . 6 @.@.@.@.@.@.@.@.@.S I 3.3.3.3.b G @.#.@.@.@.-.} r ",
"{ #.#.@.@.@.#.@.@.@.2   - O.@.@.@.#.@.@.@.@.=.@.P Y 3.3.3.3.B D @.@.@.@.@.-.] r ",
"{ #.#.@.@.@.#.@.@.2   6 #.@.@.@.@.@.@.@.@.@.@.@.K M 3.3.3.,.j ; X.@.@.@.@.#...r ",
"{ #.@.@.@.@.@.#.q   6 @.@.#.@.@.#.@.@.@.@.@.@.@.=.n B E T x Z X % +.@.@.@.#.| r ",
"{ #.#.#.@.G m l i 7 @.@.@.@.@.=.@.@.@.@.@.@.@.@.@.=.S x n J =.^   2 @.@.#.:.} r ",
"{ #.#.+.L z Y W C z &.@.@.@.@.@.@.@.@.@.@.@.@.@.@.@.@.@.=.@.@.@.1    .@.@.:.} r ",
"{ #.#.#.x W 3.3.3.I A @.@.@.@.@.@.@.@.@.@.@.@.@.=.@.@.@.@.@.@.@.O.. < #.@.-.} r ",
"{ #.#.*.z 1.3.3.3.Q x @.@.@.@.@.@.@.@.-.@.@.@.@.@.@.@.@.@.@.@.@.#.3 . +.#.#.] r ",
"{ #.=.=.l <.3.3.3.R m @.@.@.@.@.@.@.@.@.@.@.@.@.@.@.@.-.@.@.@.@.#.`   y +.#.| r ",
"{ @.@.@.N V 2.2.,.b J @.@.@.@.@.@.@.@.@.@.@.@.@.@.-.@.-.@.@.@.@.@.#.X : #.#.} r ",
"{ #.=.@.%.h l M j P -.@.-.@.@.@.@.@.@.@.@.@.@.@.@.@.@.@.@.@.@.@.@.@., $ #.#...r ",
"{ #.@.@.@.0 = H *.-.@.@.@.@.-.@.@.@.@.-.@.@.@.@.@.@.@.@.@.@.-.@.#.@.2 o #.#.] r ",
"{ #.#.@.@.1 . @.-.-.+.-.@.@.@.@.@.@.@.@.@.@.@.@.@.-.@.@.@.@.@.@.@.@.3 . @.>.| r ",
"{ #.#.@.@.4   @.-.+.-.+.@.@.@.@.@.@.@.@.@.@.=.@.@.@.@.@.@.@.@.@.@.@.3 . +.#.| r ",
"{ #.#.@.@.9   #.=.-.=.+.@.@.@.@.@.@.@.@.@.@.@.@.@.@.@.@.@.@.@.@.@.@.1 @ @.#.| r ",
"{ #.@.@.@.u   ' +.+.-.+.@.@.-.@.@.@.-.@.@.-.@.@.@.@.@.@.@.@.@.-.#.@.* & #.#.| r ",
"{ #.@.@.@.o.  5 @.@.@.@.@.@.@.@.@.@.@.@.-.@.@.@.@.@.@.@.@.@.@.@.@.@.  5 @.-.| r ",
") #.#.@.@.@.* % @.@.@.@.@.@.@.@.@.@.@.@.@.@.@.@.@.@.@.@.@.%.S x c s . _ @.#.| r ",
"[ #.#.@.@.@.w   _ @.@.@.@.#.@.@.@.@.@.-.@.@.@.@.@.@.@.@.=.m B E T v p @.@.#...r ",
"{ #.#.@.@.@.@.o & @.@.@.@.@.@.@.@.-.@.@.@.@.@.@.@.@.-.@.J M 2.3.3.<.l &.@.#.] r ",
"{ #.@.@.@.@.@.w   ! @.@.@.@.@.@.@.@.@.@.@.-.@.@.@.@.@.@.P U 3.3.3.3.B J @.:.] r ",
"{ #.@.@.@.@.@.@.% . ' @.@.-.@.@.@.@.@.@.@.@.@.@.@.@.@.@.S I 3.3.1.2.v G @.:.| r ",
"{ #.@.@.@.@.@.@.X.O O  .@.@.@.@.@.@.-.@.@.@.@.@.@.@.@.@.$.x Q 3.2.U c =.@.#.| r ",
"{ #.@.@.@.@.@.@.@.( X X / @.@.@.@.@.@.@.@.@.@.@.@.@.@.=.=.e j b v x $.@.@.:.| r ",
"{ #.#.@.@.@.@.@.@.@.] #   3 @.@.@.@.@.@.@.@.@.@.@.@.@.! #   a F G =.@.@.+.#.| r ",
"{ #.#.@.@.@.@.@.@.@.@.O.<   . 4 ] @.@.@.@.@.@.@.@.w &   # ~ =.@.@.@.@.@.@.>.| r ",
") #.#.@.#.@.@.@.@.@.@.@.@.` :     o < 2 3 5 1 *     + w @.@.@.@.@.@.@.@.@.#.| r ",
"[ #.@.@.@.@.@.@.@.@.@.@.@.@.=.O.q * + .     o $ 2 ^ @.@.@.@.@.@.@.@.=.@.@.:.| r ",
"{ #.#.#.@.@.@.@.@.@.@.@.@.@.@.@.@.@.@.@.@.@.@.@.@.@.@.@.@.@.@.@.@.@.@.@.@.#.| r ",
"{ >.:.:.:.-.:.:.:.:.:.:.:.:.:.#.:.:.-.:.#.:.-.:.:.#.:.:.:.-.:.:.:.:.:.:.:.>...r ",
"g ) ) ) ) ) ) ) ) ) ) ) ) ) ) ) } ) ) ) ) ) { ) ) ) ) ) ) ) ) ) ) ) ) ) ) | f r ",
"g d r r r r r r r r r r r r r r r r r r r r r r r r r r r r r r r r r r r r r t "
};
