/* XPM */
static char *result[] = {
/* columns rows colors chars-per-pixel */
"40 40 117 2 ",
"   c #010102",
".  c #070808",
"X  c #0B0B0C",
"o  c #0F0F11",
"O  c #161618",
"+  c #18191B",
"@  c #1D1E21",
"#  c #1F2022",
"$  c #222325",
"%  c #252629",
"&  c #292A2E",
"*  c #2D2E31",
"=  c #2E3034",
"-  c #323336",
";  c #35373B",
":  c #37383D",
">  c #3A3B3E",
",  c #3D3E41",
"<  c #024865",
"1  c #42444B",
"2  c #48494E",
"3  c #4D4E54",
"4  c #4F5259",
"5  c #54565D",
"6  c #5A5D63",
"7  c #63666E",
"8  c #636770",
"9  c #676A73",
"0  c #6A6D75",
"q  c #6C6F78",
"w  c #6D7077",
"e  c #6E717A",
"r  c #777B86",
"t  c #787B84",
"y  c #7795A9",
"u  c #678BBA",
"i  c #688CB9",
"p  c #7091BE",
"a  c #0299D9",
"s  c #39A2D2",
"d  c #07A3E6",
"f  c #0CA5E7",
"g  c #0DA6E8",
"h  c #13A7E8",
"j  c #16A9E8",
"k  c #1AAAE8",
"l  c #23ADE8",
"z  c #2DAFEA",
"x  c #2BB1E8",
"c  c #35B3E9",
"v  c #3EB8E8",
"b  c #41B5EB",
"n  c #44BAE8",
"m  c #4DB8EB",
"M  c #54BCEA",
"N  c #5EBDEC",
"B  c #54C0E8",
"V  c #5EC3E9",
"C  c #64C5E9",
"Z  c #69C7E9",
"A  c #6DC9E9",
"S  c #7DC5EC",
"D  c #75CCE9",
"F  c #828692",
"G  c #868A95",
"H  c #8A8F9A",
"J  c #8C919D",
"K  c #8F94A1",
"L  c #9296A4",
"P  c #9499A7",
"I  c #999DAA",
"U  c #9CA0AC",
"Y  c #A3A9B6",
"T  c #A6ABB9",
"R  c #84A2C7",
"E  c #9DB4D3",
"W  c #AEB3C3",
"Q  c #B0B6C3",
"!  c #B6BCCB",
"~  c #B8BECD",
"^  c #A7BCD7",
"/  c #A9BDD7",
"(  c #ACBFD9",
")  c #B9BFD0",
"_  c #BBC0CE",
"`  c #AEC2DA",
"'  c #BDC3D4",
"]  c #B3C3DD",
"[  c #81C6EC",
"{  c #8CC9ED",
"}  c #98C7E5",
"|  c #94CBEC",
" . c #98CBEC",
".. c #87D2E9",
"X. c #8BD4E9",
"o. c #94D7E9",
"O. c #97D8EA",
"+. c #99D9EA",
"@. c #BAC8E0",
"#. c #A5D0ED",
"$. c #ABD2ED",
"%. c #B4D3ED",
"&. c #BCD6ED",
"*. c #C5CCDD",
"=. c #C9CFDE",
"-. c #C7CEE0",
";. c #CDD3E5",
":. c #C2D7EE",
">. c #CFD6E8",
",. c #C4D9EE",
"<. c #CEDAEE",
"1. c #D1D7E9",
"2. c #D3DAED",
"3. c #DADFEF",
"4. c #D8DDF0",
"5. c #DCE0F1",
"6. c #E3E5F4",
/* pixels */
"` / / ^ ^ ^ ^ ^ / ^ ^ ^ ^ ^ ^ ^ ^ ^ ^ ^ / / ^ ^ ^ ^ ^ ^ ^ ^ ^ ^ ^ ^ ^ ^ ^ / E ^ ",
"/ 2.2.2.2.2.2.1.2.2.2.1.2.2.2.2.2.1.2.2.2.2.2.2.1.2.2.2.2.2.1.2.2.2.2.2.2.3.( ^ ",
"` 3.5.2.2.2.2.2.2.2.2.2.2.2.2.2.2.2.2.2.2.2.2.2.2.2.2.2.2.2.2.2.2.2.2.2.2.5.] u ",
"/ 2.2.2.2.2.2.2.2.2.2.2.2.2.2.2.2.2.2.2.2.2.2.1.2.2.2.2.2.2.2.2.2.2.2.2.2.3.] i ",
"/ 3.2.2.2.2.2.2.2.2.2.2.2.2.2.W H r 7 e F I ;.2.2.2.2.2.2.2.2.2.2.2.2.2.<.5.] i ",
"` 2.2.2.2.2.2.2.2.2.2.2.! 8 @               . 1 K 2.2.2.2.2.2.2.2.2.2.2.1.5.] i ",
"^ 2.2.2.2.2.2.2.1.2.' 5   . 4 G ' ;.2.2.=.T 7 $   $ L 2.2.2.2.2.2.2.2.2.2.5.] i ",
"/ 3.2.2.2.2.2.2.<.J . . e >.2.2.2.2.2.2.2.2.2.2.Y *   1 -.2.2.2.2.<.2.2.2.5.] i ",
"` 3.2.2.2.2.2.2.9   2 *.2.2.2.2.2.2.2.2.2.2.2.2.2.2.K . % ) 2.2.2.2.2.2.2.5.] i ",
"^ 2.2.<.2.2.2.9   w 2.2.2.2.2.2.2.2.2.2.2.2.2.2.2.2.2.Q + @ *.2.2.2.2.2.2.5.] u ",
"` 2.2.2.2.2.J   e 2.2.2.2.2.2.2.2.2.2.2.2.2.2.2.2.2.2.2.~ o ; >.2.2.2.2.2.5.@.u ",
"` 3.2.1.2._ . 2 2.2.2.2.2.2.2.2.2.2.2.2.2.2.2.2.2.2.2.2.2.T   9 2.2.2.2.2.5.` u ",
"^ 2.2.2.2.5 X =.2.2.2.2.2.2.2.2.2.2.2.2.2.2.2.2.2.2.2.2.2.2.6 . ' 2.2.2.1.5.] i ",
"` 3.2.2.!   t 2.2.2.2.2.2.2.2.2.2.2.2.<.2.2.2.2.2.2.2.2.2.2.-.X 6 2.2.2.2.3.] i ",
"^ 3.2.2.8 o 2.2.2.2.2.2.2.2.2.2.2.2.2.2.2.2.2.2.2.2.2.2.2.2.2.0 X >.2.2.2.5.] i ",
"^ 2.2.2.# 5 2.2.2.2.2.2.2.2.2.2.2.2.2.2.2.2.2.2.2.2.2.2.2.2.2.!   P 2.2.2.5.] i ",
"` 2.2.W   J 2.2.2.2.2.2.2.2.2.2.:.N h l S 2.2.2.2.2.2.2.4.<.| c a s %.2.2.3.] i ",
"/ 3.2.J   -.2.2.2.2.2.2.2.2.2.<.z z Z V j M 2.2.2.2.2.2.2.{ g M A v f %.1.5.] i ",
"/ 2.2.r   1.2.2.2.2.<.2.2.2.2.S l O.+.+...g &.2.2.2.2.2.<.j A +.+.+.n M 2.5.] i ",
"` 3.2.7 . 2.2.2.2.<.2.2.2.2.2.m M +.+.+.O.x S 2.2.2.2.2.%.g O.+.+.+.D k 2.5.] i ",
"^ 3.2.e   2.2.2.2.2.2.2.2.2.2.N n +.+.+.O.k  .2.2.2.2.2.,.g X.+.+.+.C x 2.5.] i ",
"^ 2.2.F   >.2.2.2.2.2.2.2.2.2.#.h D +.O.B k <.2.2.2.2.2.2.b c o.+.{ j S 2.5.] i ",
"` 3.2.U   ! 2.2.2.2.2.2.2.2.2.2.[ d k h j $.2.2.2.2.2.2.2.&.c g l d M 2.2.4.] i ",
"^ 2.2.*.. q 2.2.2.2.2.2.2.2.2.2.2.,.S | <.2.2.2.2.2.2.2.2.2.<.} < y 2.2.2.5.] i ",
"` 2.2.2.1 - 2.2.2.2.2.2.2.2.2.2.2.2.2.2.2.2.2.2.2.2.2.2.2.2.2.J   ) 2.2.2.4.] i ",
"` 2.3.>.H   Q 1.2.2.2.2.2.2.2.2.2.2.2.2.2.2.2.2.2.2.2.2.2.2.2., = 2.2.2.2.4.] i ",
"` 2.2.2.<.# > 2.2.2.2.2.2.2.2.2.2.2.2.2.2.2.2.2.2.2.2.2.2.2.I   L 2.2.2.2.4.] i ",
"^ 2.3.>.1.J   U 2.2.2.2.2.2.2.2.2.2.2.2.2.2.2.2.2.2.2.2.2.2.% * 2.2.2.2.2.4.] i ",
"` 2.2.2.2.1.: o ! 2.2.2.2.2.2.2.2.2.2.2.2.2.2.2.2.2.2.2.2.3 . T 2.2.2.2.2.5.] u ",
"/ 2.2.2.2.2.*.# $ ' 2.2.2.2.2.2.2.2.2.2.2.2.2.2.2.2.2.2.8   H 2.2.2.2.2.2.5.] u ",
"/ 2.2.2.2.2.2.! O O W <.2.2.2.2.2.2.2.2.2.2.2.2.2.2.1.3   e 2.2.2.2.2.2.2.4.] u ",
"` 3.2.2.2.1.2.2.' *   8 >.2.2.2.2.2.2.2.2.2.2.2.2.I % . G 2.2.2.2.2.2.2.2.5.] u ",
"^ 3.2.2.2.2.2.2.2.;.6   o q ~ 2.2.2.2.2.2.2.>.H ,   & T 2.2.2.2.2.2.2.2.2.4.] u ",
"^ 2.2.2.2.2.2.2.2.2.2.~ 4 .   + 5 8 0 9 6 ,     % J 2.2.2.2.2.2.2.2.2.2.4.4.] u ",
"` 2.2.2.2.2.2.2.2.2.2.2.2.-.G 2 % o   X @ = 9 W 2.2.2.2.2.2.2.2.2.2.2.2.2.4.] u ",
"` 3.2.2.2.2.2.2.2.2.2.2.2.2.2.2.2.4.<.2.2.2.2.2.2.2.2.2.2.2.2.2.2.2.2.2.4.4.] u ",
"^ 2.2.2.2.2.2.2.2.2.2.2.2.2.2.2.4.2.2.2.2.2.2.2.2.<.2.2.2.2.2.2.2.2.2.2.2.4.] u ",
"` 5.5.3.5.5.4.6.5.5.5.6.4.4.5.4.4.4.4.4.5.5.4.5.4.4.5.5.5.4.5.5.4.4.4.6.6.6.@.u ",
"E ` ] ` ` ( ( ( ( ( ( ( ( ( ( (  .] ] ( ] ( ( ) ( ( ( ] ( ( ( ( ( ( ( ( ( #.E u ",
"E R i i u u u u u u u i i u u p u p r u u u u u i i i i u u p u p u u u r p u p "
};
