/* XPM */
static char *result[] = {
/* columns rows colors chars-per-pixel */
"40 40 54 1 ",
"  c black",
". c #678BB8",
"X c #678BBA",
"o c #678CB8",
"O c #688CB9",
"+ c #698DBB",
"@ c #698EBB",
"# c #7091BE",
"$ c #84A2C7",
"% c #9AB3D1",
"& c #9CB1D2",
"* c #9CB3D2",
"= c #9EB6D4",
"- c #9FB7D4",
"; c #A7BBD6",
": c #A7BCD7",
"> c #A9BDD7",
", c #A9BED8",
"< c #A9BFD8",
"1 c #ABBFD8",
"2 c #ACBFD9",
"3 c #AEBFDA",
"4 c #AFBFDA",
"5 c #AEC1DA",
"6 c #AEC2DA",
"7 c #B1C0DC",
"8 c #B0C1DC",
"9 c #B2C3DD",
"0 c #B3C3DD",
"q c #B4C3DD",
"w c #B6C4DE",
"e c #BAC8E0",
"r c #D1D9EC",
"t c #D2D9EC",
"y c #D2D9ED",
"u c #D2DAED",
"i c #D3DAED",
"p c #D3DAEE",
"a c #D4DBEC",
"s c #D4DBEE",
"d c #D5DBEE",
"f c #D5DDED",
"g c #D6DDED",
"h c #D9DFEF",
"j c #DADFEF",
"k c #D8DDF0",
"l c #DAE0F0",
"z c #DBE0F0",
"x c #DCE0F0",
"c c #DCE0F1",
"v c #DEE2F1",
"b c #DEE2F2",
"n c #E0E3F2",
"m c #E6E7F5",
/* pixels */
"5<>;::::::::::::::::::::::::::::::::;2*-",
",asrttttttttttttttttttttttttttttttttrj0*",
"1hkddddddddddddddddddddddddddddddddddvwo",
",gstttttttttttttttttttttttttttiiittttl0O",
",gdtiiiiiiiiiiiiiiiiiiiiiiiiyiiiiiiitz0O",
",gdti                              itz0O",
",gdti                              itz0O",
",gdti                              itz0O",
",gdti                              itz0O",
",gdti                              itz0O",
",gdti                              itz0O",
",gdti                              itz0O",
",gdti                              itz0O",
",gdti                              itz0O",
",gdti                              itz0O",
",gdti                              itz0O",
",gdti                              itz0O",
",gdti                              itz0O",
",gdti                              itz0O",
",gdti                              itz0O",
",gdti                              itz0O",
",gdti                              itz0O",
",gdti                              itz0O",
",gdti                              itz0O",
",gdti                              itz0O",
",gdti                              itz0O",
",gdti                              itz0O",
",gdti                              itz0O",
",gdtu                              itz0O",
",gdty                              itz0O",
",gdty                              itz0O",
",gdty                              itz0O",
",gdti                              itz0O",
",gdti                              itz0O",
",gdti                              itz0O",
",gdtiiiiutiiiipiiiiiiiiiiiiiiiiiiiiitz0O",
">fsttttttttttttttttttttttttttttttttttl9O",
"6nbxccccccccccccccccccccccccccccccccxme.",
"%873444444444444444444444444444444443q&+",
"=$XXXXXXXXXXXXXXXXXXXXXXXXXXXXXXXXXXXX@#"
};
