/* XPM */
static char *result[] = {
/* columns rows colors chars-per-pixel */
"40 40 48 1 ",
"  c black",
". c #537094",
"X c #537095",
"o c #547094",
"O c #547196",
"+ c #547296",
"@ c #5A7498",
"# c #6B84A3",
"$ c #7D8EA8",
"% c #7A91AD",
"& c #7B91AD",
"* c #7D93AF",
"= c #7E94AF",
"- c #8C99AF",
"; c #8196B2",
": c #8398B2",
"> c #8298B3",
", c #8398B3",
"< c #8399B3",
"1 c #8499B3",
"2 c #869BB5",
"3 c #879BB5",
"4 c #8D9BB0",
"5 c #8E9AB0",
"6 c #8F9CB1",
"7 c #909CB1",
"8 c #929DB2",
"9 c #95A0B4",
"0 c #A8AEBD",
"q c #A8AEBE",
"w c #A8AFBE",
"e c #A9AFBE",
"r c #A9AFBF",
"t c #AAB0BD",
"y c #ABB1BE",
"u c #AAB0BF",
"i c #ABB0BF",
"p c #ACB1BE",
"a c #ADB1C0",
"s c #AEB3C0",
"d c #AFB3C0",
"f c #AFB4C0",
"g c #B0B4C0",
"h c #B0B4C1",
"j c #B2B5C1",
"k c #B2B5C2",
"l c #B4B6C2",
"z c #B8B9C4",
/* pixels */
"3:,;;;;;;;;;;;;;;;;;;;;;;;;;;;;;;;;;;1&=",
":tu0000000000000000000000000000000000d7&",
"<saiiiiiiiiiiiiiiiiiiiiiiiiiiiiiiiiiij8.",
",pu000000000000000000000000000eee0000f7o",
",pi0eeeeeeeeeeeeeeeeeeeeeeeeqeeeeeee0g7o",
",pi0e                              e0g7o",
",pi0e                              e0g7o",
",pi0e                              e0g7o",
",pi0e                              e0g7o",
",pi0e                              e0g7o",
",pi0e                              e0g7o",
",pi0e                              e0g7o",
",pi0e                              e0g7o",
",pi0e                              e0g7o",
",pi0e                              e0g7o",
",pi0e                              e0g7o",
",pi0e                              e0g7o",
",pi0e                              e0g7o",
",pi0e                              e0g7o",
",pi0e                              e0g7o",
",pi0e                              e0g7o",
",pi0e                              e0g7o",
",pi0e                              e0g7o",
",pi0e                              e0g7o",
",pi0e                              e0g7o",
",pi0e                              e0g7o",
",pi0e                              e0g7o",
",pi0e                              e0g7o",
",pi0w                              e0g7o",
",pi0q                              e0g7o",
",pi0q                              e0g7o",
",pi0q                              e0g7o",
",pi0e                              e0g7o",
",pi0e                              e0g7o",
",pi0e                              e0g7o",
",pi0eeeew0eeeereeeeeeeeeeeeeeeeeeeee0g7o",
">yu0000000000000000000000000000000000f6o",
"2lkghhhhhhhhhhhhhhhhhhhhhhhhhhhhhhhhgz9.",
"%45----------------------------------7$O",
"*#XXXXXXXXXXXXXXXXXXXXXXXXXXXXXXXXXXXX+@"
};
