/* XPM */
static char *result[] = {
/* columns rows colors chars-per-pixel */
"40 40 115 2 ",
"   c #030507",
".  c #0A0B0B",
"X  c #0F0F11",
"o  c #0D1417",
"O  c #131415",
"+  c #151719",
"@  c #1B1C1D",
"#  c #181F21",
"$  c #1F2022",
"%  c #25262A",
"&  c #2B2C30",
"*  c #2F3135",
"=  c #323337",
"-  c #37383C",
";  c #3C3E44",
":  c #414449",
">  c #474A50",
",  c #4B4D53",
"<  c #415A61",
"1  c #555860",
"2  c #5B5E65",
"3  c #636770",
"4  c #6C6E76",
"5  c #6F737D",
"6  c #71747E",
"7  c #2C7B9B",
"8  c #547882",
"9  c #737781",
"0  c #777B86",
"q  c #228EBE",
"w  c #4885A2",
"e  c #6E8EA2",
"r  c #6F98A3",
"t  c #678BBA",
"y  c #688CB9",
"u  c #7091BE",
"i  c #31A0D0",
"p  c #1DAAE7",
"a  c #16A8E8",
"s  c #1CABE8",
"d  c #23ADE8",
"f  c #29AEE9",
"g  c #2DB1E8",
"h  c #39B5E7",
"j  c #33B3E8",
"k  c #3CB4EA",
"l  c #55A5C2",
"z  c #45B0D9",
"x  c #62A7CB",
"c  c #43B4EA",
"v  c #49B7EB",
"b  c #42B9E8",
"n  c #4DB9EA",
"m  c #50BDE7",
"M  c #53B7E9",
"N  c #54BDEA",
"B  c #5BBBEA",
"V  c #65BEEB",
"C  c #55C0E9",
"Z  c #5AC2E8",
"A  c #66C6E9",
"S  c #6CC9E9",
"D  c #73C2EB",
"F  c #7BC3EC",
"G  c #73CBE9",
"H  c #7BCEE9",
"J  c #838790",
"K  c #868A95",
"L  c #8E929D",
"P  c #8E93A0",
"I  c #979CA9",
"U  c #9CA1AF",
"Y  c #9FA4B2",
"T  c #A1A6B4",
"R  c #A5AAB7",
"E  c #A9AFBD",
"W  c #ABB0BE",
"Q  c #84A2C7",
"!  c #9DB4D3",
"~  c #B6BCCC",
"^  c #B9BFCF",
"/  c #A7BCD7",
"(  c #AABDD5",
")  c #ACBFD9",
"_  c #BAC0CF",
"`  c #AEC2DA",
"'  c #BBC1D2",
"]  c #B3C3DD",
"[  c #84C6EC",
"{  c #8DC9EC",
"}  c #9ECEED",
"|  c #84D1E9",
" . c #8BD4E9",
".. c #94D0E0",
"X. c #94D7E9",
"o. c #96D8E9",
"O. c #99D9EA",
"+. c #A3CFED",
"@. c #BAC8E0",
"#. c #ADD1ED",
"$. c #B3D2ED",
"%. c #BCD5ED",
"&. c #C1C7D7",
"*. c #C4CADB",
"=. c #CCD3E5",
"-. c #C4D6ED",
";. c #CED6E9",
":. c #C5D8EE",
">. c #CBD8ED",
",. c #D1D7EA",
"<. c #D3DAED",
"1. c #DADFEF",
"2. c #D8DDF0",
"3. c #DCE0F1",
"4. c #E3E5F4",
/* pixels */
"` ) / / / / / / / / / / / / / / / / / / / / / / / / / / / / / / / / / / / ) ! ! ",
"/ <.<.>.<.<.<.<.<.<.,.<.,.<.<.<.,.<.<.<.<.<.<.;.<.<.<.<.<.<.,.<.<.<.<.<.,.1.] ! ",
"` 1.1.1.<.<.<.<.:.$.:.1.<.<.<.<.<.<.<.<.1.>.$.%.<.<.<.<.<.<.<.<.<.<.<.<.<.4.] y ",
"/ 1.<.;.<.<.<.[ f p g { <.<.<.<.<.,.<.<.$.c p s B :.<.<.<.<.<.<.<.<.<.<.<.2.] y ",
"/ 1.<.<.<.<.+.d G  .S s #.<.<.<.<.<.<.>.k n  .| j V <.<.<.<.<.<.<.<.<.<.<.3.] y ",
"/ 1.<.<.<.<.M Z o.e 8 7 x ;.<.<.<.<.<.#.d X.O.O.H f -.<.<.<.<.<.<.<.<.<.<.3.] y ",
") <.<.<.<.<.n A O.< $ o   = 0 ' <.<.<.+.g o.O.O. .d -.<.<.<.<.<.<.<.<.<.<.1.] y ",
"/ 1.<.<.<.<.[ j  .o. .i e , @ @ 9 *.<.%.f G O.o.N v <.<.<.<.<.<.<.<.<.<.<.2.] y ",
"/ 1.<.;.<.<.>.n d h s B >.<.' 4 O % U <.{ p h g f #.<.<.<.<.<.<.<.1.,.<.<.2.] y ",
"` <.1.<.<.<.<.>.} S +.>.<.<.<.<.^ , . 6 ;.$.F [ :.<.<.<.<.<.<.<.<.<.,.<.<.3.] y ",
"/ 1.<.;.<.<.<.<.<.<.<.<.<.<.<.<.<.<.K . , *.<.<.<.<.<.<.<.<.<.<.<.<.<.<.<.3.] y ",
"` <.1.<.<.<.<.<.<.<.<.<.<.<.<.<.<.<.<.R # > *.<.<.<.<.<.<.<.<.<.<.<.<.<.<.2.] y ",
"/ <.<.<.<.<.<.<.<.<.<.<.<.<.<.<.<.<.<.<.E # : =.<.<.<.<.<.<.<.<.<.<.<.<.<.1.] y ",
"` <.<.<.<.<.<.<.<.<.<.<.<.<.<.<.<.<.<.,.<.E O 2 ,.<.<.<.<.<.<.<.<.<.<.<.,.4.] y ",
"` <.<.<.<.<.<.<.<.<.<.<.<.<.<.<.<.<.<.<.<.<.T . 9 <.<.<.<.<.<.<.<.<.<.<.<.1.] y ",
"/ <.<.<.<.<.<.<.<.<.<.<.<.<.<.<.<.<.<.<.<.<.,.J X Y <.<.<.<.<.<.<.<.<.<.<.1.] y ",
") 2.2.<.<.<.<.<.<.<.<.<.<.<.<.<.<.<.<.<.<.<.<.;., & *.<.<.<.<.<.<.<.<.<.<.2.] y ",
"/ <.<.<.<.<.<.<.<.<.<.<.<.<.<.<.<.<.<.<.<.<.<.<.^ $ 3 <.<.<.<.<.<.<.<.<.<.2.] y ",
") 2.2.>.<.<.<.<.<.<.>.<.<.<.<.<.<.<.<.<.<.<.<.<.<.K X ~ <.<.<.<.<.<.<.<.<.2.] y ",
"/ <.<.<.<.<.<.<.<.<.<.<.<.<.<.<.<.<.<.<.<.<.<.<.2.,.- > >.<.<.<.<.<.<.<.<.1.] y ",
"` <.<.<.<.<.<.<.<.<.<.<.<.<.<.<.<.<.<.<.<.<.<.<.<.<.R . ! <.<.<.<.<.<.<.<.3.] y ",
"/ 1.<.<.<.<.<.<.<.<.<.<.<.<.<.<.<.<.<.<.<.<.<.<.<.<.<.= 1 ,.<.<.<.<.<.<.,.3.] y ",
"/ 1.<.<.<.<.<.<.<.<.<.<.<.<.<.<.<.<.<.<.<.<.<.<.<.<.<.L + _ <.<.<.<.<.<.<.2.] y ",
"/ 1.<.<.<.<.<.<.<.<.<.<.<.<.<.<.<.<.<.<.<.<.<.<.<.<.2.*.O K <.<.<.<.<.,.1.3.] y ",
"` <.1.;.<.<.<.<.<.<.<.<.<.<.<.<.<.<.<.<.<.<.<.<.<.<.<.<., , ,.<.<.<.<.<.<.2.] y ",
"` <.<.<.<.<.<.<.<.<.<.<.<.<.<.<.<.<.<.<.<.<.<.<.<.<.<.<.L $ *.<.<.<.<.<.<.2.] y ",
"/ <.<.<.<.<.<.<.<.<.<.<.<.<.<.<.<.<.<.<.<.<.<.<.<.<.<.<.W . ~ <.<.<.<.<.<.3.] y ",
"` <.<.<.<.<.<.<.<.<.<.<.<.<.<.<.<.<.<.<.<.<.<.<.<.<.<.<.^ O T <.<.<.<.<.<.2.] y ",
"/ 1.<.<.>.<.<.<.<.<.<.<.<.<.<.<.<.<.<.<.<.<.<.<.<.<.<.<.&.@ I <.<.<.<.<.<.3.] y ",
"/ 1.<.,.<.<.<.<.<.<.<.<.<.<.<.<.<.<.<.<.<.1.<.<.<.<.<.<.^ O T <.<.<.<.<.<.3.] y ",
"/ 1.1.<.>.<.<.%.D c F -.<.<.<.<.<.<.<.<.%.V c F ;.,.<.<.R . ~ <.<.<.<.<.<.2.] y ",
"/ 1.<.<.<.<.:.h k N j k -.<.<.<.<.<.<.-.j k Z j k >.<.<.2 * =.<.<.<.<.<.<.3.] y ",
"/ <.1.>.<.<.D b o.O.X.j [ <.<.<.<.<.<.V v O.O.X.g { <.L . P <.<.<.<.<.<.<.2.] y ",
"/ 1.<.<.<.<.v A O.O.O.Z M 1.<.<.<.<.,.c D O.O...l w , . 5 <.<.<.<.<.<.<.<.3.] t ",
"/ 1.1.<.<.<.V n O.O.O.b D <.<.<.<.<.<.B C O.O.r   + ; I <.<.<.<.<.<.<.<.<.2.^ t ",
"/ 1.<.;.<.<.#.f Z G m f $.<.<.<.<.<.<.#.d Z H z q ( ;.<.<.<.<.<.<.<.<.<.<.2.@.t ",
"/ 1.1.<.;.<.<.+.c a v $.<.<.<.<.<.<.<.<.+.c a M #.,.2.<.<.,.<.<.<.<.<.<.<.2.] t ",
"` 3.3.3.3.2.2.4.2.3.2.4.2.3.3.2.3.2.2.3.2.3.2.4.3.3.3.3.3.2.3.3.3.2.3.3.3.4.@.t ",
"! ` ] ` ] ) ) ) ) ) ) ) ) ) ] ) ) ] ) ] ] ) ) ) ) ) ) ) ) ) ) ) ) ) ) ] ) @.! t ",
"! Q t t t t t t y y t y y t t t t t t t t t y y t t y y y y y u t t t t t t t u "
};
