/* XPM */
static char *result[] = {
/* columns rows colors chars-per-pixel */
"40 40 128 2 ",
"   c #030506",
".  c #070808",
"X  c #09090A",
"o  c #0D1417",
"O  c #121213",
"+  c #161718",
"@  c #171819",
"#  c #1A1B1D",
"$  c #1B1F22",
"%  c #222427",
"&  c #26272A",
"*  c #27282C",
"=  c #2B2C2E",
"-  c #2F3033",
";  c #303236",
":  c #34373B",
">  c #383A3F",
",  c #3A3C42",
"<  c #3F4145",
"1  c #414247",
"2  c #44474D",
"3  c #4B4D53",
"4  c #50525A",
"5  c #415A61",
"6  c #5A5D65",
"7  c #5C5F68",
"8  c #5F636B",
"9  c #6B6F79",
"0  c #70737B",
"q  c #2B7B9B",
"w  c #547882",
"e  c #407C98",
"r  c #537095",
"t  c #5E7D90",
"y  c #5A7498",
"u  c #727680",
"i  c #767982",
"p  c #787C87",
"a  c #797D88",
"s  c #1D89B9",
"d  c #7E838E",
"f  c #67929E",
"g  c #5196B8",
"h  c #6B84A3",
"j  c #7D8EA8",
"k  c #6F98A3",
"l  c #7C92AE",
"z  c #309FCF",
"x  c #37A7DA",
"c  c #36AADF",
"v  c #13A6E5",
"b  c #1BA7E5",
"n  c #1CA9E6",
"m  c #22AAE5",
"M  c #2BA9E1",
"N  c #20ADE8",
"B  c #34AAE0",
"V  c #3DAEE2",
"C  c #2FB2E7",
"Z  c #2DB1E8",
"A  c #34B4E7",
"S  c #38B5E7",
"D  c #32B4E8",
"F  c #3AB6E8",
"G  c #3FB8E8",
"H  c #55A5C2",
"J  c #43A7D8",
"K  c #42ADDE",
"L  c #4CADDA",
"P  c #5DADD5",
"I  c #54AED9",
"U  c #58ADD8",
"Y  c #76AECF",
"T  c #62ADD4",
"R  c #6BAFD3",
"E  c #74AFD0",
"W  c #73B0D3",
"Q  c #42ADE0",
"!  c #4FBDE7",
"~  c #43BAE8",
"^  c #51BFE9",
"/  c #55C0E9",
"(  c #5AC2E8",
")  c #66C6E9",
"_  c #6CC9E9",
"`  c #73CBE9",
"'  c #7BCEE9",
"]  c #818691",
"[  c #868A95",
"{  c #888C97",
"}  c #898D99",
"|  c #8C99AF",
" . c #9095A2",
".. c #9399A6",
"X. c #969CA9",
"o. c #989EAA",
"O. c #8196B2",
"+. c #8398B3",
"@. c #8E9BB0",
"#. c #909CB1",
"$. c #9CA1AF",
"%. c #95A0B4",
"&. c #9DA3B1",
"*. c #A2A7B6",
"=. c #A6ADBC",
"-. c #A9AFBE",
";. c #ABB0BF",
":. c #8EAEC6",
">. c #8DAFC8",
",. c #95AFC6",
"<. c #9CAFC2",
"1. c #84B1CD",
"2. c #8DB1CA",
"3. c #94B0C7",
"4. c #9DB1C4",
"5. c #95B2C8",
"6. c #A7AFC0",
"7. c #A2B1C2",
"8. c #ADB2C1",
"9. c #B0B4C1",
"0. c #B8B9C4",
"q. c #8DD2E6",
"w. c #84D1E9",
"e. c #8BD4E9",
"r. c #94D0E0",
"t. c #94D7E9",
"y. c #96D8E9",
"u. c #99D9EA",
/* pixels */
"+.+.+.O.O.O.O.O.l +.O.+.O.O.O.O.O.O.O.O.O.O.O.O.O.O.O.O.O.O.O.O.O.O.O.O.O.+.l O.",
"+.;.;.;.=.-.=.-.;.=.-.=.-.=.-.=.-.=.-.-.-.-.-.-.=.-.-.=.-.=.-.-.-.-.-.=.-.9.#.l ",
"+.;.;.;.8.;.;.;.7.:.7.;.8.;.8.8.-.-.-.-.;.7.,.,.8.8.8.8.-.8.-.-.8.-.;.;.-.9.#.r ",
"+.;.;.;.-.-.=.R m n M Y =.-.=.=.-.-.-.-.,.c b b L &.6.6.-.-.-.-.-.=.-.=.-.;.#.r ",
"+.;.-.-.-.-.1.n ` e._ n 2.-.-.-.-.-.8.6.B ! e.w.D I 8.-.-.-.-.-.-.-.-.-.-.9.#.r ",
"+.-.8.=.-.-.L ( u.f w q g =.-.-.-.-.7.5.N e.u.u.' M <.-.-.-.-.-.-.-.;.-.-.9.#.r ",
"+.;.8.=.-.-.Q ) u.5 # o   * 8 X.-.-.-.1.D u.u.u.e.m <.-.-.-.-.-.-.-.-.-.-.8.#.r ",
"+.;.8.=.-.;.R D e.u.q.z t 1 + + 7 $.-.<.m ` u.y.^ V 6.-.-.-.-.-.-.-.-.;.-.9.@.r ",
"+.;.;.-.-.-.-.K N S n L 7.;.o.6 O $ d ;.Y b A C m :.-.-.-.-.-.-.-.;.=.=.-.8.@.r ",
"+.;.;.-.-.;.;.7.1.P 1.=.-.-.;.-.o., . 6 =.5.T R 6.-.-.-.-.6.-.-.;.-.6.;.;.9.X.r ",
"+.;.;.-.-.-.-.-.;.=.;.-.-.-.-.6.-.-.0 X , &.-.-.6.-.-.-.-.-.-.-.-.-.-.-.=.9.#.r ",
"+.;.-.-.-.-.-.-.-.;.-.-.-.;.-.-.-.-.-.{ @ > &.-.-.6.-.-.-.;.-.-.-.-.-.;.-.9.#.r ",
"+.;.;.-.-.-.-.;.-.-.8.=.=.8.-.-.-.-.-.-.} # : *.-.-.-.-.-.-.-.-.-.-.-.=.;.9.#.r ",
"+.;.-.-.-.-.-.-.;.-.=.8.8.=.-.-.-.-.-.-.-.} O 3 -.-.-.-.-.-.-.-.-.;.-.;.=.9.#.r ",
"+.;.;.-.-.-.-.-.=.;.;.=.=.-.-.-.-.-.-.-.-.-.[ . 7 -.-.-.-.-.-.-.;.=.;.;.-.;.#.r ",
"+.;.;.-.-.-.-.-.;.=.=.;.6.-.-.-.-.8.-.-.-.-.-.0 X ] -.-.-.8.-.-.=.;.;.;.;.;.#.r ",
"+.;.-.-.-.8.-.-.-.-.-.-.-.-.-.-.-.-.-.-.-.-.-.=.< % o.8.6.-.-.-.-.-.-.-.-.8.#.r ",
"+.-.-.-.-.-.-.-.-.-.-.-.-.-.-.-.-.-.-.-.-.-.-.8.o.# 4 -.-.-.-.-.-.;.-.-.;.;.#.r ",
"+.;.8.-.-.-.-.-.-.-.-.-.-.8.-.-.8.-.-.-.-.-.-.-.-.0 X ..-.-.-.-.-.-.-.-.;.;.%.r ",
"+.;.-.-.-.-.-.-.8.-.-.-.-.-.6.-.-.-.-.-.-.-.-.-.-.-.- , -.-.8.-.-.-.-.;.-.;.X.r ",
"+.;.;.-.-.-.-.-.-.-.-.-.-.-.-.-.-.-.-.-.8.-.-.-.-.-.{ . [ -.-.-.-.-.-.-.-.9.#.r ",
"+.;.-.-.-.-.-.-.-.-.-.-.-.-.-.-.-.-.-.-.-.-.8.-.-.-.-.= 2 -.-.-.-.;.-.-.-.9.#.r ",
"+.;.;.-.-.8.-.-.-.-.-.-.-.-.-.-.-.-.-.-.-.-.-.-.-.-.-.i O ..6.-.-.-.-.-.-.;.#.r ",
"+.;.;.-.-.-.-.-.-.-.-.-.-.-.8.-.-.-.-.-.-.6.-.-.-.-.-.*.O 9 -.-.-.-.-.;.;.9.o.r ",
"+.;.-.-.-.-.-.-.-.-.-.-.-.8.-.-.-.-.-.-.-.-.-.-.-.-.-.-.1 , -.-.;.-.-.-.-.9.#.r ",
"| ;.-.-.-.-.-.-.-.-.-.-.-.-.-.-.-.-.-.-.6.-.-.-.-.-.-.-.i # $.-.-.-.-.-.-.9.#.r ",
"+.;.;.-.-.;.-.-.-.-.-.-.-.-.-.-.-.-.-.8.-.-.-.-.-.-.8.-.} . ..-.-.-.;.-.-.;.#.r ",
"+.;.-.-.-.-.-.-.-.-.6.-.-.-.-.-.8.-.-.-.-.-.-.-.-.-.-.-.o.O ] -.-.-.-.-.-.;.#.r ",
"+.;.-.-.-.-.-.-.8.-.-.-.-.-.-.-.-.-.-.-.8.-.-.-.8.-.-.-.o.# p -.-.-.-.-.-.9.o.r ",
"+.;.-.-.-.-.-.-.6.6.-.-.-.-.-.-.-.-.-.-.-.6.-.-.-.-.-.-.o.O ] -.-.-.-.-.-.9.#.r ",
"+.;.-.-.-.-.;.4.P x T <.-.-.-.8.-.-.-.-.<.U x R 6.6.-.-.} .  .-.-.-.-.-.-.8.#.r ",
"+.;.8.=.-.-.7.M S ( D B 6.-.-.-.-.-.6.4.M F ^ Z B 6.-.-.3 & *.-.-.-.-.-.-.9.#.r ",
"+.;.;.-.-.=.P G y.y.y.D W -.-.-.-.-.-.U ~ u.u.t.D E -.0 . u -.-.-.-.-.-.-.;.#.r ",
"+.;.;.-.6.=.Q _ u.u.u.( J 7.-.-.-.-.-.V _ u.u.r.H e 1 X 6 -.-.-.-.-.-.-.-.9.#.r ",
"+.;.;.-.=.8.I ! u.y.y.~ T ;.-.6.-.-.6.L ^ u.u.k   O ; a -.-.-.-.-.-.-.-.-.9.#.r ",
"+.;.-.-.;.-.3.n ( ' / n 5.-.-.-.-.6.6.>.m ( ' K s | =.-.-.-.-.-.-.-.6.-.-.9.#.r ",
"+.;.8.=.-.-.-.2.B v K :.-.-.-.-.6.-.-.=.1.B v Q >.=.;.;.-.-.-.-.-.-.-.-.-.8.#.r ",
"@.;.9.9.9.8.9.9.9.9.9.9.9.9.9.9.9.9.9.9.9.9.9.9.9.9.9.;.9.;.9.9.9.9.9.9.9.0.#.r ",
"l #.@.@.| @.| +.@.| | | | +.| | | | | | | | | | | | | +.X.+.@.| | @.| | | #.j r ",
"l h r r r r r r r r r r r r r r r r r r r r r r r r r r r r r r r r r r r r r y "
};
