/* XPM */
static char *result[] = {
/* columns rows colors chars-per-pixel */
"40 40 123 2 ",
"   c gray1",
".  c #030304",
"X  c #040404",
"o  c gray2",
"O  c #050506",
"+  c #070808",
"@  c #09090A",
"#  c #090A0A",
"$  c #0A0A0B",
"%  c #0B0B0C",
"&  c #0C0C0D",
"*  c #0D0E0F",
"=  c #0E0E10",
"-  c #0F0F10",
";  c #0F1011",
":  c #101012",
">  c #111213",
",  c #141516",
"<  c #191A1C",
"1  c #1A1B1D",
"2  c #1B1C1F",
"3  c #1C1E20",
"4  c #1E1F22",
"5  c #202124",
"6  c #212225",
"7  c #43454B",
"8  c #46494F",
"9  c #494B52",
"0  c #4C4F56",
"q  c #4F5259",
"w  c #52555C",
"e  c #54565E",
"r  c #61646D",
"t  c #62666E",
"y  c #646871",
"u  c #656871",
"i  c #676B74",
"p  c #6A6E77",
"a  c #6D717A",
"s  c #6F737D",
"d  c #71757F",
"f  c #537094",
"g  c #537095",
"h  c #547094",
"j  c #547196",
"k  c #547296",
"l  c #5A7498",
"z  c #737781",
"x  c #757984",
"c  c #787C87",
"v  c #797D88",
"b  c #7B808B",
"n  c #7C808B",
"m  c #6B84A3",
"M  c #7D8EA8",
"N  c #7A91AD",
"B  c #7B91AD",
"V  c #7D93AF",
"C  c #7E94AF",
"Z  c #858995",
"A  c #878B97",
"S  c #898D99",
"D  c #8B8F9C",
"F  c #8B909C",
"G  c #8D929F",
"H  c #8C99AF",
"J  c #9095A2",
"K  c #9398A5",
"L  c #9499A6",
"P  c #8196B2",
"I  c #8398B2",
"U  c #8298B3",
"Y  c #8398B3",
"T  c #8399B3",
"R  c #8499B3",
"E  c #869BB5",
"W  c #879BB5",
"Q  c #8D9BB0",
"!  c #8E9AB0",
"~  c #8F9CB1",
"^  c #909CB1",
"/  c #929DB2",
"(  c #95A0B4",
")  c #9FA5B3",
"_  c #97A9BE",
"`  c #A3A9B7",
"'  c #A4AAB8",
"]  c #A4AAB9",
"[  c #A5ABBA",
"{  c #A6ACBB",
"}  c #A7ADBC",
"|  c #A8AEBD",
" . c #A9AEBD",
".. c #A8AFBD",
"X. c #A9AFBD",
"o. c #AAAEBD",
"O. c #A8AEBE",
"+. c #A8AFBE",
"@. c #A9AFBE",
"#. c #A9AFBF",
"$. c #AAAEBE",
"%. c #AAAFBE",
"&. c #ABAFBE",
"*. c #ACAFBD",
"=. c #AAB0BD",
"-. c #A9B0BE",
";. c #AAB0BE",
":. c #ABB0BE",
">. c #ABB1BE",
",. c #AAB0BF",
"<. c #ABB0BF",
"1. c #ACB0BE",
"2. c #ACB1BE",
"3. c #ADB1C0",
"4. c #AEB3C0",
"5. c #AFB3C0",
"6. c #AFB4C0",
"7. c #B0B4C0",
"8. c #B0B4C1",
"9. c #B2B5C1",
"0. c #B2B5C2",
"q. c #B4B6C2",
"w. c #B8B9C4",
/* pixels */
"W I Y P P P P P P P P P P P P P P P P P P P P P P P P P P P P P P P P P P R B C ",
"I =.,.| | | | | | | | | | | | | | | | | | | | | | | | | | | | | | | | | | 5.^ B ",
"T 4.3.<.<.<.<.<.<.<.<.<.<.<.<.<.<.<.<.<.<.<.<.<.<.<.<.<.<.<.<.<.<.<.<.<.<.9./ f ",
"Y 2.,.| | | | | | | | | | | | | | | | | | | | | | | | | | | @.@.@.| | | | 6.^ h ",
"Y 2.<.| @.@.@.@.@.@.@.@.@.@.@.@.@.@.@.@.@.@.@.@.@.@.@.@.O.@.@.@.@.@.@.@.| 7.^ h ",
"Y 2.<.| @.@.@.@.@.@.@.@.@.@.@.@.@.@.@.@.@.@.@.@.@.@.O.O.:.@.@.@.@.@.@.@.| 7.^ h ",
"Y 2.<.| @.@.@.@.@.@.@.@.@.@.@.@.@.@.@.@.@.@.@.@.@.O.%.&.@.@.@.@.@.@.@.@.| 7.^ h ",
"Y 2.<.| @.@.@.@.@.@.@.@.@.@.@.@.@.@.@.@.@.@.@.@.+.$.%.@.@.@.@.@.@.O.@.@.| 7.^ h ",
"Y 2.<.| @.@.@.@.@.@.@.@.@.@.@.@.@.@.@.@.@.@.@.+.O.;.@.} y r } @.@.1.O.@.| 7.^ h ",
"Y 2.<.| @.@.@.@.@.@.@.@.@.@.@.@.@.@.@.@.@.@.@.+.&.@.} t + 1 L @.@.@.O.@.| 7.^ h ",
"Y 2.<.| @.@.@.@.@.@.@.@.@.@.@.@.@.@.@.@.@.@.@.+.&.} u @ > b | @.@.@.@.@.| 7.^ h ",
"Y 2.<.| @.@.@.@.@.@.@.@.@.@.@.@.@.@.@.@.@.@.@.+.{ i # : v ..@.@.@.@.@.@.| 7.^ h ",
"Y 2.<.| @.@.@.@.@.@.@.@.@.@.@.@.@.@.@.@.@.O.-.| p % ; x | @.@.@.@.@.@.@.| 7.^ h ",
"Y 2.<.| @.@.@.@.@.@.@.@.@.@.@.@.@.@.@.O.@.@.| a & - z | @.@.@.@.@.@.@.@.| 7.^ h ",
"Y 2.<.| @.@.@.@.@.@.@.@.@.@.@.@.@.@.@.@.@.| d * = s | @.@.@.@.@.@.@.#.@.| 7.^ h ",
"Y 2.<.| @.@.@.@.@.@.@.@.@.@.@.O.@.@.@.@.@.| t , a | @.@.@.@.@.@.@.#.@.@.| 7.^ h ",
"Y 2.<.| @.@.@.@.@.@.@.@.@.@.@.@.@.@.@.@.@.@.` D } @.@.#.#.@.@.@.@.@.@.@.| 7.^ h ",
"Y 2.<.| @.@.@.@.@.@.@.@.@.@.@.@.@.@.@.@.@.@.@.@.@.@.#.@.@.@.@.@.@.@.@.@.| 7.^ h ",
"Y 2.<.| @.@.@.@.@.@.O.@.@.@.@.@.@.@.@.@.@.@.@.@.@.@.@.@.@.@.@.@.@.@.@.@.| 7.^ h ",
"Y 2.<.| @.@.@.@.@.O.@.@.@.@.#.O.@.@.@.@.@.@.@.@.#.@.@.@.@.@.@.@.@.@.@.@.| 7.^ h ",
"Y 2.<.| @.@.@.@.@.-.@.@.@.@.@.@.@.@.@.@.@.@.@.#.@.@.@.@.@.@.@.@.@.@.@.@.| 7.^ h ",
"Y 2.<.| @.@.@.@.@.@.@.@.@.@.@.{ @.@.@.@.@.@.#.@.@.@.@.@.@.@.@.@.@.@.@.@.| 7.^ h ",
"Y 2.<.| @.@.@.@.@.@.@.@.@.| Z e ) @.@.@.@.@.@.@.@.@.@.@.@.@.@.@.@.@.@.@.| 7.^ h ",
"Y 2.<.| @.@.@.@.X.@.@.@.@.A < $ c @.@.@.@.#.@.@.@.@.@.@.@.@.@.@.@.@.@.@.| 7.^ h ",
"Y 2.<.| @.@.@.@.@.@.@.@.S 2 O w [ @.@.@.@.@.@.@.@.@.@.@.@.@.@.@.@.@.@.@.| 7.^ h ",
"Y 2.<.| @.O.-.O.@.@.@.F 3 o q [ @.@.@.@.#.@.@.@.@.@.@.@.@.@.@.@.@.@.@.@.| 7.^ h ",
"Y 2.<.| @.-.@.@.@.@.G 4 X 0 ] @.@.@.@.#.@.@.@.@.@.@.@.@.@.@.@.@.@.@.@.@.| 7.^ h ",
"Y 2.<.| @.@.@.@.@.J 5 . 9 ] @.@.@.@.@.@.@.@.@.@.@.@.@.@.@.@.@.@.@.@.@.@.| 7.^ h ",
"Y 2.<.| +.@.@.@.K 6   8 ' @.@.@.#.@.@.@.@.@.@.@.@.@.@.@.@.@.@.@.@.@.@.@.| 7.^ h ",
"Y 2.<.| O.@.@.@.n - 7 ' @.@.@.@.@.@.@.@.@.@.@.@.@.@.@.@.@.@.@.@.@.@.@.@.| 7.^ h ",
"Y 2.<.| O.@.@.@.| D ` @.@.@.@.@.@.@.@.@.@.@.@.@.@.@.@.@.@.@.@.@.@.@.@.@.| 7.^ h ",
"Y 2.<.| O. .@.@.@.@.@.@.@.@.@.@.@.@.@.@.@.@.@.@.@.@.@.@.@.@.@.@.@.@.@.@.| 7.^ h ",
"Y 2.<.| @.O.*.@.@.@.@._ @.@.@.@.@.@.@.@.@.@.@.@.@.@.@.@.@.@.@.@.@.@.@.@.| 7.^ h ",
"Y 2.<.| @.@.O.*.@.@.@.@.@.@.@.@.@.@.@.@.@.@.@.@.@.@.@.@.@.@.@.@.@.@.@.@.| 7.^ h ",
"Y 2.<.| @.@.@.O.o.@.@.@.@.@.@.#.@.@.@.@.@.@.@.@.@.@.@.@.@.@.@.@.@.@.@.@.| 7.^ h ",
"Y 2.<.| @.@.@.@.+.| @.@.@.@.#.@.@.@.@.@.@.@.@.@.@.@.@.@.@.@.@.@.@.@.@.@.| 7.^ h ",
"U >.,.| | | | | | | | | | | | | | | | | | | | | | | | | | | | | | | | | | 6.~ h ",
"E q.0.7.8.8.8.8.8.8.8.8.8.8.8.8.8.8.8.8.8.8.8.8.8.8.8.8.8.8.8.8.8.8.8.8.7.w.( f ",
"N Q ! H H H H H H H H H H H H H H H H H H H H H H H H H H H H H H H H H H ^ M j ",
"V m g g g g g g g g g g g g g g g g g g g g g g g g g g g g g g g g g g g g k l "
};
