/* XPM */
static char *result[] = {
/* columns rows colors chars-per-pixel */
"40 40 131 2 ",
"   c #030304",
".  c #040405",
"X  c #050506",
"o  c #060607",
"O  c #070707",
"+  c #09090A",
"@  c #0B0B0C",
"#  c #0C0C0D",
"$  c #0C0D0E",
"%  c #0D0E0F",
"&  c #0F0F11",
"*  c #111113",
"=  c #111214",
"-  c #121314",
";  c #131415",
":  c #141516",
">  c #161618",
",  c #191A1C",
"<  c #1F2023",
"1  c #202124",
"2  c #222326",
"3  c #242528",
"4  c #25262A",
"5  c #28292D",
"6  c #292B2E",
"7  c #54565E",
"8  c #585B63",
"9  c #5B5E66",
"0  c #5F626B",
"q  c #62666F",
"w  c #676A73",
"e  c #686C75",
"r  c #797C87",
"t  c #7A7F8A",
"y  c #7D818C",
"u  c #7E828D",
"i  c #678BB8",
"p  c #678BBA",
"a  c #678CB8",
"s  c #688CB9",
"d  c #698DBB",
"f  c #698EBB",
"g  c #7091BE",
"h  c #818591",
"j  c #848995",
"k  c #888C98",
"l  c #8B909C",
"z  c #8D929F",
"x  c #8F94A1",
"c  c #9297A5",
"v  c #969BA8",
"b  c #979CA9",
"n  c #9A9FAD",
"m  c #9BA0AE",
"M  c #A5ABBA",
"N  c #A8AEBD",
"B  c #AAB0BF",
"V  c #84A2C7",
"C  c #9AB3D1",
"Z  c #9CB1D2",
"A  c #9CB3D2",
"S  c #9EB6D4",
"D  c #9FB7D4",
"F  c #ADB3C2",
"G  c #AEB4C3",
"H  c #B0B6C6",
"J  c #B4BACA",
"K  c #B8BECE",
"L  c #A7BBD6",
"P  c #A7BCD7",
"I  c #A9BDD7",
"U  c #A9BED8",
"Y  c #A9BFD8",
"T  c #ABBFD8",
"R  c #ACBFD9",
"E  c #AEBFDA",
"W  c #AFBFDA",
"Q  c #B9C0CF",
"!  c #AEC1DA",
"~  c #AEC2DA",
"^  c #B1C0DC",
"/  c #B0C1DC",
"(  c #B2C3DD",
")  c #B3C3DD",
"_  c #B4C3DD",
"`  c #B6C4DE",
"'  c #BAC8E0",
"]  c #BCD3ED",
"[  c #C7CDDF",
"{  c #CCD2E5",
"}  c #CCD3E6",
"|  c #CDD4E6",
" . c #CED5E7",
".. c #D0D7E9",
"X. c #D1D7EA",
"o. c #D1D8EB",
"O. c #D1D9EC",
"+. c #D1D9ED",
"@. c #D2D9EC",
"#. c #D3D9EC",
"$. c #D2D9ED",
"%. c #D3DAEC",
"&. c #D2DAED",
"*. c #D3DAED",
"=. c #D3DBED",
"-. c #D3DAEE",
";. c #D4D9EC",
":. c #D4D9ED",
">. c #D4DBEC",
",. c #D4DAED",
"<. c #D5DAED",
"1. c #D4DBED",
"2. c #D5DBED",
"3. c #D6DAEC",
"4. c #D7DAEC",
"5. c #D6DBED",
"6. c #D4DBEE",
"7. c #D5DBEE",
"8. c #D5DDED",
"9. c #D6DDED",
"0. c #D9DFEF",
"q. c #DADFEF",
"w. c #D8DDF0",
"e. c #DAE0F0",
"r. c #DBE0F0",
"t. c #DCE0F0",
"y. c #DCE0F1",
"u. c #DEE2F1",
"i. c #DEE2F2",
"p. c #E0E3F2",
"a. c #E6E7F5",
/* pixels */
"! Y I L P P P P P P P P P P P P P P P P P P P P P P P P P P P P P P P P L R A D ",
"U >.6.O.@.@.@.@.@.@.@.@.@.@.@.@.@.@.@.@.@.@.@.@.@.@.@.@.@.@.@.@.@.@.@.@.O.q.) A ",
"T 0.w.7.7.7.7.7.7.7.7.7.7.7.7.7.7.7.7.7.7.7.7.7.7.7.7.7.7.7.7.7.7.7.7.7.7.u.` a ",
"U 9.6.@.@.@.@.@.@.@.@.@.@.@.@.@.@.@.@.@.@.@.@.@.@.@.@.@.@.@.*.*.*.@.@.@.@.e.) s ",
"U 9.7.@.*.*.*.*.*.*.*.*.*.*.*.*.*.*.*.*.*.*.*.*.*.*.*.*.$.*.*.*.*.*.*.*.@.r.) s ",
"U 9.7.@.*.*.*.*.*.*.*.*.*.*.*.*.*.*.*.*.*.*.*.*.*.*.$.+.2.*.*.*.*.*.*.*.@.r.) s ",
"U 9.7.@.*.*.*.*.*.*.*.*.*.*.*.*.*.*.*.*.*.*.*.*.*.$.,.<.*.*.*.*.*.*.*.*.@.r.) s ",
"U 9.7.@.*.*.*.*.*.*.*.*.*.*.*.*.*.*.*.*.*.*.*.*.&.:.,.*.*.*.*.*.*.+.*.*.@.r.) s ",
"U 9.7.@.*.*.*.*.*.*.*.*.*.*.*.*.*.*.*.*.*.*.*.&.$.1.*.*.*.*.*.*.*.5.$.*.@.r.) s ",
"U 9.7.@.*.*.*.*.*.*.*.*.*.*.*.*.*.*.*.*.*.*.*.&.<.*.*.*.*.*.*.*.*.*.+.*.@.r.) s ",
"U 9.7.@.*.*.*.*.*.*.*.*.*.*.*.*.*.*.*.*.*.*.*.&.<.*.X.y r X.*.*.*.*.*.*.@.r.) s ",
"U 9.7.@.*.*.*.*.*.*.*.*.*.*.*.*.*.*.*.*.*.*.*.&.@.X.t + 1 Q *.*.*.*.*.*.@.r.) s ",
"U 9.7.@.*.*.*.*.*.*.*.*.*.*.*.*.*.*.*.*.*.$.=.*.X.u @ > n @.*.*.*.*.*.*.@.r.) s ",
"U 9.7.@.*.*.*.*.*.*.*.*.*.*.*.*.*.*.*.$.*.*.*.X.h # : b @.*.*.*.*.*.*.*.@.r.) s ",
"U 9.7.@.*.*.*.*.*.*.*.*.*.*.*.*.*.*.*.*.*.*.o.j % ; c @.*.*.*.*.*.*.-.*.@.r.) s ",
"U 9.7.@.*.*.*.*.*.*.*.*.*.*.*.$.*.*.*.*.*.o.k & - x o.*.*.*.*.*.*.-.*.*.@.r.) s ",
"U 9.7.@.*.*.*.*.*.*.*.*.*.*.*.*.*.*.*.*.@.z * = l o.*.-.-.*.*.*.*.*.*.*.@.r.) s ",
"U 9.7.@.*.*.*.*.*.*.*.*.*.*.*.*.*.*.*.*.o.t , k o.*.-.*.*.*.*.*.*.*.*.*.@.r.) s ",
"U 9.7.@.*.*.*.*.*.*.$.*.*.*.*.*.*.*.*.*.*.{ F X.*.*.*.*.*.*.*.*.*.*.*.*.@.r.) s ",
"U 9.7.@.*.*.*.*.*.$.*.*.*.*.-.$.*.*.*.*.*.*.*.*.-.*.*.*.*.*.*.*.*.*.*.*.@.r.) s ",
"U 9.7.@.*.*.*.*.*.=.*.*.*.*.*.*.*.*.*.*.*.*.*.-.*.*.*.*.*.*.*.*.*.*.*.*.@.r.) s ",
"U 9.7.@.*.*.*.*.*.*.*.*.*.*.*.*.*.*.*.*.*.*.-.*.*.*.*.*.*.*.*.*.*.*.*.*.@.r.) s ",
"U 9.7.@.*.*.*.*.*.*.*.*.*.*.*.*.*.*.*.*.*.*.*.*.*.*.*.*.*.*.*.*.*.*.*.*.@.r.) s ",
"U 9.7.@.*.*.*.*.%.*.*.*.*.*...*.*.*.*.*.*.-.*.*.*.*.*.*.*.*.*.*.*.*.*.*.@.r.) s ",
"U 9.7.@.*.*.*.*.*.*.*.*.@.M e [ *.*.*.*.*.*.*.*.*.*.*.*.*.*.*.*.*.*.*.*.@.r.) s ",
"U 9.7.@.*.$.=.$.*.*.*.*.N < $ v *.*.*.*.-.*.*.*.*.*.*.*.*.*.*.*.*.*.*.*.@.r.) s ",
"U 9.7.@.*.=.*.*.*.*.*.B 2 O w  .*.*.*.-.*.*.*.*.*.*.*.*.*.*.*.*.*.*.*.*.@.r.) s ",
"U 9.7.@.*.*.*.*.*.*.G 3 o q  .*.*.*.*.*.*.*.*.*.*.*.*.*.*.*.*.*.*.*.*.*.@.r.) s ",
"U 9.7.@.&.*.*.*.*.H 4 X 0 | *.*.-.*.*.*.*.*.*.*.*.*.*.*.*.*.*.*.*.*.*.*.@.r.) s ",
"U 9.7.@.$.*.*.*.J 5 . 9 | *.*.*.*.*.*.*.*.*.*.*.*.*.*.*.*.*.*.*.*.*.*.*.@.r.) s ",
"U 9.7.@.$.*.*.K 6   8 } *.*.*.*.*.*.*.*.*.*.*.*.*.*.*.*.*.*.*.*.*.*.*.*.@.r.) s ",
"U 9.7.@.$.#.*.m - 7 } *.*.*.*.*.*.*.*.*.*.*.*.*.*.*.*.*.*.*.*.*.*.*.*.*.@.r.) s ",
"U 9.7.@.*.$.3.@.F { *.] *.*.*.*.*.*.*.*.*.*.*.*.*.*.*.*.*.*.*.*.*.*.*.*.@.r.) s ",
"U 9.7.@.*.*.+.4.*.*.*.*.*.*.*.*.*.*.*.*.*.*.*.*.*.*.*.*.*.*.*.*.*.*.*.*.@.r.) s ",
"U 9.7.@.*.*.*.$.;.*.*.*.*.*.*.-.*.*.*.*.*.*.*.*.*.*.*.*.*.*.*.*.*.*.*.*.@.r.) s ",
"U 9.7.@.*.*.*.*.&.@.*.*.*.*.-.*.*.*.*.*.*.*.*.*.*.*.*.*.*.*.*.*.*.*.*.*.@.r.) s ",
"I 8.6.@.@.@.@.@.@.@.@.@.@.@.@.@.@.@.@.@.@.@.@.@.@.@.@.@.@.@.@.@.@.@.@.@.@.e.( s ",
"~ p.i.t.y.y.y.y.y.y.y.y.y.y.y.y.y.y.y.y.y.y.y.y.y.y.y.y.y.y.y.y.y.y.y.y.t.a.' i ",
"C / ^ E W W W W W W W W W W W W W W W W W W W W W W W W W W W W W W W W E _ Z d ",
"S V p p p p p p p p p p p p p p p p p p p p p p p p p p p p p p p p p p p p f g "
};
