/* XPM */
static char *result[] = {
/* columns rows colors chars-per-pixel */
"40 40 146 2 ",
"   c black",
".  c #010101",
"X  c #020202",
"o  c gray1",
"O  c #030304",
"+  c #040404",
"@  c gray2",
"#  c #050506",
"$  c #060607",
"%  c #070707",
"&  c #070808",
"*  c #080809",
"=  c #09090A",
"-  c #090A0A",
";  c #0A0A0B",
":  c #0B0B0C",
">  c #0B0C0D",
",  c #0C0C0D",
"<  c #0F1011",
"1  c #202225",
"2  c #232427",
"3  c #26282B",
"4  c #292B2E",
"5  c #2C2D31",
"6  c #2E3034",
"7  c #313337",
"8  c #323338",
"9  c #34363B",
"0  c #37393E",
"q  c #3A3C42",
"w  c #3D3F45",
"e  c #3E4146",
"r  c #404248",
"t  c #414349",
"y  c #43454B",
"u  c #44474D",
"i  c #46484E",
"p  c #474950",
"a  c #484B51",
"s  c #4A4D53",
"d  c #4C4E55",
"f  c #4D5056",
"g  c #4E5158",
"h  c #50535A",
"j  c #51545B",
"k  c #52545B",
"l  c #53565D",
"z  c #54575F",
"x  c #565961",
"c  c #575B62",
"v  c #595D65",
"b  c #5C5F68",
"n  c #5F636B",
"m  c #61656E",
"M  c #62666E",
"N  c #656972",
"B  c #696C76",
"V  c #6B6F79",
"C  c #6F737C",
"Z  c #537094",
"A  c #537095",
"S  c #547094",
"D  c #547196",
"F  c #547296",
"G  c #5A7498",
"H  c #727680",
"J  c #757983",
"K  c #787C87",
"L  c #6B84A3",
"P  c #7D8EA8",
"I  c #7A91AD",
"U  c #7B91AD",
"Y  c #7D93AF",
"T  c #7E94AF",
"R  c #8C99AF",
"E  c #9096A2",
"W  c #9499A6",
"Q  c #959AA8",
"!  c #969BA8",
"~  c #979CAA",
"^  c #989EAB",
"/  c #999FAC",
"(  c #8196B2",
")  c #8398B2",
"_  c #8298B3",
"`  c #8398B3",
"'  c #8399B3",
"]  c #8499B3",
"[  c #869BB5",
"{  c #879BB5",
"}  c #8D9BB0",
"|  c #8E9AB0",
" . c #8F9CB1",
".. c #909CB1",
"X. c #929DB2",
"o. c #9AA0AE",
"O. c #9BA1AE",
"+. c #95A0B4",
"@. c #9CA2B0",
"#. c #9DA3B1",
"$. c #9EA4B2",
"%. c #9FA5B3",
"&. c #97A9BE",
"*. c #A0A5B4",
"=. c #A0A6B4",
"-. c #A1A7B5",
";. c #A2A7B6",
":. c #A2A8B7",
">. c #A3A9B7",
",. c #A4AAB8",
"<. c #A4AAB9",
"1. c #A5ABBA",
"2. c #A6ACBA",
"3. c #A6ACBB",
"4. c #A7ADBC",
"5. c #A8AEBD",
"6. c #A9AEBD",
"7. c #A9AFBD",
"8. c #AAAEBD",
"9. c #A8AEBE",
"0. c #A8AFBE",
"q. c #A9AFBE",
"w. c #A9AFBF",
"e. c #AAAEBE",
"r. c #AAAFBE",
"t. c #ABAFBE",
"y. c #ACAFBD",
"u. c #AAB0BD",
"i. c #A9B0BE",
"p. c #AAB0BE",
"a. c #ABB0BE",
"s. c #ABB1BE",
"d. c #AAB0BF",
"f. c #ABB0BF",
"g. c #ACB0BE",
"h. c #ACB1BE",
"j. c #ADB1C0",
"k. c #AEB3C0",
"l. c #AFB3C0",
"z. c #AFB4C0",
"x. c #B0B4C0",
"c. c #B0B4C1",
"v. c #B2B5C1",
"b. c #B2B5C2",
"n. c #B4B6C2",
"m. c #B8B9C4",
/* pixels */
"{ ) ` ( ( ( ( ( ( ( ( ( ( ( ( ( ( ( ( ( ( ( ( ( ( ( ( ( ( ( ( ( ( ( ( ( ( ] U T ",
") u.d.5.5.5.5.5.5.5.5.5.5.5.5.5.5.5.5.5.5.5.5.5.5.5.5.5.5.5.5.5.5.5.5.5.5.l...U ",
"' k.j.f.f.f.f.f.f.f.f.f.f.f.f.f.f.f.f.f.f.f.f.f.f.f.f.f.f.f.f.f.f.f.f.f.f.v.X.Z ",
"` h.d.5.5.5.5.5.5.5.5.5.5.5.5.5.5.5.5.5.5.5.5.5.5.5.5.5.5.5.q.q.q.5.5.5.5.z...S ",
"` h.f.5.q.q.q.q.q.q.q.q.q.q.q.q.q.q.q.q.q.q.q.q.q.q.q.q.9.q.q.q.q.q.q.q.5.x...S ",
"` h.f.5.q.q.q.q.q.q.q.q.q.q.q.q.q.q.q.q.q.q.q.q.q.q.9.9.a.q.q.q.q.q.q.q.5.x...S ",
"` h.f.5.q.q.q.q.q.q.q.q.q.q.q.q.q.q.q.q.q.q.q.q.q.9.r.t.q.q.q.q.q.q.q.q.5.x...S ",
"` h.f.5.q.q.q.q.q.q.q.q.q.q.q.q.q.q.q.q.q.q.q.q.0.e.r.q.q.q.q.q.q.9.q.q.5.x...S ",
"` h.f.5.q.q.q.q.q.q.q.q.q.q.q.q.q.q.q.q.q.q.q.0.9.p.q.q.q.q.q.q.q.g.9.q.5.x...S ",
"` h.f.5.q.q.q.q.q.q.q.q.q.q.q.q.q.q.q.q.q.q.q.0.t.q.W m 2.q.q.q.q.q.9.q.5.x...S ",
"` h.f.5.q.q.q.q.q.q.q.q.q.q.q.q.q.q.q.q.q.q.q.0.t.Q 1 X k 2.q.q.q.q.q.q.5.x...S ",
"` h.f.5.q.q.q.q.q.q.q.q.q.q.q.q.q.q.q.q.q.q.q.0.! 2 .   < E q.q.q.q.q.q.5.x...S ",
"` h.f.5.q.q.q.q.q.q.q.q.q.q.q.q.q.q.q.q.q.9.i.~ 3 .   , K 5.q.q.q.q.q.q.5.x...S ",
"` h.f.5.q.q.q.q.q.q.q.q.q.q.q.q.q.q.q.9.q.q.^ 4 .   > J 5.q.q.q.q.q.q.q.5.x...S ",
"` h.f.5.q.q.q.q.q.q.q.q.q.q.q.q.q.q.q.q.q./ 5 .   : H 5.q.q.q.q.q.q.w.q.5.x...S ",
"` h.f.5.q.q.q.q.q.q.q.q.q.q.q.9.q.q.q.q.o.6 .   ; C 5.q.q.q.q.q.q.w.q.q.5.x...S ",
"` h.f.5.q.q.q.q.q.q.q.q.q.q.q.q.q.q.q.O.8 .   - V 5.q.w.w.q.q.q.q.q.q.q.5.x...S ",
"` h.f.5.q.q.q.q.q.q.q.q.q.q.q.q.q.q.@.9 X   = B 4.q.w.q.q.q.q.q.q.q.q.q.5.x...S ",
"` h.f.5.q.q.q.q.q.q.9.q.q.q.q.q.q.#.0 X   * N 4.q.q.q.q.q.q.q.q.q.q.q.q.5.x...S ",
"` h.f.5.q.q.q.q.q.9.q.q.q.q.w.9.$.q X   & M 3.q.w.q.q.q.q.q.q.q.q.q.q.q.5.x...S ",
"` h.f.5.q.q.q.q.q.i.q.q.q.q.q.%.w o   % n 3.q.w.q.q.q.q.q.q.q.q.q.q.q.q.5.x...S ",
"` h.f.5.q.q.q.q.q.q.q.q.q.q.*.r o   $ b 2.q.w.q.q.q.q.q.q.q.q.q.q.q.q.q.5.x...S ",
"` h.f.5.q.q.q.q.q.q.q.q.q.-.y o   $ v 2.q.q.q.q.q.q.q.q.q.q.q.q.q.q.q.q.5.x...S ",
"` h.f.5.q.q.q.q.7.q.q.q.;.i O   # x 1.q.q.w.q.q.q.q.q.q.q.q.q.q.q.q.q.q.5.x...S ",
"` h.f.5.q.q.q.q.q.q.q.:.a O   @ l 1.q.q.q.q.q.q.q.q.q.q.q.q.q.q.q.q.q.q.5.x...S ",
"` h.f.5.q.9.i.9.q.q.,.d O   + h <.q.q.q.w.q.q.q.q.q.q.q.q.q.q.q.q.q.q.q.5.x...S ",
"` h.f.5.q.i.q.q.q.<.g +   O f ,.q.q.q.w.q.q.q.q.q.q.q.q.q.q.q.q.q.q.q.q.5.x...S ",
"` h.f.5.q.q.q.q.1.j +   o s ,.q.q.q.q.q.q.q.q.q.q.q.q.q.q.q.q.q.q.q.q.q.5.x...S ",
"` h.f.5.0.q.q.2.z +   o p >.q.q.w.q.q.q.q.q.q.q.q.q.q.q.q.q.q.q.q.q.q.q.5.x...S ",
"` h.f.5.9.q.5.c @   X u :.q.q.q.q.q.q.q.q.q.q.q.q.q.q.q.q.q.q.q.q.q.q.q.5.x...S ",
"` h.f.5.9.q.=.7 . . t :.q.q.q.q.q.q.q.q.q.q.q.q.q.q.q.q.q.q.q.q.q.q.q.q.5.x...S ",
"` h.f.5.9.6.q.O.5 e ;.q.q.q.q.q.q.q.q.q.q.q.q.q.q.q.q.q.q.q.q.q.q.q.q.q.5.x...S ",
"` h.f.5.q.9.y.q.-.1.q.&.q.q.q.q.q.q.q.q.q.q.q.q.q.q.q.q.q.q.q.q.q.q.q.q.5.x...S ",
"` h.f.5.q.q.9.y.q.q.q.q.q.q.q.q.q.q.q.q.q.q.q.q.q.q.q.q.q.q.q.q.q.q.q.q.5.x...S ",
"` h.f.5.q.q.q.9.8.q.q.q.q.q.q.w.q.q.q.q.q.q.q.q.q.q.q.q.q.q.q.q.q.q.q.q.5.x...S ",
"` h.f.5.q.q.q.q.0.5.q.q.q.q.w.q.q.q.q.q.q.q.q.q.q.q.q.q.q.q.q.q.q.q.q.q.5.x...S ",
"_ s.d.5.5.5.5.5.5.5.5.5.5.5.5.5.5.5.5.5.5.5.5.5.5.5.5.5.5.5.5.5.5.5.5.5.5.z. .S ",
"[ n.b.x.c.c.c.c.c.c.c.c.c.c.c.c.c.c.c.c.c.c.c.c.c.c.c.c.c.c.c.c.c.c.c.c.x.m.+.Z ",
"I } | R R R R R R R R R R R R R R R R R R R R R R R R R R R R R R R R R R ..P D ",
"Y L A A A A A A A A A A A A A A A A A A A A A A A A A A A A A A A A A A A A F G "
};
