/* XPM */
static char *result[] = {
/* columns rows colors chars-per-pixel */
"40 40 156 2 ",
"   c black",
".  c #010101",
"X  c #020202",
"o  c #020303",
"O  c #030304",
"+  c #040405",
"@  c #050506",
"#  c #060607",
"$  c #070707",
"%  c #070808",
"&  c #080909",
"*  c #09090A",
"=  c #0A0A0B",
"-  c #0B0B0C",
";  c #0C0C0D",
":  c #0C0D0E",
">  c #0D0E0F",
",  c #0E0F10",
"<  c #0F0F11",
"1  c #131415",
"2  c #292A2E",
"3  c #2C2D31",
"4  c #303236",
"5  c #33353A",
"6  c #37383D",
"7  c #3A3C41",
"8  c #3D3F45",
"9  c #3E4046",
"0  c #414449",
"q  c #45474D",
"w  c #494B52",
"e  c #4C4F56",
"r  c #4E5057",
"t  c #4F5259",
"y  c #51545B",
"u  c #54565E",
"i  c #555860",
"p  c #575A62",
"a  c #595B63",
"s  c #5A5D65",
"d  c #5D6068",
"f  c #5E616A",
"g  c #60636C",
"h  c #62656E",
"j  c #646770",
"k  c #656871",
"l  c #666972",
"z  c #676B74",
"x  c #696D76",
"c  c #6C6F79",
"v  c #6D717B",
"b  c #70737D",
"n  c #737781",
"m  c #777B86",
"M  c #7A7E89",
"N  c #7A7F8A",
"B  c #7F838E",
"V  c #678BB8",
"C  c #678BBA",
"Z  c #678CB8",
"A  c #688CB9",
"S  c #698DBB",
"D  c #698EBB",
"F  c #7091BE",
"G  c #838793",
"H  c #868A97",
"J  c #8A8F9B",
"K  c #8E93A0",
"L  c #9296A4",
"P  c #969BA8",
"I  c #84A2C7",
"U  c #9AB3D1",
"Y  c #9CB1D2",
"T  c #9CB3D2",
"R  c #9EB6D4",
"E  c #9FB7D4",
"W  c #B4BBCB",
"Q  c #B9BFCF",
"!  c #A7BBD6",
"~  c #A7BCD7",
"^  c #A9BDD7",
"/  c #A9BED8",
"(  c #A9BFD8",
")  c #ABBFD8",
"_  c #ACBFD9",
"`  c #AEBFDA",
"'  c #AFBFDA",
"]  c #AEC1DA",
"[  c #AEC2DA",
"{  c #BAC0D1",
"}  c #BBC1D2",
"|  c #BDC3D4",
" . c #BEC5D6",
".. c #BFC5D7",
"X. c #B1C0DC",
"o. c #B0C1DC",
"O. c #B2C3DD",
"+. c #B3C3DD",
"@. c #B4C3DD",
"#. c #B6C4DE",
"$. c #BAC8E0",
"%. c #BCD3ED",
"&. c #C1C7D9",
"*. c #C2C8D9",
"=. c #C3CADB",
"-. c #C4CBDC",
";. c #C6CCDE",
":. c #C7CDDF",
">. c #C7CEE0",
",. c #C8CFE1",
"<. c #C9D0E2",
"1. c #CAD1E3",
"2. c #CBD1E4",
"3. c #CCD2E5",
"4. c #CCD3E6",
"5. c #CDD4E6",
"6. c #CED5E7",
"7. c #CFD6E8",
"8. c #D0D7E9",
"9. c #D1D7EA",
"0. c #D1D8EB",
"q. c #D1D9EC",
"w. c #D1D9ED",
"e. c #D2D9EC",
"r. c #D3D9EC",
"t. c #D2D9ED",
"y. c #D3DAEC",
"u. c #D2DAED",
"i. c #D3DAED",
"p. c #D3DBED",
"a. c #D3DAEE",
"s. c #D4D9EC",
"d. c #D4D9ED",
"f. c #D4DBEC",
"g. c #D4DAED",
"h. c #D5DAED",
"j. c #D4DBED",
"k. c #D5DBED",
"l. c #D6DAEC",
"z. c #D7DAEC",
"x. c #D6DBED",
"c. c #D4DBEE",
"v. c #D5DBEE",
"b. c #D5DDED",
"n. c #D6DDED",
"m. c #D9DFEF",
"M. c #DADFEF",
"N. c #D8DDF0",
"B. c #DAE0F0",
"V. c #DBE0F0",
"C. c #DCE0F0",
"Z. c #DCE0F1",
"A. c #DEE2F1",
"S. c #DEE2F2",
"D. c #E0E3F2",
"F. c #E6E7F5",
/* pixels */
"] ( ^ ! ~ ~ ~ ~ ~ ~ ~ ~ ~ ~ ~ ~ ~ ~ ~ ~ ~ ~ ~ ~ ~ ~ ~ ~ ~ ~ ~ ~ ~ ~ ~ ~ ! _ T E ",
"/ f.c.q.e.e.e.e.e.e.e.e.e.e.e.e.e.e.e.e.e.e.e.e.e.e.e.e.e.e.e.e.e.e.e.e.q.M.+.T ",
") m.N.v.v.v.v.v.v.v.v.v.v.v.v.v.v.v.v.v.v.v.v.v.v.v.v.v.v.v.v.v.v.v.v.v.v.A.#.Z ",
"/ n.c.e.e.e.e.e.e.e.e.e.e.e.e.e.e.e.e.e.e.e.e.e.e.e.e.e.e.e.i.i.i.e.e.e.e.B.+.A ",
"/ n.v.e.i.i.i.i.i.i.i.i.i.i.i.i.i.i.i.i.i.i.i.i.i.i.i.i.t.i.i.i.i.i.i.i.e.V.+.A ",
"/ n.v.e.i.i.i.i.i.i.i.i.i.i.i.i.i.i.i.i.i.i.i.i.i.i.t.w.k.i.i.i.i.i.i.i.e.V.+.A ",
"/ n.v.e.i.i.i.i.i.i.i.i.i.i.i.i.i.i.i.i.i.i.i.i.i.t.g.h.i.i.i.i.i.i.i.i.e.V.+.A ",
"/ n.v.e.i.i.i.i.i.i.i.i.i.i.i.i.i.i.i.i.i.i.i.i.u.d.g.i.i.i.i.i.i.w.i.i.e.V.+.A ",
"/ n.v.e.i.i.i.i.i.i.i.i.i.i.i.i.i.i.i.i.i.i.i.u.t.j.i.i.i.i.i.i.i.x.t.i.e.V.+.A ",
"/ n.v.e.i.i.i.i.i.i.i.i.i.i.i.i.i.i.i.i.i.i.i.u.h.i.Q M 7.i.i.i.i.i.w.i.e.V.+.A ",
"/ n.v.e.i.i.i.i.i.i.i.i.i.i.i.i.i.i.i.i.i.i.i.u.h.{ 2 o l 7.i.i.i.i.i.i.e.V.+.A ",
"/ n.v.e.i.i.i.i.i.i.i.i.i.i.i.i.i.i.i.i.i.i.i.u.} 3 .   1 W i.i.i.i.i.i.e.V.+.A ",
"/ n.v.e.i.i.i.i.i.i.i.i.i.i.i.i.i.i.i.i.i.t.p.| 4 .   < P e.i.i.i.i.i.i.e.V.+.A ",
"/ n.v.e.i.i.i.i.i.i.i.i.i.i.i.i.i.i.i.t.i.i. .5 X   , L e.i.i.i.i.i.i.i.e.V.+.A ",
"/ n.v.e.i.i.i.i.i.i.i.i.i.i.i.i.i.i.i.i.i...6 X   > K 0.i.i.i.i.i.i.a.i.e.V.+.A ",
"/ n.v.e.i.i.i.i.i.i.i.i.i.i.i.t.i.i.i.i.&.7 X   : J 0.i.i.i.i.i.i.a.i.i.e.V.+.A ",
"/ n.v.e.i.i.i.i.i.i.i.i.i.i.i.i.i.i.i.*.9 X   ; H 0.i.a.a.i.i.i.i.i.i.i.e.V.+.A ",
"/ n.v.e.i.i.i.i.i.i.i.i.i.i.i.i.i.i.=.0 o   - G 9.i.a.i.i.i.i.i.i.i.i.i.e.V.+.A ",
"/ n.v.e.i.i.i.i.i.i.t.i.i.i.i.i.i.-.q o   = B 9.i.i.i.i.i.i.i.i.i.i.i.i.e.V.+.A ",
"/ n.v.e.i.i.i.i.i.t.i.i.i.i.a.t.;.w o   * N 8.i.a.i.i.i.i.i.i.i.i.i.i.i.e.V.+.A ",
"/ n.v.e.i.i.i.i.i.p.i.i.i.i.i.:.e O   & m 8.i.a.i.i.i.i.i.i.i.i.i.i.i.i.e.V.+.A ",
"/ n.v.e.i.i.i.i.i.i.i.i.i.i.>.t O   % n 7.i.a.i.i.i.i.i.i.i.i.i.i.i.i.i.e.V.+.A ",
"/ n.v.e.i.i.i.i.i.i.i.i.i.<.u O   % b 7.i.i.i.i.i.i.i.i.i.i.i.i.i.i.i.i.e.V.+.A ",
"/ n.v.e.i.i.i.i.y.i.i.i.1.p +   $ c 6.i.i.a.i.i.i.i.i.i.i.i.i.i.i.i.i.i.e.V.+.A ",
"/ n.v.e.i.i.i.i.i.i.i.2.s +   # z 6.i.i.i.i.i.i.i.i.i.i.i.i.i.i.i.i.i.i.e.V.+.A ",
"/ n.v.e.i.t.p.t.i.i.4.f +   @ j 5.i.i.i.a.i.i.i.i.i.i.i.i.i.i.i.i.i.i.i.e.V.+.A ",
"/ n.v.e.i.p.i.i.i.5.h @   + g 4.i.i.i.a.i.i.i.i.i.i.i.i.i.i.i.i.i.i.i.i.e.V.+.A ",
"/ n.v.e.i.i.i.i.6.k @   O d 4.i.i.i.i.i.i.i.i.i.i.i.i.i.i.i.i.i.i.i.i.i.e.V.+.A ",
"/ n.v.e.u.i.i.7.x @   O a 3.i.i.a.i.i.i.i.i.i.i.i.i.i.i.i.i.i.i.i.i.i.i.e.V.+.A ",
"/ n.v.e.t.i.0.v #   o i 2.i.i.i.i.i.i.i.i.i.i.i.i.i.i.i.i.i.i.i.i.i.i.i.e.V.+.A ",
"/ n.v.e.t.i.,.8 . X y 2.i.i.i.i.i.i.i.i.i.i.i.i.i.i.i.i.i.i.i.i.i.i.i.i.e.V.+.A ",
"/ n.v.e.t.r.i.*.6 r 1.i.i.i.i.i.i.i.i.i.i.i.i.i.i.i.i.i.i.i.i.i.i.i.i.i.e.V.+.A ",
"/ n.v.e.i.t.l.i.<.6.i.%.i.i.i.i.i.i.i.i.i.i.i.i.i.i.i.i.i.i.i.i.i.i.i.i.e.V.+.A ",
"/ n.v.e.i.i.w.z.i.i.i.i.i.i.i.i.i.i.i.i.i.i.i.i.i.i.i.i.i.i.i.i.i.i.i.i.e.V.+.A ",
"/ n.v.e.i.i.i.t.s.i.i.i.i.i.i.a.i.i.i.i.i.i.i.i.i.i.i.i.i.i.i.i.i.i.i.i.e.V.+.A ",
"/ n.v.e.i.i.i.i.u.e.i.i.i.i.a.i.i.i.i.i.i.i.i.i.i.i.i.i.i.i.i.i.i.i.i.i.e.V.+.A ",
"^ b.c.e.e.e.e.e.e.e.e.e.e.e.e.e.e.e.e.e.e.e.e.e.e.e.e.e.e.e.e.e.e.e.e.e.e.B.O.A ",
"[ D.S.C.Z.Z.Z.Z.Z.Z.Z.Z.Z.Z.Z.Z.Z.Z.Z.Z.Z.Z.Z.Z.Z.Z.Z.Z.Z.Z.Z.Z.Z.Z.Z.Z.C.F.$.V ",
"U o.X.` ' ' ' ' ' ' ' ' ' ' ' ' ' ' ' ' ' ' ' ' ' ' ' ' ' ' ' ' ' ' ' ' ` @.Y S ",
"R I C C C C C C C C C C C C C C C C C C C C C C C C C C C C C C C C C C C C D F "
};
