/* XPM */
static char *result[] = {
/* columns rows colors chars-per-pixel */
"40 40 206 2 ",
"   c black",
".  c #010101",
"X  c #020202",
"o  c gray1",
"O  c #030304",
"+  c #040404",
"@  c gray2",
"#  c #070707",
"$  c #070808",
"%  c #0C0C0D",
"&  c gray5",
"*  c #0D0E0F",
"=  c #0F0F10",
"-  c #0F1011",
";  c #101012",
":  c #121213",
">  c #121314",
",  c #161718",
"<  c #171718",
"1  c #161719",
"2  c #13191C",
"3  c #191A1C",
"4  c #1C1D1F",
"5  c #1C1D20",
"6  c #1C1E20",
"7  c #1E1F20",
"8  c #1E1F22",
"9  c #222427",
"0  c #27282A",
"q  c #26282B",
"w  c #28292D",
"e  c #2D2E31",
"r  c #2D2F33",
"t  c #35363A",
"y  c #393B3E",
"u  c #3A3B3E",
"i  c #3B3D42",
"p  c #3C3E43",
"a  c #3D3F45",
"s  c #125775",
"d  c #404144",
"f  c #404246",
"g  c #44464A",
"h  c #45464A",
"j  c #47494C",
"k  c #494B4E",
"l  c #474950",
"z  c #4A4C53",
"x  c #4C4D52",
"c  c #505257",
"v  c #505259",
"b  c #54565B",
"n  c #54575F",
"m  c #55585F",
"M  c #57595F",
"N  c #575A60",
"B  c #585A61",
"V  c #595C63",
"C  c #595C64",
"Z  c #61656E",
"A  c #646871",
"S  c #6D717A",
"D  c #6D717B",
"F  c #6F737D",
"G  c #73767F",
"H  c #537094",
"J  c #537095",
"K  c #547094",
"L  c #547196",
"P  c #547296",
"I  c #5A7498",
"U  c #6E7884",
"Y  c #747780",
"T  c #757983",
"R  c #757984",
"E  c #787C84",
"W  c #797D88",
"Q  c #7B7F8A",
"!  c #7E828B",
"~  c #6B84A3",
"^  c #7D8EA8",
"/  c #7A91AD",
"(  c #7B91AD",
")  c #7D93AF",
"_  c #7E94AF",
"`  c #6D9FBC",
"'  c #0A96D4",
"]  c #06A2E6",
"[  c #0BA4E7",
"{  c #0DA5E7",
"}  c #17A5E3",
"|  c #12A4E5",
" . c #15A6E5",
".. c #1FA7E3",
"X. c #13A8E8",
"o. c #16AAE8",
"O. c #18AAE8",
"+. c #1CACE8",
"@. c #23A6E0",
"#. c #26A8E2",
"$. c #25AFE8",
"%. c #28B0E8",
"&. c #2DB2E8",
"*. c #4AAEDC",
"=. c #50AEDC",
"-. c #52B0DC",
";. c #66ABCF",
":. c #75AFCF",
">. c #7DB0CE",
",. c #66AED4",
"<. c #67AFD4",
"1. c #68ABD0",
"2. c #68B0D5",
"3. c #6DB2D5",
"4. c #43AEE0",
"5. c #43AFE0",
"6. c #45BAE8",
"7. c #52BFE9",
"8. c #55C0E8",
"9. c #5EC3E9",
"0. c #69C7E9",
"q. c #75CCE9",
"w. c #808490",
"e. c #828792",
"r. c #888D99",
"t. c #8B8F9C",
"y. c #8B909C",
"u. c #8D919C",
"i. c #8D919E",
"p. c #8C99AF",
"a. c #9398A3",
"s. c #9398A5",
"d. c #949AA7",
"f. c #989DAB",
"g. c #8196B2",
"h. c #8398B2",
"j. c #8298B3",
"k. c #8398B3",
"l. c #8399B3",
"z. c #8499B3",
"x. c #869BB5",
"c. c #879BB5",
"v. c #8D9BB0",
"b. c #8E9AB0",
"n. c #8F9CB1",
"m. c #909CB1",
"M. c #929DB2",
"N. c #95A0B4",
"B. c #97A9BE",
"V. c #A2A7B3",
"C. c #A0A5B4",
"Z. c #A2A7B6",
"A. c #A2A8B7",
"S. c #A4A9B6",
"D. c #A4AAB6",
"F. c #A8ADBA",
"G. c #A9AEBC",
"H. c #A9AFBC",
"J. c #A8AEBD",
"K. c #A9AEBD",
"L. c #A9AFBD",
"P. c #AAAEBD",
"I. c #AAAFBD",
"U. c #A8AEBE",
"Y. c #A8AFBE",
"T. c #A9AFBE",
"R. c #A9AFBF",
"E. c #AAAEBE",
"W. c #AAAFBE",
"Q. c #ABAFBE",
"!. c #ACAFBD",
"~. c #AAB0BD",
"^. c #A9B0BE",
"/. c #AAB0BE",
"(. c #ABB0BE",
"). c #ABB1BE",
"_. c #AAB0BF",
"`. c #ABB0BF",
"'. c #ABB1BF",
"]. c #ACB0BE",
"[. c #ACB1BE",
"{. c #8EB3CB",
"}. c #88B2CD",
"|. c #8DB3CC",
" X c #9FB2C5",
".X c #98B5CA",
"XX c #9FB4C8",
"oX c #A7B3C3",
"OX c #A0B3C5",
"+X c #A5B2C4",
"@X c #ABB1C1",
"#X c #A8B3C3",
"$X c #ADB1C0",
"%X c #AEB3C0",
"&X c #AFB3C0",
"*X c #AFB4C0",
"=X c #B0B4C0",
"-X c #B0B4C1",
";X c #B2B5C1",
":X c #B2B5C2",
">X c #B4B6C2",
",X c #B8B9C4",
"<X c #87D2E9",
"1X c #96D8E9",
"2X c #97D8EA",
"3X c #99D9EA",
/* pixels */
"c.h.k.g.g.g.g.g.g.g.g.g.g.g.g.g.g.g.g.g.g.g.g.g.g.g.g.g.g.g.g.g.g.g.g.g.g.z.( _ ",
"h.~._.J.J.J.J.J.J.J.J.J.J.J.J.J.J.J.J.J.J.J.J.J.J.J.J.J.J.J.J.J.J.J.J.J.J.&Xm.( ",
"l.%X$X`.`.`.`.`.`.`.`.`.`.`.`.`.`.`.`.`.`.`.`.`.`.`.`.`.`.`.`.`.`.`.`.`.`.;XM.H ",
"k.[._.J.J.J.J.J.J.J.J.J.J.J.J.J.J.J.J.J.J.J.J.J.J.J.J.J.J.J.T.T.T.J.J.J.J.*Xm.K ",
"k.[.`.J.T.T.T.T.T.T.T.T.T.T.T.T.T.T.T.T.T.T.T.T.T.T.T.T.U.T.T.T.T.T.T.T.J.=Xm.K ",
"k.[.`.J.T.T.T.T.T.T.T.T.T.T.T.T.T.T.T.T.T.T.T.T.T.T.U.U.(.T.T.T.T.T.T.T.J.=Xm.K ",
"k.[.`.J.T.T.T.T.T.T.T.T.T.T.T.T.T.T.T.T.T.T.T.T.T.U.W.Q.T.T.T.T.T.T.T.T.J.=Xm.K ",
"k.[.`.J.T.T.T.T.T.T.T.T.T.T.T.T.T.T.T.T.T.T.T.T.Y.E.W.T.T.T.T.T.T.U.T.T.J.=Xm.K ",
"k.[.`.J.T.T.T.T.T.T.T.T.T.T.T.T.T.T.T.Z.T.T.T.Y.U.OX=.| ..2.@XT.T.].U.T.J.=Xm.K ",
"k.[.`.J.T.T.T.T.T.T.T.T.T.r.Z i 6 - O   O ; 8 a U @.&.0.9.o.*.T.T.T.U.T.J.=Xm.K ",
"k.[.`.J.T.T.T.T.T.T.d.m 1     < k b B n N b j : s $.1X3X3X<X[ .XT.T.T.T.J.=Xm.K ",
"k.[.`.J.T.T.T.T.C.z o   d E F.T.T.T.T.T.T.T.T.Y.5.8.3X3X3X3X%.1.T.T.T.T.J.=Xm.K ",
"k.[.`.J.T.T.T.Q =   x D.T.T.T.T.T.T.T.T.T.U.^.T.-.6.3X3X3X2XO.` T.T.T.T.J.=Xm.K ",
"k.[.`.J.T.T.S + e a.T.T.T.T.T.T.T.T.T.U.T.T.T.T.}.{ q.3X2X7.' 2 T T.T.T.J.=Xm.K ",
"k.[.`.J.T.F . g /.T.T.T.T.T.T.T.T.T.T.T.T.T.T.T.T.3.] +.X. .{.y X W R.T.J.=Xm.K ",
"k.[.`.J.i.$ f _.T.T.T.T.T.T.T.U.T.T.T.T.T.T.T.T.T.T.XX;.:.#XT._.t % s.T.J.=Xm.K ",
"k.[.`.J.9 7 G.T.T.T.T.T.T.T.T.T.T.T.T.T.T.T.T.T.T.T.T.R.R.T.T.T.S., r T.J.=Xm.K ",
"k.[.`.w.  ! T.T.T.T. X=.| ..2.@XT.T.T.T.T.T.T.T. X=.| ..2.@XT.T.T.G   y.J.=Xm.K ",
"k.[.`.p , '.T.T.T.+X#.&.0.9.o.*.T.T.T.T.T.T.T.+X#.&.0.9.o.*.T.T.T.I.& l J.=Xm.K ",
"k.[.`.4 c T.T.T.T.,.$.1X3X3X<X[ .XT.T.T.T.T.T.<.$.1X3X3X<X[ .XT.T.T.h w J.=Xm.K ",
"k.[.K.+ V T.T.T.T.4.8.3X3X3X3X%.1.T.T.T.T.T.T.4.8.3X3X3X3X%.1.T.T.T.M * J.=Xm.K ",
"k.[.W.+ V T.T.T.T.-.6.3X3X3X2XO.>.T.T.T.T.T.R.-.6.3X3X3X2XO.>.T.T.T.M % J.=Xm.K ",
"k.[.`.5 c T.T.T.T.}.{ q.3X2X7.} oXT.T.T.T.T.T.}.{ q.3X2X7.} oXT.T.T.h q J.=Xm.K ",
"k.[.`.p , '.T.T.L.T.3.] +.X. .|.T.T.T.T.T.R.T.T.3.] +.X. .|.T.T.T.I.& l J.=Xm.K ",
"k.[.`.w.  ! T.T.T.T.T.XX;.:.#XT.T.T.T.T.T.T.T.T.T.XX;.:.#XT.T.T.T.G   y.J.=Xm.K ",
"k.[.`.J.9 7 H.U.T.T.T.T.T.T.T.T.T.T.T.T.R.T.T.T.T.T.T.T.T.T.T.T.S., r T.J.=Xm.K ",
"k.[.`.J.i.$ f _.T.T.T.T.T.T.T.T.T.T.T.R.T.T.T.T.T.T.T.T.T.T.T._.t % s.T.J.=Xm.K ",
"k.[.`.J.T.F . g /.T.T.T.T.T.T.T.T.T.T.T.T.T.T.T.T.T.T.T.T.T./.y X W T.T.J.=Xm.K ",
"k.[.`.J.Y.T.D + e a.T.T.T.T.T.T.R.T.T.T.T.T.T.T.T.T.T.T.T.u.0 # R T.T.T.J.=Xm.K ",
"k.[.`.J.U.T.T.Q =   x D.T.T.T.T.T.T.T.T.T.T.T.T.T.T.T.V.h   > e.T.T.T.T.J.=Xm.K ",
"k.[.`.J.U.T.T.T.C.z o   d E F.T.T.T.T.T.T.T.T.T.F.Y u   @ v A.T.T.T.T.T.J.=Xm.K ",
"k.[.`.J.U.K.T.T.T.T.d.m 1     < k b B n N b j :     3 C f.T.T.T.T.T.T.T.J.=Xm.K ",
"k.[.`.J.T.U.!.T.T.T.T.B.T.r.Z i 6 - O   O ; 8 a A t.T.T.T.T.T.T.T.T.T.T.J.=Xm.K ",
"k.[.`.J.T.T.U.!.T.T.T.T.T.T.T.T.T.T.T.T.T.T.T.T.T.T.T.T.T.T.T.T.T.T.T.T.J.=Xm.K ",
"k.[.`.J.T.T.T.U.P.T.T.T.T.T.T.R.T.T.T.T.T.T.T.T.T.T.T.T.T.T.T.T.T.T.T.T.J.=Xm.K ",
"k.[.`.J.T.T.T.T.Y.J.T.T.T.T.R.T.T.T.T.T.T.T.T.T.T.T.T.T.T.T.T.T.T.T.T.T.J.=Xm.K ",
"j.)._.J.J.J.J.J.J.J.J.J.J.J.J.J.J.J.J.J.J.J.J.J.J.J.J.J.J.J.J.J.J.J.J.J.J.*Xn.K ",
"x.>X:X=X-X-X-X-X-X-X-X-X-X-X-X-X-X-X-X-X-X-X-X-X-X-X-X-X-X-X-X-X-X-X-X-X=X,XN.H ",
"/ v.b.p.p.p.p.p.p.p.p.p.p.p.p.p.p.p.p.p.p.p.p.p.p.p.p.p.p.p.p.p.p.p.p.p.p.m.^ L ",
") ~ J J J J J J J J J J J J J J J J J J J J J J J J J J J J J J J J J J J J P I "
};
