/* XPM */
static char *result[] = {
/* columns rows colors chars-per-pixel */
"40 40 216 2 ",
"   c black",
".  c #010101",
"X  c #020303",
"o  c #030304",
"O  c #040405",
"+  c #050506",
"@  c #060607",
"#  c #080909",
"$  c #09090A",
"%  c #0E0E0F",
"&  c #0F0F11",
"*  c #111113",
"=  c #121314",
"-  c #131415",
";  c #141516",
":  c #161719",
">  c #151B1D",
",  c #191A1B",
"<  c #1B1C1F",
"1  c #1F2023",
"2  c #222325",
"3  c #232427",
"4  c #232528",
"5  c #242528",
"6  c #25262A",
"7  c #2B2C30",
"8  c #2C2D30",
"9  c #303236",
"0  c #323338",
"q  c #343539",
"w  c #383A3F",
"e  c #3E4044",
"r  c #125775",
"t  c #424447",
"y  c #434549",
"u  c #494A4F",
"i  c #4B4D52",
"p  c #4A4C53",
"a  c #4B4D54",
"s  c #4C4F56",
"d  c #4F5055",
"f  c #505257",
"g  c #505258",
"h  c #525358",
"j  c #54555A",
"k  c #595B61",
"l  c #595B63",
"z  c #5D5F65",
"x  c #5C5F67",
"c  c #62656B",
"v  c #636770",
"b  c #686A72",
"n  c #696C73",
"m  c #696C74",
"M  c #696C76",
"N  c #6A6D77",
"B  c #6D7079",
"V  c #6F737D",
"C  c #7A7E89",
"Z  c #7D818C",
"A  c #678BB8",
"S  c #678BBA",
"D  c #678CB8",
"F  c #688CB9",
"G  c #698DBB",
"H  c #698EBB",
"J  c #7091BE",
"K  c #0A96D4",
"L  c #07A4E7",
"P  c #0DA5E8",
"I  c #0FA6E8",
"U  c #15A7E8",
"Y  c #13A8E8",
"T  c #16AAE8",
"R  c #1AA9E8",
"E  c #18AAE8",
"W  c #19AAE9",
"Q  c #1CACE8",
"!  c #29ACE7",
"~  c #24ACE9",
"^  c #25AFE8",
"/  c #2CAFE9",
"(  c #28B0E8",
")  c #2DB2E8",
"_  c #45BAE8",
"`  c #4CB8EA",
"'  c #4DB9EB",
"]  c #4DB9EC",
"[  c #57BBEB",
"{  c #52BFE9",
"}  c #5EBDEC",
"|  c #60BFEC",
" . c #55C0E8",
".. c #5EC3E9",
"X. c #69C7E9",
"o. c #7EC4EA",
"O. c #7BC4EC",
"+. c #7CC4EC",
"@. c #7CC5EC",
"#. c #75CCE9",
"$. c #888C98",
"%. c #898D99",
"&. c #8A8E99",
"*. c #85909F",
"=. c #8C909B",
"-. c #8B909C",
";. c #9195A0",
":. c #9296A4",
">. c #9297A5",
",. c #979CA9",
"<. c #989DA9",
"1. c #999EAC",
"2. c #A0A5B4",
"3. c #A2A8B6",
"4. c #AAAFBF",
"5. c #ABB0BD",
"6. c #84A2C7",
"7. c #84B7D6",
"8. c #9AB3D1",
"9. c #9CB1D2",
"0. c #9CB3D2",
"q. c #9EB6D4",
"w. c #9FB7D4",
"e. c #ADB3C2",
"r. c #AEB4C3",
"t. c #AFB5C5",
"y. c #B2B8C6",
"u. c #B8BECE",
"i. c #A7BBD6",
"p. c #A7BCD7",
"a. c #A9BDD7",
"s. c #A9BED8",
"d. c #A9BFD8",
"f. c #ABBFD8",
"g. c #ACBFD9",
"h. c #AEBFDA",
"j. c #AFBFDA",
"k. c #B9BFD0",
"l. c #AEC1DA",
"z. c #AEC2DA",
"x. c #BDC4D5",
"c. c #B1C0DC",
"v. c #B0C1DC",
"b. c #B2C3DD",
"n. c #B3C3DD",
"m. c #B4C3DD",
"M. c #B6C4DE",
"N. c #80C4EB",
"B. c #81C7EC",
"V. c #8FC9EC",
"C. c #98CBEC",
"Z. c #87D2E9",
"A. c #96D8E9",
"S. c #97D8EA",
"D. c #99D9EA",
"F. c #A9CFE9",
"G. c #BAC8E0",
"H. c #A5D0ED",
"J. c #ABD2ED",
"K. c #BCD3ED",
"L. c #B8D5ED",
"P. c #C4CAD9",
"I. c #C8CEDE",
"U. c #C8CFDF",
"Y. c #C7CEE0",
"T. c #CBD1E1",
"R. c #CAD1E3",
"E. c #CCD2E2",
"W. c #CBD1E4",
"Q. c #CFD5E7",
"!. c #CFD6E7",
"~. c #C3D7ED",
"^. c #C1D7EE",
"/. c #C4D8ED",
"(. c #CBD9EE",
"). c #CEDAEE",
"_. c #D1D7E9",
"`. c #D1D8E9",
"'. c #D2D8EB",
"]. c #D2D9EB",
"[. c #D1D9EC",
"{. c #D1D9ED",
"}. c #D2D9EC",
"|. c #D3D9EC",
" X c #D2D9ED",
".X c #D3DAEC",
"XX c #D2DAED",
"oX c #D3DAED",
"OX c #D3DBED",
"+X c #D3DAEE",
"@X c #D3DBEE",
"#X c #D4D9EC",
"$X c #D4D9ED",
"%X c #D4DBEC",
"&X c #D4DAED",
"*X c #D5DAED",
"=X c #D4DBED",
"-X c #D5DBED",
";X c #D6DAEC",
":X c #D7DAEC",
">X c #D6DBED",
",X c #D4DBEE",
"<X c #D5DBEE",
"1X c #D5DDED",
"2X c #D6DDED",
"3X c #D9DFEF",
"4X c #DADFEF",
"5X c #D8DDF0",
"6X c #DAE0F0",
"7X c #DBE0F0",
"8X c #DCE0F0",
"9X c #DCE0F1",
"0X c #DEE2F1",
"qX c #DEE2F2",
"wX c #E0E3F2",
"eX c #E6E7F5",
/* pixels */
"l.d.a.i.p.p.p.p.p.p.p.p.p.p.p.p.p.p.p.p.p.p.p.p.p.p.p.p.p.p.p.p.p.p.p.p.i.g.0.w.",
"s.%X,X[.}.}.}.}.}.}.}.}.}.}.}.}.}.}.}.}.}.}.}.}.}.}.}.}.}.}.}.}.}.}.}.}.[.4Xn.0.",
"f.3X5X<X<X<X<X<X<X<X<X<X<X<X<X<X<X<X<X<X<X<X<X<X<X<X<X<X<X<X<X<X<X<X<X<X<X0XM.D ",
"s.2X,X}.}.}.}.}.}.}.}.}.}.}.}.}.}.}.}.}.}.}.}.}.}.}.}.}.}.}.oXoXoX}.}.}.}.6Xn.F ",
"s.2X<X}.oXoXoXoXoXoXoXoXoXoXoXoXoXoXoXoXoXoXoXoXoXoXoXoX XoXoXoXoXoXoXoX}.7Xn.F ",
"s.2X<X}.oXoXoXoXoXoXoXoXoXoXoXoXoXoXoXoXoXoXoXoXoXoX X{.-XoXoXoXoXoXoXoX}.7Xn.F ",
"s.2X<X}.oXoXoXoXoXoXoXoXoXoXoXoXoXoXoXoXoXoXoXoXoX X&X*XoXoXoXoXoXoXoXoX}.7Xn.F ",
"s.2X<X}.oXoXoXoXoXoXoXoXoXoXoXoXoXoXoXoXoXoXoXoXXX$X&XoXoXoXoXoXoX{.oXoX}.7Xn.F ",
"s.2X<X}.oXoXoXoXoXoXoXoXoXoXoXoXoXoXoXR.oXoXoXXX X/.} U ~ @.@XoXoX>X XoX}.7Xn.F ",
"s.2X<X}.oXoXoXoXoXoXoXoXoX4.C p 5 - O   O ; 6 s *.! ) X...T [ oXoXoX{.oX}.7Xn.F ",
"s.2X<X}.oXoXoXoXoXoXk.N <     , j c m M n c h ; r ^ A.D.D.Z.P L.oXoXoXoX}.7Xn.F ",
"s.2X<X}.oXoXoXoXY.x o   u ;.E.oXoXoXoXoXoXoXoXXX`  .D.D.D.D.( N.oXoXoXoX}.7Xn.F ",
"s.2X<X}.oXoXoX1.=   k I.oXoXoXoXoXoXoXoXoX XOXoX| _ D.D.D.S.E 7.oXoXoXoX}.7Xn.F ",
"s.2X<X}.oXoX$.+ q y.oXoXoXoXoXoXoXoXoX XoXoXoXoXH.I #.D.S.{ K > :.oXoXoX}.7Xn.F ",
"s.2X<X}.oX-.. f ].oXoXoXoXoXoXoXoXoXoXoXoXoXoXoXoXB.L Q Y W F.y X ,.+XoX}.7Xn.F ",
"s.2X<X}.t.$ i =XoXoXoXoXoXoXoX XoXoXoXoXoXoXoXoXoXoX^.o.V.).oX.Xe & u.oX}.7Xn.F ",
"s.2X<X}.7 2 Q.oXoXoXoXoXoXoXoXoXoXoXoXoXoXoXoXoXoXoXoX+X+XoXoXoXU., w oX}.7Xn.F ",
"s.2X<X2.  <.oXoXoXoX~.} U ~ @.@XoXoXoXoXoXoXoXoX~.} U ~ @.@XoXoXoX&.  r.}.7Xn.F ",
"s.2X<Xa , &XoXoXoX(./ ) X...T [ oXoXoXoXoXoXoX(./ ) X...T [ oXoXoX_.% l }.7Xn.F ",
"s.2X<X3 z oXoXoXoXO.^ A.D.D.Z.P L.oXoXoXoXoXoX+.^ A.D.D.Z.P L.oXoXoXd 0 }.7Xn.F ",
"s.2X'.+ B oXoXoXoX'  .D.D.D.D.( N.oXoXoXoXoXoX]  .D.D.D.D.( N.oXoXoXb * }.7Xn.F ",
"s.2X|.+ B oXoXoXoX| _ D.D.D.S.E C.oXoXoXoXoX+X| _ D.D.D.S.E C.oXoXoXb & }.7Xn.F ",
"s.2X<X4 z oXoXoXoXH.I #.D.S.{ R ).oXoXoXoXoXoXH.I #.D.S.{ R ).oXoXoXd 9 }.7Xn.F ",
"s.2X<Xa , &XoXoX.XoXB.L Q Y W J.oXoXoXoXoX+XoXoXB.L Q Y W J.oXoXoX_.% l }.7Xn.F ",
"s.2X<X2.  <.oXoXoXoXoX^.o.V.).oXoXoXoXoXoXoXoXoXoX^.o.V.).oXoXoXoX&.  r.}.7Xn.F ",
"s.2X<X}.7 2 !. XoXoXoXoXoXoXoXoXoXoXoXoX+XoXoXoXoXoXoXoXoXoXoXoXU., w oX}.7Xn.F ",
"s.2X<X}.t.$ i =XoXoXoXoXoXoXoXoXoXoXoX+XoXoXoXoXoXoXoXoXoXoXoX.Xe & u.oX}.7Xn.F ",
"s.2X<X}.oX-.. f ].oXoXoXoXoXoXoXoXoXoXoXoXoXoXoXoXoXoXoXoXoX`.y X ,.oXoX}.7Xn.F ",
"s.2X<X}.XXoX%.+ q y.oXoXoXoXoXoX+XoXoXoXoXoXoXoXoXoXoXoXoX5.8 # >.oXoXoX}.7Xn.F ",
"s.2X<X}. XoXoX1.=   k I.oXoXoXoXoXoXoXoXoXoXoXoXoXoXoXP.g   : 3.oXoXoXoX}.7Xn.F ",
"s.2X<X}. XoXoXoXY.x o   u ;.E.oXoXoXoXoXoXoXoXoXT.=.t   @ v W.oXoXoXoXoX}.7Xn.F ",
"s.2X<X}. X|.oXoXoXoXk.N <     , j c m M n c h ;     1 V x.oXoXoXoXoXoXoX}.7Xn.F ",
"s.2X<X}.oX X;XoXoXoXoXK.oX4.C p 5 - O   O ; 6 s Z e.oXoXoXoXoXoXoXoXoXoX}.7Xn.F ",
"s.2X<X}.oXoX{.:XoXoXoXoXoXoXoXoXoXoXoXoXoXoXoXoXoXoXoXoXoXoXoXoXoXoXoXoX}.7Xn.F ",
"s.2X<X}.oXoXoX X#XoXoXoXoXoXoX+XoXoXoXoXoXoXoXoXoXoXoXoXoXoXoXoXoXoXoXoX}.7Xn.F ",
"s.2X<X}.oXoXoXoXXX}.oXoXoXoX+XoXoXoXoXoXoXoXoXoXoXoXoXoXoXoXoXoXoXoXoXoX}.7Xn.F ",
"a.1X,X}.}.}.}.}.}.}.}.}.}.}.}.}.}.}.}.}.}.}.}.}.}.}.}.}.}.}.}.}.}.}.}.}.}.6Xb.F ",
"z.wXqX8X9X9X9X9X9X9X9X9X9X9X9X9X9X9X9X9X9X9X9X9X9X9X9X9X9X9X9X9X9X9X9X9X8XeXG.A ",
"8.v.c.h.j.j.j.j.j.j.j.j.j.j.j.j.j.j.j.j.j.j.j.j.j.j.j.j.j.j.j.j.j.j.j.j.h.m.9.G ",
"q.6.S S S S S S S S S S S S S S S S S S S S S S S S S S S S S S S S S S S S H J "
};
