/* XPM */
static char *result[] = {
/* columns rows colors chars-per-pixel */
"40 40 65 1 ",
"  c #2C2C2C",
". c gray19",
"X c #414141",
"o c #FF2116",
"O c #FE2C22",
"+ c #FD372E",
"@ c #FC5B53",
"# c #FA807A",
"$ c #537094",
"% c #537095",
"& c #547094",
"* c #547196",
"= c #547296",
"- c #5A7498",
"; c #6B84A3",
": c #7D8EA8",
"> c #7A91AD",
", c #7B91AD",
"< c #7D93AF",
"1 c #7E94AF",
"2 c #8C99AF",
"3 c #8196B2",
"4 c #8398B2",
"5 c #8298B3",
"6 c #8398B3",
"7 c #8399B3",
"8 c #8499B3",
"9 c #869BB5",
"0 c #879BB5",
"q c #8D9BB0",
"w c #8E9AB0",
"e c #8F9CB1",
"r c #909CB1",
"t c #929DB2",
"y c #95A0B4",
"u c #A8AEBD",
"i c #A9AFBE",
"p c #AAB0BD",
"a c #ABB1BE",
"s c #AAB0BF",
"d c #ABB0BF",
"f c #ACB1BE",
"g c #F99D98",
"h c #F8AEAA",
"j c #F7C1BE",
"k c #ADB1C0",
"l c #AEB3C0",
"z c #AFB3C0",
"x c #AFB4C0",
"c c #B0B4C0",
"v c #B0B4C1",
"b c #B2B5C1",
"n c #B2B5C2",
"m c #B4B6C2",
"M c #B8B9C4",
"N c #F7CBC8",
"B c #E2CBD5",
"V c #F7D2D1",
"C c #F6E0DF",
"Z c #F6E5E4",
"A c #F6E8E7",
"S c #F5EDED",
"D c #F5F3F3",
"F c #F5F4F4",
"G c gray96",
/* pixels */
"04633333333333333333333333333333333338,1",
"4psuuuuuooooooooooooooooooBuuuuuuuuuuzr,",
"7lkdddoooooooooooooooooooooo+ddddddddbt$",
"6fsuuooGGGGGGGGGGGGGGGGGGGGGooiiiuuuuxr&",
"6fduioGGGGGGGGGGGGGGGGGGGGGGGooiiiiiucr&",
"6fduooGGGGGGGGGGGGGGGGGGGGGGGGooiiiiucr&",
"6fduooGGGGGGGGGGGGGGGGGGGGGGGGGooiiiucr&",
"6fduooGGGGGGGGGGGGGGGGGGGGGGGGGGooiiucr&",
"6fduooGGGGGGGGGGGGGGGGGGGGGGGGGGGooiucr&",
"6fduooGGGGGGGGGGGGoFGGGGGGGGGGGGGGoiucr&",
"6fduooGGGGGGGGGGGGVGoGGGGGGGGGGGGGoiucr&",
"6fduooGGGGGGGGGGGGoGoGGGGGGGGGGGGGoiucr&",
"6fduooGGGGGGGGGGGGooAGGGGGGGGGGGGGoiucr&",
"6fduooGGGGGGGGGGGGGoGGGGGGGGGGGGGGoiucr&",
"6fduooGGGGGGGGGGGGGoGGGGGGGGGGGGGGoiucr&",
"6fduooGGGGGGGGGGGG@oGGGGGGGGGGGGGGoiucr&",
"6fduooGGGGGGGGGGGGoGoGGGGGGGGGGGGGoiucr&",
"6fduooGGGGGGGGGGGGoGGoGGGGGGGGGGGGoiucr&",
"6fduooGGGGGGGGGGGo#GGgooCNoSGGGGGGoiucr&",
"6fduooGGGGGGGGGGGooGGGGoGGGoGGGGGGoiucr&",
"6fduooGGGGGGGGGOoZGGGGGGGoojGGGGGGoiucr&",
"6fduooGGGGGGGhGDoGGGGGGGGGGGGGGGGGoiucr&",
"6fduooGGGGGGoGGoGGGGGGGGGGGGGGGGGGoiucr&",
"6fduooGGGGGGGGoGGGGGGGGGGGGGGGGGGGoiucr&",
"6fduooGGGGGGGGGGGGGGGGGGGGGGGGGGGGoiucr&",
"6fduooGGGGGGGGGGGGGGGGGGGGGGGGGGGGoiucr&",
"6fduooGGGGGGGGGGGGGGGGGGGGGGGGGGGGoiucr&",
"6fduooGGGGGGGGGGGGGGGGGGGGGGGGGGGGoiucr&",
"6fduooGGGGGGGG  XG   GG   GGGGGGGGoiucr&",
"6fduooGGGGGGGG G G GG G GGGGGGGGGGoiucr&",
"6fduooGGGGGGGG G G GG G GGGGGGGGGGoiucr&",
"6fduooGGGGGGGG   G GG G ..GGGGGGGGoiucr&",
"6fduooGGGGGGGG GGG GG G GGGGGGGGGGoiucr&",
"6fduooGGGGGGGG GGG   GG GGGGGGGGGGoiucr&",
"6fduooGGGGGGGGGGGGGGGGGGGGGGGGGGGGoiucr&",
"6fduooGGGGGGGGGGGGGGGGGGGGGGGGGGGGoiucr&",
"5asuuoGGGGGGGGGGGGGGGGGGGGGGGGGGGGouuxe&",
"9mncvooGGGGGGGGGGGGGGGGGGGGGGGGGGoovcMy$",
">qw222oooooooooooooooooooooooooooo222r:*",
"<;%%%%%%%%%%%%%%%%%%%%%%%%%%%%%%%%%%%%=-"
};
