/* XPM */
static char *_efce59632804465bb34b5d329f277781ESxNBx3Z2cebazZ[] = {
/* columns rows colors chars-per-pixel */
"40 40 51 1 ",
"  c #2C2C2C",
". c gray19",
"X c #414141",
"o c #FF2116",
"O c #FE2C22",
"+ c #FD372E",
"@ c #FC5B53",
"# c #6489B8",
"$ c #668BB9",
"% c #678BBA",
"& c #678CB8",
"* c #668CB9",
"= c #688CBA",
"- c #698DBB",
"; c #6E8FBC",
": c #6E90BD",
"> c #6E91BE",
", c #7091BE",
"< c #F99D98",
"1 c #F8AEAA",
"2 c #F7C1BE",
"3 c #9CB1D2",
"4 c #AEBFDA",
"5 c #B0C1DC",
"6 c #B3C2DC",
"7 c #B3C3DD",
"8 c #B4C3DD",
"9 c #BAC8E0",
"0 c #F7CBC8",
"q c #E2CBD5",
"w c #F7D2D1",
"e c #D1D9EC",
"r c #D2D9EC",
"t c #D3DAED",
"y c #D4DBEC",
"u c #D5DBEE",
"i c #D5DDED",
"p c #D7DDEF",
"a c #D9DFEF",
"s c #D8DDF0",
"d c #DBE0F0",
"f c #DCE0F0",
"g c #DEE1F1",
"h c #DEE2F2",
"j c #F6E5E4",
"k c #F6E8E7",
"l c #F5EDED",
"z c #E0E3F2",
"x c #E6E7F5",
"c c #F5F3F3",
"v c gray96",
/* pixels */
":*$####;;;;;;;;;;;;;;;;;;;;$$#########%,",
"$yyteyyyooooooooooooooooooqutteteteeys8%",
"$aiysuoooooooooooooooooooooo+uuytyutyz8%",
"$irtyoovvvvvvvvvvvvvvvvvvvvvooyyttttys4;",
"$iuyuovvvvvvvvvvvvvvvvvvvvvvvoouyyytrf8&",
"$uuyoovvvvvvvvvvvvvvvvvvvvvvvvooarytra8-",
"$tutoovvvvvvvvvvvvvvvvvvvvvvvvvooiirrd5-",
"$iuuoovvvvvvvvvvvvvvvvvvvvvvvvvvooiird8*",
"#iyyoovvvvvvvvvvvvvvvvvvvvvvvvvvvooyys8-",
"#tuyoovvvvvvvvvvvvovvvvvvvvvvvvvvvoiys8-",
"$iuuoovvvvvvvvvvvvwvovvvvvvvvvvvvvoiys8*",
"$suyoovvvvvvvvvvvvovovvvvvvvvvvvvvoius8-",
"#tuyoovvvvvvvvvvvvookvvvvvvvvvvvvvorrf8&",
"$iuuoovvvvvvvvvvvvvovvvvvvvvvvvvvvoira8-",
"#iyyoovvvvvvvvvvvvvovvvvvvvvvvvvvvoird5-",
"#tyyoovvvvvvvvvvvv@ovvvvvvvvvvvvvvoirf6-",
"$aaroovvvvvvvvvvvvovovvvvvvvvvvvvvoyys8-",
"#uyuoovvvvvvvvvvvvovvovvvvvvvvvvvvoiys5-",
"#rrioovvvvvvvvvvvo@vv<ooj0olvvvvvvoius9$",
"&irroovvvvvvvvvvvoOvvvvovvvovvvvvvoiys5-",
"#aryoovvvvvvvvvOolvvvvvvcoo0vvvvvvorrf8&",
"#raroovvvvvvv1vcovvvvvvvvccvvvvvvvoira8-",
"&iyyoovvvvvvovvovvvvvvvvvvvvvvvvvvoird5-",
"#syyoovvvvvvvvovvvvvvvvvvvvvvvvvvvoirf8*",
"#yuyoovvvvvvvvvvvvvvvvvvvvvvvvvvvvoyys8-",
"%yuuoovvvvvvvvvvvvvvvvvvvvvvvvvvvvoiys8-",
"$syyoovvvvvvvvvvvvvvvvvvvvvvvvvvvvoiys8*",
"#yyyoovvvvvvvvvvvvvvvvvvvvvvvvvvvvoius8-",
"$iuuoovvvvvvvv  Xv   vv   vvvvvvvvorrd8#",
"$iuyoovvvvvvvv v v vv v vvvvvvvvvvoirf8-",
"#tutoovvvvvvvv v v vv v vvvvvvvvvvoird6-",
"$iuuoovvvvvvvv   v vv v ..vvvvvvvvoird6$",
"#iyyoovvvvvvvv vvv vv v vvvvvvvvvvouta5-",
"#tuuoovvvvvvvv vvv   vv vvvvvvvvvvouyh8-",
"$iuyoovvvvvvvvvvvvvvvvvvvvvvvvvvvvouys8$",
"$iuuoovvvvvvvvvvvvvvvvvvvvvvvvvvvvoiys8-",
"#tuuyovvvvvvvvvvvvvvvvvvvvvvvvvvvvoyts8%",
"$zzshoovvvvvvvvvvvvvvvvvvvvvvvvvvoozhx9$",
"&54458oooooooooooooooooooooooooooo55483-",
">-%%-::,,>>,>>,>>,>>,>,>>,>,>,>,>>,-$$-,"
};
