/* XPM */
static char *_309f3e46d8a4486a2d19c1c25c0973eLGAyzScwqMZFWyFK[] = {
/* columns rows colors chars-per-pixel */
"40 40 26 1 ",
"  c black",
". c #6489B8",
"X c #6589B8",
"o c #648AB9",
"O c #668BB9",
"+ c #678BBA",
"@ c #668CB9",
"# c #688CBA",
"$ c #698DBB",
"% c #6E90BD",
"& c #6E91BE",
"* c #7091BE",
"= c #9CB1D2",
"- c #AFBFDA",
"; c #B0C1DC",
": c #B3C3DD",
"> c #B4C3DD",
", c #BAC8E0",
"< c #D1D9EC",
"1 c #D2D9EC",
"2 c #D4DBEC",
"3 c #D4DBEE",
"4 c #DADFEF",
"5 c #DAE0F0",
"6 c #DEE2F1",
"7 c white",
/* pixels */
"%@+OOXXXOO.OO.OO.OO.OO.OO.OOOXXXOOOO.X$$",
"O22<<<<<                   1<<<<1111<4;+",
"O<<2212                    1212<3131<6,O",
"O<2<122 77777777777777777   12<2131312-$",
"O131313 77777777777777777    223313112>+",
"O313131 77777777777777777     31131323;$",
"o131313 77777777777777777      1312112>$",
"O113131 77777777777777777       131221;$",
"o<2<131 777777777      77        12131>$",
"o<<3313 77777777       77         1213;O",
"+13<131 77777777        7         1231,O",
"X313313 7777777         777777777 2113;$",
"X<13133 7777777    7    777777777 1211;$",
"X23<312 777777     7     77777777 2133>$",
"X3<3131 777777     7     77777777 12<2>$",
".<3<313 777777    777     7777777 222<;$",
"O313131 77777     777     7777777 1212>$",
"O131313 77777     7777    7777777 2121;+",
"o113133 7777     77777     777777 1213;+",
"O131311 7777     777777    777777 2131,O",
"o<2<131 7777          7     77777 1211;$",
".<<3213 77777       777     77777 2133>$",
"+13<121 77777    7777777     7777 12<2>$",
"X313212 77777  777777777777777777 222<;+",
"X<13131 7777777777777777777777777 1212>$",
"X33<313 7777777777777777777777777 2121;$",
"X3<3132 7777777777777777777777777 3113;+",
".<3<313                           1331,O",
"O313131                           3122;$",
"o131313   777777  77  77  77777   132<>O",
"o113131   77  777  77 77  77      31<2>$",
"O131313   77   77  7777   77      1212>O",
"o<2<313   77   77   777   77777   1232>O",
".<<3131   77   77   777   77777   212<>$",
"+131313   77   77  7777   77      1213;$",
"X313131   77  777  77 77  77      2131>$",
"X<31311   777777  77  77  77      1315;$",
"O213133                           3113,$",
"+------                           --;;=$",
"&$++++++OO++++OO++++OO++OO++OO++++++++$*"
};
