/* XPM */
static char *result[] = {
/* columns rows colors chars-per-pixel */
"40 40 71 1 ",
"  c #2C2C2C",
". c gray19",
"X c #414141",
"o c #FF2116",
"O c #FE2C22",
"+ c #FD372E",
"@ c #FC5B53",
"# c #FA807A",
"$ c #678BB8",
"% c #678BBA",
"& c #678CB8",
"* c #688CB9",
"= c #698DBB",
"- c #698EBB",
"; c #7091BE",
": c #F99D98",
"> c #F8AEAA",
", c #F7C1BE",
"< c #84A2C7",
"1 c #9AB3D1",
"2 c #9CB1D2",
"3 c #9CB3D2",
"4 c #9EB6D4",
"5 c #9FB7D4",
"6 c #A7BBD6",
"7 c #A7BCD7",
"8 c #A9BDD7",
"9 c #A9BED8",
"0 c #A9BFD8",
"q c #ABBFD8",
"w c #ACBFD9",
"e c #AEBFDA",
"r c #AFBFDA",
"t c #AEC1DA",
"y c #AEC2DA",
"u c #B1C0DC",
"i c #B0C1DC",
"p c #B2C3DD",
"a c #B3C3DD",
"s c #B4C3DD",
"d c #B6C4DE",
"f c #BAC8E0",
"g c #F7CBC8",
"h c #E2CBD5",
"j c #F7D2D1",
"k c #F6E0DF",
"l c #D1D9EC",
"z c #D2D9EC",
"x c #D3DAED",
"c c #D4DBEC",
"v c #D4DBEE",
"b c #D5DBEE",
"n c #D5DDED",
"m c #D6DDED",
"M c #D9DFEF",
"N c #DADFEF",
"B c #D8DDF0",
"V c #DAE0F0",
"C c #DBE0F0",
"Z c #DCE0F0",
"A c #DCE0F1",
"S c #DEE2F1",
"D c #DEE2F2",
"F c #F6E5E4",
"G c #F6E8E7",
"H c #F5EDED",
"J c #E0E3F2",
"K c #E6E7F5",
"L c #F5F3F3",
"P c #F5F4F4",
"I c gray96",
/* pixels */
"t086777777777777777777777777777777776w35",
"9cvlzzzzoooooooooooooooooohzzzzzzzzzlNa3",
"qMBbbboooooooooooooooooooooo+bbbbbbbbSd&",
"9mvzzooIIIIIIIIIIIIIIIIIIIIIooxxxzzzzVa*",
"9mbzxoIIIIIIIIIIIIIIIIIIIIIIIooxxxxxzCa*",
"9mbzooIIIIIIIIIIIIIIIIIIIIIIIIooxxxxzCa*",
"9mbzooIIIIIIIIIIIIIIIIIIIIIIIIIooxxxzCa*",
"9mbzooIIIIIIIIIIIIIIIIIIIIIIIIIIooxxzCa*",
"9mbzooIIIIIIIIIIIIIIIIIIIIIIIIIIIooxzCa*",
"9mbzooIIIIIIIIIIIIoPIIIIIIIIIIIIIIoxzCa*",
"9mbzooIIIIIIIIIIIIjIoIIIIIIIIIIIIIoxzCa*",
"9mbzooIIIIIIIIIIIIoIoIIIIIIIIIIIIIoxzCa*",
"9mbzooIIIIIIIIIIIIooGIIIIIIIIIIIIIoxzCa*",
"9mbzooIIIIIIIIIIIIIoIIIIIIIIIIIIIIoxzCa*",
"9mbzooIIIIIIIIIIIIIoIIIIIIIIIIIIIIoxzCa*",
"9mbzooIIIIIIIIIIII@oIIIIIIIIIIIIIIoxzCa*",
"9mbzooIIIIIIIIIIIIoIoIIIIIIIIIIIIIoxzCa*",
"9mbzooIIIIIIIIIIIIoIIoIIIIIIIIIIIIoxzCa*",
"9mbzooIIIIIIIIIIIo#II:ookgoHIIIIIIoxzCa*",
"9mbzooIIIIIIIIIIIooIIIIoIIIoIIIIIIoxzCa*",
"9mbzooIIIIIIIIIOoFIIIIIIIoo,IIIIIIoxzCa*",
"9mbzooIIIIIII>ILoIIIIIIIIIIIIIIIIIoxzCa*",
"9mbzooIIIIIIoIIoIIIIIIIIIIIIIIIIIIoxzCa*",
"9mbzooIIIIIIIIoIIIIIIIIIIIIIIIIIIIoxzCa*",
"9mbzooIIIIIIIIIIIIIIIIIIIIIIIIIIIIoxzCa*",
"9mbzooIIIIIIIIIIIIIIIIIIIIIIIIIIIIoxzCa*",
"9mbzooIIIIIIIIIIIIIIIIIIIIIIIIIIIIoxzCa*",
"9mbzooIIIIIIIIIIIIIIIIIIIIIIIIIIIIoxzCa*",
"9mbzooIIIIIIII  XI   II   IIIIIIIIoxzCa*",
"9mbzooIIIIIIII I I II I IIIIIIIIIIoxzCa*",
"9mbzooIIIIIIII I I II I IIIIIIIIIIoxzCa*",
"9mbzooIIIIIIII   I II I ..IIIIIIIIoxzCa*",
"9mbzooIIIIIIII III II I IIIIIIIIIIoxzCa*",
"9mbzooIIIIIIII III   II IIIIIIIIIIoxzCa*",
"9mbzooIIIIIIIIIIIIIIIIIIIIIIIIIIIIoxzCa*",
"9mbzooIIIIIIIIIIIIIIIIIIIIIIIIIIIIoxzCa*",
"8nvzzoIIIIIIIIIIIIIIIIIIIIIIIIIIIIozzVp*",
"yJDZAooIIIIIIIIIIIIIIIIIIIIIIIIIIooAZKf$",
"1iuerroooooooooooooooooooooooooooorres2=",
"4<%%%%%%%%%%%%%%%%%%%%%%%%%%%%%%%%%%%%-;"
};
