/* XPM */
static char *result[] = {
/* columns rows colors chars-per-pixel */
"40 40 194 2 ",
"   c #123519",
".  c #153A1C",
"X  c #193E20",
"o  c #16401E",
"O  c #174220",
"+  c #1A4522",
"@  c #1B4B24",
"#  c #1E4E28",
"$  c #1C5127",
"%  c #1D5228",
"&  c #244C2B",
"*  c #22532C",
"=  c #2F4932",
"-  c #334D36",
";  c #2C5634",
":  c #355F3C",
">  c #38623F",
",  c #2B4E45",
"<  c #2D5348",
"1  c #335C48",
"2  c #396242",
"3  c #3B6744",
"4  c #3B674D",
"5  c #366453",
"6  c #2E566E",
"7  c #335B73",
"8  c #385E77",
"9  c #3B6F60",
"0  c #3E7461",
"q  c #3C647B",
"w  c #435A45",
"e  c #45674A",
"r  c #43754E",
"t  c #44785C",
"y  c #527659",
"u  c #57795D",
"i  c #587B6F",
"p  c #478267",
"a  c #4F8D69",
"s  c #55886B",
"d  c #51906A",
"f  c #5A8A77",
"g  c #5A9678",
"h  c #6F8F75",
"j  c #608A7E",
"k  c #3E6980",
"l  c #2F699B",
"z  c #326694",
"x  c #3A6C95",
"c  c #3673A2",
"v  c #3F79A6",
"b  c #436D84",
"n  c #4B788B",
"m  c #40759D",
"M  c #537095",
"N  c #5A7498",
"B  c #457DA8",
"V  c #5A8587",
"C  c #5E9B82",
"Z  c #5B8895",
"A  c #618E86",
"S  c #7E8E8A",
"D  c #669189",
"F  c #7E9A83",
"G  c #65949D",
"H  c #6CA599",
"J  c #77A696",
"K  c #4B81AB",
"L  c #5287AF",
"P  c #5588AF",
"I  c #5B8CB2",
"U  c #5D90B3",
"Y  c #7D8EA8",
"T  c #7E94A3",
"R  c #7C92AE",
"E  c #6392B6",
"W  c #6999BB",
"Q  c #769DBC",
"!  c #76AAAD",
"~  c #7CA4C2",
"^  c #7BAEC8",
"/  c #4994F9",
"(  c #4D99FF",
")  c #529CFD",
"_  c #56A0FF",
"`  c #5BA8F9",
"'  c #62A5FF",
"]  c #66A9FF",
"[  c #6CADFF",
"{  c #72BAF9",
"}  c #7DB9FF",
"|  c #7BC6FF",
" . c #859E8B",
".. c #939692",
"X. c #86A28C",
"o. c #8AA28E",
"O. c #93AB98",
"+. c #98AE9C",
"@. c #8C99AF",
"#. c #8196B2",
"$. c #8499B4",
"%. c #8E9BB1",
"&. c #909CB1",
"*. c #8EAFAE",
"=. c #9EB3A2",
"-. c #95A0B4",
";. c #97B7B5",
":. c #ACABAB",
">. c #A4B7A8",
",. c #ACB5AC",
"<. c #ACBAAE",
"1. c #A8AEBE",
"2. c #ABB2B6",
"3. c #AEBCB0",
"4. c #ABB0BE",
"5. c #B2B1B1",
"6. c #B1BFB4",
"7. c #BDBDBD",
"8. c #9CC7AE",
"9. c #95C2BE",
"0. c #B8C5BB",
"q. c #86A9C5",
"w. c #8BAFC9",
"e. c #8DB0C9",
"r. c #95B7CA",
"t. c #ADB2C0",
"y. c #A2BACC",
"u. c #B2B6C2",
"i. c #B7BAC4",
"p. c #BABECA",
"a. c #82BDFF",
"s. c #93BEF8",
"d. c #9DCAD5",
"f. c #AEC8C4",
"g. c #BDCAC0",
"h. c #BCC0CA",
"j. c #A7C4D8",
"k. c #B7CCD3",
"l. c #BFCCD5",
"z. c #B6CBDB",
"x. c #B4D7DA",
"c. c #8EC6FF",
"v. c #85CCFC",
"b. c #8DCFFF",
"n. c #92C6FF",
"m. c #95CFFF",
"M. c #88D0FF",
"N. c #93D0FF",
"B. c #9BD5FE",
"V. c #A5D5E3",
"C. c #A6CFFC",
"Z. c #ABD5F3",
"A. c #ADDAF5",
"S. c #A7D5FC",
"D. c #A4DBFF",
"F. c #ACDCFE",
"G. c #B5DFFF",
"H. c #B9E8EC",
"J. c #ADE0FE",
"K. c #BCE4F3",
"L. c #B5E3FF",
"P. c #BAE5FE",
"I. c #BEE9FF",
"U. c #BFF1FF",
"Y. c #C4C4C4",
"T. c #C0CDC3",
"R. c #CCCCCC",
"E. c #C1CDD6",
"W. c #C0CED8",
"Q. c #C7D1D9",
"!. c #D3D3D3",
"~. c #D7DBDD",
"^. c #DBDBDB",
"/. c #C2DDF1",
"(. c #CFEAF0",
"). c #C4E0F9",
"_. c #C3ECFE",
"`. c #CAEEFF",
"'. c #C2F1FF",
"]. c #CCF2FF",
"[. c #CFF9FF",
"{. c #D3F3FF",
"}. c #DAF5FF",
"|. c #D3F8FF",
" X c #DCFBFF",
".X c #E4E4E4",
"XX c #EBEBEB",
"oX c #E3F1F4",
"OX c #E9F2F3",
"+X c #E3FBFF",
"@X c #EEFCFE",
"#X c #F5F5F5",
"$X c #F7F8F8",
"%X c #FAFAFB",
/* pixels */
"$.$.$.R #.#.#.#.#.#.#.#.#.#.#.#.#.#.#.#.#.#.#.#.#.#.#.#.#.$.#.#.#.#.#.#.#.$.R #.",
"$.4.1.1.1.1.4.^.^.^.^.~.^.!.^.^.^.^.^.!.^.^.^.^.^.!.!.!.!.h.1.1.1.1.1.1.1.4.&.Y ",
"$.t.t.1.t.t.t.R.$X$X%X$X$X%X%X%X%X%X%X%X%X%X%X%X$X#X#XXX^.Y.p.1.t.t.1.t.1.u.&.M ",
"$.7.1.2.1.2.2...,.,.,.,.,.<.<.,.,.3.3.3.3.3.3.3.3.<.g..X.XY.!.h.1.1.1.1.1.u.&.M ",
"$.-         . o . o O + o + @ @ @ @ $ $ $ $ % % $ * : Y.XX7..XR.h.1.1.1.4.4.&.M ",
"$.&       . . . X & O & * @ @ @ o ; * @ $ $ % % $ * : 7.#X7.#X^.R.p.t.1.4.4.&.M ",
"$.=         . . & 0.O <.+.T.u & >.=.O.h $ @ $ % $ $ : 7.%X7.%X$X^.!.p.1.1.4.&.M ",
"$.=     . . . . & 0.O <.3 u +.h X.$ $ $ $ $ $ % $ $ : 7.%X7..X.X^.!.Y.p.1.7.&.M ",
"%.-       . . . & f.X <.o.g.y =.y > =.F $ $ $ $ $ * : 7.$XR.5.7.Y.7.7.7.i.u.&.M ",
"$.-         . X ; 6.X 3.y * @ F X.$ 3 >.$ $ $ $ $ $ : 7.%X#X%X%X#XXX.X^.R.u.&.M ",
"#.=         X e 3.u O >.> + @ & 8.>.<.X.$ $ $ $ $ % > 7.$X%X%X%X$X#XXX.XR.u.&.M ",
"$.=         X X + X O @ + + @ + o & $ $ $ $ $ $ % % > 6.$X$X$X%X%X$X$XXX!.u.&.M ",
"$.w   . X X X X + + X + & + # # * * * * $ * * * * * e 7.#X$X%X$X$X$X$X#X!.u.&.M ",
"%.!.5.5.5.:.:...:.:.:.:.:.5.:.:.:.:.:.:.:.:.:.:.:.:.5..X#X#X#X#X#X#X$X#X!.u.&.M ",
"$.t.t.t.t.t.t.R.#X#X#X#X#X#X#X$X$X#X#X#X#X#X#X#X#X#XXX#X#X#X#X#X#X#X#X#X!.i.&.M ",
"$.t.t.1.t.1.t.Y.$X#X$X$X$X$X$X$X$X#X#X$X#X#X#X#X#X#X#X#X#X#X#X#XXX#X#X#X!.u.&.M ",
"@.4.1.1.t.t.t.R.#X#X.X.X.XXXXX.X.XXX.X.XXX.X.X.X.X.X.X.X.X.X.X.X.X.X^.#X!.u.&.M ",
"#.1.1.1.e.t.t.R.$XXX$X%X%X%X%X%X%X%X%X%X%X%X%X%X%X%X$X#X$X$X#X#X#X#XY.XX!.u.&.M ",
"$.t.1.1.1.1.t.Y.$XXX$Xs./ / / / / / ( / / / / ) ` { B.v.v.J._.K.A.#XY.#X!.u.&.M ",
"#.t.1.1.1.1.t.R.$X.X#Xn.( ( ( ( ( ( ) _ _ ) ) n.P.J._.].J.v.M.v.Z.#XR.XX!.i.&.M ",
"#.4.4.1.t.1.t.R.#X.X#XC.` ' ' ' ' ' ' ] ] ] [ m.N.F._._.D.| b.D.Z.#XY.XX!.i.&.M ",
"$.t.1.1.1.1.1.Y.$XXX#XC.} c.G.S.S.} a.a.a.a.a.B.D.F.{._.L.D.N.B.S.#XY.XX!.u.&.M ",
"@.4.t.1.1.1.t.R.$X.X#X/.L.P.J.L._.P.F.C.C.n.c.m.L._.P.L.I.S.B.B.A.XXY.XX!.u.&.M ",
"#.4.1.1.t.1.t.!.#X.X#XoX_.P.J.P.`.{.{._.P.G.S.D.D.P.`.{.{.+X}.].).XXY.XX!.u.&.M ",
"#.t.t.1.1.1.t.R.#X.X#Xk.d.V.;.K.U.].I.L.L._.].{.}.'.I._.].].].{.oXXXY.XX!.i.&.M ",
"#.t.1.1.1.1.t.!.#X.X#X;.A V j J H.U.U.U.'.'.{.|.].].].].].].].}.oXXXY.XX!.u.&.M ",
"#.4.t.1.1.1.t.R.#X.X#X-.i n j j J 9.x.[.|.|.|.|.[.|.|.|.|.|. X+XoXXXY..X!.u.&.M ",
"$.t.1.1.1.t.t.!.#X.XXX .t 4 e r s V D J (._.F.A.A.Z.Z.].+X+X+X+XoXXXY.XX!.i.&.M ",
"@.4.1.1.t.1.t.R.#X.X#XS 1 5 2 1 4 t s f g C g H ! ^ ^ Q j.).@X@XOX.XY.XX!.u.&.M ",
"#.4.1.1.1.1.t.R.XX.XXX .= , , , < 5 9 0 0 p p p 0 a d a d C J 8.k.XXY..X!.u.&.M ",
"#.1.1.1.t.t.t.R.XX.XXXT 6 6 7 7 8 8 q q k b n Z V Z G G ! ! *.9.h..XY..X!.i.&.M ",
"@.4.1.1.e.t.t.!.XX.XXXQ z z x x x m B K I P I U W W Q q.e.r.j.x.Q..XY..X!.u.&.M ",
"#.t.t.1.1.1.1.R.#X.XXX$.l l c c B B B L P I I I E Q Q ~ e.e.r.y.z..X7..X!.u.&.M ",
"#.t.t.1.1.1.1.R.XX^.XXq.v c c B B B B B P P P L I E W q.~ w.~ q.y.XXY..X!.u.&.M ",
"#.4.1.1.t.e.t.R.XX.XXX^.W.W.W.W.W.W.W.W.W.l.W.W.E.E.W.Q.Q.Q.Q.!.~..X7..XR.u.&.M ",
"$.1.1.1.t.t.t.!.XX.X!.!.~.!.!.!.!.!.!.!.!.!.R.R.R.R.!.R.R.R.R.R.R.!.Y..XR.7.&.M ",
"$.4.t.t.1.1.t.R.XXXX.X^.^.^..X^.^..X^.^..X^.^.^.^.^.^.^.^.^.^.^.^.^..X.XR.u.&.M ",
"@.u.u.u.t.t.u.!.XXXXXXXXXXXXXXXXXXXXXX.X.X.XXX.X.X.X.X.X.X.X.X.X.X.X.X^.!.p.&.M ",
"R &.&.@.@.@.@..X7.7.7.7.7.7.i.7.7.7.7.7.7.7.7.7.7.7.7.7.p.7.7.7.7.7.i.7.^.&.#.M ",
"#.N N M M M M M M M M M M M M M M M M M M M M M N M M M M M M M M M M M M M M N "
};
