/* XPM */
static char *result[] = {
/* columns rows colors chars-per-pixel */
"40 40 189 2 ",
"   c #123519",
".  c #153A1C",
"X  c #193E20",
"o  c #16401E",
"O  c #174220",
"+  c #1A4522",
"@  c #1B4B24",
"#  c #1E4E28",
"$  c #1C5127",
"%  c #1D5228",
"&  c #244C2B",
"*  c #22532C",
"=  c #2F4932",
"-  c #334D36",
";  c #2C5634",
":  c #355F3C",
">  c #38623F",
",  c #284741",
"<  c #2B4E45",
"1  c #2D5348",
"2  c #335C48",
"3  c #396242",
"4  c #3B6744",
"5  c #3B674D",
"6  c #366453",
"7  c #2E566E",
"8  c #335B73",
"9  c #385E77",
"0  c #3B6F60",
"q  c #3E7461",
"w  c #435A45",
"e  c #45674A",
"r  c #43754E",
"t  c #44785C",
"y  c #527659",
"u  c #57795D",
"i  c #478267",
"p  c #488366",
"a  c #55886B",
"s  c #51906A",
"d  c #5A8A77",
"f  c #5A9678",
"g  c #6F8F75",
"h  c #3E6980",
"j  c #2F699B",
"k  c #326694",
"l  c #3A6C95",
"z  c #37729E",
"x  c #3673A2",
"c  c #3F79A6",
"v  c #436D84",
"b  c #4B788B",
"n  c #40759D",
"m  c #457DA8",
"M  c #5A8587",
"N  c #5E9B82",
"B  c #5B8895",
"V  c #618E86",
"C  c #7E8E8A",
"Z  c #669189",
"A  c #65949D",
"S  c #6CA599",
"D  c #77A696",
"F  c #4B81AB",
"G  c #5588AF",
"H  c #5B8CB2",
"J  c #5D90B3",
"K  c #7E94A3",
"L  c #678BBA",
"P  c #688CB9",
"I  c #6392B6",
"U  c #6999BB",
"Y  c #759ABC",
"T  c #76AAAD",
"R  c #7CA4C2",
"E  c #7BAEC8",
"W  c #4994F9",
"Q  c #4D99FF",
"!  c #529CFD",
"~  c #56A0FF",
"^  c #5BA8F9",
"/  c #62A5FF",
"(  c #66A9FF",
")  c #6CADFF",
"_  c #72BAF9",
"`  c #7DB9FF",
"'  c #7BC6FF",
"]  c #859E8B",
"[  c #939692",
"{  c #86A28C",
"}  c #8AA28E",
"|  c #93AB98",
" . c #98AE9C",
".. c #809CB6",
"X. c #8EAFAE",
"o. c #9EB3A2",
"O. c #ACABAB",
"+. c #A4B7A8",
"@. c #ACB5AC",
"#. c #ACBAAE",
"$. c #AEBCB0",
"%. c #B2B1B1",
"&. c #B1BFB4",
"*. c #BDBDBD",
"=. c #9CC7AE",
"-. c #95C2BE",
";. c #B8C5BB",
":. c #85A7C5",
">. c #8BAFC9",
",. c #8DB0C9",
"<. c #95B7CA",
"1. c #9DB4D3",
"2. c #A2BACC",
"3. c #A7BCD7",
"4. c #A9BDD7",
"5. c #AABED8",
"6. c #82BDFF",
"7. c #93BEF8",
"8. c #9DCAD5",
"9. c #AEC8C4",
"0. c #BDC7C4",
"q. c #A7C4D8",
"w. c #ADC0D9",
"e. c #B7CCD3",
"r. c #BFCCD5",
"t. c #B3C3DD",
"y. c #B6CBDB",
"u. c #B4D7DA",
"i. c #8EC6FF",
"p. c #85CCFC",
"a. c #8DCFFF",
"s. c #92C6FF",
"d. c #95CFFF",
"f. c #88D0FF",
"g. c #93D0FF",
"h. c #9BD5FE",
"j. c #A6CFFC",
"k. c #ABD5F3",
"l. c #ADDAF5",
"z. c #A7D5FC",
"x. c #A4DBFF",
"c. c #ACDCFE",
"v. c #B5DFFF",
"b. c #B9E8EC",
"n. c #ADE0FE",
"m. c #BCE4F3",
"M. c #B5E3FF",
"N. c #BAE5FE",
"B. c #BEE9FF",
"V. c #BFF1FF",
"C. c #C4C4C4",
"Z. c #C0CDC3",
"A. c #CCCCCC",
"S. c #C2CDD6",
"D. c #C2CED8",
"F. c #C8D1D7",
"G. c #C4D0D9",
"H. c #CBD3D9",
"J. c #D3D3D3",
"K. c #D7DBDD",
"L. c #DBDBDB",
"P. c #D4DBE4",
"I. c #D4DBED",
"U. c #D9DEED",
"Y. c #C2DDF1",
"T. c #D8DDF0",
"R. c #C8E7E8",
"E. c #C4E0F9",
"W. c #C3ECFE",
"Q. c #CAEEFF",
"!. c #DCE1F0",
"~. c #D5ECF8",
"^. c #C2F1FF",
"/. c #CCF2FF",
"(. c #CFF9FF",
"). c #D3F3FF",
"_. c #DAF5FF",
"`. c #D3F8FF",
"'. c #DCFBFF",
"]. c #E4E4E4",
"[. c #EBEBEB",
"{. c #E4E6F4",
"}. c #E3F1F4",
"|. c #E9F2F3",
" X c #E3FBFF",
".X c #EEFCFE",
"XX c #F5F5F5",
"oX c #F7F8F8",
"OX c #FAFAFB",
/* pixels */
"w.5.3.3.3.3.3.3.3.3.3.3.3.3.3.3.3.4.4.3.5.3.3.3.3.3.3.3.3.3.3.3.3.3.3.3.3.3.1.3.",
"5.I.I.I.I.I.I.L.L.L.L.L.L.J.L.L.L.J.L.L.L.L.L.L.L.J.J.J.J.U.I.I.I.I.I.I.I.U.t.1.",
"w.U.T.U.I.T.I.A.oXoXOXOXoXOXOXOXOXOXOXOXOXOXOXOXoXXXXX[.J.C.U.I.I.I.I.I.I.T.t.P ",
"4.P.D.S.D.D.0.[ @.@.@.#.@.#.#.#.#.#.#.#.#.$.$.$.#.#.;.[.[.C.J.U.I.I.I.I.I.U.t.P ",
"5.=       . . . . o o o o @ @ @ @ @ $ $ $ $ % % $ $ 3 C.[.*.L.J.U.I.I.I.I.!.t.P ",
"5.=       . . . . & + & * * o o o ; * @ $ $ % % $ * : *.XX*.XXL.A.U.I.I.I.U.t.P ",
"5.-       .   . & ;.o #. .Z.u * +.o.| g # $ $ $ $ * : *.XX*.OXoXL.J.U.I.I.U.t.P ",
"5.=       . . . ; ;.o #.3 u +.g { $ $ $ $ $ $ $ $ $ : *.oX*.[.].L.J.C.U.I.U.t.P ",
"5.=       . . X = ;.o +.} 0.y +.y > o.{ $ $ $ $ $ $ : *.XXA.%.*.C.*.*.*.U.!.t.P ",
"5.-         . . = ;.+ +.y * @ g { $ 4 +.$ $ $ $ $ $ : *.OXoXOXoXXX[.].L.C.!.t.P ",
"4.=       X   e &.u O +.> + + * #.o.+.{ $ $ $ $ $ % > *.OXOXOXOXoXXX[.].J.!.t.P ",
"5.=         X X + X O # + + @ + @ % $ $ $ $ $ $ * % > &.oXXXOXOXOXOXXX[.J.!.t.P ",
"5.w   . X X X X X + + + & + # # $ * * $ * * * * * * e *.XXoXoXoXXXoXXXXXJ.!.t.P ",
"5.J.%.O.%.%.O.[ O.O.O.O.%.O.O.O.O.O.O.O.O.O.O.O.O.O.O.].XXXXXXoXXXXXXXXXJ.!.t.P ",
"5.U.U.I.I.I.I.A.XXXXXXXXoXoXXXoXoXXXXXoXXXXXXXXXXXXXXXXXXXXXXXXXXXXXXXXXK.!.t.P ",
"5.!.U.I.I.I.I.A.oXXXoXXXoXXXoXXXoXXXoXXXXXXXXXXXXXXXXX[.XXXXXXXXXXXXXXXXJ.!.t.P ",
"3.I.I.I.I.I.I.A.XXXX].].].[.].[.].[.].[.[.].].].].].].].].].].].].].L.XXJ.!.t.P ",
"3.I.I.I.I.I.I.A.oX[.oXOXOXOXOXOXOXOXOXOXOXOXOXOXOXOXoXoXoXoXXXXXXXXXC.[.J.!.t.P ",
"3.I.I.I.I.I.I.A.oX[.oX7.W W W W W W W W W W W ! ^ _ h.p.p.n.W.m.k.XXC.XXJ.!.t.P ",
"3.U.I.I.I.I.I.A.oX].oX7.Q Q Q Q Q Q Q ~ ~ ! ! s.N.M.W.W.n.p.f.p.k.XXA.[.J.!.t.P ",
"3.I.T.I.I.I.I.A.oX[.XXj.~ / ( / / / / ( ( ( ) d.g.x.W.B.x.' a.x.z.XXC.[.J.!.t.P ",
"5.U.I.I.I.I.I.A.oX].XXj.` i.c.c.z.` 6.6.6.6.6.d.x.c._.W.N.x.g.h.k.[.C.[.J.!.t.P ",
"3.I.I.I.I.I.I.A.XX[.XXY.M.N.c.M.W.N.c.z.j.s.s.d.M.W.B.N.B.z.h.h.k.XXC.[.J.{.t.P ",
"5.I.I.I.I.I.I.J.XX].XX~.W.N.n.N.Q.).).W.v.v.c.x.c.B.Q.Q.). X_./.m.XXC.[.J.!.t.P ",
"3.U.I.I.I.I.I.A.XX].XXy.8.8.<.b.^.^.B.N.N.B./.`.).W.B.^././.Q.).}.[.C.[.J.T.t.P ",
"5.I.I.I.I.I.I.J.XX].XXO.M M V { b.V.V.V.^.W.`.(./././././././._.}.[.C.[.J.{.t.P ",
"5.U.I.I.I.I.I.J.XX].XXX.d M d Z D -.u.(.`.`.'.`.(.(.`.`.`.'.'. X}.[.C.[.J.!.t.P ",
"5.I.T.I.I.I.I.J.XX].[.] t 6 2 r a V Z D R.W.l.c.l.k.k.).'.'. X X}.[.C.].J.!.t.P ",
"3.I.I.I.I.I.I.A.XX].XXC 2 5 2 2 5 t a d d f f S T E E E q.E..X.X|.[.C.[.J.!.t.P ",
"3.I.I.I.I.I.I.F.[.].[.] , < < < 1 6 6 0 q i i i t p s s s N D =.r.].C.].J.{.t.P ",
"3.I.I.I.I.I.I.J.[.].[.K 7 7 8 8 9 9 h h v b b B M B B A T T X.-.9.[.C.].J.{.t.P ",
"5.I.I.I.I.I.I.J.[.].[...k k l l l n m F G G J J I U Y >.,.<.q.u.D.].C.].J.!.5.L ",
"5.U.I.I.I.I.I.J.[.].[...j j z z m m m G G H H H L Y Y R ,.>.<.3.e.].C.].J.!.t.L ",
"5.I.I.I.I.I.I.A.[.L.[.:.c x x m m m m m G G H m H P U :.R :.R >.2.].4.].J.!.t.L ",
"5.I.I.I.I.I.I.J.[.].[.I.D.D.r.D.S.S.S.S.D.r.D.S.S.S.G.F.H.H.F.H.L.].*.].A.!.t.P ",
"5.I.I.I.I.I.I.J.[.].J.J.K.J.J.J.J.J.J.J.J.J.J.A.A.J.A.F.A.A.A.A.A.A.C.].J.{.t.P ",
"4.I.I.I.I.I.I.J.[.[.].].L.L.].L.L.L.].L.].L.L.L.L.L.L.L.L.L.L.L.L.L.L.].J.].t.P ",
"w.{.{.{.T.T.!.J.[.].[.[.[.[.[.[.[.[.[.].].].[.].].].].].].].].].].].].].J.{.t.L ",
"1.5.5.5.5.5.t.].*.*.*.*.*.*.2.*.*.*.*.*.*.*.*.*.*.*.*.*.C.*.*.*.*.*.*.*.J.t.1.L ",
"1.:.P P L L L L P P P P P P P P L L L L L P P P P P P P L L L L P P P P P P P Y "
};
