/* XPM */
static char *result[] = {
/* columns rows colors chars-per-pixel */
"40 40 51 1 ",
"  c black",
". c #537094",
"X c #537095",
"o c #547094",
"O c #547196",
"+ c #547296",
"@ c #5A7498",
"# c #6B84A3",
"$ c #7D8EA8",
"% c #7A91AD",
"& c #7B91AD",
"* c #7D93AF",
"= c #7E94AF",
"- c #8C99AF",
"; c #8196B2",
": c #8398B2",
"> c #8298B3",
", c #8398B3",
"< c #8399B3",
"1 c #8499B3",
"2 c #869BB5",
"3 c #879BB5",
"4 c #8D9BB0",
"5 c #8E9AB0",
"6 c #8F9CB1",
"7 c #909CB1",
"8 c #929DB2",
"9 c #95A0B4",
"0 c #A8AEBD",
"q c #A9AEBD",
"w c #A8AEBE",
"e c #A8AFBE",
"r c #A9AFBE",
"t c #A9AFBF",
"y c #AAB0BD",
"u c #A9B0BE",
"i c #ABB1BE",
"p c #AAB0BF",
"a c #ABB0BF",
"s c #ACB1BE",
"d c #ADB1C0",
"f c #AEB3C0",
"g c #AFB3C0",
"h c #AFB4C0",
"j c #B0B4C0",
"k c #B0B4C1",
"l c #B2B5C1",
"z c #B2B5C2",
"x c #B4B6C2",
"c c #B8B9C4",
"v c white",
/* pixels */
"3:,;;;;;                   ;;;;;;;;;;1&=",
":yp0000                    0000000000g7&",
"<fdaaa  vvvvvvvvvvvvvvvvv   aaaaaaaaal8.",
",sp000  vvvvvvvvvvvvvvvvv    0rrr0000h7o",
",sa0rr  vvvvvvvvvvvvvvvvv     rrrrrr0j7o",
",sa0rr  vvvvvvvvvvvvvvvvv      rrrrr0j7o",
",sa0rr  vvvvvvvvvvvvvvvvv       rrrr0j7o",
",sa0rr  vvvvvvvvv      vv        wrr0j7o",
",sa0rr  vvvvvvvv       vv         wr0j7o",
",sa0rr  vvvvvvvv        v         wr0j7o",
",sa0rr  vvvvvvv         vvvvvvvvv rr0j7o",
",sa0rr  vvvvvvv    v    vvvvvvvvv rr0j7o",
",sa0rr  vvvvvv     v     vvvvvvvv rr0j7o",
",sa0rr  vvvvvv     v     vvvvvvvv rr0j7o",
",sa0rr  vvvvvv    vvv     vvvvvvv tr0j7o",
",sa0rr  vvvvv     vvv     vvvvvvv rr0j7o",
",sa0rr  vvvvv     vvvv    vvvvvvv rr0j7o",
",sa0rr  vvvv     vvvvv     vvvvvv rr0j7o",
",sa0rr  vvvv     vvvvvv    vvvvvv rr0j7o",
",sa0rr  vvvv          v     vvvvv rr0j7o",
",sa0rr  vvvvv       vvv     vvvvv rr0j7o",
",sa0rr  vvvvv    vvvvvvv     vvvv rr0j7o",
",sa0rr  vvvvv  vvvvvvvvvvvvvvvvvv rr0j7o",
",sa0rr  vvvvvvvvvvvvvvvvvvvvvvvvv rr0j7o",
",sa0rr  vvvvvvvvvvvvvvvvvvvvvvvvv rr0j7o",
",sa0rw  vvvvvvvvvvvvvvvvvvvvvvvvv rr0j7o",
",sa0ru                            rr0j7o",
",sa0rr                            rr0j7o",
",sa0er    vvvvvv  vv  vv  vvvvv   rr0j7o",
",sa0wr    vv  vvv  vv vv  vv      rr0j7o",
",sa0wr    vv   vv  vvvv   vv      rr0j7o",
",sa0wq    vv   vv   vvv   vvvvv   rr0j7o",
",sa0rw    vv   vv   vvv   vvvvv   rr0j7o",
",sa0rr    vv   vv  vvvv   vv      rr0j7o",
",sa0rr    vv  vvv  vv vv  vv      rr0j7o",
",sa0rr    vvvvvv  vv  vv  vv      rr0j7o",
">ip000                            000h6o",
"2xzjkk                            kkjc9.",
"%45---                           ----7$O",
"*#XXXXXXXXXXXXXXXXXXXXXXXXXXXXXXXXXXXX+@"
};
