/* XPM */
static char *result[] = {
/* columns rows colors chars-per-pixel */
"40 40 59 1 ",
"  c black",
". c #678BB8",
"X c #678BBA",
"o c #678CB8",
"O c #688CB9",
"+ c #698DBB",
"@ c #698EBB",
"# c #7091BE",
"$ c #84A2C7",
"% c #9AB3D1",
"& c #9CB1D2",
"* c #9CB3D2",
"= c #9EB6D4",
"- c #9FB7D4",
"; c #A7BBD6",
": c #A7BCD7",
"> c #A9BDD7",
", c #A9BED8",
"< c #A9BFD8",
"1 c #ABBFD8",
"2 c #ACBFD9",
"3 c #AEBFDA",
"4 c #AFBFDA",
"5 c #AEC1DA",
"6 c #AEC2DA",
"7 c #B1C0DC",
"8 c #B0C1DC",
"9 c #B2C3DD",
"0 c #B3C3DD",
"q c #B4C3DD",
"w c #B6C4DE",
"e c #BAC8E0",
"r c #D1D9EC",
"t c #D1D9ED",
"y c #D2D9EC",
"u c #D3D9EC",
"i c #D2D9ED",
"p c #D2DAED",
"a c #D3DAED",
"s c #D3DBED",
"d c #D3DAEE",
"f c #D4DBEC",
"g c #D6DBED",
"h c #D4DBEE",
"j c #D5DBEE",
"k c #D5DDED",
"l c #D6DDED",
"z c #D9DFEF",
"x c #DADFEF",
"c c #D8DDF0",
"v c #DAE0F0",
"b c #DBE0F0",
"n c #DCE0F0",
"m c #DCE0F1",
"M c #DEE2F1",
"N c #DEE2F2",
"B c #E0E3F2",
"V c #E6E7F5",
"C c white",
/* pixels */
"5<>;::::::::::::::::::::::::::::::::;2*-",
",fhryyy                   yyyyyyyyyyrx0*",
"1zcjjj                    jjjjjjjjjjjMwo",
",lhyyy CCCCCCCCCCCCCCCCC   yyyaaayyyyv0O",
",ljyaa CCCCCCCCCCCCCCCCC    iaaaaaaayb0O",
",ljyaa CCCCCCCCCCCCCCCCC     aaaaaaayb0O",
",ljyaa CCCCCCCCCCCCCCCCC      aaaaaayb0O",
",ljyaa CCCCCCCCCCCCCCCCC       aataayb0O",
",ljyaa CCCCCCCCC      CC        agiayb0O",
",ljyaa CCCCCCCC       CC         atayb0O",
",ljyaa CCCCCCCC        C         aaayb0O",
",ljyaa CCCCCCC         CCCCCCCCC aaayb0O",
",ljyaa CCCCCCC    C    CCCCCCCCC aaayb0O",
",ljyaa CCCCCC     C     CCCCCCCC aaayb0O",
",ljyaa CCCCCC     C     CCCCCCCC adayb0O",
",ljyaa CCCCCC    CCC     CCCCCCC daayb0O",
",ljyaa CCCCC     CCC     CCCCCCC aaayb0O",
",ljyaa CCCCC     CCCC    CCCCCCC aaayb0O",
",ljyaa CCCC     CCCCC     CCCCCC aaayb0O",
",ljyaa CCCC     CCCCCC    CCCCCC aaayb0O",
",ljyaa CCCC          C     CCCCC aaayb0O",
",ljyaa CCCCC       CCC     CCCCC aaayb0O",
",ljyaa CCCCC    CCCCCCC     CCCC aaayb0O",
",ljyaa CCCCC  CCCCCCCCCCCCCCCCCC aaayb0O",
",ljyaa CCCCCCCCCCCCCCCCCCCCCCCCC aaayb0O",
",ljyai CCCCCCCCCCCCCCCCCCCCCCCCC aaayb0O",
",ljyas CCCCCCCCCCCCCCCCCCCCCCCCC aaayb0O",
",ljyaa                           aaayb0O",
",ljypa                           aaayb0O",
",ljyia   CCCCCC  CC  CC  CCCCC   aaayb0O",
",ljyia   CC  CCC  CC CC  CC      aaayb0O",
",ljyiu   CC   CC  CCCC   CC      aaayb0O",
",ljyai   CC   CC   CCC   CCCCC   aaayb0O",
",ljyaa   CC   CC   CCC   CCCCC   aaayb0O",
",ljyaa   CC   CC  CCCC   CC      aaayb0O",
",ljyaa   CC  CCC  CC CC  CC      aaayb0O",
">khyyy   CCCCCC  CC  CC  CC      yyyyv9O",
"6BNnmm                           mmmnVe.",
"%87344                           4443q&+",
"=$XXXXXXXXXXXXXXXXXXXXXXXXXXXXXXXXXXXX@#"
};
