/* XPM */
static char *result[] = {
/* columns rows colors chars-per-pixel */
"40 40 238 2 ",
"   c #1E4B5D",
".  c #2D4D5E",
"X  c #2E4D5E",
"o  c #336274",
"O  c #376074",
"+  c #376075",
"@  c #58474D",
"#  c #565159",
"$  c #55555D",
"%  c #54575F",
"&  c #55585F",
"*  c #74555B",
"=  c #55747C",
"-  c #666971",
";  c #6C6A72",
":  c #6A6D75",
">  c #6A6D76",
",  c #86292C",
"<  c #FF0101",
"1  c #FF0202",
"2  c #FE0303",
"3  c #FE0405",
"4  c #FE0607",
"5  c #F10B0F",
"6  c #F10C0F",
"7  c #FD0909",
"8  c #FD0A0B",
"9  c #F80D0E",
"0  c #F80D0F",
"q  c #F80E0F",
"w  c #FC0D0E",
"e  c #FC0E0F",
"r  c #F80D10",
"t  c #FC0E10",
"y  c #FC0F10",
"u  c #FC1113",
"i  c #FB1516",
"p  c #FB1517",
"a  c #FA1B1D",
"s  c #F91E21",
"d  c #F91F21",
"f  c #F82124",
"g  c #F72A2E",
"h  c #F62B2F",
"j  c #F4353A",
"k  c #F33B40",
"l  c #F24348",
"z  c #F04C53",
"x  c #EC6068",
"c  c #EA6770",
"v  c #E96D76",
"b  c #7A668A",
"n  c #7D6689",
"m  c #BD7F8B",
"M  c #CF7B8C",
"N  c #D97F8D",
"B  c #E77983",
"V  c #E57F8A",
"C  c #64858E",
"Z  c #678BB8",
"A  c #678BBA",
"S  c #678CB8",
"D  c #688CB9",
"F  c #698DBB",
"G  c #698EBB",
"H  c #7091BE",
"J  c #379CD1",
"K  c #3C9DD1",
"L  c #1BABE8",
"P  c #1CABE8",
"I  c #1CACE8",
"U  c #1FACE8",
"Y  c #21ACE7",
"T  c #22ACE8",
"R  c #25ADE9",
"E  c #25AEE8",
"W  c #25AFE8",
"Q  c #28AEE8",
"!  c #2DB1E9",
"~  c #2DB2E8",
"^  c #34B4E7",
"/  c #3CB0E7",
"(  c #3CB6E7",
")  c #32B3E8",
"_  c #39B4EA",
"`  c #3CB6E8",
"'  c #3CB5EA",
"]  c #3FB4EA",
"[  c #4AB2E4",
"{  c #4AB6E9",
"}  c #4DB9EB",
"|  c #57BAEB",
" . c #50BEE8",
".. c #50BBEC",
"X. c #55BBEC",
"o. c #59BBEA",
"O. c #5ABBEA",
"+. c #5DBBEA",
"@. c #66B6E1",
"#. c #63BEEB",
"$. c #5BC2E9",
"%. c #66C6E8",
"&. c #70C1EC",
"*. c #79CDE9",
"=. c #7ACDE9",
"-. c #ACB1BF",
";. c #C0818B",
":. c #C1818B",
">. c #E5828D",
",. c #E5838E",
"<. c #E4848F",
"1. c #E48590",
"2. c #E38D99",
"3. c #E2909C",
"4. c #E2909D",
"5. c #E196A4",
"6. c #E097A5",
"7. c #E098A5",
"8. c #DEA6B4",
"9. c #84A2C7",
"0. c #8CBCD3",
"q. c #8BBBDD",
"w. c #9AB3D1",
"e. c #9CB1D2",
"r. c #9CB3D2",
"t. c #9EB6D4",
"y. c #9FB7D4",
"u. c #92BDD2",
"i. c #ADB2C0",
"p. c #B2B7C5",
"a. c #B2B8C6",
"s. c #A7BBD6",
"d. c #A7BCD7",
"f. c #A9BDD7",
"g. c #A4BDD9",
"h. c #A9BED8",
"j. c #A9BFD8",
"k. c #ABBFD8",
"l. c #ACBFD9",
"z. c #AEBFDA",
"x. c #AFBFDA",
"c. c #BFBFD6",
"v. c #DAB6C7",
"b. c #DAB7C7",
"n. c #DAB8C8",
"m. c #D9BACB",
"M. c #A2C4D4",
"N. c #AEC1DA",
"B. c #AEC2DA",
"V. c #B1C0DC",
"C. c #B0C1DC",
"Z. c #B2C3DD",
"A. c #B3C3DD",
"S. c #B4C3DD",
"D. c #B6C4DE",
"F. c #8BC8EC",
"G. c #8BC8ED",
"H. c #8DC9EC",
"J. c #90C9EC",
"K. c #93CBED",
"L. c #92CCEE",
"P. c #9ECDEB",
"I. c #88D2E9",
"U. c #97D6E7",
"Y. c #96D7E9",
"T. c #98D7E8",
"R. c #98D8EA",
"E. c #A4CFEB",
"W. c #A4CFEC",
"Q. c #BAC8E0",
"!. c #A9D0ED",
"~. c #AFD1EC",
"^. c #B3D1EB",
"/. c #B3D2EC",
"(. c #B2D2ED",
"). c #B4D4ED",
"_. c #BCD3ED",
"`. c #BBD4ED",
"'. c #CBC3D7",
"]. c #D7C5D6",
"[. c #D7C5D7",
"{. c #D8C1D2",
"}. c #D7C6D8",
"|. c #D7C7D9",
" X c #D6CADB",
".X c #D6CBDD",
"XX c #D5CEE0",
"oX c #D5CFE1",
"OX c #C1D6ED",
"+X c #C3D6ED",
"@X c #C3D7ED",
"#X c #C9D8ED",
"$X c #CBD8ED",
"%X c #CDD9ED",
"&X c #CFD9ED",
"*X c #D5D0E2",
"=X c #D5D1E4",
"-X c #D5D2E5",
";X c #D4D7EA",
":X c #D3D8EB",
">X c #D1D9EC",
",X c #D1D9ED",
"<X c #D2D9EC",
"1X c #D3D9EC",
"2X c #D2D9ED",
"3X c #D1DAED",
"4X c #D3DAEC",
"5X c #D2DAED",
"6X c #D3DAED",
"7X c #D3DBED",
"8X c #D3DAEE",
"9X c #D4D9EC",
"0X c #D4D9ED",
"qX c #D4DBEC",
"wX c #D4DAED",
"eX c #D5DAED",
"rX c #D4DBED",
"tX c #D5DBED",
"yX c #D6DAEC",
"uX c #D7DAEC",
"iX c #D6DBED",
"pX c #D4DBEE",
"aX c #D5DBEE",
"sX c #D5DDED",
"dX c #D6DDED",
"fX c #D6DEED",
"gX c #D9DFEF",
"hX c #DADFEF",
"jX c #C8DCF0",
"kX c #D8DDF0",
"lX c #DAE0F0",
"zX c #DBE0F0",
"xX c #DCE0F0",
"cX c #DCE0F1",
"vX c #DEE2F1",
"bX c #DEE2F2",
"nX c #E0E3F2",
"mX c #E6E7F5",
/* pixels */
"N.j.f.s.d.d.d.d.d.d.d.d.d.d.d.d.d.d.d.d.d.d.d.d.d.d.d.d.d.d.d.d.d.d.d.d.s.l.r.y.",
"h.qXpX>X<X<X<X<X<X<X<X<X<X<X<X<X<X<X<X<X<X<X<X<X<X<X<X<X<X<X<X<X<X<X<X<X>XhXA.r.",
"k.gXkXaXaXaXaXaXaXaXaXaXaXaXaXaXaXaXaXaXaXaXaXaXaXaXaXaXaXaXaXaXaXaXaXaXaXvXD.S ",
"h.dXpX<X<X<X<X<X<X<X<X<X<X<X<X<X<X<X<X<X<X<X<X<X<X<X<X<X<X<X6X6X6X<X<X<X<XlXA.D ",
"h.dXaX<X6X6X6X6X6X6X6X6X6X6X6X6X6X6X6X6X6X6X6X6X6X6X6X6X2X6X6X6X6X6X6X6X<XzXA.D ",
"h.dXaX<X6X6X6X6X6X6X6X6X6X6X6X6X6X6X6X6X6X6X6X6X6X6X2X,XtX6X6X6X6X6X6X6X<XzXA.D ",
"h.dXaX<X6X6X6X6X6X6X6X6X6X6X6X6X6X6X6X6X6X6X6X6X6X2XwXeX6X6X6X6X6X6X6X6X<XzXA.D ",
"h.dXaX<X6X6X6X6X6X6X6X6X6X6X6X6X6X6X6X6X6X6X6X6X5X0XwX6X6X6X6X6X6X,X6X6X<XzXA.D ",
"h.dXaX<X6X6X6X6X6X6X6X6X6X6X6X6X6X6X6X6X6X6X6X5X2XrX6X6X6X6X6X6X6XiX2X6X<XzXA.D ",
"h.dXaX<X6X6X6X6X6X6X6X6X6X6X6X6X6X6X6X6X6X6X6X5XeX6X6X6X6X6X6X6X6X6X,X6X<XzXA.D ",
"h.dXaX<X6X6X6X6X6X6X6X6X6X6X6X6X6X6X6X6X6X6X6X5XeX6X6X6X1X6X6X6X6X6X6X6X<XzXA.D ",
"h.dXaX<X6X6X6X6X6X6X6X6X6X6X6X6X6X6X6X6X6X6X6X5X<X6X6X6X6X7X6X6X6X6X6X6X<XzXA.D ",
"h.dXi.p.6X6X6X6X6X6X6X6X6X6X6X6X6X%XH.+.K.$X7X6X6X6X6X6X6X6X6X6X6X6X-.a.<XzXA.D ",
"h.dX& : 6X6X-Xb.V 3.6X6X6X6X6X6X&Xo.^ $.) | 6X6X6X6X6X=Xv 5.}.;X6X6X% - <XzXA.D ",
"h.dX& * 2.c g 8 4 k 6.4.>.>.,.>.M n ;.:.m b N ,.,.<.6.1.i 3 p l B 7.# > <XzXA.D ",
"h.dX& , d p 7 < 3 p s u y y y t r 6 9 q q 5 0 y y y i d e 1 2 w a h @ > <XzXA.D ",
"h.dX& ; XX X8.x f z .X}.].].[.}.c.K u.M.0.J '.[.[.[.[.v.a j V m.oX*X$ > <XzXA.D ",
"h.dX& : 6X6X6X:X|.{.6X6X6X6X6X6X5XF.T ~ R G.6X6X6X6X8X:Xn.*X6X6X6X6X% > <XzXA.D ",
"h.dX& : 6X6X6X6X6X6X2X6X6X6X6X6X6X6XOXP.@X6X6X6X6X6X6X6X6X6X6X6X6X6X% > <XzXA.D ",
"h.dX& : 6X6X6X6X6X2X6X6X6X6X8X2X6X6X6X6X6X6X6X6X8X6X6X6X6X6X6X6X6X6X% > <XzXA.D ",
"h.).X O W.6X6X6X6X7X6X6X6X6X6X6X6X6X6X6X6X6X6X8X6X6X6X6X6X6X6X6X6X(.. + E.zXA.D ",
"q.Q   o W J.6X6X6X6X6X6X6X6X6X6X6X6X6X6X6X6X8X6X6X6X6X6X6X6X6X6X!.Q   o W L.A.D ",
"[ %.= C =._ 6X6X6X6X6X6X6X6X6X6X6X6X6X6X6X6X6X6X6X6X6X6X6X6X6X6X} %.= C =.! A.D ",
"/ *.U.T.I.E 6X6X4X6X6X6X6X6X6X6X6X6X6X6X6X8X6X6X6X6X6X6X6X6X6X6X' *.U.T.I.L A.D ",
"@.( Y.R. .O.6X6X6X6X6X6X6X6X6X6X6X6X6X6X6X6X6X6X6X6X6X6X6X6X6X6X&.` Y.R. ...A.D ",
"g.#.Y U { +X7X2X6X6X6X6X6X6X6X6X6X6X6X6X8X6X6X6X6X6X6X6X6X6X6X6X#XX.P I ] jXA.D ",
"h.fX`.^.3X7X6X6X6X6X6X6X6X6X6X6X6X6X6X8X6X6X6X6X6X6X6X6X6X6X6X6X6X7X/.~.&XzXA.D ",
"h.dXaX<X6X6X6X6X6X6X6X6X6X6X6X6X6X6X6X6X6X6X6X6X6X6X6X6X6X6X6X6X6X6X6X6X<XzXA.D ",
"h.dXaX<X5X6X6X6X6X6X6X6X6X6X6X6X8X6X6X6X6X6X6X6X6X6X6X6X6X6X6X6X6X6X6X6X<XzXA.D ",
"h.dXaX<X2X6X6X6X6X6X6X6X6X6X6X6X6X6X6X6X6X6X6X6X6X6X6X6X6X6X6X6X6X6X6X6X<XzXA.D ",
"h.dXaX<X2X6X6X6X6X6X6X6X6X6X6X6X6X6X6X6X6X6X6X6X6X6X6X6X6X6X6X6X6X6X6X6X<XzXA.D ",
"h.dXaX<X2X1X6X6X6X6X6X6X6X6X6X6X6X6X6X6X6X6X6X6X6X6X6X6X6X6X6X6X6X6X6X6X<XzXA.D ",
"h.dXaX<X6X2XyX6X6X6X6X_.6X6X6X6X6X6X6X6X6X6X6X6X6X6X6X6X6X6X6X6X6X6X6X6X<XzXA.D ",
"h.dXaX<X6X6X,XuX6X6X6X6X6X6X6X6X6X6X6X6X6X6X6X6X6X6X6X6X6X6X6X6X6X6X6X6X<XzXA.D ",
"h.dXaX<X6X6X6X2X9X6X6X6X6X6X6X8X6X6X6X6X6X6X6X6X6X6X6X6X6X6X6X6X6X6X6X6X<XzXA.D ",
"h.dXaX<X6X6X6X6X5X<X6X6X6X6X8X6X6X6X6X6X6X6X6X6X6X6X6X6X6X6X6X6X6X6X6X6X<XzXA.D ",
"f.sXpX<X<X<X<X<X<X<X<X<X<X<X<X<X<X<X<X<X<X<X<X<X<X<X<X<X<X<X<X<X<X<X<X<X<XlXZ.D ",
"B.nXbXxXcXcXcXcXcXcXcXcXcXcXcXcXcXcXcXcXcXcXcXcXcXcXcXcXcXcXcXcXcXcXcXcXxXmXQ.Z ",
"w.C.V.z.x.x.x.x.x.x.x.x.x.x.x.x.x.x.x.x.x.x.x.x.x.x.x.x.x.x.x.x.x.x.x.x.z.S.e.F ",
"t.9.A A A A A A A A A A A A A A A A A A A A A A A A A A A A A A A A A A A A G H "
};
