/* XPM */
static char *result[] = {
/* columns rows colors chars-per-pixel */
"40 40 188 2 ",
"   c #050506",
".  c #0A0A0B",
"X  c #0B0B0C",
"o  c #0B0C0D",
"O  c #0C0C0D",
"+  c #0F1011",
"@  c #101012",
"#  c #111113",
"$  c #131416",
"%  c #141516",
"&  c #151517",
"*  c #17181A",
"=  c #18191B",
"-  c #1B1C1F",
";  c #1C1D1F",
":  c #1D1E21",
">  c #1E1F22",
",  c #1F2023",
"<  c #202225",
"1  c #212225",
"2  c #26272A",
"3  c #26282B",
"4  c #2A2B2F",
"5  c #2D3841",
"6  c #363D44",
"7  c #537094",
"8  c #537095",
"9  c #547094",
"0  c #547196",
"q  c #547296",
"w  c #5A7498",
"e  c #757983",
"r  c #767A85",
"t  c #797D88",
"y  c #7A7E89",
"u  c #7B7F8A",
"i  c #3893BD",
"p  c #7B808B",
"a  c #7E828E",
"s  c #7F848F",
"d  c #4F99BE",
"f  c #6B84A3",
"g  c #7D8EA8",
"h  c #7A91AD",
"j  c #7B91AD",
"k  c #7D93AF",
"l  c #7E94AF",
"z  c #38A9DE",
"x  c #10A4E5",
"c  c #12A4E5",
"v  c #11A5E7",
"b  c #16A5E5",
"n  c #17A7E7",
"m  c #1AA7E5",
"M  c #17A8E7",
"N  c #1BA8E5",
"B  c #18AAE7",
"V  c #1DA9E5",
"C  c #22A7E3",
"Z  c #20A8E3",
"A  c #27A8E1",
"S  c #27A9E3",
"D  c #23A9E4",
"F  c #20AAE6",
"G  c #22ABE6",
"H  c #24A9E4",
"J  c #26ABE4",
"K  c #2CAAE2",
"L  c #31AAE0",
"P  c #32ABE2",
"I  c #37ABE0",
"U  c #3BADE0",
"Y  c #2BB0E7",
"T  c #34B4E8",
"R  c #3CB7E8",
"E  c #47A5D1",
"W  c #47ACDC",
"Q  c #5EACD4",
"!  c #5FAED6",
"~  c #56AFDA",
"^  c #6AABCE",
"/  c #7DB0CF",
"(  c #64AED5",
")  c #74AFD0",
"_  c #77B0D0",
"`  c #40ADE0",
"'  c #42AFE1",
"]  c #42B9E8",
"[  c #4CBDE8",
"{  c #4EBEE8",
"}  c #4FBEE8",
"|  c #56C1E8",
" . c #5AC2E9",
".. c #5CC3E8",
"X. c #5EC3E8",
"o. c #5EC3E9",
"O. c #65C6E8",
"+. c #6DC9E9",
"@. c #6EC9E9",
"#. c #6FC9E9",
"$. c #70CAE9",
"%. c #78CDE9",
"&. c #7ACDE9",
"*. c #7BCEE9",
"=. c #838793",
"-. c #858995",
";. c #858A96",
":. c #888D99",
">. c #898E9A",
",. c #8A8F9B",
"<. c #8D929F",
"1. c #8E94A0",
"2. c #8C99AF",
"3. c #9196A3",
"4. c #9197A5",
"5. c #9297A4",
"6. c #9298A5",
"7. c #9398A5",
"8. c #979CAA",
"9. c #999FAC",
"0. c #8196B2",
"q. c #8398B2",
"w. c #8298B3",
"e. c #8398B3",
"r. c #8399B3",
"t. c #8499B3",
"y. c #869BB5",
"u. c #879BB5",
"i. c #8D9BB0",
"p. c #8E9AB0",
"a. c #8F9CB1",
"s. c #909CB1",
"d. c #929DB2",
"f. c #95A0B4",
"g. c #A8AEBD",
"h. c #A9AFBD",
"j. c #AAAEBD",
"k. c #A8AEBE",
"l. c #A8AFBE",
"z. c #A9AFBE",
"x. c #A9AFBF",
"c. c #AAAEBE",
"v. c #ABAFBE",
"b. c #AAB0BD",
"n. c #A9B0BE",
"m. c #A8B0BF",
"M. c #ABB0BE",
"N. c #ABB1BE",
"B. c #AAB0BF",
"V. c #ABB0BF",
"C. c #ACB0BE",
"Z. c #ACB1BE",
"A. c #87ADC6",
"S. c #88ADC7",
"D. c #8AADC7",
"F. c #94AFC6",
"G. c #87B2CD",
"H. c #85B2CE",
"J. c #8AB2CB",
"K. c #8FB2CA",
"L. c #88B1CC",
"P. c #96B1C7",
"I. c #9AB0C4",
"U. c #98B0C6",
"Y. c #9CB1C4",
"T. c #9CB1C5",
"R. c #9EB1C4",
"E. c #A1B1C3",
"W. c #A6B2C2",
"Q. c #A1B2C4",
"!. c #A9B1C0",
"~. c #A9B2C0",
"^. c #ADB1C0",
"/. c #AEB3C0",
"(. c #AFB3C0",
"). c #AFB4C0",
"_. c #B0B4C0",
"`. c #B0B4C1",
"'. c #B2B5C1",
"]. c #B2B5C2",
"[. c #B4B6C2",
"{. c #B8B9C4",
"}. c #85D1E9",
"|. c #86D2E9",
" X c #89D3E9",
".X c #97D8E9",
"XX c #98D8E9",
"oX c #99D9EA",
/* pixels */
"u.q.e.0.0.0.0.0.0.0.0.0.0.0.0.0.0.0.0.0.0.0.0.0.0.0.0.0.0.0.0.0.0.0.0.0.0.t.j l ",
"q.b.B.g.g.g.g.g.g.g.g.g.g.g.g.g.g.g.g.g.g.g.g.g.g.g.g.g.g.g.g.g.g.g.g.g.g.(.s.j ",
"r./.^.V.V.V.V.V.V.V.V.V.V.V.V.V.V.V.V.V.V.V.V.V.V.V.V.V.V.V.V.V.V.V.V.V.V.'.d.7 ",
"e.Z.B.g.g.g.g.g.g.g.g.g.g.g.g.g.g.g.g.g.g.g.g.g.g.g.g.g.g.g.z.z.z.g.g.g.g.).s.9 ",
"e.Z.V.g.z.z.z.z.z.z.z.z.z.z.z.z.z.z.z.z.z.z.z.z.z.z.z.z.k.z.z.z.z.z.z.z.g._.s.9 ",
"e.Z.V.g.z.z.z.z.z.z.z.z.z.z.z.z.z.z.z.z.z.z.z.z.z.z.k.k.M.z.z.z.z.z.z.z.g._.s.9 ",
"e.Z.V.g.z.z.z.z.z.z.z.z.z.z.z.z.z.z.z.z.z.z.z.z.z.k.z.G.I x U L.z.z.z.z.g._.s.9 ",
"e.Z.V.g.z.z.z.z.z.z.z.z.z.z.z.z.z.z.z.z.z.z.z.z.l.c.H.N { $.[ v J.k.z.z.g._.s.9 ",
"e.Z.V.g.z.z.z.z.z.z.z.z.z.z.z.z.z.z.z.z.z.z.z.l.k.~.z | XXoXoX} ` C.k.z.g._.s.9 ",
"e.Z.V.g.z.z.z.z.z.z.z.z.z.z.z.z.z.z.z.z.z.z.z.l.v.Q.J *.oXoXoX%.b z.k.z.g._.s.9 ",
"e.Z.V.g.z.z.z.z.z.z.z.z.z.z.z.z.z.z.z.z.z.z.z.l.v.W.L O.XXoXoXo.P z.z.z.g._.s.9 ",
"e.Z.V.g.z.z.z.z.z.z.z.z.z.z.z.z.z.z.z.z.z.z.z.l.g.z.^ G @.|.+.B _ z.z.z.g._.s.9 ",
"e.Z.V.g.z.z.z.z.z.z.z.z.z.z.z.z.z.z.z.z.z.k.n.z.z.-.6 d Z M D ( !.z.z.z.g._.s.9 ",
"e.Z.V.g.z.z.z.z.z.z.z.z.z.z.z.z.z.z.z.k.z.z.z.z.s * 1 7.I.A.Y.l.z.z.z.z.g._.s.9 ",
"e.Z.V.g.z.z.z.z.z.z.z.z.z.z.z.z.z.z.z.z.z.z.z.s & 2 1.z.z.z.z.z.z.z.x.z.g._.s.9 ",
"e.Z.V.g.z.z.z.z.z.z.z.z.z.z.z.k.z.z.z.z.z.z.a % 2 3.z.z.z.z.z.z.z.x.z.z.g._.s.9 ",
"e.Z.V.g.z.z.z.z.z.z.z.z.z.z.z.z.z.z.z.z.z.y + 3 6.z.z.x.x.z.z.z.z.z.z.z.g._.s.9 ",
"e.Z.V.g.z.z.z.z.z.z.z.z.z.z.z.z.z.z.z.z.p O 4 8.z.z.x.z.z.z.z.z.z.z.z.z.g._.s.9 ",
"e.Z.V.g.z.z.z.z.z.z.k.z.z.z.z.z.z.z.z.r . @ 9.z.z.z.z.z.z.z.z.z.z.z.z.z.g._.s.9 ",
"e.Z.V.g.z.z.z.z.z.k.z.z.z.z.x.k.z.z.t   X u z.z.x.z.z.z.z.z.z.z.z.z.z.z.g._.s.9 ",
"e.Z.V.g.z.z.z.z.z.n.z.z.z.z.z.z.z.e   o =.z.z.x.z.z.z.z.z.z.z.z.z.z.z.z.g._.s.9 ",
"e.Z.V.g.z.z.z.z.z.z.z.z.z.z.z.z.y   o =.z.z.x.z.z.z.z.z.z.z.z.z.z.z.z.z.g._.s.9 ",
"e.Z.V.g.z.z.z.z.z.z.z.z.z.z.z.5., # -.z.z.z.z.z.z.z.z.z.z.z.z.z.z.z.z.z.g._.s.9 ",
"e.Z.V.g.z.z.z.z.h.z.z.z.z.z.<.< $ -.z.z.z.x.z.z.z.z.z.z.z.z.z.z.z.z.z.z.g._.s.9 ",
"e.Z.V.g.z.z.z.z.z.z.z.z.z.,.: = ;.z.z.z.z.z.z.z.z.z.z.z.z.z.z.z.z.z.z.z.g._.s.9 ",
"e.Z.V.g.z.k.n.k.z.z.z.z.>.> - >.z.z.z.z.x.z.z.z.z.z.z.z.z.z.z.z.z.z.z.z.g._.s.9 ",
"e.Z.V.g.z.n.z.E.S.F.m.-.- ; :.z.z.z.z.x.z.z.z.z.z.z.z.z.z.z.z.z.z.z.z.z.g._.s.9 ",
"e.Z.V.g.z.l./ A n V E 5 1 ,.z.z.z.z.z.z.z.z.z.z.z.z.z.z.z.z.z.z.z.z.z.z.g._.s.9 ",
"e.Z.V.g.l.K.m X.}.%.Y i 4.z.z.z.x.z.z.z.z.z.z.z.z.z.z.z.z.z.z.z.z.z.z.z.g._.s.9 ",
"e.Z.V.g.k.~ ] XXoXoX&.H U.z.z.z.z.z.z.z.z.z.z.z.z.z.z.z.z.z.z.z.z.z.z.z.g._.s.9 ",
"e.Z.V.g.k.' ..oXoXoX XF D.z.z.z.z.z.z.z.z.z.z.z.z.z.z.z.z.z.z.z.z.z.z.z.g._.s.9 ",
"e.Z.V.g.k.! T .XoXoX#.S R.z.z.z.z.z.z.z.z.z.z.z.z.z.z.z.z.z.z.z.z.z.z.z.g._.s.9 ",
"e.Z.V.g.z.T.C R @. .B Q l.z.z.z.z.z.z.z.z.z.z.z.z.z.z.z.z.z.z.z.z.z.z.z.g._.s.9 ",
"e.Z.V.g.z.z.P.W c K ) !.z.z.z.z.z.z.z.z.z.z.z.z.z.z.z.z.z.z.z.z.z.z.z.z.g._.s.9 ",
"e.Z.V.g.z.z.z.k.j.z.z.z.z.z.z.x.z.z.z.z.z.z.z.z.z.z.z.z.z.z.z.z.z.z.z.z.g._.s.9 ",
"e.Z.V.g.z.z.z.z.l.g.z.z.z.z.x.z.z.z.z.z.z.z.z.z.z.z.z.z.z.z.z.z.z.z.z.z.g._.s.9 ",
"w.N.B.g.g.g.g.g.g.g.g.g.g.g.g.g.g.g.g.g.g.g.g.g.g.g.g.g.g.g.g.g.g.g.g.g.g.).a.9 ",
"y.[.]._.`.`.`.`.`.`.`.`.`.`.`.`.`.`.`.`.`.`.`.`.`.`.`.`.`.`.`.`.`.`.`.`._.{.f.7 ",
"h i.p.2.2.2.2.2.2.2.2.2.2.2.2.2.2.2.2.2.2.2.2.2.2.2.2.2.2.2.2.2.2.2.2.2.2.s.g 0 ",
"k f 8 8 8 8 8 8 8 8 8 8 8 8 8 8 8 8 8 8 8 8 8 8 8 8 8 8 8 8 8 8 8 8 8 8 8 8 q w "
};
