/* XPM */
static char *d5b2e6fb63f040709f06ae0750c33029j6E5yFduMPF96KPh[] = {
/* columns rows colors chars-per-pixel */
"40 40 148 2 ",
"   c black",
".  c #040202",
"X  c #040406",
"o  c #0B0B0E",
"O  c #1A191C",
"+  c #0B5276",
"@  c #595D5F",
"#  c #605D60",
"$  c #5E6164",
"%  c #5F6369",
"&  c #62646C",
"*  c #64676F",
"=  c #66686E",
"-  c #696D75",
";  c #777A84",
":  c #787B85",
">  c #797E87",
",  c #3A83AC",
"<  c #7E838B",
"1  c #6489B8",
"2  c #6589B8",
"3  c #678BB8",
"4  c #668BB9",
"5  c #678BBA",
"6  c #678CB8",
"7  c #668CB9",
"8  c #688CBA",
"9  c #688DBA",
"0  c #6E90BD",
"q  c #7091BE",
"w  c #0089E5",
"e  c #008DE6",
"r  c #008FE6",
"t  c #0096E1",
"y  c #0092E7",
"u  c #0095E6",
"i  c #0099E7",
"p  c #0299E7",
"a  c #009BE6",
"s  c #049FE6",
"d  c #01A1E6",
"f  c #03A4E6",
"g  c #00A1E9",
"h  c #16A1E7",
"j  c #15A9EE",
"k  c #07A9F1",
"l  c #2DAEE7",
"z  c #2FA9E8",
"x  c #36ACE9",
"c  c #2EB4E8",
"v  c #31B1EB",
"b  c #24B3F5",
"n  c #4596C7",
"m  c #42ACE9",
"M  c #41AFEA",
"N  c #46ADE8",
"B  c #42B2E7",
"V  c #4CBFED",
"C  c #54B0E9",
"Z  c #6FBCEA",
"A  c #53C1EC",
"S  c #5BC4EC",
"D  c #62C7E9",
"F  c #6EC0E9",
"G  c #6CC8E8",
"H  c #71C0E9",
"J  c #71CBE8",
"K  c #7DD0E8",
"L  c #80838E",
"P  c #81868F",
"I  c #888B97",
"U  c #888D97",
"Y  c #9CB1D2",
"T  c #AFBFDA",
"R  c #B0C1DC",
"E  c #B2C3DD",
"W  c #B4C3DD",
"Q  c #B6C4DE",
"!  c #89C6EB",
"~  c #95C6EA",
"^  c #92C9EB",
"/  c #9CCCEB",
"(  c #92D8E9",
")  c #9BD9EA",
"_  c #A5CDEB",
"`  c #A9CEEB",
"'  c #A9DFEA",
"]  c #AEDFEA",
"[  c #B5D2EB",
"{  c #B3D1EC",
"}  c #BBD2EC",
"|  c #A4D1F4",
" . c #AEE2EA",
".. c #B1E2EA",
"X. c #B7E4E9",
"o. c #C0D5EB",
"O. c #C8D7EB",
"+. c #CED5E9",
"@. c #CFD6EB",
"#. c #CFD9EC",
"$. c #D8DAE5",
"%. c #D2D9EC",
"&. c #D3D9EC",
"*. c #D2D9ED",
"=. c #D3DAEE",
"-. c #D3DBEE",
";. c #D4DBEC",
":. c #D5DAED",
">. c #D5DDED",
",. c #D8DAED",
"<. c #DCDBED",
"1. c #D8DCEC",
"2. c #D9DFEF",
"3. c #DCDCEC",
"4. c #C2D9F1",
"5. c #C4DEF9",
"6. c #D6DDF0",
"7. c #D7DFF2",
"8. c #D9DEF1",
"9. c #D8DFF2",
"0. c #E0DDED",
"q. c #E2DDED",
"w. c #E5DEED",
"e. c #EADFED",
"r. c #C8EBEA",
"t. c #CEECEA",
"y. c #DBE0F0",
"u. c #DAE2F0",
"i. c #DCE0F0",
"p. c #DFE0F2",
"a. c #DFE7F2",
"s. c #DAE1F4",
"d. c #EBE0ED",
"f. c #ECE0ED",
"g. c #F2E3EC",
"h. c #F4E2EC",
"j. c #F1E4EC",
"k. c #E0E3F2",
"l. c #E6E7F5",
"z. c #E0E8F5",
"x. c #E6EEFB",
"c. c #E5EDFC",
"v. c #E9EEFA",
"b. c #E8EEFD",
"n. c #F5FCFF",
"m. c #F5FDFF",
"M. c #FAFFFF",
"N. c white",
/* pixels */
"0 7 4 4 1 4 1 1 4 1 1 1 1 1 1 1 1 1 1 1 1 1 1 1 1 1 1 1 1 1 1 1 4 4 4 4 1 1 7 0 ",
"4 ;.%.%.%.%.*.*.%.%.*.*.*.:.*.*.:.*.*.:.*.*.:.*.:.:.*.*.:.*.@.:.%.%.%.%.%.8.Q 8 ",
"4 2.>.6.;.;.&.&.%.,.%.6.;.;.;.,.,.;.&.&.;.;.*.6.;.;.;.,.,.;.;.;.;.;.%.-.;.8.Q 5 ",
"4 >.&.%.%.%.%.;.*.*.*.*.*.*.*.*.*.*.*.;.*.*.*.*.*.*.*.*.*.*.*.:.%.;.%.%.%.8.Q 8 ",
"4 ;.,.*.;.6.*.%.%.%.%.*.*.6.%.%.;.;.*.;.6.*.%.%.%.6.%.%.*.*.*.;.%.6.%.6.&.y.Q 6 ",
"4 ,.;.*.%.;.%.%.*.6.;.6.%.;.%.*.;.*.%.%.%.%.*.6.%.>.%.%.<.w.,.*.6.%.%.%.&.y.E 7 ",
"1 ;.*.*.%.*.;.6.%.;.6.%.%.%.%.6.;.:.*.*.*.*.%.;.%.6.;.g.o.! ,.w.#.%.%.%.&.y.Q 6 ",
"4 ;.6.*.%.6.%.*.%.%.*.*.6.;.*.%.*.;.%.6.;.6.%.*.*.%.q.Z e e e { d.%.%.%.&.y.Q 6 ",
"4 ;.;.;.%.6.*.%.;.%.%.%.6.*.%.%.6.%.%.>.6.@.%.*.*.q.~ y D X.c w 3.2.@.%.;.8.Q 8 ",
"1 ;.6.%.*.%.%.%.6.*.6.;.;.%.6.*.%.6.%.%.%.6.%.*.%.*.x B ..) t.i F e.;.%.;.8.R 1 ",
"4 ,.;.6.*.%.6.;.%.%.*.%.%.%.%.%.%.%.%.%.%.%.*.*.;.%.M v ' '  .u Z e.*.6.;.8.Q 7 ",
"4 %.%.*.6.%.*.%.;.%.*.6.*.6.;.%.%.%.%.6.%.%.*.6.%.p.| t V K l i *.>.*.*.:.2.W 4 ",
"4 %.;.%.;.%.%.%.6.*.%.6.*.%.6.*.6.%.%.%.;.%.;.%.;.v.* + j g h _ e.;.6.%.;.u.Q 4 ",
"4 >.;.%.6.;.*.6.%.%.*.%.%.%.%.*.%.6.%.6.%.;.6.@.M.% . I 5._ } w.%.>.*.*.*.2.W 8 ",
"4 >.6.%.*.*.%.;.%.*.%.%.;.%.%.6.6.%.%.%.;.%.+.N.&   P b.,.q.<.%.%.%.*.*.:.2.W 4 ",
"1 %.;.%.%.6.%.%.;.6.6.*.6.*.%.;.%.6.%.%.%.+.N.>   ; n.;.%.*.6.%.%.;.*.;.&.8.Q 8 ",
"4 8.%.*.*.6.;.%.%.*.%.6.;.%.%.%.%.%.6.%.6.n.;   : N.@.%.6.*.%.%.*.%.%.;.%.u.E 7 ",
"4 >.%.*.*.%.6.%.%.*.6.;.6.;.%.%.%.%.%.7.c.<   * N.+.6.;.*.*.%.%.*.*.%.%.%.p.Q 8 ",
"1 &.;.6.%.%.%.%.%.%.%.%.6.*.*.*.@.6.7.c.I X % M.+.%.;.%.*.*.;.%.6.6.%.;.%.6.W 5 ",
"4 >.7.%.%.%.*.*.6.;.%.%.*.*.6.%.6.7.a.< o $ c.6.%.;.%.;.*.6.6.;.;.%.;.%.6.u.R 5 ",
"1 >.&.%.%.%.;.6.%.*.%.%.;.%.;.%.%.c.=   @ a.s.%.%.6.%.%.%.%.;.6.%.>.%.>.&.y.Q 6 ",
"1 &.>.%.%.%.6.%.6.*.%.%.%.;.6.@.M.%   - u.s.%.%.6.;.%.%.%.%.6.%.-.%.%.%.&.y.E 7 ",
"4 >.6.%.*.*.;.%.%.*.;.6.;.%.+.N.&   P b.u.%.%.%.*.*.*.*.;.%.*.*.%.>.%.%.&.y.Q 6 ",
"4 ,.;.%.6.%.6.%.%.*.6.%.%.+.N.:   : n.%.%.%.6.%.%.%.6.%.6.%.%.%.%.>.%.%.&.y.E 8 ",
"4 %.;.%.;.%.*.%.%.%.%.%.;.n.:   > N.@.%.%.%.*.6.%.%.%.6.*.%.%.%.6.%.%.%.%.8.E 7 ",
"4 >.;.%.;.6.%.;.8.3.3.9.b.P   & N.@.%.%.%.%.*.%.6.;.6.;.*.%.6.;.%.%.%.6.&.p.Q 7 ",
"4 >.&.%.;.*.6.<.%.` [ 8.I . & M.+.%.%.%.;.6.;.6.%.*.%.%.%.%.%.6.6.%.6.%.&.y.W 7 ",
"1 &.>.;.6.*.<.O.N p k n O # c.>.%.%.*.*.6.%.%.%.6.*.%.%.%.%.*.*.%.%.%.%.&.y.R 7 ",
"4 8.%.*.*.*.h.z s J S t , $.9.*.>.%.;.6.%.6.*.%.%.*.%.6.;.6.*.*.>.%.%.%.&.y.Q 6 ",
"1 ;.%.*.*.<.` e ( ..] A b 4.,.*.%.;.6.%.6.;.*.%.%.*.6.;.6.%.%.%.%.-.;.6.&.y.E 8 ",
"1 ;.;.6.%.q._ w ..) ] G d [ 8.:.;.%.*.*.%.%.*.6.%.%.%.%.*.6.%.%.-.%.%.%.&.y.E 6 ",
"4 ;.6.%.%.;.g.y f r.( i C ;.;.%.6.%.%.%.%.%.*.%.6.;.%.%.*.%.6.;.%.-.%.&.&.y.Q 8 ",
"4 ;.;.%.6.*.;.g.y e e m 8.<.%.;.;.;.*.*.*.*.*.%.%.6.*.%.*.;.*.;.*.*.*.*.&.y.E 8 ",
"1 ;.;.%.;.%.*.<.e.^ / <.<.%.%.;.*.;.;.6.;.*.6.;.*.;.*.%.;.*.;.*.;.6.;.*.&.y.E 7 ",
"5 ;.6.6.%.%.%.%.;.w.q.;.*.*.;.6.;.*.;.;.%.6.*.*.;.*.;.6.*.%.*.:.*.*.*.;.%.y.Q 8 ",
"5 ;.%.*.%.6.;.;.;.*.*.*.%.6.%.%.*.;.;.%.*.;.%.%.6.%.%.*.:.*.:.6.*.6.;.*.&.3.Q 8 ",
"4 ;.;.%.%.6.%.%.;.;.;.;.*.;.%.%.:.*.:.:.%.;.%.;.*.*.;.*.*.*.,.;.*.*.&.;.;.8.Q 8 ",
"4 k.p.8.8.8.p.8.8.8.8.8.8.8.8.8.p.8.8.8.9.p.8.8.8.8.8.8.8.8.8.8.8.8.8.8.8.l.Q 8 ",
"4 W W T T T T T T T T T T T T T T T T T T T T T T T T T T T T T T T T T T Q Y 8 ",
"9 8 4 4 5 5 5 5 8 5 5 5 8 8 8 8 1 8 8 8 8 8 8 8 4 8 8 8 8 8 8 8 5 5 8 5 8 8 8 q "
};
