/* XPM */
static char *result[] = {
/* columns rows colors chars-per-pixel */
"40 40 195 2 ",
"   c #070707",
".  c #0C0D0E",
"X  c #0D0E0F",
"o  c #0E0F10",
"O  c #0F0F11",
"+  c #131415",
"@  c #141516",
"#  c #151517",
"$  c #18191B",
"%  c #191A1C",
"&  c #1A1B1D",
"*  c #1D1E21",
"=  c #1E1F21",
"-  c #222326",
";  c #232427",
":  c #242629",
">  c #25262A",
",  c #27282C",
"<  c #292A2E",
"1  c #292B2E",
"2  c #2F3135",
"3  c #303236",
"4  c #34363B",
"5  c #37434C",
"6  c #434A52",
"7  c #678BB8",
"8  c #678BBA",
"9  c #678CB8",
"0  c #688CB9",
"q  c #698DBB",
"w  c #698EBB",
"e  c #7091BE",
"r  c #12A7E8",
"t  c #13A7E8",
"y  c #14A7E8",
"u  c #19A8E8",
"i  c #19A9E8",
"p  c #19AAE8",
"a  c #19ABE8",
"s  c #1DAAE8",
"d  c #1EABE8",
"f  c #21ACE8",
"g  c #21ACE9",
"h  c #23ADE8",
"j  c #25ADE9",
"k  c #27ADE9",
"l  c #28ADE8",
"z  c #28AEEA",
"x  c #2EAFE9",
"c  c #2DAFEA",
"v  c #2BB0E7",
"b  c #2BB0E9",
"n  c #33B1EA",
"m  c #34B4E8",
"M  c #39B3EA",
"N  c #3AB3EB",
"B  c #3CB7E8",
"V  c #429DC9",
"C  c #5FA9CF",
"Z  c #40B4EA",
"A  c #42B4EA",
"S  c #45B6EB",
"D  c #4BB7EB",
"F  c #42B9E8",
"G  c #4CB9EB",
"H  c #4CBDE8",
"J  c #4EBEE8",
"K  c #4FBEE8",
"L  c #55B4E1",
"P  c #54B9EA",
"I  c #65BFEB",
"U  c #56C1E8",
"Y  c #5AC2E9",
"T  c #5CC3E8",
"R  c #5EC3E8",
"E  c #5EC3E9",
"W  c #65C6E8",
"Q  c #6DC9E9",
"!  c #6EC9E9",
"~  c #6FC9E9",
"^  c #7FC1E6",
"/  c #73C2EB",
"(  c #70C2EC",
")  c #79C3EC",
"_  c #70CAE9",
"`  c #78CDE9",
"'  c #7ACDE9",
"]  c #7BCEE9",
"[  c #9296A4",
"{  c #9398A5",
"}  c #979CA9",
"|  c #989DAB",
" . c #999EAC",
".. c #9A9FAD",
"X. c #9DA2B1",
"o. c #9FA4B2",
"O. c #A3A8B7",
"+. c #A5ABBA",
"@. c #A6ACBB",
"#. c #AAAFBF",
"$. c #84A2C7",
"%. c #9AB3D1",
"&. c #9CB1D2",
"*. c #9CB3D2",
"=. c #9EB6D4",
"-. c #9FB7D4",
";. c #ABB1C0",
":. c #ACB2C1",
">. c #B0B6C6",
",. c #B2B8C8",
"<. c #B4BBCC",
"1. c #B5BBCC",
"2. c #B6BCCC",
"3. c #B7BCCD",
"4. c #B7BDCD",
"5. c #A7BBD6",
"6. c #A7BCD7",
"7. c #A9BDD7",
"8. c #A9BED8",
"9. c #A9BFD8",
"0. c #ABBFD8",
"q. c #ACBFD9",
"w. c #AEBFDA",
"e. c #AFBFDA",
"r. c #AEC1DA",
"t. c #AEC2DA",
"y. c #BDC3D4",
"u. c #BFC5D7",
"i. c #B1C0DC",
"p. c #B0C1DC",
"a. c #B2C3DD",
"s. c #B3C3DD",
"d. c #B4C3DD",
"f. c #B6C4DE",
"g. c #8CC8EB",
"h. c #90CAEC",
"j. c #97CBED",
"k. c #85D1E9",
"l. c #86D2E9",
"z. c #89D3E9",
"x. c #97D8E9",
"c. c #98D8E9",
"v. c #99D9EA",
"b. c #A0CEED",
"n. c #A3CFED",
"m. c #A8CFEC",
"M. c #AACFED",
"N. c #ACCFED",
"B. c #BAC8E0",
"V. c #A6D0ED",
"C. c #A8D0ED",
"Z. c #AFD2ED",
"A. c #B7D3ED",
"S. c #B8D4ED",
"D. c #BED5EC",
"F. c #BCD5EE",
"G. c #C0D6EC",
"H. c #C0D6ED",
"J. c #C3D7ED",
"K. c #C5D8ED",
"L. c #C7D8ED",
"P. c #CDDAED",
"I. c #D1D9EC",
"U. c #D1D9ED",
"Y. c #D2D9EC",
"T. c #D2D9ED",
"R. c #D1DAEC",
"E. c #D1DBED",
"W. c #D3DAEC",
"Q. c #D2DAED",
"!. c #D3DAED",
"~. c #D3DBED",
"^. c #D1DAEE",
"/. c #D3DAEE",
"(. c #D4D9EC",
"). c #D4D9ED",
"_. c #D4DBEC",
"`. c #D5DAED",
"'. c #D5DBED",
"]. c #D6DBED",
"[. c #D4DBEE",
"{. c #D5DBEE",
"}. c #D5DDED",
"|. c #D6DDED",
" X c #D9DFEF",
".X c #DADFEF",
"XX c #D8DDF0",
"oX c #DAE0F0",
"OX c #DBE0F0",
"+X c #DCE0F0",
"@X c #DCE0F1",
"#X c #DEE2F1",
"$X c #DEE2F2",
"%X c #E0E3F2",
"&X c #E6E7F5",
/* pixels */
"r.9.7.5.6.6.6.6.6.6.6.6.6.6.6.6.6.6.6.6.6.6.6.6.6.6.6.6.6.6.6.6.6.6.6.6.5.q.*.-.",
"8._.[.I.Y.Y.Y.Y.Y.Y.Y.Y.Y.Y.Y.Y.Y.Y.Y.Y.Y.Y.Y.Y.Y.Y.Y.Y.Y.Y.Y.Y.Y.Y.Y.Y.I..Xs.*.",
"0. XXX{.{.{.{.{.{.{.{.{.{.{.{.{.{.{.{.{.{.{.{.{.{.{.{.{.{.{.{.{.{.{.{.{.{.#Xf.9 ",
"8.|.[.Y.Y.Y.Y.Y.Y.Y.Y.Y.Y.Y.Y.Y.Y.Y.Y.Y.Y.Y.Y.Y.Y.Y.Y.Y.Y.Y.!.!.!.Y.Y.Y.Y.oXs.0 ",
"8.|.{.Y.!.!.!.!.!.!.!.!.!.!.!.!.!.!.!.!.!.!.!.!.!.!.!.!.T.!.!.!.!.!.!.!.Y.OXs.0 ",
"8.|.{.Y.!.!.!.!.!.!.!.!.!.!.!.!.!.!.!.!.!.!.!.!.!.!.T.U.'.!.!.!.!.!.!.!.Y.OXs.0 ",
"8.|.{.Y.!.!.!.!.!.!.!.!.!.!.!.!.!.!.!.!.!.!.!.!.!.T.!.n.Z t S V.!.!.!.!.Y.OXs.0 ",
"8.|.{.Y.!.!.!.!.!.!.!.!.!.!.!.!.!.!.!.!.!.!.!.!.Q.).b.d J _ H r C.U.!.!.Y.OXs.0 ",
"8.|.{.Y.!.!.!.!.!.!.!.!.!.!.!.!.!.!.!.!.!.!.!.Q.T.E.A U c.v.v.K D ].T.!.Y.OXs.0 ",
"8.|.{.Y.!.!.!.!.!.!.!.!.!.!.!.!.!.!.!.!.!.!.!.Q.`.K.b ] v.v.v.` u !.U.!.Y.OXs.0 ",
"8.|.{.Y.!.!.!.!.!.!.!.!.!.!.!.!.!.!.!.!.!.!.!.Q.`.P.M W c.v.v.E N !.!.!.Y.OXs.0 ",
"8.|.{.Y.!.!.!.!.!.!.!.!.!.!.!.!.!.!.!.!.!.!.!.Q.Y.!.^ h ! l.Q a h.!.!.!.Y.OXs.0 ",
"8.|.{.Y.!.!.!.!.!.!.!.!.!.!.!.!.!.!.!.!.!.T.~.!.!.+.6 C j p z ) ^.!.!.!.Y.OXs.0 ",
"8.|.{.Y.!.!.!.!.!.!.!.!.!.!.!.!.!.!.!.T.!.!.!.!.o.* 1 3.D.m.G.Q.!.!.!.!.Y.OXs.0 ",
"8.|.{.Y.!.!.!.!.!.!.!.!.!.!.!.!.!.!.!.!.!.!.!.o.& 2 ,.!.!.!.!.!.!.!./.!.Y.OXs.0 ",
"8.|.{.Y.!.!.!.!.!.!.!.!.!.!.!.T.!.!.!.!.!.!.X.% 2 1.!.!.!.!.!.!.!./.!.!.Y.OXs.0 ",
"8.|.{.Y.!.!.!.!.!.!.!.!.!.!.!.!.!.!.!.!.!.| + 3 4.!.!././.!.!.!.!.!.!.!.Y.OXs.0 ",
"8.|.{.Y.!.!.!.!.!.!.!.!.!.!.!.!.!.!.!.!...O 4 y.!.!./.!.!.!.!.!.!.!.!.!.Y.OXs.0 ",
"8.|.{.Y.!.!.!.!.!.!.T.!.!.!.!.!.!.!.!.{ . @ u.!.!.!.!.!.!.!.!.!.!.!.!.!.Y.OXs.0 ",
"8.|.{.Y.!.!.!.!.!.T.!.!.!.!./.T.!.!.}   X  .!.!./.!.!.!.!.!.!.!.!.!.!.!.Y.OXs.0 ",
"8.|.{.Y.!.!.!.!.!.~.!.!.!.!.!.!.!.[   o O.!.!./.!.!.!.!.!.!.!.!.!.!.!.!.Y.OXs.0 ",
"8.|.{.Y.!.!.!.!.!.!.!.!.!.!.!.!.|   o O.!.!./.!.!.!.!.!.!.!.!.!.!.!.!.!.Y.OXs.0 ",
"8.|.{.Y.!.!.!.!.!.!.!.!.!.!.!.2., # +.!.!.!.!.!.!.!.!.!.!.!.!.!.!.!.!.!.Y.OXs.0 ",
"8.|.{.Y.!.!.!.!.W.!.!.!.!.!.>.< $ +.!.!.!./.!.!.!.!.!.!.!.!.!.!.!.!.!.!.Y.OXs.0 ",
"8.|.{.Y.!.!.!.!.!.!.!.!.!.:.: = @.!.!.!.!.!.!.!.!.!.!.!.!.!.!.!.!.!.!.!.Y.OXs.0 ",
"8.|.{.Y.!.T.~.T.!.!.!.!.;.> - ;.!.!.!.!./.!.!.!.!.!.!.!.!.!.!.!.!.!.!.!.Y.OXs.0 ",
"8.|.{.Y.!.~.!.L.M.A.R.+.- ; #.!.!.!.!./.!.!.!.!.!.!.!.!.!.!.!.!.!.!.!.!.Y.OXs.0 ",
"8.|.{.Y.!.Q.j.x i g L 5 1 :.!.!.!.!.!.!.!.!.!.!.!.!.!.!.!.!.!.!.!.!.!.!.Y.OXs.0 ",
"8.|.{.Y.Q.Z.s R k.` v V <.!.!.!./.!.!.!.!.!.!.!.!.!.!.!.!.!.!.!.!.!.!.!.Y.OXs.0 ",
"8.|.{.Y.T.I F c.v.v.' l F.!.!.!.!.!.!.!.!.!.!.!.!.!.!.!.!.!.!.!.!.!.!.!.Y.OXs.0 ",
"8.|.{.Y.T.G T v.v.v.z.f N.!.!.!.!.!.!.!.!.!.!.!.!.!.!.!.!.!.!.!.!.!.!.!.Y.OXs.0 ",
"8.|.{.Y.T./ m x.v.v.~ c J.!.!.!.!.!.!.!.!.!.!.!.!.!.!.!.!.!.!.!.!.!.!.!.Y.OXs.0 ",
"8.|.{.Y.!.H.k B ! Y a ( Q.!.!.!.!.!.!.!.!.!.!.!.!.!.!.!.!.!.!.!.!.!.!.!.Y.OXs.0 ",
"8.|.{.Y.!.!.S.P y n g.^.!.!.!.!.!.!.!.!.!.!.!.!.!.!.!.!.!.!.!.!.!.!.!.!.Y.OXs.0 ",
"8.|.{.Y.!.!.!.T.(.!.!.!.!.!.!./.!.!.!.!.!.!.!.!.!.!.!.!.!.!.!.!.!.!.!.!.Y.OXs.0 ",
"8.|.{.Y.!.!.!.!.Q.Y.!.!.!.!./.!.!.!.!.!.!.!.!.!.!.!.!.!.!.!.!.!.!.!.!.!.Y.OXs.0 ",
"7.}.[.Y.Y.Y.Y.Y.Y.Y.Y.Y.Y.Y.Y.Y.Y.Y.Y.Y.Y.Y.Y.Y.Y.Y.Y.Y.Y.Y.Y.Y.Y.Y.Y.Y.Y.oXa.0 ",
"t.%X$X+X@X@X@X@X@X@X@X@X@X@X@X@X@X@X@X@X@X@X@X@X@X@X@X@X@X@X@X@X@X@X@X@X+X&XB.7 ",
"%.p.i.w.e.e.e.e.e.e.e.e.e.e.e.e.e.e.e.e.e.e.e.e.e.e.e.e.e.e.e.e.e.e.e.e.w.d.&.q ",
"=.$.8 8 8 8 8 8 8 8 8 8 8 8 8 8 8 8 8 8 8 8 8 8 8 8 8 8 8 8 8 8 8 8 8 8 8 8 w e "
};
