/* XPM */
static char *result[] = {
/* columns rows colors chars-per-pixel */
"40 40 228 2 ",
"   c #4A393E",
".  c #1E4B5D",
"X  c #264555",
"o  c #30586C",
"O  c #336274",
"+  c #464147",
"@  c #44454B",
"#  c #44464C",
"$  c #54565D",
"%  c #59575D",
"&  c #66464B",
"*  c #575960",
"=  c #575A61",
"-  c #55747C",
";  c #802225",
":  c #FE0101",
">  c #FF0101",
",  c #FE0202",
"<  c #FD0304",
"1  c #FD0505",
"2  c #FC0707",
"3  c #F10B0F",
"4  c #F60B0D",
"5  c #F60B0E",
"6  c #F10C0F",
"7  c #FB0809",
"8  c #FA0A0B",
"9  c #FA0B0C",
"0  c #F90C0D",
"q  c #F80D0E",
"w  c #F80E0F",
"e  c #F71012",
"r  c #F71113",
"t  c #F51517",
"y  c #F3181A",
"u  c #F3191B",
"i  c #F21B1D",
"p  c #EE2225",
"a  c #EA2B2E",
"s  c #E82F33",
"d  c #E5363A",
"f  c #E13D42",
"g  c #BC6877",
"h  c #D94D53",
"j  c #D6535A",
"k  c #D4575F",
"l  c #CF6169",
"z  c #CD666E",
"x  c #CD666F",
"c  c #C46A77",
"v  c #CB6972",
"b  c #CB6A73",
"n  c #CC6871",
"m  c #C7717B",
"M  c #C6737D",
"N  c #C6747E",
"B  c #537094",
"V  c #537095",
"C  c #547094",
"Z  c #547196",
"A  c #547296",
"S  c #5A7498",
"D  c #7A6589",
"F  c #7C6588",
"G  c #BD7F8B",
"H  c #C47983",
"J  c #C37984",
"K  c #C37A85",
"L  c #64858E",
"P  c #6B84A3",
"I  c #7D8EA8",
"U  c #7A91AD",
"Y  c #7B91AD",
"T  c #7D93AF",
"R  c #7E94AF",
"E  c #7F99B6",
"W  c #359ACF",
"Q  c #399ACE",
"!  c #3DA5D8",
"~  c #35A9DE",
"^  c #3EA9DC",
"/  c #1AAAE7",
"(  c #1BAAE7",
")  c #1FA9E5",
"_  c #1EAAE6",
"`  c #1CABE8",
"'  c #21AAE5",
"]  c #22AAE5",
"[  c #25AAE4",
"{  c #25ABE4",
"}  c #24ADE6",
"|  c #24ADE7",
" . c #2AADE6",
".. c #37ABE0",
"X. c #32ACE2",
"o. c #2CB1E7",
"O. c #31B2E7",
"+. c #37B0E5",
"@. c #34B4E7",
"#. c #3CB6E7",
"$. c #3BB6E8",
"%. c #6F9FC2",
"&. c #51A3CE",
"*. c #4BA9D6",
"=. c #4BACDA",
"-. c #4CACDA",
";. c #49ACDC",
":. c #48AEDE",
">. c #53ADD8",
",. c #5EB0D9",
"<. c #76AFCF",
"1. c #7FADC9",
"2. c #79B0CF",
"3. c #73AFD1",
"4. c #74AFD0",
"5. c #73B0D2",
"6. c #79B2D2",
"7. c #43B0E0",
"8. c #45B0E1",
"9. c #50BEE8",
"0. c #5BC2E9",
"q. c #66C6E8",
"w. c #79CDE9",
"e. c #7ACDE9",
"r. c #8D919C",
"t. c #8E929D",
"y. c #BE8591",
"u. c #B7939F",
"i. c #8C99AF",
"p. c #9196A1",
"a. c #9297A2",
"s. c #8196B2",
"d. c #8398B2",
"f. c #8298B3",
"g. c #8398B3",
"h. c #8399B3",
"j. c #8499B3",
"k. c #869BB5",
"l. c #879BB5",
"z. c #8D9BB0",
"x. c #8E9AB0",
"c. c #8F9CB1",
"v. c #909CB1",
"b. c #929DB2",
"n. c #B792A0",
"m. c #B694A0",
"M. c #B596A2",
"N. c #B39BA8",
"B. c #B19EAB",
"V. c #B19FAC",
"C. c #B19FAD",
"Z. c #A09FB3",
"A. c #95A0B4",
"S. c #97A9BE",
"D. c #B0A0AE",
"F. c #AAA1B2",
"G. c #AFA2B0",
"H. c #AFA3B1",
"J. c #AEA5B4",
"K. c #ADA6B4",
"L. c #ADA7B5",
"P. c #ACA8B7",
"I. c #ACA9B7",
"U. c #AAADBC",
"Y. c #A8AEBD",
"T. c #A9AEBD",
"R. c #A9AFBD",
"E. c #AAAEBD",
"W. c #A8AEBE",
"Q. c #A8AFBE",
"!. c #A9AFBE",
"~. c #A9AFBF",
"^. c #AAAEBE",
"/. c #AAAFBE",
"(. c #ABAFBE",
"). c #ACAFBD",
"_. c #AAB0BD",
"`. c #A9B0BE",
"'. c #A9B0BF",
"]. c #AAB0BE",
"[. c #ABB0BE",
"{. c #ABB1BE",
"}. c #AAB0BF",
"|. c #ABB0BF",
" X c #ACB0BE",
".X c #ACB1BE",
"XX c #ACB2BF",
"oX c #C0818B",
"OX c #C1818B",
"+X c #8DAFC7",
"@X c #90ADC4",
"#X c #91AFC6",
"$X c #86B0CA",
"%X c #86B1CB",
"&X c #8AB0CA",
"*X c #97B0C5",
"=X c #9DB1C5",
"-X c #9EB0C4",
";X c #9FB1C4",
":X c #91B1C8",
">X c #93B2C8",
",X c #8CBCD3",
"<X c #92BDD2",
"1X c #A3AFC0",
"2X c #A2B0C2",
"3X c #A5B0C0",
"4X c #A6B0C0",
"5X c #A7B0C0",
"6X c #A8B0C0",
"7X c #AAB1C0",
"8X c #ADB1C0",
"9X c #AEB3C0",
"0X c #AFB3C0",
"qX c #AFB4C0",
"wX c #A4B7C8",
"eX c #B0B4C0",
"rX c #B1B5C0",
"tX c #B0B4C1",
"yX c #B2B5C1",
"uX c #B2B5C2",
"iX c #B4B6C2",
"pX c #B8B9C4",
"aX c #A2C4D4",
"sX c #88D2E9",
"dX c #97D6E7",
"fX c #96D7E9",
"gX c #98D7E8",
"hX c #98D8EA",
/* pixels */
"l.d.g.s.s.s.s.s.s.s.s.s.s.s.s.s.s.s.s.s.s.s.s.s.s.s.s.s.s.s.s.s.s.s.s.s.s.j.Y R ",
"d._.}.Y.Y.Y.Y.Y.Y.Y.Y.Y.Y.Y.Y.Y.Y.Y.Y.Y.Y.Y.Y.Y.Y.Y.Y.Y.Y.Y.Y.Y.Y.Y.Y.Y.Y.0Xv.Y ",
"h.9X8X|.|.|.|.|.|.|.|.|.|.|.|.|.|.|.|.|.|.|.|.|.|.|.|.|.|.|.|.|.|.|.|.|.|.yXb.B ",
"g..X}.Y.Y.Y.Y.Y.Y.Y.Y.Y.Y.Y.Y.Y.Y.Y.Y.Y.Y.Y.Y.Y.Y.Y.Y.Y.Y.Y.!.!.!.Y.Y.Y.Y.qXv.C ",
"g..X|.Y.!.!.!.!.!.!.!.!.!.!.!.!.!.!.!.!.!.!.!.!.!.!.!.!.W.!.!.!.!.!.!.!.Y.eXv.C ",
"g..X|.Y.!.!.!.!.!.!.!.!.!.!.!.!.!.!.!.!.!.!.!.!.!.!.W.W.[.!.!.!.!.!.!.!.Y.eXv.C ",
"g..X|.Y.!.!.!.!.!.!.!.!.!.!.!.!.!.!.!.!.!.!.!.!.!.W./.(.!.!.!.!.!.!.!.!.Y.eXv.C ",
"g..X|.Y.!.!.!.!.!.!.!.!.!.!.!.!.!.!.!.!.!.!.!.!.Q.^./.!.!.!.!.!.!.W.!.!.Y.eXv.C ",
"g..X|.Y.!.!.!.!.!.!.!.!.!.!.!.!.!.!.!.!.!.!.!.Q.W.].!.!.!.!.!.!.!. XW.!.Y.eXv.C ",
"g..X|.Y.!.!.!.!.!.!.!.!.!.!.!.!.!.!.!.!.!.!.!.Q.(.!.!.!.!.!.!.!.!.!.W.!.Y.eXv.C ",
"g..X|.Y.!.!.!.!.!.!.!.!.!.!.!.!.!.!.!.!.!.!.!.Q.(.!.!.!.T.!.!.!.!.!.!.!.Y.eXv.C ",
"g..X|.Y.!.!.!.!.!.!.!.!.!.!.!.!.!.!.!.!.!.!.!.Q.Y.!.!.!.!.`.!.!.!.!.!.!.Y.eXv.C ",
"g..Xt.p.!.!.!.!.!.!.!.!.!.!.!.!.!.3X4.*.2.1X`.!.!.!.!.!.!.!.!.!.!.!.r.a.Y.eXv.C ",
"g..X# * !.!.I.u.x M !.!.!.!.!.!.4X=.@.0.O.;.!.!.!.!.!.P.k H C.U.!.!.# $ Y.eXv.C ",
"g..X# & m j p 7 1 s J N n n v n g F oXOXG D c v v b J b e < r d l K + = Y.eXv.C ",
"g..X# ; u r 2 > < r y w 0 0 0 0 5 6 q w w 3 4 0 0 0 e u 9 : , 8 t p   = Y.eXv.C ",
"g..X# % J.G.y.h i f H.C.B.B.V.C.Z.Q <XaX,XW F.V.V.V.V.n.t a z M.K.L.@ = Y.eXv.C ",
"g..X# * !.!.!.E.D.N.!.!.!.!.!.!.'.3.) o.' 5.!.!.!.!.~.E.m.L.!.!.!.!.# = Y.eXv.C ",
"g..X# * !.!.!.!.!.!.W.!.!.!.!.!.!.!.=X1.;X!.!.!.!.!.!.!.!.!.!.!.!.!.# = Y.eXv.C ",
"g..X# * !.!.!.!.!.W.!.!.!.!.~.W.!.!.!.!.!.!.!.!.~.!.!.!.!.!.!.!.!.!.# = Y.eXv.C ",
"g.>XX o %X}.!.!.!.`.!.!.!.!.!.!.!.!.!.!.!.!.!.~.!.!.!.!.!.!.!.!.!.:XX o $XrXv.C ",
"%.{ . O | <.!.!.!.!.!.!.!.!.!.!.!.!.!.!.!.!.~.!.!.!.!.!.!.!.!.!.&X[ . O } 6.v.C ",
"! q.- L e.X.!.!.!.!.!.!.!.!.!.!.!.!.!.!.!.!.!.!.!.!.!.!.!.!.!.!.7.q.- L e. .v.C ",
"~ w.dXgXsX] !.!.R.!.!.!.!.!.!.!.!.!.!.!.!.~.!.!.!.!.!.!.!.!.!.!.+.w.dXgXsX/ v.C ",
"&.#.fXhX9.-.!.!.!.!.!.!.!.!.!.!.!.!.!.!.!.!.!.!.!.!.!.!.!.!.!.!.,.$.fXhX9.8.v.C ",
"E >.) _ ^ -X`.W.!.!.!.!.!.!.!.!.!.!.!.!.~.!.!.!.!.!.!.!.!.!.!.!.2X:.( ` ..wXv.C ",
"g.XX*X@X6X`.!.!.!.!.!.!.!.!.!.!.!.!.!.~.!.!.!.!.!.!.!.!.!.!.!.!.!.7X#X+X5XeXv.C ",
"g..X|.Y.!.!.!.!.!.!.!.!.!.!.!.!.!.!.!.!.!.!.!.!.!.!.!.!.!.!.!.!.!.!.!.!.Y.eXv.C ",
"g..X|.Y.Q.!.!.!.!.!.!.!.!.!.!.!.~.!.!.!.!.!.!.!.!.!.!.!.!.!.!.!.!.!.!.!.Y.eXv.C ",
"g..X|.Y.W.!.!.!.!.!.!.!.!.!.!.!.!.!.!.!.!.!.!.!.!.!.!.!.!.!.!.!.!.!.!.!.Y.eXv.C ",
"g..X|.Y.W.!.!.!.!.!.!.!.!.!.!.!.!.!.!.!.!.!.!.!.!.!.!.!.!.!.!.!.!.!.!.!.Y.eXv.C ",
"g..X|.Y.W.T.!.!.!.!.!.!.!.!.!.!.!.!.!.!.!.!.!.!.!.!.!.!.!.!.!.!.!.!.!.!.Y.eXv.C ",
"g..X|.Y.!.W.).!.!.!.!.S.!.!.!.!.!.!.!.!.!.!.!.!.!.!.!.!.!.!.!.!.!.!.!.!.Y.eXv.C ",
"g..X|.Y.!.!.W.).!.!.!.!.!.!.!.!.!.!.!.!.!.!.!.!.!.!.!.!.!.!.!.!.!.!.!.!.Y.eXv.C ",
"g..X|.Y.!.!.!.W.E.!.!.!.!.!.!.~.!.!.!.!.!.!.!.!.!.!.!.!.!.!.!.!.!.!.!.!.Y.eXv.C ",
"g..X|.Y.!.!.!.!.Q.Y.!.!.!.!.~.!.!.!.!.!.!.!.!.!.!.!.!.!.!.!.!.!.!.!.!.!.Y.eXv.C ",
"f.{.}.Y.Y.Y.Y.Y.Y.Y.Y.Y.Y.Y.Y.Y.Y.Y.Y.Y.Y.Y.Y.Y.Y.Y.Y.Y.Y.Y.Y.Y.Y.Y.Y.Y.Y.qXc.C ",
"k.iXuXeXtXtXtXtXtXtXtXtXtXtXtXtXtXtXtXtXtXtXtXtXtXtXtXtXtXtXtXtXtXtXtXtXeXpXA.B ",
"U z.x.i.i.i.i.i.i.i.i.i.i.i.i.i.i.i.i.i.i.i.i.i.i.i.i.i.i.i.i.i.i.i.i.i.i.v.I Z ",
"T P V V V V V V V V V V V V V V V V V V V V V V V V V V V V V V V V V V V V A S "
};
