/* XPM */
static char *a3889b36a08b49dfbf1f6fe0daf7ffdfwmgkwLQXUorOFfZY[] = {
/* columns rows colors chars-per-pixel */
"40 40 131 2 ",
"   c #070707",
".  c #0A0A0A",
"X  c #0F1010",
"o  c #141414",
"O  c #1B1B1C",
"+  c #232324",
"@  c #2A2B2C",
"#  c #2C3031",
"$  c #333436",
"%  c #3A3B3C",
"&  c #3E3E41",
"*  c #424344",
"=  c #454649",
"-  c #494A4C",
";  c #4C4D50",
":  c #535559",
">  c #5B5B5D",
",  c #5E5F62",
"<  c #5E6064",
"1  c #5D6D77",
"2  c #64666B",
"3  c #72757D",
"4  c #76787E",
"5  c #777A83",
"6  c #797B82",
"7  c #7C7F88",
"8  c #48829C",
"9  c #6B828F",
"0  c #7E8189",
"q  c #608393",
"w  c #5F91A9",
"e  c #658AB9",
"r  c #688CB9",
"t  c #6E91BD",
"y  c #7091BE",
"u  c #2894C3",
"i  c #3197C3",
"p  c #3BA3CF",
"a  c #0CA6E8",
"s  c #10A7E8",
"d  c #14A9E8",
"f  c #1BABE9",
"g  c #24AFE8",
"h  c #33ADE4",
"j  c #2DB1E8",
"k  c #33B3E9",
"l  c #3BB6E9",
"z  c #3EB8E8",
"x  c #6EB4D4",
"c  c #6DB7DD",
"v  c #43B7EB",
"b  c #4DB7EA",
"n  c #47BBEB",
"m  c #4ABBE9",
"M  c #52BCEB",
"N  c #5ABCEB",
"B  c #56C1E9",
"V  c #58C1E8",
"C  c #65C4EC",
"Z  c #6CC4EB",
"A  c #6CC8E8",
"S  c #75C5ED",
"D  c #7CC5EC",
"F  c #75CCE9",
"G  c #7BCBEC",
"H  c #82848B",
"J  c #848791",
"K  c #8D8F97",
"L  c #8B8E98",
"P  c #8F929B",
"I  c #9599A3",
"U  c #989BA2",
"Y  c #8FA5B6",
"T  c #9FA4B1",
"R  c #A2A5AE",
"E  c #A2A7B3",
"W  c #A6AAB4",
"Q  c #A7ACB8",
"!  c #AEB2BC",
"~  c #93B2C7",
"^  c #87B8D3",
"/  c #9CB1D2",
"(  c #AFB4C2",
")  c #B1B6C2",
"_  c #B4B9C5",
"`  c #B9BCC6",
"'  c #BBBEC8",
"]  c #AFBFDA",
"[  c #ACC1D6",
"{  c #ABCADF",
"}  c #BEC3D0",
"|  c #B3C3DD",
" . c #83C5EB",
".. c #89CAEE",
"X. c #93CCED",
"o. c #99CDED",
"O. c #83D1E9",
"+. c #8BD4E9",
"@. c #93D6E9",
"#. c #98D0EF",
"$. c #96D8E9",
"%. c #99D9EA",
"&. c #8ECFF0",
"*. c #BAC8E0",
"=. c #A3D1EE",
"-. c #ACD2ED",
";. c #B3D5EE",
":. c #BDD6ED",
">. c #BED9EF",
",. c #A1D5F1",
"<. c #C0C5D3",
"1. c #C4C9D6",
"2. c #C6CBDB",
"3. c #C9CFDF",
"4. c #C9CFE0",
"5. c #CCD3E4",
"6. c #C3D6ED",
"7. c #C5D9EE",
"8. c #CDD9ED",
"9. c #D0D6E7",
"0. c #D0D7E9",
"q. c #D3DAED",
"w. c #D4DBED",
"e. c #D6DDED",
"r. c #D9DFEF",
"t. c #DADFEF",
"y. c #DAE0F0",
"u. c #DBE0F0",
"i. c #DCE0F1",
"p. c #DEE2F1",
"a. c #E3E5F4",
/* pixels */
"t e e e e e e e e e e e e e e e e e e e e e e e e e e e e e e e e e e e e e r t ",
"e w.w.q.q.q.0.0.q.q.q.q.q.9.q.q.q.q.q.5.q.q.q.q.0.0.q.q.q.q.q.:.S N X.8.q.t.| r ",
"e r.w.q.q.q.q.q.q.q.q.q.q.q.q.q.q.q.q.q.q.q.q.q.q.q.q.q.q.q.=.f g k d N 8.p.| r ",
"e w.q.q.q.q.q.q.q.q.q.q.q.q.q.q.q.q.q.q.q.q.q.q.q.q.q.q.q.q.j b $.$.O.f ..t.| r ",
"e e.q.q.q.q.q.q.q.q.q.q.q.q.q.q.q.q.q.q.q.q.q.q.q.q.q.q.q.;.d +.%.%.%.m b i.| r ",
"e e.q.q.q.q.q.q.q.q.q.q.q.q.q.q.q.q.q.q.q.q.q.q.q.q.q.q.q.{ d O.%.%.%.m b r.| r ",
"e w.q.q.q.q.q.q.q.q.q.q.q.q.q.q.q.q.q.q.q.q.q.q.q.q.q.} 2 & h l $.$.G s X.a.| r ",
"e w.q.q.q.q.q.q.q.q.q.q.q.q.q.q.q.q.q.q.q.q.q.q.q.<.< X X , ~ f d g a C q.r.| r ",
"e w.w.q.q.q.q.q.q.q.q.q.q.q.q.q.q.q.q.q.q.q.q._ :   O 3 3.q.q.8.8 c -.q.q.t.| r ",
"e w.q.q.q.q.q.q.q.q.q.q.q.q.q.q.q.q.q.q.9.! ; . + 6 2.q.q.q.q.Q   ! w.q.w.i.| r ",
"e w.q.q.q.q.q.q.q.q.q.q.q.q.q.q.q.q.5.R = . @ H 4.q.q.q.q.q.q.3 O q.q.q.q.i.| r ",
"e w.q.q.q.q.q.q.q.q.q.q.q.q.q.q.5.I & . $ K 3.q.q.q.q.q.q.q.q.& - q.q.q.q.t.| r ",
"e w.q.q.q.q.q.q.q.q.q.q.q.q.5.P $ . % U 3.w.q.q.q.q.q.q.q.q.9.X 7 q.q.q.w.y.| r ",
"e e.q.q.q.q.q.q.q.q.q.q.5.H @   = T 9.q.q.q.q.q.q.q.q.q.q.q.R   ` q.q.q.0.y.| r ",
"e e.w.q.q.q.q.q.q.q.3.7 +   - Q 5.q.q.q.q.q.q.q.q.q.q.q.q.q.4 o q.q.q.q.q.y.| r ",
"e w.w.7.C f f C q.6 O   : ) q.q.q.q.q.q.q.q.q.q.q.q.q.q.q.q.& ; q.q.q.q.q.i.| r ",
"r w.8.v g C C g u . * <.q.q.q.q.q.q.q.q.q.q.q.q.q.q.q.q.q.4.o 7 q.q.q.q.q.i.| r ",
"e w.#.f O.%.$.+.s q ' q.q.q.q.q.q.q.q.q.q.q.q.q.q.q.q.q.q.E . ' q.q.q.q.q.i.| r ",
"e w.D j $.%.%.%.g  .q.q.q.q.q.q.q.q.q.q.q.q.q.q.q.q.q.q.q.5 O 4.q.q.q.q.q.r.| e ",
"e r.#.f +.%.%.@.d o.q.q.q.q.q.q.q.q.q.q.q.q.q.q.q.q.w.q.q.& ; q.q.q.q.q.0.i.| e ",
"e w.7.k l F F k k q.q.q.q.q.q.q.q.q.q.q.q.q.q.q.q.q.q.q.1.O 7 q.q.q.q.q.q.i.| r ",
"e w.w.;.n s d u Y q.q.q.q.q.q.q.q.q.q.q.q.q.q.q.q.q.q.q.E   _ q.q.q.q.q.q.i.| r ",
"r w.w.q.8.:.[ # > q.q.q.q.q.q.q.q.q.q.q.q.q.q.q.q.q.q.q.5 + 2.q.q.q.q.q.q.i.| r ",
"e w.q.q.q.q.q.H . _ q.q.q.q.q.q.q.q.q.q.q.q.q.q.q.q.q.q.& ; 0.q.q.q.q.q.q.i.| r ",
"e w.q.q.q.q.q.q.+ = q.w.w.q.q.q.q.q.q.q.q.q.q.q.q.q.q.<.+ 0 q.q.q.q.q.q.q.i.| r ",
"e w.q.q.q.q.q.q.I . U w.q.q.q.q.q.q.q.q.q.q.q.q.q.q.q.E   ) q.q.q.q.q.q.w.y.| r ",
"e w.w.q.q.q.q.q.0.% % 5.q.q.q.q.q.q.q.q.q.q.q.q.q.q.q.2 + 2.q.q.q.q.q.q.q.i.] r ",
"e w.w.w.q.q.q.q.q.W . K q.q.q.q.q.q.q.q.q.q.q.q.q.q.} * ; q.q.q.q.q.q.q.q.i.| r ",
"e q.q.q.q.q.q.q.q.0.: @ 2.q.q.q.q.q.q.q.q.q.q.q.6.Z h p y q.q.q.q.q.q.q.q.i.*.e ",
"e e.q.q.q.q.q.q.q.q.( o 5 q.q.q.q.q.q.q.q.q.q.7.j g M z f %.q.q.q.q.q.q.q.y.] e ",
"e w.q.q.q.q.q.q.q.q.8.2 O <.q.q.q.q.q.q.q.q.q.S g +.%.$.M k 8.q.q.q.q.q.q.w.*.e ",
"e w.q.q.q.q.q.q.q.q.q.( + 9 D  .7.q.q.q.q.q.2.v V %.%.%.O.d :.q.q.q.q.q.q.i.| r ",
"e e.w.w.q.q.q.q.q.q.w.q.x a g f a ,.2.P 5 = o i m $.$.%.G f >.q.q.q.q.q.q.w.*.r ",
"e w.w.w.q.q.q.q.q.q.w.-.d Z $.$.N f 1 . o % 6 ^ d A +.O.g N 8.q.q.q.q.q.q.i.] r ",
"e w.q.q.q.q.q.q.q.q.q.G j $.%.%.@.f w L 2.q.q.q.S f d d b 7.q.q.q.q.q.q.q.y.| r ",
"e w.q.q.q.q.q.q.q.q.q.S k $.%.%.#.f X.q.q.q.q.q.q.:.o.-.8.q.q.q.q.q.q.q.8.i.| r ",
"e w.q.q.q.q.w.w.q.q.q.=.d F $.$.C f :.w.q.q.q.q.q.q.q.q.q.q.q.q.q.q.q.q.q.i.| r ",
"e p.p.t.t.t.t.w.q.q.q.8.S s k j d &.w.w.q.q.q.q.y.y.i.i.i.i.i.i.i.i.i.i.i.a.*.e ",
"t | [ | [ | ] ] ] ] ] ] ] ] ] ] ] ] ] ] | ] ] ] ] ] ] ] ] ] ] ] | ] ] | ] *./ t ",
"t e e r r r e r r r r r e r r r r r e e e e e e e r r r r r e r r e e e e e e y "
};
