/* XPM */
static char *_0aecb39cf6446a2a4e5338773ecd5a7X8Rw8nIKxeJFCeWe[] = {
/* columns rows colors chars-per-pixel */
"40 40 127 2 ",
"   c #060606",
".  c #0C0C0C",
"X  c #131313",
"o  c #1C1C1C",
"O  c #1E1F20",
"+  c #1F2021",
"@  c #232425",
"#  c #2B2B2C",
"$  c #252E31",
"%  c #323334",
"&  c #39393A",
"*  c #30454F",
"=  c #38697E",
"-  c #424244",
";  c #444548",
":  c #4F5155",
">  c #545557",
",  c #53555A",
"<  c #5A5B5C",
"1  c #5E5F61",
"2  c #4C6672",
"3  c #626469",
"4  c #67686C",
"5  c #6A6B6E",
"6  c #6A6C71",
"7  c #72757B",
"8  c #777A81",
"9  c #7C7E85",
"0  c #707E88",
"q  c #3E91B5",
"w  c #7E8188",
"e  c #6B8B9A",
"r  c #6498AF",
"t  c #658AB9",
"y  c #688CB9",
"u  c #6E91BD",
"i  c #799BB0",
"p  c #7091BE",
"a  c #0DA6E8",
"s  c #14A7E6",
"d  c #15A9E8",
"f  c #1BABE9",
"g  c #23AEE8",
"h  c #2AAEE9",
"j  c #2BB1E9",
"k  c #3FB0E4",
"l  c #35B4E9",
"z  c #39B5EB",
"x  c #3FB8E8",
"c  c #559EC1",
"v  c #63B3DB",
"b  c #41B6EA",
"n  c #4DB7EA",
"m  c #43BAE9",
"M  c #4CBCEA",
"N  c #52BDEA",
"B  c #5BBEEC",
"V  c #65BFEB",
"C  c #55C0E8",
"Z  c #5DC2EA",
"A  c #64C5E9",
"S  c #6BC4EB",
"D  c #6DC9E9",
"F  c #72C6EE",
"G  c #7AC7ED",
"H  c #76CCE9",
"J  c #7ECFE9",
"K  c #80848D",
"L  c #838A93",
"P  c #8A8D96",
"I  c #8B8E98",
"U  c #92959C",
"Y  c #9A9DA6",
"T  c #9FA3AE",
"R  c #95A3B3",
"E  c #A1A5B1",
"W  c #A3A8B3",
"Q  c #A7ACBA",
"!  c #AFB3BE",
"~  c #9CB1D2",
"^  c #AFB4C1",
"/  c #B1B6C2",
"(  c #AFBFDA",
")  c #BDC1CD",
"_  c #BFC4D3",
"`  c #B3C3DD",
"'  c #81C4EB",
"]  c #83CBED",
"[  c #8ACAED",
"{  c #95CDED",
"}  c #9BCEED",
"|  c #84D1E9",
" . c #8BD4E9",
".. c #93D7E9",
"X. c #97D8E9",
"o. c #99D9EA",
"O. c #A2CEEC",
"+. c #BAC8E0",
"@. c #A5D1EE",
"#. c #AED4EF",
"$. c #B3D5EE",
"%. c #BAD6ED",
"&. c #BEDAF0",
"*. c #C1C6D3",
"=. c #C5CBDA",
"-. c #CACFDD",
";. c #CCD2E3",
":. c #CDD6EA",
">. c #C5D9EE",
",. c #CDD9ED",
"<. c #D1D7E9",
"1. c #D2D9EC",
"2. c #D3DAED",
"3. c #D4DBEC",
"4. c #D4DBEE",
"5. c #D5DBEE",
"6. c #D0DCEF",
"7. c #D1DDEF",
"8. c #D2DCEE",
"9. c #D6DDED",
"0. c #D9DFEF",
"q. c #DADFEF",
"w. c #C6DCF0",
"e. c #DAE0F0",
"r. c #DBE0F0",
"t. c #DCE0F1",
"y. c #E3E5F4",
/* pixels */
"u t t t t t t t t t t t t t t t t t t t t t t t t t t t t t t t t t t t t t y p ",
"t 3.2.2.2.2.1.:.2.<.<.2.2.<.2.<.<.2.2.<.2.2.:.2.2.<.1.2.<.2.<.<.2.<.<.2.<.0.` y ",
"t e.2.2.2.2.2.2.2.2.2.2.2.2.2.2.2.2.2.@.z d s m &.2.2.2.2.2.2.2.1.4.1.4.4.t.` y ",
"t 3.2.2.2.2.2.2.2.2.2.2.2.2.2.2.2.2.%.h m J J l z ,.2.2.2.2.2.2.4.1.4.1.<.0.` y ",
"t 3.2.2.2.2.2.2.2.2.2.2.2.2.2.2.2.2.[ g ..X.o. .f O.2.2.2.2.2.2.1.4.1.4.1.t.` y ",
"t 3.2.2.2.2.2.2.2.2.2.2.2.2.2.2.2.2.F z X.X.o...g [ 2.2.2.2.2.2.4.1.4.1.1.t.` y ",
"t 3.2.2.2.2.2.2.2.2.2.2.2.2.2.2.<.W r f  .X.X.] d #.2.2.2.2.2.2.1.4.1.3.1.0.` y ",
"t 3.2.2.2.2.2.2.2.2.2.2.2.2.<./ ;   L z g Z Z f B 2.2.2.2.2.2.2.4.1.4.3.2.t.` y ",
"t 3.3.3.2.2.2.2.2.2.2.2.4._ 1   # U <.0 q g h G 6.2.2.2.2.2.2.2.4.1.4.1.1.0.` y ",
"t 3.8.3.2.2.2.2.2.2.2.*.7 X o 9 -.2.4., % -.2.2.2.2.2.2.2.2.2.2.1.4.1.4.1.t.` y ",
"t 0.3.2.2.$.O.%.2.;.L @ X 4 *.2.2.2.*.O 7 4.2.2.2.2.2.2.2.2.2.2.4.1.4.1.1.0.` y ",
"t 3.3.>.B f d f c % . , / <.2.2.2.2.9 o ) 4.2.2.2.2.2.2.2.2.2.2.1.4.1.4.1.t.` y ",
"t 3.3.S g H  .S d = U <.4.2.2.2.2.=.# 3 2.2.2.2.2.2.2.2.2.2.2.2.4.1.4.1.1.t.+.y ",
"t 3.>.j D X.o.X.M k <.3.2.2.2.2.2.U X ^ 2.2.2.2.2.2.2.2.2.2.2.2.1.4.1.4.1.0.( y ",
"t 3.%.f J o.o.o.A h 3.4.2.2.2.2.:.& : <.2.2.2.2.2.2.2.2.2.2.2.2.4.1.4.1.1.0.( t ",
"t 3.,.z N X.o.X.l Z 4.3.2.2.2.2.E . Q 2.2.2.2.2.2.2.2.2.2.2.2.2.1.4.1.6.2.t.+.y ",
"t 3.2.} d b Z h g %.1.4.1.3.1.<.; - <.2.2.2.2.2.2.2.2.2.2.2.2.2.2.2.2.2.1.0.( t ",
"t 3.2.2.@.M h B %.1.4.1.4.1.3.! . Y 2.2.2.2.2.2.2.2.2.2.2.2.2.2.2.2.2.2.1.t.+.y ",
"t 3.2.2.2.2.2.2.2.2.1.4.1.4.1.> % :.2.2.2.2.2.2.2.2.2.2.2.2.2.2.2.2.1.4.1.0.+.y ",
"t 9.2.2.2.2.2.2.2.2.4.1.4.1.*.. I 2.2.2.2.2.2.2.2.2.2.2.2.2.2.2.2.1.4.1.1.t.( y ",
"t 3.8.8.2.2.2.2.2.2.2.2.2.2.6 O ;.<.2.2.2.2.2.2.2.2.2.2.2.2.2.2.1.4.1.4.3.t.` y ",
"t 3.2.3.2.2.2.2.2.2.2.2.3.=.X 9 2.2.2.2.2.2.2.2.2.2.2.2.2.2.2.2.4.1.4.1.4.t.` y ",
"t 3.2.2.2.2.2.2.2.2.2.2.2.8 . ;.<.2.2.2.2.2.2.2.2.2.2.2.2.2.2.2.1.4.1.4.1.0.` y ",
"t 3.2.2.2.2.2.2.2.2.2.2.-.@ 6 2.4.4.2.2.2.2.2.2.2.2.2.2.2.2.2.2.4.1.4.1.1.t.` y ",
"t 3.2.2.2.2.2.2.6.1.4.3.9 . _ 2.2.2.2.2.4.<.<.4.2.2.2.2.2.2.2.2.2.2.2.2.2.0.` y ",
"t 9.2.2.2.2.2.2.>.] n v * 1 :.2.2.2.2.2.4.4.4.2.2.2.2.2.2.2.2.2.2.2.2.2.4.0.` y ",
"t 9.6.3.2.2.2.w.z f m j s i <.2.2.2.2.2.3.2.1.4.2.2.2.2.2.2.2.2.2.2.2.2.1.t.` y ",
"t 3.3.3.2.2.2.F h  .X.X.b b 2.2.2.2.2.2.2.2.4.1.2.2.2.2.2.2.2.2.2.2.2.2.1.0.` t ",
"t 2.2.2.2.2.2.z Z o.o.o.J s R =.2.4.2.2.,.3.2.4.2.2.4.4.2.2.2.2.6.4.4.2.1.0.+.t ",
"t 2.2.2.2.2.2.b C o.o.o.H f $ # 9 W -.2.0.0.3.1.2.2.2.4.2.2.6.{ ' $.4.2.2.0.( t ",
"t 3.2.2.2.2.2.] s | o. .h N 7 #     . # 1 w / 9.2.2.9.4.4.%.h a f a F 6.<.0.+.t ",
"t 3.2.2.2.2.2.2.B a f a z w.2.<.1./ 9 < @ .     % 3 I / :.z z X.X.H s { 4.t.+.y ",
"t 3.3.6.2.2.2.2.2.#.G } ,.<.4.3.2.2.2.2.2.-.T 8 : + X . 2 d | o.o.o.M N 3.t.+.t ",
"t 3.4.3.2.2.2.2.2.2.2.2.4.4.2.2.2.2.2.2.2.2.2.2.4.<./ I e d  .o.o.o.M n <.t.( t ",
"t 3.2.2.2.2.2.2.2.2.2.2.2.2.2.2.2.2.2.2.2.2.2.2.4.4.4.4.6.h N } ..] f ] <.t.+.t ",
"t 3.2.2.2.2.2.2.2.2.2.2.2.2.2.2.2.2.2.2.2.2.2.2.4.4.4.4.4.} f j m f M ,.,.0.` t ",
"t 3.2.2.2.2.2.2.2.2.2.2.2.2.2.2.4.4.2.2.2.4.2.2.2.4.4.4.4.4.$.V N ] ,.2.2.0.+.t ",
"t y.t.e.t.t.e.e.t.t.t.t.t.t.t.t.t.t.t.t.t.t.t.t.t.t.t.t.t.t.t.t.t.t.t.t.t.y.+.y ",
"t ` ` ( ` ( ( ` ( ( ( ( ( ( ( ( ` ( ( ` ( ( ` ( ( ( ( ( ( ( ( ` ( ( ( ( ( +.~ t ",
"u u t t t t t t y t y y t y y t t t t t t t t t t t t t t t t y y y t y t y t p "
};
