/* XPM */
static char *result[] = {
/* columns rows colors chars-per-pixel */
"40 40 103 2 ",
"   c #0C0C0D",
".  c #131314",
"X  c #171719",
"o  c #1A1A1C",
"O  c #1F2022",
"+  c #262628",
"@  c #292A2D",
"#  c #2C2E31",
"$  c #2F3033",
"%  c #303134",
"&  c #35363A",
"*  c #393B3F",
"=  c #2E5769",
"-  c #414347",
";  c #43454A",
":  c #474A4F",
">  c #4B4D52",
",  c #4F5157",
"<  c #54565C",
"1  c #5A5D63",
"2  c #606267",
"3  c #64676F",
"4  c #656870",
"5  c #6D7078",
"6  c #71757D",
"7  c #2C789A",
"8  c #537095",
"9  c #5A7498",
"0  c #777B84",
"q  c #7D8EA8",
"w  c #659CB7",
"e  c #23A3DB",
"r  c #2FA6DD",
"t  c #39A1D2",
"y  c #33A6DC",
"u  c #3BA9DC",
"i  c #13A6E5",
"p  c #1AA7E5",
"a  c #1CA9E6",
"s  c #24A7E1",
"d  c #23ACE6",
"f  c #2DA9E0",
"g  c #20ADE8",
"h  c #3DAEE1",
"j  c #2EB2E7",
"k  c #2AB1E8",
"l  c #34B4E7",
"z  c #34B4E8",
"x  c #49A5CF",
"c  c #43ABDB",
"v  c #49ACDB",
"b  c #53ABD7",
"n  c #5CACD4",
"m  c #4DB0DE",
"M  c #6CA8C7",
"N  c #75ADCE",
"B  c #63ADD3",
"V  c #71AED1",
"C  c #44BAE8",
"Z  c #4BBCE8",
"A  c #52BFE8",
"S  c #57C1E9",
"D  c #65C6E9",
"F  c #69C7E9",
"G  c #72CBE9",
"H  c #7CCFE9",
"J  c #80848E",
"K  c #818690",
"L  c #868A95",
"P  c #898D99",
"I  c #8C99AF",
"U  c #9094A0",
"Y  c #959AA6",
"T  c #979CA9",
"R  c #999EAB",
"E  c #8196B2",
"W  c #8398B3",
"Q  c #909CB1",
"!  c #9BA1AE",
"~  c #8AA8BD",
"^  c #9EA4B1",
"/  c #97A9BE",
"(  c #A0A7B4",
")  c #A4A9B7",
"_  c #A6ACBB",
"`  c #A9AFBE",
"'  c #ABB0BF",
"]  c #8DAEC6",
"[  c #82AFCC",
"{  c #8CAFC9",
"}  c #9EAEC1",
"|  c #94B0C6",
" . c #95B1C8",
".. c #A5AFC0",
"X. c #A3B0C1",
"o. c #AEB3C0",
"O. c #B0B4C1",
"+. c #B8B9C4",
"@. c #84D1E9",
"#. c #8FD5E9",
"$. c #93D7E9",
"%. c #97D8E9",
"&. c #99D9EA",
/* pixels */
"W W W E E E E E E E E E E E E E E E E E E E E E E E E E E E E E E E E E E I q E ",
"W ' ' ' ` _ ` ` ` _ ` _ ` ` o.) ) ..) o.....o..._ ..) ......` ` ) ` ` ` _ o.Q E ",
"W ' ' ' ' ' ' ' o...` o.o.o.o.o...o.o.o.X.{ X.o.o.o.o.o.o.o.o.` ' ' ' ' o.O.Q 8 ",
"W ' ' ' ` ` ` _ _ ` ` ` _ _ _ ..) ....N s p s B ..) ) o...) ` ` ` ` ` ` _ o.Q 8 ",
"W ` o.` ` ` ` ` ` ` ` ` ` ` ` ` o... .a G #.@.a [ ` ` ` _ _ _ o.` ` ` ` ` O.Q 8 ",
"W ` o._ ` ` ` ` ` ` ` ` o.` ` ` ` ` n A &.&.&.D c ` _ ` o.o..._ ` ` ` ` ) O.Q 8 ",
"W ` o._ ` ' ` ` ` o.` ` ` ` ` ` ` ` n A &.&.&.F u _ ` ` ` ` o._ ` ` ` ` ` O.Q 8 ",
"W ' ' ` ` ` ` ` ` ` ` ` ` ` ` ` Y , w s @.&.#.j V _ o.` ` ` ` ` ' ` ` ` ` O.Q 8 ",
"W ' ' ` ` ` ` ` ` ` ` ' ` ` ( <   & ) x i d p b ..o.' _ ' ' ` ` ` o._ ' ..O.Q 8 ",
"W ' ` ` ` ` ` ' ` ` ` ` ( 4 . @ J o._ - 9 N  ._ ' _ ` ` ..` ` ` ` ` ' _ ` O.Q 8 ",
"W ' ' ` ` ' ` ' _ _ ) 5 O O 6 ` o...) X J o.` ` ' ..' ` ' _ ' ` ` ` ` ` ` O.Q 8 ",
"W ' ` ` X.B y b ~ 0 # o 3 ( ` ` _ o.5 + _ ..` ` _ ' ` ' ' ' ` ` ` _ o.` ` o.Q 8 ",
"W ' ' X.u l D Z i = ; R o...` ` ..) o 0 ` ` ..` ` ` ` ` ..` ` ` ` o._ ` ` O.T 8 ",
"W ' ' N j %.&.&.S t o...` ` ` ..o.0 o ) ` ` ` ` _ ' ` ' ` ` ` ` ` ` ` ` ` O.I 8 ",
"W ' ' B A %.%.&.H s o._ o.` ` ` _ # 4 o.` ' ' ` ' ' ` ` ` ` ` ` ` ` ` ` ` o.Q 8 ",
"W ' ' N j %.&.&.S c _ o._ ..` ` J o ^ _ ` ` ` ` ` ..` ' ` ` ' ` ` ` ` ` ` O.Q 8 ",
"E o.o...u z F m s | ` ` ` ` ` ` & 1 ..o.' ` ` ` ` ` ' ` ` ` ` ' ` ` ` ` ` o.Q 8 ",
"E _ o...X.n y b ] ` ` ` ` ` ` L X T ` _ ` ` ` ' _ ' ` ` ` ` ` ` ` o.` ` ` O.Q 8 ",
"E o.o._ ...._ o.o...` ` ` ' ` - , ` ` o.` ` ` ` ' ' ` ` ` ' ` ` ` ` ` ` ` O.Q 8 ",
"E o.o.....o._ o.) ..` ` ` ` T . U ` ` _ ' ` ` ` ' ..` ` ` ..` ` ` ` ` ` _ O.Q 8 ",
"E o.o._ ` ` o._ o...` ` ....> ; _ o.` ` ` ` ..` ' ` ` ` ` ` ' ` ` ` ` ` ` O.Q 8 ",
"E o.o._ ` ` _ o...o.` ` o.!   P ` _ ` ..` ` ' ` ` ` ` ` ` ` ` ` ` ` ` ` ` O.Q 8 ",
"E ..o.) ..` ` ..o.` ` ` o.< * ) ` _ ` o.` ' _ ' ` ` ` ' ` ` ` ` ` ` ` ` ` o.Q 8 ",
"E o.o._ _ o.` o.) ` ` ` ^ . L o.` o.' _ ` ' ' ..` ` ` ` ` ' ` ` ` ` ` ` ` O.Q 8 ",
"I o.o._ _ _ o._ ........< $ o...` ` _ o.` ` ` ` ` ..` ` ` ` ` ` o._ o.` _ O.Q 8 ",
"E ..o...o._ o... .c p e 7 0 ) ..` ..' ` ` ` ` _ ` ' ` ` ' ` ` ` _ _ ..` ` O.I 8 ",
"E o.o._ _ o._ ..f A @.G p M ..o.` ` ` ` o._ ..o.` ` ` ` ` ` ' ` _ o._ o._ O.Q 8 ",
"W o.o.) o.....N z $.&.&.F y ....` ` ` ` ` ` _ o.` ` ` ' ' ` ` ` _ o.` ..` O.Q 9 ",
"E ' ` ` _ ` ` V C &.&.&.@.p & 0 ^ _ o._ ..o..._ ' ..o._ ` ` ..} ......o.` O.Q 8 ",
"I o.` ` ..' ..{ s @.&.&.C v * X   % - 0 P ! o._ ` ' _ ..` [ y p u [ ....` O.Q 8 ",
"E o.o._ ` ` ....B p C k r  .` ! K 0 - #   X @ > 0 J ) ..{ s D @.F p / ` ` O.Q 8 ",
"E o.` ` ` ` ` ` ..{ n N .._ ` ` .._ o.) T U 3 : +   . - m A &.&.&.Z b ` ` O.Q 8 ",
"E o._ _ ` ` ' ` ` ` ` / ` ` ` ` ` ` ` ` ` ` ` ` ` ` P 2 h D &.&.&.D u ..` O.Q 8 ",
"E o.' o.` ` ` ' ` ` ` ` ` ` ` ` ` ` ' ` ` ` ` ' ` ` ` ` V z #.&.#.k N ' ` O.Q 8 ",
"E ` ' _ ` ` o._ ` ` ` ` ' ` ` ' ' ` ` ` ' ` ` ` ` ` ` ` ..m g c d c ..` _ O.Q 9 ",
"E o.' ..` ` ..` ` ` ` ` ` ` ' ` ` ` ` ` ` ` ` ` ` ` ' ......[ n [ ..` ` ` o.Q 8 ",
"E o.o..._ o._ ..` ' ` ` ` ` ` ` ..` ` ` ` ` ` ` ` ` ` ` ` ` ` ` ..' ....` O.Q 8 ",
"E +.O.O.O.o.O.O.o.o.o.o.o.O.O.o.o.o.O.O.o.o.o.o.O.o.O.o.O.' O.O.O.O.O.O.O.+.Q 8 ",
"E Q Q I I I I I I I I I I I I I I I I I I I I I I I I I I I I I I I I I I Q q 8 ",
"E 9 9 8 8 8 8 8 8 8 8 8 8 8 8 8 8 8 8 8 8 8 8 8 8 8 8 8 8 8 8 8 8 8 8 8 8 8 8 9 "
};
