/* XPM */
static char *result[] = {
/* columns rows colors chars-per-pixel */
"40 40 110 2 ",
"   c #0D0E0E",
".  c #0F1011",
"X  c #121213",
"o  c #151618",
"O  c #171819",
"+  c #1B1B1D",
"@  c #1D1E20",
"#  c #1F2021",
"$  c #222325",
"%  c #242628",
"&  c #27282B",
"*  c #292A2C",
"=  c #2D2E32",
"-  c #343639",
";  c #3A3B3E",
":  c #3C3E42",
">  c #205064",
",  c #404247",
"<  c #44464B",
"1  c #4B4D52",
"2  c #4E5055",
"3  c #53555B",
"4  c #55585E",
"5  c #595C63",
"6  c #5E6167",
"7  c #5E6168",
"8  c #63666C",
"9  c #666B73",
"0  c #6A6C74",
"q  c #6C6F78",
"w  c #6C7078",
"e  c #71757D",
"r  c #537095",
"t  c #5A7498",
"y  c #637A88",
"u  c #767A83",
"i  c #797C86",
"p  c #7E828C",
"a  c #5B8EA7",
"s  c #6B84A3",
"d  c #7D8EA8",
"f  c #71A1BB",
"g  c #309CCD",
"h  c #39A3D3",
"j  c #3BA9DB",
"k  c #1CA6E3",
"l  c #16A8E7",
"z  c #1DA9E5",
"x  c #26A6E1",
"c  c #23AAE4",
"v  c #2BA9E0",
"b  c #34ABE1",
"n  c #2BB0E7",
"m  c #2EB2E8",
"M  c #31B3E7",
"N  c #35B5E8",
"B  c #4FA3C7",
"V  c #4FA9D6",
"C  c #44ABDB",
"Z  c #53ABD6",
"A  c #5CADD5",
"S  c #68AACF",
"D  c #72ADCE",
"F  c #7AAECE",
"G  c #7BB0CD",
"H  c #64AFD5",
"J  c #73AFD1",
"K  c #43BAE8",
"L  c #4BBCE8",
"P  c #53BFE8",
"I  c #63C5E9",
"U  c #68C7E9",
"Y  c #6CC9E9",
"T  c #72CBE9",
"R  c #7DCEE9",
"E  c #81858F",
"W  c #828791",
"Q  c #878B96",
"!  c #898E99",
"~  c #8F939E",
"^  c #8C99AF",
"/  c #9195A1",
"(  c #959AA6",
")  c #979CA9",
"_  c #999EAB",
"`  c #8196B2",
"'  c #8398B3",
"]  c #8E9BB0",
"[  c #909CB1",
"{  c #9BA1AE",
"}  c #9EA3B1",
"|  c #A2A7B4",
" . c #A3A9B6",
".. c #A6ADBC",
"X. c #A9AFBE",
"o. c #ABB0BF",
"O. c #8BAEC7",
"+. c #83AEC9",
"@. c #95AFC5",
"#. c #9AAFC4",
"$. c #A2AFC1",
"%. c #A4B0C1",
"&. c #AEB3C0",
"*. c #B0B4C1",
"=. c #B8B9C4",
"-. c #84D1E9",
";. c #8CD4E9",
":. c #93D7E9",
">. c #96D8E9",
",. c #99D9EA",
/* pixels */
"' ' ' ` ` ` ` ` ` ` ` ` ` ` ' ` ` ` ` ` ` ` ` ` ` ` ` ` ` ` ` ` ` ` ` ` ` ` ` ` ",
"' o.o.o...X...X.X.X.X.X...X.X.X...X.X.X.X.X.X...X.X.X.X.X...X.X.%.$.X.X.X.&.^ ` ",
"' o.o.o.o.o.o.o.X.X.X.&.X.X.X.X.o.X.X.X.X.o.o.o.X.X.o.X.&.%.$.V k b F $.&.*.[ r ",
"' o.o.o.X...X.X.X.X.X.X.X.X.X.X.X.X.X.X.X.X.X.X.X.X.X.X...$.v L R I c +.X.&.[ r ",
"' o.X.X.X.X.X.X.X.X.X.X.X.X.X.X.X.X.X.X.X.X.X.o.X.X.X.%...F M ,.,.,.U b X.o.[ r ",
"' o.&...X.X.X.X.X.X.X.X.o.X.X.o.X.X.X.X.o.X.X.X.X.X.X...&.H L ,.,.,.-.k X.*.[ r ",
"` o.o.X.X.X.X.X.%.X.o.X.X.X.X.X.X.X.X.X.X.X.X.X.X.X.%. .u a z ;.,.,.P V X.o.[ r ",
"' o.o.X.X.o.X.X...&...X.X.X.X.X.X.X.X.X.X.X.X.X.&.} q # o q Z c L N x $.o.o.[ r ",
"' o.o.X.X.X.X.X.X.X.X.X.X.X.o.X.X.&.X.X.%.&.&._ 5 # # 9 _ X.%.f B S $.&. .&.[ r ",
"' o.o.X.X.X.X.X.o.X.X.X.X.X.X.X.X.X.X.X.X.} 3 X % e } &.&.%.X.2 6 X.$.&.&.*.[ r ",
"' o.o.X.X.X.X.X.o.o.X.X.X.X.X.X.X.X.X.~ 1   = p X.X.&...X.o.X.X u X.X.X...&.[ r ",
"' o.X.X.o.X.X.X...o.%.X.o.X.X.X.&.W , . : p X.X.X.X...&.X.X._   | X.X.X.$.&.[ r ",
"' o.X.X.X.X.X.X.o.X.o.X.X.X.X.p -   < ! X.X.X.X.X.X.X.X.X.X.0 $ X.X.X.X.X.*.[ r ",
"' o.o.X.X.X.X.o.X.X.X.X...u * X 2 ) $.&.X.X.X.X.X.X.X.X.X.X., 4 X.X.X.o.X.*.[ r ",
"' o.o.X.X.X.@.X.X.o.{ w $ O 5 { &.X.X.X.X.X.X.X.X.X.X.o.X.X.o p o.X.X.X.X.o.[ r ",
"' o.o.X.G v k v S e $ # 9 { X.X...X.X.X.X.X.X.X.X.&.X.X.X.!    .X.X.X.X.X.*.[ r ",
"` &.&.O.c Y -.T k > ; } X.X...&.&...&...X.X.X.X.&.X.X.X.X.u =  .X.X.X.X.X.*.[ r ",
"` &.&.Z P ,.,.,.P V | X.X.X.X.X...&...$.X.X.X.X.X.X.X.X.X.: 2 X.X.X.X.&.X.*.[ r ",
"` &.&.C I ,.,.,.I j X.X.X.X.X.X.&...X.X.X.X.X.X.X.X.X.X.| @ Q X.X.X.X.X.X.o._ r ",
"` &.&.J m ;.,.:.v J X...&.X.X.X...&.X.X.X.X.X.X.X.X.X.X.Q X _ X.X.X.X.X.X.o.[ r ",
"` X.&.$.V k N z h $.$.&.X.X.X.X.&...&...X.X.&.X.X.X.X.X.0 : | ..X.X.X.X.X.*.[ r ",
"` &.X...$.O.S t , $.&.&.X.X.X.X. .&.$...X.X.X.X.X.X.X...: 4 X.X.X.X.X.X.X.*.[ r ",
"' o.&.....&.&.( . i $...X.X.....&...&...X...&.X.X.X.X.} + W X.X.X.X.X.X.X.*.[ r ",
"' o.X.X.&. .&.&.7 & } &.X.&.$.&.&.....&.&.....X.X.X.X.~ + _ X.X.X.X.X.X.X.*.[ r ",
"' o.o.X.X.X.X.X.{ @ 0 &.&.......X.X.&.X.......&.X.X...7 = X.X.X.X.X.X.X.X.*.[ r ",
"' o.o.X.X.X.X.X...u + _  .&.&...X.X.X.X.&.&.....X.X.| : 8 X.X.X.X.X.&.X.X.*.[ r ",
"' o.o.X.X.X.X.X.$.| = 3 &.&.&.&.X.X.X.X...&.&...X.&.~ & i X.X.X.X.X.X.X.X.o.) r ",
"' o.o.X.X.X.X.X.&.&.E X / $.....X.X.X.X.X...$.&.#.A h B [ X.X.X.X.X.X.X.X.o.[ r ",
"' o.X.X.X.X.X.X.&.....: , X.X.X.X.X.X.X.&...&.#.v K P m j $.&.$.X.X.X.X.X.*.[ r ",
"' o.o.X.X.X.X.X...&.&./   E X.&.X.X.X.X...&...V L ,.,.,.m F &.$.X.X.X.X.X.*.[ r ",
"' o.X.X.X.X.X.X.&...&...3 r A V O.X.$.&.$.$.( b T ,.,.,.P V X.X.X.X.X.X.X.&.[ r ",
"' o.o.X.X.X.X.X...$...&.+.k K K k D / 8 , % & g P ,.,.,.b J X.X.X.X.X.X.X.*.[ r ",
"' o.o.X.X...o.X.X.X.%.#.x U ,.,.-.l y # 1 u _ @.x P T K x $.$.&...&.X.X...&.[ r ",
"' o.o.X.X.%.X.o.X.X.&.$.k >.,.,.,.n f  .&.$.$...O.C x A $.X.&.....$.X.X.&.&.[ r ",
"' o.o.X.&...&...X.X.X.%.x -.,.,.:.z @.X.&.&...&.&...%.$.X.X.....X.X.X.X...&.[ r ",
"' o.o.X...&...$.X.X.X.X.H v T T b C &.o.%...&.....&...&.X.&.$.&.X.X.X.X.&.*.[ r ",
"' o.&.....&.&.....&.%.&.$.H v c A $.%.o.X.X.%.&...&.&.....&.&...X.X.X...X.&.[ t ",
"[ o.*.*.*.&.*.*.&.&.&.&.&.&.&.&.*.*.&.&.&.&.&.&.&.&.&.&.&.&.&.&.*.*.*.&.*.=.[ r ",
"d ] ^ ^ ^ ^ ^ ^ ^ ^ ^ ^ ^ ^ ] ^ ^ ^ ^ ^ ^ ^ ^ ^ ^ ^ ^ ^ ^ ^ ^ ^ ^ ^ ^ ^ ^ [ d r ",
"` s r r r r r r r r r r r r r r r r r r r r r r r r r r r r r r r r r r r r r t "
};
