/* XPM */
static char *result[] = {
/* columns rows colors chars-per-pixel */
"40 40 125 2 ",
"   c #0F0F10",
".  c #131314",
"X  c #161718",
"o  c #171819",
"O  c #1B1C1E",
"+  c #1F1F21",
"@  c #232426",
"#  c #252628",
"$  c #272A2C",
"%  c #2A2B2D",
"&  c #2E3033",
"*  c #323336",
"=  c #35373B",
"-  c #393A3E",
";  c #3D3E42",
":  c #3F4146",
">  c #205064",
",  c #424447",
"<  c #44464B",
"1  c #454A4E",
"2  c #4B4D53",
"3  c #4E5157",
"4  c #53555B",
"5  c #5B5D64",
"6  c #5E6168",
"7  c #63666E",
"8  c #676A71",
"9  c #696C75",
"0  c #6C6F78",
"q  c #72757E",
"w  c #5B7E90",
"e  c #757D85",
"r  c #7C7F89",
"t  c #7E828C",
"y  c #658A9F",
"u  c #678BBA",
"i  c #688CB9",
"p  c #6497B1",
"a  c #7091BE",
"s  c #33A0D0",
"d  c #15A8E6",
"f  c #1EABE7",
"g  c #16A9E8",
"h  c #1DABE8",
"j  c #21ACE7",
"k  c #24ADE8",
"l  c #2DAFE9",
"z  c #2CB1E8",
"x  c #34B3E9",
"c  c #3BB4EA",
"v  c #3FB8E8",
"b  c #51A5C9",
"n  c #4DABD7",
"m  c #42ADDE",
"M  c #43B4EA",
"N  c #4BB7EA",
"B  c #4CBCE8",
"V  c #53B3E0",
"C  c #53BBEA",
"Z  c #5BBCEB",
"A  c #60BBE7",
"S  c #62BDEA",
"D  c #6BBFEA",
"F  c #5AC2E9",
"G  c #63C5E9",
"H  c #6AC4EA",
"J  c #6CC9E9",
"K  c #75C2EC",
"L  c #7EC5EC",
"P  c #72CBE9",
"I  c #7DCEE9",
"U  c #838792",
"Y  c #868B96",
"T  c #8A8D98",
"R  c #8F939F",
"E  c #9195A1",
"W  c #9599A6",
"Q  c #979CA8",
"!  c #9B9FAC",
"~  c #9EA3B0",
"^  c #A1A6B3",
"/  c #A5A9B7",
"(  c #A7ACBA",
")  c #AAAEBC",
"_  c #84A2C7",
"`  c #87B8D4",
"'  c #9DB4D3",
"]  c #ADB5C3",
"[  c #B0B6C5",
"{  c #B5BBCA",
"}  c #B9BFCE",
"|  c #A7BCD7",
" . c #A9BDD7",
".. c #ACBFD9",
"X. c #AEC2DA",
"o. c #BEC4D4",
"O. c #B3C3DD",
"+. c #82C5EC",
"@. c #88C4E8",
"#. c #8BC9ED",
"$. c #9DC8E6",
"%. c #93CAEC",
"&. c #84D1E9",
"*. c #8CD4E9",
"=. c #93D7E9",
"-. c #96D8E9",
";. c #99D9EA",
":. c #AACEEA",
">. c #BAC8E0",
",. c #ACD1ED",
"<. c #B4D2ED",
"1. c #BBD4ED",
"2. c #C1C7D7",
"3. c #C4CADB",
"4. c #C9CFE1",
"5. c #CCD2E4",
"6. c #C2D6ED",
"7. c #CBD6EB",
"8. c #CDD9ED",
"9. c #D0D7E9",
"0. c #D3DAED",
"q. c #DADFEF",
"w. c #D8DDF0",
"e. c #DCE0F1",
"r. c #E3E5F4",
/* pixels */
"X. . .| | | | | | | | | | | | | | | | | | | | | | | | | | | | | | | | | |  .' | ",
" .0.0.0.0.0.0.9.0.0.0.8.0.0.0.0.0.0.0.0.0.0.0.0.0.9.0.0.9.0.9.0.0.0.0.0.0.w.O.' ",
"X.q.e.0.0.0.0.0.0.0.0.w.0.0.0.0.0.0.0.0.0.0.0.0.0.0.0.0.0.6.Z k v %.0.0.0.e.O.i ",
" .0.0.0.0.0.0.0.0.0.0.0.0.0.0.0.0.0.0.0.0.0.0.0.0.0.0.0.6.c N L H k %.0.0.w.O.i ",
"X.0.0.0.0.0.0.0.0.0.0.0.0.0.0.0.0.0.0.0.0.0.0.0.0.0.0.0.%.x =.;.;.H c 0.0.q.O.i ",
" .q.0.0.0.0.0.0.0.0.0.0.0.0.0.0.0.0.0.0.0.0.0.0.0.0.0.8.L N ;.;.;.&.k 0.0.e.O.i ",
" .0.0.0.0.0.0.0.0.0.0.0.0.0.0.0.0.0.0.0.0.0.0.0.0.0.4.T p k *.;.;.B A 0.0.q.O.i ",
"X.q.0.0.0.0.0.0.0.0.0.0.0.0.0.0.0.0.0.0.0.0.0.8.3.U % O e Z k B x l 1.0.0.q.O.i ",
"| q.0.0.0.0.0.0.0.0.0.0.0.0.0.0.0.0.0.0.0.0.2.q @ # r o.0.8.` n +.6.0.0.0.w.O.i ",
"| 0.0.0.0.0.0.0.0.0.0.0.0.0.0.0.0.0.0.0.3.7 X % T 4.0.0.0.0.5 q 0.0.0.0.0.w.O.i ",
"X.0.0.0.0.0.0.0.0.0.0.0.0.0.0.0.0.7.[ 5   - Q 0.0.0.0.0.9.0.o E 0.0.0.0.0.q.O.i ",
"| q.0.0.0.0.0.0.0.0.0.0.0.0.0.0./ 2 . < ~ 0.0.0.0.0.0.0.0.} . 3.0.0.0.0.0.q.O.i ",
"X.0.0.0.0.0.0.0.0.0.0.0.0.0.! :   4 ) 9.0.0.0.0.0.0.0.0.0.r % 0.0.0.0.0.0.e...i ",
"X.0.0.0.0.0.0.0.0.0.0.7.E * . 5 } 0.0.0.0.0.0.0.0.0.0.0.0.4 8 0.0.0.0.0.0.e.O.i ",
"X.0.0.9.8.1.7.0.0.3.U # + 0 2.0.0.0.0.0.0.0.0.0.0.0.0.0.7.O ! 0.0.0.0.0.0.e.O.a ",
"| 0.0.=.x f x @.Y @ # r 2.0.0.0.0.0.0.0.0.0.0.0.0.0.0.0.(   4.0.0.0.0.0.0.e...i ",
"X.0.,.k J *.J d > , 4.0.0.0.0.0.0.0.0.0.0.0.0.0.0.0.0.0.U ; 7.0.0.0.0.0.0.w.O.a ",
" .0.S F -.;.-.F V 4.8.0.0.0.0.0.0.0.0.0.0.0.0.0.0.0.0.8.< 7 0.0.0.0.0.0.0.e...i ",
"X.0.C G ;.;.;.G N 0.0.0.0.0.0.0.0.0.0.0.0.0.0.0.0.0.0.4.@ / 0.0.0.0.0.0.0.e.O.i ",
"X.0.%.z *.;.*.l #.0.0.0.0.0.0.0.0.0.0.0.0.0.0.0.0.0.0.] X } 0.0.0.0.0.0.0.w.O.i ",
"| 0.8.G j x h m 8.0.0.0.0.0.0.0.0.0.0.0.0.0.0.0.0.0.0.t ; 0.0.0.0.0.0.0.0.e...i ",
"X.0.0.8.:.+.y 1 7.0.0.0.0.0.0.0.0.0.0.0.0.0.w.0.0.0.0.< 9 0.0.0.0.0.0.0.0.e.>.u ",
" .q.0.0.0.0.}   W 0.0.0.0.0.0.0.0.0.0.0.0.0.0.0.0.0.2.+ ^ 0.0.8.0.0.0.0.0.w.>.i ",
" .0.0.0.0.0.0.e & 4.0.0.0.0.0.0.0.0.0.0.0.0.0.0.0.0.] + o.0.0.0.0.0.0.0.0.e...i ",
"X.0.0.0.0.0.0.3.# r 0.0.0.0.0.0.0.0.0.0.0.0.0.0.0.0.e * 0.0.0.0.0.0.0.0.0.w.O.i ",
"X.0.0.0.0.0.0.0.T + o.0.0.0.0.0.0.0.0.0.0.0.0.0.0.9.; e 0.0.0.0.0.0.0.0.0.e.O.i ",
" .0.0.0.0.0.0.0.5.= 8 0.0.0.0.0.0.0.0.0.0.0.0.0.0.) % Q 0.0.0.0.0.0.0.0.0.e.O.i ",
"X.0.0.0.0.0.0.0.0.~ X { 0.0.0.0.0.0.0.0.0.0.0.1.D m b } 0.0.0.0.0.0.0.0.0.w.O.i ",
"X.q.0.0.0.0.0.0.0.0.2 2 0.0.0.0.0.0.0.0.0.0.1.x M F l M 7.0.0.0.0.0.0.0.0.w.O.u ",
"| 0.0.0.0.0.0.0.0.0.[ . ~ 0.0.0.0.0.0.0.0.0.S B ;.;.=.x %.0.0.0.0.0.0.0.0.e.O.u ",
"X.0.0.0.0.0.0.0.0.0.0.6 w K S ,.0.0.0.0.7.] c P ;.;.;.C S 0.0.0.0.0.0.0.0.w.} a ",
"X.0.0.0.0.0.0.0.0.0.0.$.g v N j +.] e 3 % $ s F ;.;.=.c @.0.0.0.0.0.0.0.0.e...u ",
"| 0.0.0.0.0.0.0.0.0.0.l H ;.;.I h r @ 5 R } :.k Z K M x 6.0.0.0.0.0.0.0.0.e...u ",
"X.0.0.0.0.0.0.0.0.0.6.g -.;.;.;.l ` 6.0.0.w.0.,.N l D 6.0.0.0.0.0.0.0.0.0.e.O.a ",
"X.q.0.0.0.0.0.0.0.0.7.j &.;.;.=.k <.0.0.0.0.0.0.0.0.w.8.0.0.0.0.0.0.0.0.0.e...a ",
"| q.0.0.0.0.0.0.0.0.0.L z P P x N 0.0.0.0.0.0.0.0.0.0.0.0.0.0.0.0.0.0.0.0.e.O.u ",
"| 0.0.0.0.9.0.0.0.0.0.8.+.l k H 7.0.0.w.0.0.0.0.0.0.0.8.0.0.0.0.0.0.0.0.0.w.O.u ",
"X.e.e.q.e.e.e.e.e.e.e.e.e.e.r.w.r.w.w.w.e.e.e.r.w.w.r.w.e.w.e.w.e.w.e.e.e.r.>.u ",
"' X.O.X.O...X.........O.........O.O.............O.O.....O...O...O.....O...O.' u ",
"' _ i i i i u u u u i i i u u u a w a u u u u u u u u u u u u u u u u u u u u a "
};
