/* XPM */
static char *result[] = {
/* columns rows colors chars-per-pixel */
"40 40 110 2 ",
"   c #0C0C0D",
".  c #0F1011",
"X  c #131314",
"o  c #171719",
"O  c #1A1B1D",
"+  c #1F1F21",
"@  c #202123",
"#  c #252628",
"$  c #27282B",
"%  c #2B2C2E",
"&  c #323337",
"*  c #353639",
"=  c #37383C",
"-  c #38393D",
";  c #3E4146",
":  c #2F586A",
">  c #434449",
",  c #484A4E",
"<  c #4E5057",
"1  c #515359",
"2  c #595C63",
"3  c #5F6269",
"4  c #63666D",
"5  c #666971",
"6  c #6E7179",
"7  c #2D799B",
"8  c #7A7E88",
"9  c #7C8089",
"0  c #7D8591",
"q  c #7A93A5",
"w  c #678BBA",
"e  c #688CB9",
"r  c #7091BE",
"t  c #13A7E6",
"y  c #1DABE8",
"u  c #28A7E1",
"i  c #23ADE7",
"p  c #23ADE8",
"a  c #2AAEE9",
"s  c #2DB2E8",
"d  c #38B5E7",
"f  c #34B3E9",
"g  c #3DB3EA",
"h  c #3EB8E8",
"j  c #41AADC",
"k  c #50ACD7",
"l  c #6FA7C2",
"z  c #44B5EA",
"x  c #4BB6EA",
"c  c #45BAE8",
"v  c #4CBBE9",
"b  c #53BDE9",
"n  c #59BBEB",
"m  c #62BDEA",
"M  c #58C1E9",
"N  c #65C6E9",
"B  c #6CC3EB",
"V  c #6DC9E9",
"C  c #74C1EB",
"Z  c #7CC4EC",
"A  c #72CBE9",
"S  c #7CCFE9",
"D  c #848792",
"F  c #878A95",
"G  c #888C97",
"H  c #8A8E99",
"J  c #9195A1",
"K  c #9EA3B0",
"L  c #A4A9B7",
"P  c #A5AAB8",
"I  c #A9AEBC",
"U  c #84A2C7",
"Y  c #9DB4D3",
"T  c #AEB3C1",
"R  c #B0B6C5",
"E  c #B6BCCB",
"W  c #A7BCD7",
"Q  c #A9BDD7",
"!  c #ACBFD9",
"~  c #82BEE0",
"^  c #ACC3DC",
"/  c #BDC3D4",
"(  c #B3C3DD",
")  c #8AC7EC",
"_  c #8BC8EC",
"`  c #91C9EC",
"'  c #9DCCEC",
"]  c #84D1E9",
"[  c #93D7E9",
"{  c #97D8E9",
"}  c #99D9EA",
"|  c #A2CEEC",
" . c #BAC8E0",
".. c #ADD1ED",
"X. c #B4D3ED",
"o. c #BCD4ED",
"O. c #C0C6D6",
"+. c #C4CADC",
"@. c #C6CEE0",
"#. c #CDD4E5",
"$. c #C5D6EC",
"%. c #CDD6E9",
"&. c #C5D8EE",
"*. c #CCD8ED",
"=. c #D0D7E9",
"-. c #D3DAED",
";. c #DADFEF",
":. c #D8DDF0",
">. c #DCE0F1",
",. c #E3E5F4",
/* pixels */
"^ Q Q Q Q W W W Q Q W W W W W W W Q W W W W W W W W W W W W W W Q W W W W ! Y W ",
"Q -.-.-.=.-.-.-.-.-.-.=.-.-.-.-.=.-.-.-.-.-.-.-.-.-.-.-.=.-.-.-.-.-.-.=.-.;.( Y ",
"^ ;.;.-.-.-.-.-.-.-.-.-.-.-.-.-.-.-.-.-.-.*...$.-.-.-.-.-.-.-.-.-.-.;.-.-.>.( e ",
"Q -.-.-.-.=.-.-.-.-.-.-.-.-.-.-.-.-.-.-.` a p a Z -.-.-.-.-.-.-.-.-.*.-.-.:.( e ",
"Q -.-.-.-.-.-.-.-.-.-.-.-.-.-.-.-.-.-.X.p A [ S y ' -.-.-.-.-.-.-.-.-.-.=.>.( e ",
"Q ;.-.-.-.-.-.-.-.-.-.-.-.-.-.-.-.-.-.m b } } } N x -.-.-.-.-.-.-.-.-.-.-.>.( e ",
"Q ;.-.-.-.-.-.-.-.-.-.-.-.-.-.-.-.-.#.m M } } } B z -.-.-.-.-.-.-.-.-.-.-.>.( e ",
"W ;.:.-.-.-.-.-.-.-.-.-.-.-.-.-.-.E 4 l i ] } [ a ) -.-.-.-.-.-.-.-.-.-.=.>.( e ",
"Q -.-.-.-.-.-.-.-.-.-.-.-.-.-.+.4 X > @.k t i y n -.-.-.-.-.-.-.-.-.-.-.-.:.( e ",
"Q ;.-.-.-.-.-.-.-.-.-.-.-.+.9 o * K -.%., q ` X.-.-.-.-.-.-.-.-.-.-.-.-.-.>.( e ",
"Q -.;.*.-.-.-.-.-.=.-.#.F $ # H %.-.-.#.+ J -.-.-.-.-.-.-.-.-.-.-.-.-.-.-.>.( e ",
"Q ;.;.=.-.$.Z h m | H & + 8 +.-.-.-.-.D % #.-.-.-.-.-.-.-.-.-.-.-.-.-.-.-.:.( e ",
"Q ;.-.-.*.z f N v t : 1 +.=.-.-.-.-.=.# G -.-.-.-.-.-.-.-.-.-.-.-.-.-.-.-.>.( e ",
"^ -.;.=.` s { } } M j -.-.-.-.-.-.-.H @ *.-.-.-.-.-.-.-.-.-.-.-.-.-.-.-.=.;.( e ",
"W -.-.-.C v } } } S a -.-.-.-.-.-.#.* 8 -.-.-.-.-.-.-.-.-.-.-.-.-.-.-.-.-.>.( e ",
"W ;.;.%._ f } } } M n -.-.-.-.-.-.K @ +.-.-.-.-.-.-.-.-.-.-.-.-.-.-.-.-.-.>.( e ",
"! -.-.*.*.z d N v y ..-.-.-.-.-.=.> 6 -.-.-.-.-.-.-.-.-.-.-.-.-.-.-.-.-.-.>.( e ",
"Q ;.-.-.-.$.C g n X.-.-.-.-.-.-.P O E -.-.-.:.-.-.-.-.-.-.-.-.-.-.-.-.-.-.>.( e ",
"Q ;.:.-.-.-.:.-.-.-.-.-.-.-.-.-.< 3 -.-.-.-.-.-.-.-.-.-.-.-.-.-.-.-.-.-.-.>.( e ",
"W ;.-.-.-.-.-.-.-.-.-.-.-.-.-.E O R -.-.-.-.-.-.*.-.-.-.-.-.-.-.-.-.-.-.=.>.( e ",
"W -.;.%.-.-.-.-.-.-.-.-.-.-.-.2 < -.-.-.-.-.-.-.-.-.-.-.-.-.-.-.-.-.-.-.-.;.( e ",
"Q ;.;.=.-.-.-.-.-.-.-.-.-.-./ . T -.-.-.-.-.*.-.-.-.-.-.-.-.-.-.-.-.-.-.-.;.( e ",
"Q -.-.-.-.-.-.-.-.-.-.-.-.-.5 > -.-.-.-.-.-.-.-.-.-.-.-.-.-.-.-.-.-.-.-.-.;.( e ",
"Q ;.-.-.-.-.-.-.-.-.-.-.-.+.o L -.-.-.-.-.-.-.-.-.-.-.-.-.-.-.-.-.-.-.-.-.;.( e ",
"^ -.-.-.-.-.-.-.-.-.*.$.*.5 * -.-.-.-.-.-.-.-.-.-.-.-.-.-.-.-.-.-.-.-.-.-.:.( e ",
"W ;.;.=.-.-.;.*.:.X.x p u 7 0 -.-.-.-.-.-.-.-.-.-.-.-.-.-.-.-.-.-.-.-.-.-.:.( e ",
"W -.-.-.-.-.-.-.&.f b ] V p ~ -.-.-.-.-.-.-.-.-.-.-.-.-.-.-.-.-.-.-.-.-.-.;.( e ",
"Q ;.;.%.-.-.-.-.` d } } } V g -.-.-.-.-.-.-.-.-.-.-.-.-.-.-.-.-.-.-.-.-.-.;.( e ",
"Q -.-.-.*.-.-.-.Z c } } } S t ; G +.%.-.*.-.-.-.-.-.-.-.-.-.-.*.$.*.-.-.-.>.( e ",
"Q ;.-.-.-.-.-.-...i ] } { x n > +   - < F T O.=.-.-.-.-.-.-.' g y g ' -.-.>.( e ",
"Q ;.-.-.-.-.-.-.-.C p x s f o.-.O.L H < = . O & 2 H L @.*...a N ] N i X.-.;.( e ",
"W ;.-.-.-.-.-.-.-.-...m ` &.-.-.-.-.-.-.-.E T 8 2 %   O , n b } } { b m -.;.( e ",
"W -.-.-.-.-.-.-.-.-.-.$.-.-.-.-.-.-.-.-.-.-.-.-.-.-.#.I 8 z m } } } B z =.>.( w ",
"Q ;.-.-.-.-.-.-.-.-.-.-.-.-.-.-.-.-.-.-.-.-.-.-.-.-.-.-.:.~ a ` } [ s ) -.>.( w ",
"W ;.;.%.-.-.-.-.-.-.-.-.-.-.-.-.-.-.-.-.-.-.-.-.-.-.-.-.-.*.n u g a x *.-.:.( w ",
"W -.;.-.-.-.-.-.-.-.-.-.-.-.-.-.-.-.-.-.-.-.-.-.-.-.-.-.-.-.-.| C | *.:.-.>.( w ",
"W ;.-.-.=.-.-.-.-.-.=.-.-.-.-.*.:.-.-.:.-.-.-.-.-.-.-.-.-.-.:.=.-.-.-.-.-.:.( w ",
"^ >.,.:.>.>.:.,.>.>.>.>.:.:.>.>.:.:.:.:.:.>.>.>.:.:.:.:.:.:.:.:.>.:.:.,.>.,. .w ",
"Y ( ^ ! ! ! ! ! ! ! ! ! ! ! ! ! ! ! ( | ! ! ( ! ( ( ! ( ( ! ( ! ^ ! ! ! !  .Y e ",
"Y U e e e w e e w w w w r w w r w w w w r 8 w w w w w w w w w w w w e w e e w r "
};
