/* XPM */
static char *result[] = {
/* columns rows colors chars-per-pixel */
"40 40 114 2 ",
"   c #070707",
".  c #07090A",
"X  c #0B0B0C",
"o  c #0F0F10",
"O  c #111214",
"+  c #17181A",
"@  c #1B1C1E",
"#  c #0C1C22",
"$  c #101F26",
"%  c #1D1E21",
"&  c #042432",
"*  c #232427",
"=  c #25262A",
"-  c #2A2B2E",
";  c #202D30",
":  c #313335",
">  c #36383C",
",  c #3A3C41",
"<  c #33474D",
"1  c #346174",
"2  c #46484D",
"3  c #4C4E53",
"4  c #4E5057",
"5  c #54575F",
"6  c #425E67",
"7  c #51727B",
"8  c #61646C",
"9  c #676B74",
"0  c #6B6E77",
"q  c #3F7082",
"w  c #757983",
"e  c #7A7F8A",
"r  c #2C90BB",
"t  c #7C808B",
"y  c #678BBA",
"u  c #688CB9",
"i  c #7091BE",
"p  c #1AAAE7",
"a  c #1DABE8",
"s  c #24AEE7",
"d  c #24AEE8",
"f  c #29AEE9",
"g  c #2DB1E7",
"h  c #30B2E7",
"j  c #35B3E9",
"k  c #3CB4E9",
"l  c #42B9E7",
"z  c #46B5EA",
"x  c #4CBAEA",
"c  c #5CBCEB",
"v  c #63B8E3",
"b  c #64BEEB",
"n  c #7CC1D7",
"m  c #57C1E9",
"M  c #66C6E9",
"N  c #6CC8E9",
"B  c #70C2EC",
"V  c #7EC6ED",
"C  c #75CCE9",
"Z  c #7FCFE9",
"A  c #818591",
"S  c #868A95",
"D  c #898D99",
"F  c #8F94A1",
"G  c #9296A2",
"H  c #9499A4",
"J  c #999EAB",
"K  c #9DA3B1",
"L  c #A1A6B4",
"P  c #A2A8B6",
"I  c #AAAFBE",
"U  c #84A2C7",
"Y  c #85BBCA",
"T  c #9DB4D3",
"R  c #ADB3C2",
"E  c #B1B7C7",
"W  c #B4BACA",
"Q  c #B9BFCF",
"!  c #A7BCD7",
"~  c #A9BDD7",
"^  c #ACBFD9",
"/  c #8BC5D5",
"(  c #AEC2DA",
")  c #BFC5D7",
"_  c #B3C3DD",
"`  c #81C7ED",
"'  c #8BC9ED",
"]  c #92CAEC",
"[  c #9BCDED",
"{  c #8BD3E9",
"}  c #97D2E2",
"|  c #92D6E9",
" . c #96D8E9",
".. c #99D9EA",
"X. c #A4CFED",
"o. c #B2CCE3",
"O. c #BAC8E0",
"+. c #A5D0EE",
"@. c #ACD1ED",
"#. c #B3D3ED",
"$. c #BDD4ED",
"%. c #BED8F0",
"&. c #C8CEE0",
"*. c #CCD2E3",
"=. c #C4D7ED",
"-. c #CBD6EB",
";. c #CED9ED",
":. c #D0D7E9",
">. c #D3DAED",
",. c #DADFEF",
"<. c #CADCF1",
"1. c #D9DEF1",
"2. c #DBE0F0",
"3. c #E3E5F4",
/* pixels */
"( ~ ~ ! ! ! ! ! ! ! ! ! ! ! ! ! ! ! ! ! ! ! ! ! ! ! ! ! ! ! ! ! ! ! ! ! ! ( T T ",
"~ >.>.>.>.>.;.>.>.>.>.>.>.:.>.>.>.:.>.>.>.>.>.:.>.>.>.>.>.>.>.:.>.>.;.:.>.,._ T ",
"( ,.2.>.+.B [ ;.>.>.>.>.>.>.>.>.>.>.>.>.>.1.>.>.>.>.>.>.>.>.>.=.c p j ] >.3._ u ",
"~ >.;.c a j s z -.>.>.>.>.>.>.>.>.>.>.>.>.>.>.>.>.:.>.>.>.>.=.k l C M a ' ,._ y ",
"~ >.] s { ..| h V >.>.>.:.;.>.>.>.>.>.>.>.>.>.>.>.>.>.>.>.>.[ f  .....M k 2._ u ",
"( >.M m ..Y ; # $ > 3 9 F ) >.>.>.>.>.>.>.>.>.>.>.>.>.>.>.>.` z ......Z s 2._ u ",
"! >.B m  ./ 7 1 1 8 4 @ X X = 9 W :.>.>.>.>.>.>.>.>.>.>.>.>.X.f { .. .c x 1._ u ",
"( >.#.a N { C a X.>.>.>.*.J 0 * X 4 E >.>.>.>.>.>.>.>.>.>.>.>.c s m l d @.1._ u ",
"( ,.>.] g a f V >.>.>.>.>.>.>.*.G : + S >.>.>.>.>.>.>.>.>.>.>.-.' z b #.:.1._ u ",
"! >.>.>.=.#.=.>.>.>.>.>.>.>.>.>.>.&.0 o w >.>.>.>.>.>.>.>.>.>.>.>.>.>.>.:.3._ u ",
"( >.>.>.>.>.>.>.>.>.>.>.>.>.>.>.>.>.>.H   e >.>.>.>.>.>.>.>.>.>.>.>.>.>.>.1._ u ",
"! ,.>.>.>.>.>.>.>.>.>.>.>.>.>.>.>.>.>.>.t o P >.>.>.>.>.>.>.>.>.>.>.>.>.>.,._ y ",
"( >.>.>.>.>.>.>.>.>.>.>.>.>.>.>.>.>.>.>.*.2 , &.>.>.>.>.>.>.>.>.>.>.>.>.>.2._ u ",
"( >.>.:.>.>.>.>.>.>.>.>.>.>.>.>.>.>.>.>.>.I o L >.>.>.>.>.>.>.>.>.>.>.>.>.2._ u ",
"( >.>.>.>.>.>.>.>.>.>.>.>.>.>.>.>.>.>.>.>.:., 5 >.>.>.>.>.>.>.>.>.>.>.>.>.,._ u ",
"! >.,.;.>.>.>.>.>.>.>.>.>.>.>.>.>.>.>.>.>.>.A * ;.>.>.>.>.>.>.>.>.>.>.>.>.,._ u ",
"^ 1.>.>.>.>.>.>.>.>.>.>.>.>.>.>.>.>.>.>.>.>.L   ) >.>.>.>.>.>.>.>.>.>.>.>.,._ u ",
"^ >.>.>.>.>.>.>.>.>.>.>.>.>.>.>.>.>.>.>.>.>.&.+ K >.>.>.>.>.>.>.>.>.>.>.>.2._ u ",
"^ >.>.>.>.>.>.>.>.>.>.>.>.>.>.>.>.>.>.>.>.>.*.% D >.>.>.>.>.>.>.>.>.>.>.:.2._ u ",
"^ >.>.>.>.>.>.>.>.>.>.>.>.>.>.>.>.>.>.>.>.>.>.% w >.>.>.>.>.>.>.>.>.>.>.>.,._ y ",
"^ >.>.>.>.>.>.>.>.>.>.>.>.>.>.>.>.>.>.>.>.>.>.% w >.>.>.>.>.>.>.>.>.>.>.>.2._ u ",
"^ >.>.>.>.>.>.>.>.>.>.>.>.>.>.>.>.>.>.>.>.>.:.% A >.>.>.>.>.>.>.>.>.>.>.>.2._ u ",
"! 1.>.>.>.>.>.>.>.>.>.>.>.>.>.>.>.>.>.>.>.>.-.% F >.>.>.>.>.>.>.>.>.>.>.:.2._ u ",
"! 1.>.>.>.>.>.>.>.>.>.>.>.>.>.>.>.>.>.>.>.>.Q O R >.>.>.>.>.>.>.>.>.>.>.>.2._ u ",
"! 1.>.>.>.>.>.>.>.>.>.>.>.>.>.>.>.>.>.>.>.>.J . &.>.>.>.>.>.>.>.>.>.>.>.>.2._ y ",
"! 1.>.>.>.>.>.>.>.>.>.>.>.>.>.>.>.>.>.>.>.>.A * -.>.>.>.>.>.>.>.>.>.>.>.>.1._ y ",
"! >.1.>.>.>.>.>.>.>.>.>.>.>.>.>.>.>.>.>.>.>.4 4 >.>.>.>.>.>.>.>.>.>.>.>.>.2._ y ",
"( 1.;.;.>.>.>.>.>.>.>.>.>.>.>.>.>.>.>.>.>.*.= e >.>.>.>.>.>.>.>.>.>.>.>.:.2._ y ",
"~ ,.>.>.>.>.>.>.>.>.>.>.>.>.>.>.>.>.>.>.>.R X E >.>.>.>.>.>.>.>.>.>.>.>.>.2._ y ",
"~ >.>.>.>.>.>.>.>.>.>.>.>.>.>.>.>.>.>.>.;.w - &.>.>.>.>.>.>.>.>.>.>.>.>.>.2._ y ",
"~ >.>.>.;.>.>.>.>.>.>.>.>.>.>.>.>.>.<.#.o.- 8 >.>.>.>.>.>.>.>.>.>.>.>.>.>.2.O.y ",
"( ,.>.>.>.>.>.>.>.>.>.>.>.>.>.>.>.#.z a r . R >.>.>.>.>.>.>.>.>.>.>.>.>.:.2.^ y ",
"! ,.>.>.>.>.>.>.>.>.>.=.>.>.>.>.;.k x { 6 & v >.>.>.>.>.>.>.>.>.>.>.>.>.>.1._ y ",
"~ >.>.>.>.>.>.>.>.>.>.>.>.>.>.>.@.d | } O q f =.>.>.>.>.>.>.>.>.>.>.>.>.>.2._ y ",
"( ,.>.>.>.>.>.>.>.>.>.>.>.>.>.>.X.f ..Y < n d $.>.>.>.>.>.>.>.>.>.>.>.>.>.2._ y ",
"! >.>.>.>.>.>.>.>.>.>.>.>.>.>.>.%.f C [  .m z <.>.>.>.>.>.>.>.>.>.>.>.>.>.2._ y ",
"! ,.>.>.>.>.>.>.>.>.>.>.>.>.>.>.>.] a z f f #.>.>.>.>.>.>.>.>.>.>.>.>.>.>.1._ y ",
"( 2.2.2.2.2.2.2.1.2.1.3.1.1.1.1.2.1.=.b ' <.1.2.2.1.2.3.2.1.2.2.2.1.2.1.2.3.O.y ",
"T ( _ ( ^ ^ ^ ^ ^ ^ ^ ^ ^ ^ ^ ^ ^ ^ _ ^ _ ^ ^ Q ^ ^ ^ ^ ^ ^ ^ ^ ^ ^ ^ ^ ^ Q T y ",
"T U u u y y u u y y y y i y y y y y y y y y y y y y u y y y i y y y i y i y y i "
};
