/* XPM */
static char *result[] = {
/* columns rows colors chars-per-pixel */
"40 40 109 2 ",
"   c #060607",
".  c #05080B",
"X  c #0A0A0B",
"o  c #0F1010",
"O  c #131416",
"+  c #171719",
"@  c #1A1A1C",
"#  c #0D1C23",
"$  c #1E1F21",
"%  c #042432",
"&  c #232426",
"*  c #2A2B2E",
"=  c #202D30",
"-  c #2E3033",
";  c #313336",
":  c #3B3D42",
">  c #3E4145",
",  c #33474D",
"<  c #315A6D",
"1  c #2F6174",
"2  c #44464B",
"3  c #4E5158",
"4  c #53555B",
"5  c #425E67",
"6  c #5A5D64",
"7  c #5E626B",
"8  c #51727B",
"9  c #62656D",
"0  c #636770",
"q  c #676B74",
"w  c #6C6F77",
"e  c #6D717A",
"r  c #537095",
"t  c #5A7498",
"y  c #737781",
"u  c #787C85",
"i  c #7B7F88",
"p  c #2A8EB8",
"a  c #7D828C",
"s  c #7D8EA8",
"d  c #7C92AE",
"f  c #3AAADD",
"g  c #15A6E4",
"h  c #1BA9E6",
"j  c #24ABE5",
"k  c #2DAAE2",
"l  c #35ABE1",
"z  c #2CB1E7",
"x  c #2AB1E8",
"c  c #30B2E7",
"v  c #35B4E8",
"b  c #39B6E8",
"n  c #42ADDE",
"m  c #4EADDA",
"M  c #53A7D0",
"N  c #5BAAD3",
"B  c #54AEDA",
"V  c #5EB1D9",
"C  c #77AFCE",
"Z  c #7DB0CF",
"A  c #65AED3",
"S  c #6AAFD3",
"D  c #6CB1D5",
"F  c #73B0D1",
"G  c #78B0D0",
"H  c #41B9E7",
"J  c #4EBDE7",
"K  c #40B9E8",
"L  c #4ABCE8",
"P  c #57C1E9",
"I  c #66C6E9",
"U  c #6CC8E9",
"Y  c #75CCE9",
"T  c #7FCFE9",
"R  c #838792",
"E  c #8A8E9A",
"W  c #8D919D",
"Q  c #8C99AF",
"!  c #9095A2",
"~  c #9499A6",
"^  c #999FAB",
"/  c #8196B2",
"(  c #8398B3",
")  c #909CB1",
"_  c #95A0B4",
"`  c #94AABE",
"'  c #A1A7B5",
"]  c #A6ACBA",
"[  c #A9AFBE",
"{  c #ABB0BF",
"}  c #8DADC5",
"|  c #91AEC5",
" . c #9BAFC2",
".. c #84B2CE",
"X. c #85BBCA",
"o. c #9DB1C4",
"O. c #92B2CA",
"+. c #9CB6CA",
"@. c #A2AFC1",
"#. c #A4B1C2",
"$. c #ADB3C1",
"%. c #B0B4C0",
"&. c #B8B9C4",
"*. c #8BC5D5",
"=. c #8BD3E9",
"-. c #97D2E2",
";. c #92D6E9",
":. c #96D8E9",
">. c #99D9EA",
/* pixels */
"( ( ( / / / / / / / / / / / / / / / / / / / / / / / / / / / / / ( d ( / / ( d d ",
"( { { [ [ ] [ [ ] ] @.[ [ [ [ [ [ [ [ ] [ [ [ ] [ [ ] ] $.] ] $.[ { [ [ { $.) d ",
"( { %.#...N ..#.$.$.[ $.[ [ [ [ [ [ [ [ [ { { $.[ { $.$.] $.$. .m g k G { %.) r ",
"( { $.m h v j f @.[ ] ] [ [ [ [ [ [ [ [ [ [ [ [ [ ] ] [ $.@.@.l K Y I h C $.) r ",
"( { G j =.>.:.c S [ [ [ [ [ [ [ [ [ [ [ [ [ [ [ $.] ] $.] ] ..k :.>.>.I b { ) r ",
"( $.B P >.X.= # # * : 6 y ~ [ [ [ [ [ [ [ [ [ [ ] $.] $.$.$.D K >.>.>.T j { ) r ",
"( { V L >.*.8 1 < 4 2 @ X X $ 4 ! [ [ [ [ [ [ [ $.] $.] ] $...j ;.>.>.P n { ) r ",
"( { O.h U =.Y h ..[ [ [ ] a 6 $ X > W [ [ [ [ [ [ [ ] $.@.$.@.m j P H j | { ) r ",
"( { { Z j h j S [ [ [ [ [ [ [ ] u * O w [ [ $.] [ @.[ [ [ [ $.[ F f B | [ %.) r ",
"( { { { o.}  .[ [ [ [ [ [ [ [ [ $.' 6 X 6 [ ] [ $.] [ [ [ [ [ [ { [ ] [ { { ) r ",
"( { { { [ [ [ [ [ { [ [ [ [ [ [ $.$.$.u X 0 $.[ [ [ [ [ [ [ [ [ [ [ [ [ [ { _ r ",
"( { { ] [ [ [ [ [ [ [ [ [ [ [ $.$.] @.$.w X R @.[ [ [ [ [ @.[ [ [ [ [ { [ { ) r ",
"( { { ] { { [ [ [ [ [ { [ [ [ [ ] $.[ [ ] : - ] $.[ [ [ [ [ $.[ [ [ [ [ { { ) r ",
"( { { { [ [ [ [ [ [ [ [ [ [ [ [ ] @.$.] [ E X a [ [ [ [ [ [ [ [ [ { [ [ { { ) r ",
"( { { ] [ [ [ { [ [ [ [ [ [ { [ [ ] ] [ [ [ ; 2 ] [ [ [ [ [ [ [ ] { { { { { ) r ",
"( { { { [ [ [ [ [ { [ [ [ [ [ [ [ $.[ [ [ $.w @ ] [ [ [ [ [ [ [ { [ { { { { ) r ",
"/ { [ ] [ [ [ [ $.[ [ [ [ [ [ [ [ $.[ [ [ [ R X ^ $.[ [ [ [ [ [ [ [ [ [ [ { ) r ",
"/ $.{ [ [ [ $.[ [ [ [ [ [ [ [ [ [ [ [ [ [ [ ' O i $.[ [ [ [ [ [ [ [ [ { { { ) r ",
"Q $.$.[ [ [ [ [ [ [ [ [ [ [ [ [ [ [ [ [ [ [ $.+ y $.] [ [ [ [ [ [ [ [ [ { { ^ r ",
"/ $.[ [ [ [ [ [ [ [ [ [ [ [ [ [ [ [ [ [ $.] $.+ 6 @.@.$.[ $.[ [ { [ [ [ [ { ) t ",
"/ $.$.] [ [ [ [ [ [ [ [ [ [ [ [ [ [ [ [ [ [ [ + 7 [ [ [ [ [ [ [ [ [ { [ { { ) r ",
"/ $.[ [ [ [ [ [ [ [ [ [ $.[ [ [ [ [ [ [ [ [ $.+ q [ [ [ [ [ [ [ [ [ [ [ { { ) r ",
"/ { { [ [ [ [ $.[ [ [ [ [ [ [ [ [ [ [ [ [ [ ] + y [ [ [ [ [ [ [ [ [ { { [ { ) r ",
"/ $.[ [ [ [ [ @.[ [ [ [ [ [ [ [ [ [ $.[ [ [ ^ o E [ $.[ [ [ [ [ [ [ { { { { ) r ",
"Q $.$.[ [ [ [ [ [ [ [ [ [ [ [ [ ] $.$.] @.$.i   ' ] $.[ [ [ [ [ { [ [ [ [ { ) r ",
"/ $.[ [ [ [ [ [ [ [ [ [ [ [ [ [ ] ] $.@.] $.e $ ] [ [ [ [ [ [ [ [ [ [ [ { { ) r ",
"/ $.$.[ [ [ [ [ [ [ [ [ $.[ [ [ $.] ] $.$.$.> > [ [ [ [ [ [ [ [ [ [ [ [ { { ^ r ",
"/ $.[ ] [ [ [ [ [ [ [ [ [ [ [ [ ] $.$.] $.' & 9 [ [ [ [ [ [ [ [ [ [ [ [ [ { ) t ",
"/ { [ ] [ [ [ [ [ [ [ [ [ $.[ [ @.[ [ [ @.W X W [ $.[ [ [ [ $.[ [ [ { [ { { ) r ",
"Q $.{ [ [ [ [ [ [ [ [ $.[ [ [ [ $.] ] $.$.7 & ' [ [ [ [ [ [ [ [ [ [ [ [ { { ) r ",
"/ $.[ [ [ [ [ [ [ [ [ [ [ [ [ [ $.@.@. .` * 3 [ [ [ [ [ [ [ [ [ [ [ { { [ { ) r ",
"/ $.$.] [ [ [ [ [ [ [ [ [ [ [ [ [ | f h p . R [ [ [ [ [ [ [ [ [ [ [ { { { { ) r ",
"/ $.$.] [ [ { [ [ [ [ ' [ [ [ [ @.l L =.5 % M $.[ [ [ [ [ [ $.[ [ [ [ [ [ { ) r ",
"/ $.[ [ [ [ [ { [ [ [ [ [ [ [ [ O.j ;.-.o r j o.[ @.[ [ [ [ [ [ [ [ [ [ [ %.) r ",
"/ $.$.[ $.[ [ [ ] [ [ [ [ [ [ [ ..x >..., G x o.[ [ [ [ [ [ [ @.[ [ [ [ [ $.) r ",
"/ { [ [ [ [ [ @.[ [ [ [ [ [ $.[ @.j U >.;.J l #.[ [ [ [ [ [ [ $.$.[ [ [ [ %.) r ",
"Q $.$.#.@.$.$.] [ [ [ [ [ [ [ [ $.G h v z j | [ [ [ [ [ [ ] $.] ] [ $.] $.$.) t ",
"Q %.%.$.%.%.$.$.%.%.$.$.$.$.%.$.$.$.+.A F #.$.$.%.%.%.%.%.%.%.$.$.$.%.%.$.&.) r ",
"s _ ) Q Q Q Q Q Q Q Q Q Q Q Q Q ( ) Q Q Q Q Q Q Q Q Q Q Q Q Q Q Q Q Q Q Q Q s r ",
"d t t r r r r r r r r r r r r r r r r r r r r r r r r r r r r r r r r r r r r t "
};
