/* XPM */
static char *result[] = {
/* columns rows colors chars-per-pixel */
"40 40 183 2 ",
"   c black",
".  c #020202",
"X  c gray1",
"o  c #030304",
"O  c #040404",
"+  c gray2",
"@  c #060607",
"#  c #090909",
"$  c #0B0B0C",
"%  c #0C0C0D",
"&  c #111112",
"*  c #121213",
"=  c #131315",
"-  c #141516",
";  c #1A1B1D",
":  c #1B1C1F",
">  c #1C1D1F",
",  c #1F2021",
"<  c #272729",
"1  c #25262A",
"2  c #26272A",
"3  c #2B2C2F",
"4  c #36383C",
"5  c #38393C",
"6  c #393B40",
"7  c #3C3E41",
"8  c #404248",
"9  c #434448",
"0  c #45474D",
"q  c #494B4E",
"w  c #4C4E52",
"e  c #4C4E55",
"r  c #4E5055",
"t  c #4F5156",
"y  c #4E5158",
"u  c #515358",
"i  c #505259",
"p  c #525458",
"a  c #55575C",
"s  c #55575D",
"d  c #57595F",
"f  c #565960",
"g  c #575A60",
"h  c #585B61",
"j  c #5E6067",
"k  c #5E6169",
"l  c #62646B",
"z  c #61656E",
"x  c #65676E",
"c  c #636770",
"v  c #6A6E77",
"b  c #6C7079",
"n  c #6F737D",
"m  c #71747C",
"M  c red",
"N  c #FF0101",
"B  c #FE0303",
"V  c #FD0304",
"C  c #FD0404",
"Z  c #FC0506",
"A  c #FC0607",
"S  c #FB0808",
"D  c #F90C0D",
"F  c #F90D0E",
"G  c #F80E0F",
"H  c #F80E10",
"J  c #F51315",
"K  c #F61315",
"L  c #F21A1C",
"P  c #EE2225",
"I  c #E53439",
"U  c #E63539",
"Y  c #E23B40",
"T  c #E13C42",
"R  c #D85056",
"E  c #D85057",
"W  c #E04045",
"Q  c #FF5A5A",
"!  c #FF5D5D",
"~  c #D25B62",
"^  c #CE646D",
"/  c #D0626A",
"(  c #C86F79",
")  c #C6757F",
"_  c #537094",
"`  c #537095",
"'  c #547094",
"]  c #547196",
"[  c #547296",
"{  c #5A7498",
"}  c #777A83",
"|  c #C17F8A",
" . c #7D828E",
".. c #7E828E",
"X. c #6B84A3",
"o. c #7D8EA8",
"O. c #7A91AD",
"+. c #7B91AD",
"@. c #7D93AF",
"#. c #7E94AF",
"$. c #82868F",
"%. c #838791",
"&. c #888C96",
"*. c #888D99",
"=. c #8B8E99",
"-. c #BE8591",
";. c #B78F9C",
":. c #BA8C98",
">. c #B7909C",
",. c #B8919D",
"<. c #B9929E",
"1. c #8C99AF",
"2. c #9297A5",
"3. c #979CA6",
"4. c #969CA9",
"5. c #8196B2",
"6. c #8398B2",
"7. c #8298B3",
"8. c #8398B3",
"9. c #8399B3",
"0. c #8499B3",
"q. c #869BB5",
"w. c #879BB5",
"e. c #8D9BB0",
"r. c #8E9AB0",
"t. c #8F9CB1",
"y. c #909CB1",
"u. c #929DB2",
"i. c #B496A3",
"p. c #B496A4",
"a. c #B597A4",
"s. c #B598A4",
"d. c #BA9BA6",
"f. c #B39AA8",
"g. c #B39BA8",
"h. c #B29CAA",
"j. c #95A0B4",
"k. c #97A9BE",
"l. c #A1A5B1",
"z. c #A0A5B4",
"x. c #A2A7B6",
"c. c #AFA2B0",
"v. c #AEA4B2",
"b. c #A4A9B6",
"n. c #A4AAB8",
"m. c #ABA9B8",
"M. c #ACAAB8",
"N. c #AAADBC",
"B. c #A9AEBC",
"V. c #A8AEBD",
"C. c #A9AEBD",
"Z. c #A9AFBD",
"A. c #AAAEBD",
"S. c #AAAFBD",
"D. c #A8AEBE",
"F. c #A8AFBE",
"G. c #A9AFBE",
"H. c #A9AFBF",
"J. c #AAAEBE",
"K. c #AAAFBE",
"L. c #ABAFBE",
"P. c #AAB0BD",
"I. c #A9B0BE",
"U. c #AAB0BE",
"Y. c #ABB0BE",
"T. c #ABB1BE",
"R. c #AAB0BF",
"E. c #ABB0BF",
"W. c #ABB1BF",
"Q. c #ACB0BE",
"!. c #ACB1BE",
"~. c #ABB1C0",
"^. c #ADB1C0",
"/. c #AEB3C0",
"(. c #AFB3C0",
"). c #AFB4C0",
"_. c #B0B4C0",
"`. c #B0B4C1",
"'. c #B2B5C1",
"]. c #B2B5C2",
"[. c #B2B6C2",
"{. c #B4B6C2",
"}. c #B8B9C4",
/* pixels */
"w.6.8.5.5.5.5.5.5.5.5.5.5.5.5.5.5.5.5.5.5.5.5.5.5.5.5.5.5.5.5.5.5.5.5.5.5.0.+.#.",
"6.P.R.V.V.V.V.V.V.V.V.V.V.V.V.V.V.V.V.V.V.V.V.V.V.V.V.V.V.V.V.V.V.V.V.V.V.(.y.+.",
"9./.^.E.E.E.E.E.E.E.E.E.E.E.E.E.E.E.E.E.E.E.E.E.E.E.E.E.E.E.E.E.E.E.E.<.E.'.u._ ",
"8.!.R.V.V.V.V.V.V.V.V.V.V.V.V.V.V.V.V.V.V.V.V.V.V.V.V.V.V.V.G.G.G.V.>.H J d.y.' ",
"8.!.E.V.G.G.G.G.G.G.G.G.G.G.G.G.G.G.G.G.G.G.G.G.G.G.G.G.D.G.G.G.G.,.H K i._.y.' ",
"8.!.E.V.G.G.G.G.G.G.G.G.G.G.G.G.G.G.G.G.G.G.G.G.G.G.D.D.Y.G.G.G.,.H K a.V._.y.' ",
"8.!.E.V.G.G.G.G.G.G.G.G.G.G.G.G.G.G.G.G.G.G.G.G.G.D.K.L.G.G.G.,.H K a.G.V._.y.' ",
"8.!.E.V.G.G.G.G.G.G.G.G.G.G.G.G.G.G.G.G.G.G.G.G.F.J.K.G.G.G.,.H K p.G.G.V._.y.' ",
"8.!.E.V.G.G.G.G.G.G.G.G.G.G.G.G.G.G.G.G.G.G.G.F.D.U.G.G.G.,.H K a.Q.D.G.V._.y.' ",
"8.!.E.V.G.G.G.G.G.G.G.G.G.G.G.G.G.G.G.G.G.G.G.F.L.G.G.G.,.H K a.G.G.D.G.V._.y.' ",
"8.!.E.V.G.G.G.G.G.G.G.G.G.G.G.G.G.G.G.G.G.G.G.F.L.G.G.,.H K a.G.G.G.G.G.V._.y.' ",
"8.!.E.V.G.G.G.G.G.G.G.G.G.G.G.G.G.G.G.G.G.G.G.F.;.L ) H K s.G.G.G.G.G.G.V._.y.' ",
"8.!.E.V.G.G.G.G.G.G.G.G.G.G.G.G.G.G.G.G.G.D.I.G.W A F K a.G.G.G.G.G.G.G.V._.y.' ",
"8.!.E.V.G.G.G.G.G.G.G.G.G.G.G.G.G.G.G.D.G.G.G.h.C M S P g.G.G.G.G.G.G.G.V._.y.' ",
"8.!.E.V.G.x.n 6 > %   O - 2 i *.G.G.G.G.G.G.G.E M M N D | G.G.G.G.G.H.G.V._.y.' ",
"8.!.E.4.0 @   * q a f g u 5 .   ; v V.G.G.G.:.V M Z R v.G.G.G.G.G.H.G.G.V._.y.' ",
"8.!.y @ # d 3.~.G.G.G.G.G.G.S.} 5   > ..G.,.G N W f.G.H.H.G.G.G.G.G.G.G.V._.y.' ",
"8.!.. t b.G.G.G.G.G.G.G.G.G.G.G.G.%.< X c ~ K -.G.G.H.G.G.G.G.G.G.G.G.G.V._.y.' ",
"8.!.=.V.G.G.G.G.G.G.D.G.G.G.G.G.G.G.W.w   e c.G.G.G.G.G.G.G.G.G.G.G.G.G.V._.y.' ",
"8.!.E.V.G.G.G.G.G.D.G.G.G.G.H.D.G.G.G.G.x   z G.H.G.G.G.G.G.G.G.G.G.G.G.V._.y.' ",
"8.!.E.V.G.G.G.G.G.I.G.G.G.G.G.G.G.G.G.G.G.r .  .G.G.G.G.G.G.G.G.G.G.G.G.V._.y.' ",
"8.!.E.V.G.G.G.G.G.G.G.G.G.G.G.G.G.G.G.G.G.W.3 > V.G.G.G.G.G.G.G.G.G.G.G.V._.y.' ",
"8.!.E.V.G.G.G.G.G.G.G.G.G.G.G.G.G.G.G.G.G.G.&.  v G.G.G.G.G.G.G.G.G.G.G.V._.y.' ",
"8.!.E.V.G.G.G.G.Z.G.G.G.G.G.G.G.G.G.G.G.G.H.G.7 ; G.G.G.G.G.G.G.G.G.G.G.V._.y.' ",
"8.!.E.V.G.G.G.G.G.G.G.G.G.G.G.G.G.G.G.G.G.G.G.$.  *.G.G.G.G.G.G.G.G.G.G.V._.y.' ",
"8.!.E.V.G.D.I.D.G.G.G.G.G.G.G.G.G.G.G.G.H.G.G.W.O i G.G.G.G.G.G.G.G.G.G.V._.y.' ",
"8.!.E.V.G.I.G.G.G.G.G.G.G.G.G.G.G.G.G.H.G.G.G.G.9 1 G.G.G.G.G.G.G.G.G.G.V._.y.' ",
"8.!.E.V.G.G.G.G.G.G.G.G.G.G.G.G.G.G.G.G.G.G.G.G.s = G.G.G.G.G.G.G.G.G.G.V._.y.' ",
"8.!.E.V.F.G.G.G.G.G.G.G.G.G.G.G.H.G.G.G.G.G.G.G.f o G.G.G.G.G.G.G.G.G.G.V._.y.' ",
"8.!.E.V.D.G.G.G.N.G.G.G.G.G.G.G.G.G.G.G.G.G.G.G.k   n.G.G.G.G.G.G.G.G.G.V._.y.' ",
"8.!.E.V.D.G.M.I B Y N.G.G.G.G.G.G.G.G.G.G.G.G.G.d $ G.G.G.G.G.G.G.G.G.G.V._.y.' ",
"8.!.E.V.D.C.^ M ! M ( G.G.G.G.G.G.G.G.G.G.G.G.G.p : G.G.G.G.G.G.G.G.G.G.V._.y.' ",
"8.!.E.V.G.D./ M Q M ( k.G.G.G.G.G.G.G.G.G.G.G.G., 4 G.G.G.G.G.G.G.G.G.G.V._.y.' ",
"8.!.E.V.G.G.m.U V T N.G.G.G.G.G.G.G.G.G.G.G.G.l.  b G.G.G.G.G.G.G.G.G.G.V._.y.' ",
"8.!.E.V.G.G.G.D.A.G.G.G.G.G.G.H.G.G.G.G.G.G.G.l + z.G.G.G.G.G.G.G.G.G.G.V._.y.' ",
"8.!.E.V.G.G.G.G.F.V.G.G.G.G.H.G.G.G.G.G.G.G.B.& 8 G.G.G.G.G.G.G.G.G.G.G.V._.y.' ",
"7.T.R.V.V.V.V.V.V.V.V.V.V.V.V.V.V.V.V.V.V.V.h O 2.V.V.V.V.V.V.V.V.V.V.V.V.).t.' ",
"q.{.]._.`.`.`.`.`.`.`.`.`.`.`.`.`.`.`.`.`.[.j m `.`.`.`.`.`.`.`.`.`.`.`._.}.j._ ",
"O.e.r.1.1.1.1.1.1.1.1.1.1.1.1.1.1.1.1.1.1.1.1.1.1.1.1.1.1.1.1.1.1.1.1.1.1.y.o.] ",
"@.X.` ` ` ` ` ` ` ` ` ` ` ` ` ` ` ` ` ` ` ` ` ` ` ` ` ` ` ` ` ` ` ` ` ` ` ` [ { "
};
