/* XPM */
static char *result[] = {
/* columns rows colors chars-per-pixel */
"40 40 192 2 ",
"   c black",
".  c #020202",
"X  c #020303",
"o  c #030304",
"O  c #040405",
"+  c #040505",
"@  c #050506",
"#  c #060607",
"$  c #070808",
"%  c gray4",
"&  c #0D0E0F",
"*  c #0F0F11",
"=  c #131314",
"-  c #141516",
";  c #17181A",
":  c #191A1C",
">  c #202124",
",  c #222326",
"<  c #232426",
"1  c #232427",
"2  c #2C2D2F",
"3  c #2E3034",
"4  c #2F3135",
"5  c #313235",
"6  c #404144",
"7  c #404246",
"8  c #43454B",
"9  c #46484C",
"0  c #474A50",
"q  c #4D4E52",
"w  c #4F5259",
"e  c #54555A",
"r  c #565961",
"t  c #595B61",
"y  c #5C5E64",
"u  c #5D5F65",
"i  c #5E6166",
"p  c #5F6167",
"a  c #5E616A",
"s  c #62646D",
"d  c #64666D",
"f  c #64676E",
"g  c #636770",
"h  c #686B72",
"j  c #686B73",
"k  c #696C73",
"l  c #696D76",
"z  c #6A6D76",
"x  c red",
"c  c #FF0101",
"v  c #FE0304",
"b  c #FE0405",
"n  c #FE0506",
"m  c #FE0707",
"M  c #FD0808",
"N  c #FD090A",
"B  c #FC0F10",
"V  c #FB1213",
"C  c #FC1012",
"Z  c #FC1113",
"A  c #FB1214",
"S  c #FA181A",
"D  c #F82023",
"F  c #F72A2E",
"G  c #F24147",
"H  c #F34247",
"J  c #F04A50",
"K  c #F04B52",
"L  c #EF5056",
"P  c #FF5A5A",
"I  c #FF5D5D",
"U  c #EB636C",
"Y  c #EB646D",
"T  c #E8717B",
"R  c #757780",
"E  c #747781",
"W  c #757982",
"Q  c #777A82",
"!  c #7A7E89",
"~  c #E87A84",
"^  c #E67D88",
"/  c #7C808B",
"(  c #678BB8",
")  c #678BBA",
"_  c #678CB8",
"`  c #688CB9",
"'  c #698DBB",
"]  c #698EBB",
"[  c #7091BE",
"{  c #848995",
"}  c #878B97",
"|  c #8D909B",
" . c #8B909C",
".. c #90949F",
"X. c #9DA1AD",
"o. c #9EA3AF",
"O. c #9CA2B0",
"+. c #9DA2B1",
"@. c #A4A9B6",
"#. c #A7ABB8",
"$. c #AAAFBF",
"%. c #E38A97",
"&. c #E2919E",
"*. c #DF9EAC",
"=. c #DEA6B4",
"-. c #DCAEBE",
";. c #84A2C7",
":. c #9AB3D1",
">. c #9CB1D2",
",. c #9CB3D2",
"<. c #9EB6D4",
"1. c #9FB7D4",
"2. c #B6BBC9",
"3. c #B7BDCD",
"4. c #A7BBD6",
"5. c #A7BCD7",
"6. c #A9BDD7",
"7. c #A9BED8",
"8. c #A9BFD8",
"9. c #ABBFD8",
"0. c #ACBFD9",
"q. c #AEBFDA",
"w. c #AFBFDA",
"e. c #DAB3C2",
"r. c #DAB4C3",
"t. c #DBB4C4",
"y. c #DCB5C5",
"u. c #D7BBCC",
"i. c #D8BBCC",
"p. c #D9BCCC",
"a. c #D9BDCC",
"s. c #AEC1DA",
"d. c #AEC2DA",
"f. c #BCC2D3",
"g. c #B1C0DC",
"h. c #B0C1DC",
"j. c #B2C3DD",
"k. c #B3C3DD",
"l. c #B4C3DD",
"z. c #B6C4DE",
"x. c #BAC8E0",
"c. c #BCD3ED",
"v. c #DFC1CF",
"b. c #C2C8D7",
"n. c #C9CFDF",
"m. c #D8C0D1",
"M. c #D8C1D2",
"N. c #D8C3D4",
"B. c #D6CADB",
"V. c #D6CCDE",
"C. c #C7CEE0",
"Z. c #CAD1E3",
"A. c #CCD3E6",
"S. c #CFD5E7",
"D. c #D2D2E6",
"F. c #D4D3E6",
"G. c #D0D6E7",
"H. c #D4D7EA",
"J. c #D2D9EA",
"K. c #D1D9EC",
"L. c #D1D9ED",
"P. c #D2D9EC",
"I. c #D3D9EC",
"U. c #D2D9ED",
"Y. c #D3DAEC",
"T. c #D2DAED",
"R. c #D3DAED",
"E. c #D3DBED",
"W. c #D3DAEE",
"Q. c #D4D9EC",
"!. c #D4D9ED",
"~. c #D4DBEC",
"^. c #D4DAED",
"/. c #D5DAED",
"(. c #D4DBED",
"). c #D5DBED",
"_. c #D6DBED",
"`. c #D4DBEE",
"'. c #D5DBEE",
"]. c #D5DDED",
"[. c #D6DDED",
"{. c #D9DFEF",
"}. c #DADFEF",
"|. c #D8DDF0",
" X c #DAE0F0",
".X c #DBE0F0",
"XX c #DCE0F0",
"oX c #DCE0F1",
"OX c #DEE2F1",
"+X c #DEE2F2",
"@X c #E0E3F2",
"#X c #E6E7F5",
/* pixels */
"s.8.6.4.5.5.5.5.5.5.5.5.5.5.5.5.5.5.5.5.5.5.5.5.5.5.5.5.5.5.5.5.5.5.5.5.4.0.,.1.",
"7.~.`.K.P.P.P.P.P.P.P.P.P.P.P.P.P.P.P.P.P.P.P.P.P.P.P.P.P.P.P.P.P.P.P.P.K.}.k.,.",
"9.{.|.'.'.'.'.'.'.'.'.'.'.'.'.'.'.'.'.'.'.'.'.'.'.'.'.'.'.'.'.'.'.'.'.y.'.OXz._ ",
"7.[.`.P.P.P.P.P.P.P.P.P.P.P.P.P.P.P.P.P.P.P.P.P.P.P.P.P.P.P.R.R.R.P.r.V S v.k.` ",
"7.[.'.P.R.R.R.R.R.R.R.R.R.R.R.R.R.R.R.R.R.R.R.R.R.R.R.R.U.R.R.R.R.t.A S i..Xk.` ",
"7.[.'.P.R.R.R.R.R.R.R.R.R.R.R.R.R.R.R.R.R.R.R.R.R.R.U.L.).R.R.R.t.A S p.P..Xk.` ",
"7.[.'.P.R.R.R.R.R.R.R.R.R.R.R.R.R.R.R.R.R.R.R.R.R.U.^./.R.R.R.t.A S p.R.P..Xk.` ",
"7.[.'.P.R.R.R.R.R.R.R.R.R.R.R.R.R.R.R.R.R.R.R.R.T.!.^.R.R.R.t.A S u.R.R.P..Xk.` ",
"7.[.'.P.R.R.R.R.R.R.R.R.R.R.R.R.R.R.R.R.R.R.R.T.U.(.R.R.R.t.A S p._.U.R.P..Xk.` ",
"7.[.'.P.R.R.R.R.R.R.R.R.R.R.R.R.R.R.R.R.R.R.R.T./.R.R.R.t.A S p.R.R.L.R.P..Xk.` ",
"7.[.'.P.R.R.R.R.R.R.R.R.R.R.R.R.R.R.R.R.R.R.R.T./.R.R.t.V S p.R.R.R.R.R.P..Xk.` ",
"7.[.'.P.R.R.R.R.R.R.R.R.R.R.R.R.R.R.R.R.R.R.R.T.e.D &.A S a.R.R.R.R.R.R.P..Xk.` ",
"7.[.'.P.R.R.R.R.R.R.R.R.R.R.R.R.R.R.R.R.R.U.E.R.L M C S p.R.R.R.R.R.R.R.P..Xk.` ",
"7.[.'.P.R.R.R.R.R.R.R.R.R.R.R.R.R.R.R.U.R.R.R.N.n x N F M.R.R.R.R.R.R.R.P..Xk.` ",
"7.[.'.P.R.Z. .0 1 *   @ : 4 g $.R.R.R.R.R.R.R.Y x x c B *.R.R.R.R.R.W.R.P..Xk.` ",
"7.[.'.f.r $   - e d l k i 6 .   > { P.R.R.R.-.b x m U V.R.R.R.R.R.W.R.R.P..Xk.` ",
"7.[.s $ % h 2.(.R.R.R.R.R.R.G...7   1 +.R.t.Z c L m.R.W.W.R.R.R.R.R.R.R.P..Xk.` ",
"7.[.. u n.R.R.R.R.R.R.R.R.R.R.R.R.o.2 o / T S =.R.R.W.R.R.R.R.R.R.R.R.R.P..Xk.` ",
"7.[.#.P.R.R.R.R.R.R.U.R.R.R.R.R.R.R.^.t   a B.R.R.R.R.R.R.R.R.R.R.R.R.R.P..Xk.` ",
"7.[.'.P.R.R.R.R.R.U.R.R.R.R.W.U.R.R.R.R.Q   ! R.W.R.R.R.R.R.R.R.R.R.R.R.P..Xk.` ",
"7.[.'.P.R.R.R.R.R.E.R.R.R.R.R.R.R.R.R.R.R.y X O.R.R.R.R.R.R.R.R.R.R.R.R.P..Xk.` ",
"7.[.'.P.R.R.R.R.R.R.R.R.R.R.R.R.R.R.R.R.R.^.5 1 P.R.R.R.R.R.R.R.R.R.R.R.P..Xk.` ",
"7.[.'.P.R.R.R.R.R.R.R.R.R.R.R.R.R.R.R.R.R.R.@.  { R.R.R.R.R.R.R.R.R.R.R.P..Xk.` ",
"7.[.'.P.R.R.R.R.Y.R.R.R.R.R.R.R.R.R.R.R.R.W.R.9 > R.R.R.R.R.R.R.R.R.R.R.P..Xk.` ",
"7.[.'.P.R.R.R.R.R.R.R.R.R.R.R.R.R.R.R.R.R.R.R.X.  $.R.R.R.R.R.R.R.R.R.R.P..Xk.` ",
"7.[.'.P.R.U.E.U.R.R.R.R.R.R.R.R.R.R.R.R.W.R.R.J.+ g R.R.R.R.R.R.R.R.R.R.P..Xk.` ",
"7.[.'.P.R.E.R.R.R.R.R.R.R.R.R.R.R.R.R.W.R.R.R.R.q 3 R.R.R.R.R.R.R.R.R.R.P..Xk.` ",
"7.[.'.P.R.R.R.R.R.R.R.R.R.R.R.R.R.R.R.R.R.R.R.R.f ; R.R.R.R.R.R.R.R.R.R.P..Xk.` ",
"7.[.'.P.T.R.R.R.R.R.R.R.R.R.R.R.W.R.R.R.R.R.R.R.z O R.R.R.R.R.R.R.R.R.R.P..Xk.` ",
"7.[.'.P.U.R.R.R.H.R.R.R.R.R.R.R.R.R.R.R.R.R.R.R.E   A.R.R.R.R.R.R.R.R.R.P..Xk.` ",
"7.[.'.P.U.R.F.G v J H.R.R.R.R.R.R.R.R.R.R.R.R.R.j & R.R.R.R.R.R.R.R.R.R.P..Xk.` ",
"7.[.'.P.U.I.^ x I x %.R.R.R.R.R.R.R.R.R.R.R.R.R.p , R.R.R.R.R.R.R.R.R.R.P..Xk.` ",
"7.[.'.P.R.U.~ x P x %.c.R.R.R.R.R.R.R.R.R.R.R.R.< 8 R.R.R.R.R.R.R.R.R.R.P..Xk.` ",
"7.[.'.P.R.R.D.H b K H.R.R.R.R.R.R.R.R.R.R.R.R.b.  } R.R.R.R.R.R.R.R.R.R.P..Xk.` ",
"7.[.'.P.R.R.R.U.Q.R.R.R.R.R.R.W.R.R.R.R.R.R.R.W # C.R.R.R.R.R.R.R.R.R.R.P..Xk.` ",
"7.[.'.P.R.R.R.R.T.P.R.R.R.R.W.R.R.R.R.R.R.R.S.= w R.R.R.R.R.R.R.R.R.R.R.P..Xk.` ",
"6.].`.P.P.P.P.P.P.P.P.P.P.P.P.P.P.P.P.P.P.P.k @ 3.P.P.P.P.P.P.P.P.P.P.P.P. Xj.` ",
"d.@X+XXXoXoXoXoXoXoXoXoXoXoXoXoXoXoXoXoXoXXXR | oXoXoXoXoXoXoXoXoXoXoXoXXX#Xx.( ",
":.h.g.q.w.w.w.w.w.w.w.w.w.w.w.w.w.w.w.w.w.w.w.w.w.w.w.w.w.w.w.w.w.w.w.w.q.l.>.' ",
"<.;.) ) ) ) ) ) ) ) ) ) ) ) ) ) ) ) ) ) ) ) ) ) ) ) ) ) ) ) ) ) ) ) ) ) ) ) ] [ "
};
