/* XPM */
static char *result[] = {
/* columns rows colors chars-per-pixel */
"40 40 180 2 ",
"   c black",
".  c #0D0E0F",
"X  c #0F0F11",
"o  c #131415",
"O  c #1F2023",
"+  c #2B353B",
"@  c #33353A",
"#  c #35373B",
"$  c #4A4C53",
"%  c #61646D",
"&  c #6A6D77",
"*  c #737781",
"=  c #757984",
"-  c #777B86",
";  c #777C86",
":  c #7A7E8A",
">  c #7A7F8A",
",  c #308DB9",
"<  c #7D818C",
"1  c #7C92A3",
"2  c #678BB8",
"3  c #678BBA",
"4  c #678CB8",
"5  c #688CB9",
"6  c #698DBB",
"7  c #698EBB",
"8  c #7091BE",
"9  c #3597C5",
"0  c #0BA5E7",
"q  c #0CA5E7",
"w  c #0FA6E7",
"e  c #0EA6E8",
"r  c #11A7E7",
"t  c #13A8E7",
"y  c #16A8E7",
"u  c #18AAE7",
"i  c #11A7E8",
"p  c #12A7E8",
"a  c #15A7E8",
"s  c #17A8E8",
"d  c #17A9E8",
"f  c #19A9E8",
"g  c #1AA9E9",
"h  c #1BABE8",
"j  c #1FADE8",
"k  c #23ADE7",
"l  c #21ADE8",
"z  c #25ACE9",
"x  c #26ADE9",
"c  c #25AFE8",
"v  c #2AAEEA",
"b  c #2BB0E7",
"n  c #27B0E8",
"m  c #30B0E9",
"M  c #31B3E8",
"N  c #36B2E9",
"B  c #34B1EA",
"V  c #35B5E8",
"C  c #3BB6E8",
"Z  c #3DB7E8",
"A  c #59ABD5",
"S  c #6AB1D7",
"D  c #40B4E9",
"F  c #44BAE8",
"G  c #48BBE8",
"H  c #4FBEE8",
"J  c #51B9EB",
"K  c #57BBEB",
"L  c #53BFE8",
"P  c #50B9EC",
"I  c #5CBCEC",
"U  c #5DBDEC",
"Y  c #60BDEC",
"T  c #59C2E8",
"R  c #5EC4E9",
"E  c #64C5E9",
"W  c #67C6E9",
"Q  c #68C7E8",
"!  c #68C7E9",
"~  c #69C0EC",
"^  c #75C3EB",
"/  c #7FC5ED",
"(  c #72CAE9",
")  c #7DCEE9",
"_  c #8D929F",
"`  c #9196A3",
"'  c #84A2C7",
"]  c #9AB3D1",
"[  c #9CB1D2",
"{  c #9CB3D2",
"}  c #9EB6D4",
"|  c #9FB7D4",
" . c #A7BBD6",
".. c #A7BCD7",
"X. c #A9BDD7",
"o. c #A9BED8",
"O. c #A9BFD8",
"+. c #ABBFD8",
"@. c #ACBFD9",
"#. c #AEBFDA",
"$. c #AFBFDA",
"%. c #AEC1DA",
"&. c #AEC2DA",
"*. c #BCC2D3",
"=. c #B1C0DC",
"-. c #B0C1DC",
";. c #B2C3DD",
":. c #B3C3DD",
">. c #B4C3DD",
",. c #B6C4DE",
"<. c #84C5EB",
"1. c #80C5ED",
"2. c #8CCAED",
"3. c #93CAEC",
"4. c #94CBEC",
"5. c #96CCED",
"6. c #9CCEED",
"7. c #81D0E9",
"8. c #8BD3E9",
"9. c #8DD4E9",
"0. c #93D6E9",
"q. c #95D7E9",
"w. c #97D8E9",
"e. c #98D8E9",
"r. c #98D8EA",
"t. c #99D9EA",
"y. c #A2CFED",
"u. c #BAC8E0",
"i. c #B1D2ED",
"p. c #B0D3ED",
"a. c #B4D3ED",
"s. c #B5D4EE",
"d. c #BCD3ED",
"f. c #BAD5ED",
"g. c #BED6EE",
"h. c #C1C7D9",
"j. c #C1C7DA",
"k. c #C5CBDD",
"l. c #C4D7ED",
"z. c #C9D8ED",
"x. c #C9D9EE",
"c. c #CAD8EE",
"v. c #CBD9EE",
"b. c #CFD9EC",
"n. c #CFD9EE",
"m. c #D1D9EC",
"M. c #D1D9ED",
"N. c #D2D9EC",
"B. c #D3D9EC",
"V. c #D2D9ED",
"C. c #D0DAED",
"Z. c #D2DAED",
"A. c #D3DAED",
"S. c #D3DBED",
"D. c #D3DAEE",
"F. c #D4D9EC",
"G. c #D4D9ED",
"H. c #D4DBEC",
"J. c #D4DAED",
"K. c #D5DAED",
"L. c #D4DBED",
"P. c #D5DBED",
"I. c #D6DAEC",
"U. c #D7DAEC",
"Y. c #D6DBED",
"T. c #D4DBEE",
"R. c #D5DBEE",
"E. c #D5DDED",
"W. c #D6DDED",
"Q. c #D9DFEF",
"!. c #DADFEF",
"~. c #D8DDF0",
"^. c #DAE0F0",
"/. c #DBE0F0",
"(. c #DCE0F0",
"). c #DCE0F1",
"_. c #DEE2F1",
"`. c #DEE2F2",
"'. c #E0E3F2",
"]. c #E6E7F5",
/* pixels */
"%.O.X. ................................................................. .@.{ | ",
"o.H.T.m.N.N.N.N.N.N.N.N.N.N.N.N.N.N.N.N.N.N.N.N.N.N.N.N.N.N.N.N.N.N.N.N.m.!.:.{ ",
"+.Q.~.R.R.R.R.R.R.R.R.R.R.R.R.R.R.R.R.R.R.R.R.R.R.R.R.R.R.R.R.R.R.R.R.R.R._.,.4 ",
"o.W.T.N.N.N.N.N.N.N.N.N.N.N.N.N.N.N.N.N.N.N.N.N.N.N.N.N.N.N.A.A.A.N.N.N.N.^.:.5 ",
"o.W.R.N.A.A.A.A.A.A.A.A.A.A.A.A.A.A.A.A.A.A.A.A.A.A.A.A.V.A.A.A.A.A.A.A.N./.:.5 ",
"o.W.R.N.A.A.A.A.A.A.A.A.A.A.A.A.A.A.A.A.A.A.A.A.A.A.V.M.P.A.A.A.A.A.A.A.N./.:.5 ",
"o.W.R.N.A.A.A.A.A.A.A.A.A.A.A.A.A.A.A.A.A.A.A.A.A.V.J.K.A.A.A.A.A.A.A.A.N./.:.5 ",
"o.W.R.N.A.A.A.A.A.A.A.A.A.A.A.A.A.A.A.A.A.A.A.A.Z.G.J.A.A.A.A.A.A.M.A.A.N./.:.5 ",
"o.W.R.N.A.A.A.A.A.A.A.A.A.A.A.A.A.A.A.A.A.A.A.Z.V.L.A.A.A.A.A.A.A.Y.V.A.N./.:.5 ",
"o.W.R.N.A.A.A.A.A.A.A.A.A.A.A.A.A.A.A.A.A.A.A.Z.K.A.A.A.5.B w J i.A.M.A.N./.:.5 ",
"o.W.R.N.A.A.A.A.A.A.A.A.A.A.A.A.A.A.A.A.A.A.A.Z.K.A.A.2.i H ! C p s.A.A.N./.:.5 ",
"o.W.R.N.A.A.A.A.A.A.A.A.A.A.A.A.A.A.A.A.A.A.A.Z.N.A.C.f Q e.t.w.Z K A.A.N./.:.5 ",
"o.W.R.N.A.A.A.A.A.` > > > > > > > > > > > : > > > > 1 0 q.t.t.t.( g A.A.N./.:.5 ",
"o.W.R.N.A.A.A.A.$ o                                 + q 9.t.t.t.W v A.A.N./.:.5 ",
"o.W.R.N.A.A.A.A.  & *.*.*.*.*.*.*.*.*.*.*.*.*.*.*.*.j.N F q.t.8.l ^ D.A.N./.:.5 ",
"o.W.R.N.A.A.A.A.  - A.A.A.A.A.V.A.A.A.A.A.A.A.A.A.A.A.p.x j V u D c.A.A.N./.:.5 ",
"o.W.R.N.A.A.A.A.  - A.A.A.A.A.A.A.A.A.A.A.A.A.A.A.A.A.D.g.S 9 4.z.A.A.A.N./.:.5 ",
"o.W.R.N.A.A.A.A.  - A.A.A.A.A.A.A.A.A.A.A.A.A.A.A.A.D.A.A.* O A.A.A.A.A.N./.:.5 ",
"o.W.R.N.A.A.A.A.  - V.A.A.A.A.A.A.A.A.A.A.A.A.A.A.A.A.A.A.& . A.A.A.A.A.N./.:.5 ",
"o.W.R.N.A.A.A.A.  - A.A.A.A.D.V.A.A.A.A.A.A.A.A.D.A.A.A.A.& . A.A.A.A.A.N./.:.5 ",
"o.W.R.N.A.A.A.A.  ; A.A.A.A.A.A.A.A.A.A.A.A.A.D.A.A.A.A.A.& . A.A.A.A.A.N./.:.5 ",
"o.W.R.N.A.A.A.A.  - A.A.A.A.A.A.A.A.A.A.A.A.D.A.A.A.A.A.A.& . A.A.A.A.A.N./.:.5 ",
"o.W.R.N.A.A.A.A.  - A.A.A.A.A.A.A.A.A.A.A.A.A.A.A.A.A.A.A.& . A.A.A.A.A.N./.:.5 ",
"o.W.R.N.A.A.A.A.X < A.A.A.A.A.A.A.A.A.A.A.D.A.A.A.A.A.A.A.& . A.A.A.A.A.N./.:.5 ",
"o.W.R.N.A.A.n.y., A a.A.A.A.A.A.A.A.A.A.A.A.A.A.A.A.A.A.A.& . A.A.A.A.A.N./.:.5 ",
"o.W.R.N.A.b.~ r M n d 4.A.A.A.A.A.A.A.A.D.A.A.A.A.A.A.A.A.& . A.A.A.A.A.N./.:.5 ",
"o.W.R.N.A.6.t ) t.r.R s x.A.A.A.A.A.A.D.A.A.A.A.A.A.A.A.A.& . A.A.A.A.A.N./.:.5 ",
"o.W.R.N.A.U G t.t.t.r.h 3.k.h.h.h.h.h.h.h.h.h.h.h.h.h.h.h.% . A.A.A.A.A.N./.:.5 ",
"o.W.R.N.Z.P L t.t.t.r.c <.#                                 @ A.A.A.A.A.N./.:.5 ",
"o.W.R.N.V.1.k 0.t.r.7.e f._ = = = = = = = = = = = = = = = = *.A.A.A.A.A.N./.:.5 ",
"o.W.R.N.V.v.m b E T y I A.A.A.A.A.A.A.A.A.A.A.A.A.A.A.A.A.A.A.A.A.A.A.A.N./.:.5 ",
"o.W.R.N.V.B.l.Y a z / S.A.A.A.A.A.A.A.A.A.A.A.A.A.A.A.A.A.A.A.A.A.A.A.A.N./.:.5 ",
"o.W.R.N.A.V.I.A.A.A.A.d.A.A.A.A.A.A.A.A.A.A.A.A.A.A.A.A.A.A.A.A.A.A.A.A.N./.:.5 ",
"o.W.R.N.A.A.M.U.A.A.A.A.A.A.A.A.A.A.A.A.A.A.A.A.A.A.A.A.A.A.A.A.A.A.A.A.N./.:.5 ",
"o.W.R.N.A.A.A.V.F.A.A.A.A.A.A.D.A.A.A.A.A.A.A.A.A.A.A.A.A.A.A.A.A.A.A.A.N./.:.5 ",
"o.W.R.N.A.A.A.A.Z.N.A.A.A.A.D.A.A.A.A.A.A.A.A.A.A.A.A.A.A.A.A.A.A.A.A.A.N./.:.5 ",
"X.E.T.N.N.N.N.N.N.N.N.N.N.N.N.N.N.N.N.N.N.N.N.N.N.N.N.N.N.N.N.N.N.N.N.N.N.^.;.5 ",
"&.'.`.(.).).).).).).).).).).).).).).).).).).).).).).).).).).).).).).).).(.].u.2 ",
"] -.=.#.$.$.$.$.$.$.$.$.$.$.$.$.$.$.$.$.$.$.$.$.$.$.$.$.$.$.$.$.$.$.$.$.#.>.[ 6 ",
"} ' 3 3 3 3 3 3 3 3 3 3 3 3 3 3 3 3 3 3 3 3 3 3 3 3 3 3 3 3 3 3 3 3 3 3 3 3 7 8 "
};
