/* XPM */
static char *result[] = {
/* columns rows colors chars-per-pixel */
"40 40 173 2 ",
"   c black",
".  c #0B0B0C",
"X  c #0C0C0D",
"o  c #0F1011",
"O  c #191A1C",
"+  c #292B2E",
"@  c #252F34",
"#  c #2A2C30",
"$  c #3B3D42",
"%  c #4E5057",
"&  c #55585F",
"*  c #5C5F68",
"=  c #5E616A",
"-  c #5F626B",
";  c #5F636B",
":  c #62656E",
">  c #62666E",
",  c #646871",
"<  c #71757F",
"1  c #537094",
"2  c #537095",
"3  c #547094",
"4  c #547196",
"5  c #547296",
"6  c #5A7498",
"7  c #687D8C",
"8  c #747882",
"9  c #2784B0",
"0  c #2B8CB9",
"q  c #6B84A3",
"w  c #7D8EA8",
"e  c #7A91AD",
"r  c #7B91AD",
"t  c #7D93AF",
"y  c #7E94AF",
"u  c #36AADE",
"i  c #0CA3E4",
"p  c #0BA4E6",
"a  c #0BA5E7",
"s  c #0DA4E7",
"d  c #16A5E3",
"f  c #12A4E5",
"g  c #10A5E6",
"h  c #10A6E6",
"j  c #12A7E6",
"k  c #14A5E5",
"l  c #17A5E5",
"z  c #14A7E5",
"x  c #17A9E6",
"c  c #16A8E7",
"v  c #1BABE8",
"b  c #1FADE8",
"n  c #20A7E3",
"m  c #21A7E3",
"M  c #25A8E3",
"N  c #23ADE7",
"B  c #29A8E1",
"V  c #2FAAE0",
"C  c #2EAAE2",
"Z  c #21ADE8",
"A  c #25AFE8",
"S  c #2AB0E7",
"D  c #27B0E8",
"F  c #31B3E8",
"G  c #35B5E8",
"H  c #3AB6E8",
"J  c #3DB7E8",
"K  c #4A9CC4",
"L  c #58A0C4",
"P  c #46AEDE",
"I  c #4BAEDD",
"U  c #4EAEDC",
"Y  c #51AEDC",
"T  c #59AFD9",
"R  c #50B0DE",
"E  c #79AFCE",
"W  c #6BACD0",
"Q  c #6AAFD4",
"!  c #6AAFD5",
"~  c #62B0D6",
"^  c #75B3D4",
"/  c #7BB1D0",
"(  c #7CB2D1",
")  c #7DB2D1",
"_  c #45AEE0",
"`  c #44BAE8",
"'  c #48BBE8",
"]  c #4FBEE8",
"[  c #53BFE8",
"{  c #59C2E8",
"}  c #5EC4E9",
"|  c #64C5E9",
" . c #67C6E9",
".. c #68C7E8",
"X. c #68C7E9",
"o. c #72CAE9",
"O. c #7DCEE9",
"+. c #8C99AF",
"@. c #969CA9",
"#. c #8196B2",
"$. c #8398B2",
"%. c #8298B3",
"&. c #8398B3",
"*. c #8399B3",
"=. c #8499B3",
"-. c #869BB5",
";. c #879BB5",
":. c #8D9BB0",
">. c #8E9AB0",
",. c #8F9CB1",
"<. c #909CB1",
"1. c #929DB2",
"2. c #9AA0AE",
"3. c #9BA0AF",
"4. c #95A0B4",
"5. c #9EA3B1",
"6. c #97A9BE",
"7. c #A6AFBF",
"8. c #A8AEBD",
"9. c #A9AEBD",
"0. c #AAAEBD",
"q. c #A8AEBE",
"w. c #A8AFBE",
"e. c #A9AFBE",
"r. c #A9AFBF",
"t. c #AAAEBE",
"y. c #AAAFBE",
"u. c #ABAFBE",
"i. c #ACAFBD",
"p. c #AAB0BD",
"a. c #A9B0BF",
"s. c #AAB0BE",
"d. c #ABB0BE",
"f. c #ABB1BE",
"g. c #AAB0BF",
"h. c #ABB0BF",
"j. c #ACB0BE",
"k. c #ACB1BE",
"l. c #81B2CE",
"z. c #86B2CE",
"x. c #9BB2C6",
"c. c #9FB2C5",
"v. c #91B1C9",
"b. c #90B2C9",
"n. c #93B2C9",
"m. c #95B2C9",
"M. c #9AB4C9",
"N. c #A2B0C2",
"B. c #A6B0C1",
"V. c #A4B1C3",
"C. c #A5B2C3",
"Z. c #A4B4C5",
"A. c #ABB1C0",
"S. c #A9B2C1",
"D. c #ADB1C0",
"F. c #AEB3C0",
"G. c #AFB3C0",
"H. c #AFB4C0",
"J. c #B0B4C0",
"K. c #B0B4C1",
"L. c #B2B5C1",
"P. c #B2B5C2",
"I. c #B4B6C2",
"U. c #B8B9C4",
"Y. c #81D0E9",
"T. c #8BD3E9",
"R. c #8DD4E9",
"E. c #93D6E9",
"W. c #95D7E9",
"Q. c #97D8E9",
"!. c #98D8E9",
"~. c #98D8EA",
"^. c #99D9EA",
/* pixels */
";.$.&.#.#.#.#.#.#.#.#.#.#.#.#.#.#.#.#.#.#.#.#.#.#.#.#.#.#.#.#.#.#.#.#.#.#.=.r y ",
"$.p.g.8.8.8.8.8.8.8.8.8.8.8.8.8.8.8.8.8.8.8.8.8.8.8.8.8.8.8.8.8.8.8.8.8.8.G.<.r ",
"*.F.D.h.h.h.h.h.h.h.h.h.h.h.h.h.h.h.h.h.h.h.h.h.h.h.h.h.h.h.h.h.h.h.h.h.h.L.1.1 ",
"&.k.g.8.8.8.8.8.8.8.8.8.8.8.8.8.8.8.8.8.8.8.8.8.8.8.8.8.8.8.e.e.e.8.8.8.8.H.<.3 ",
"&.k.h.8.e.e.e.e.e.e.e.e.e.e.e.e.e.e.e.e.e.e.e.e.e.e.e.e.q.e.e.e.e.e.e.e.8.J.<.3 ",
"&.k.h.8.e.e.e.e.e.e.e.e.e.e.e.e.e.e.e.e.e.e.e.e.e.e.q.q.d.e.e.e.e.e.e.e.8.J.<.3 ",
"&.k.h.8.e.e.e.e.e.e.e.e.e.e.e.e.e.e.e.e.e.e.e.e.e.q.y.u.e.e.e.e.e.e.e.e.8.J.<.3 ",
"&.k.h.8.e.e.e.e.e.e.e.e.e.e.e.e.e.e.e.e.e.e.e.e.w.t.y.e.e.e.e.e.e.q.e.e.8.J.<.3 ",
"&.k.h.8.e.e.e.e.e.e.e.e.e.e.e.e.e.e.e.e.e.e.e.w.q.s.e.e.e.e.e.e.e.j.q.e.8.J.<.3 ",
"&.k.h.8.e.e.e.e.e.e.e.e.e.e.e.e.e.e.e.e.e.e.e.w.u.e.e.e.) C i P v.e.q.e.8.J.<.3 ",
"&.k.h.8.e.e.e.e.e.e.e.e.e.e.e.e.e.e.e.e.e.e.e.w.u.e.e.^ g ] X.H g m.e.e.8.J.<.3 ",
"&.k.h.8.e.e.e.e.e.e.e.e.e.e.e.e.e.e.e.e.e.e.e.w.8.e.S.d ..!.^.Q.J I e.e.8.J.<.3 ",
"&.k.h.8.e.e.e.e.e.8 > > > > > > > > > > > : > > > > 7 a W.^.^.^.o.l e.e.8.J.<.3 ",
"&.k.h.8.e.e.e.e.$ o                                 @ p R.^.^.^. .M e.e.8.J.<.3 ",
"&.k.h.8.e.e.e.e.  & @.@.@.@.@.@.@.@.@.@.@.@.@.@.@.@.3.V ` W.^.T.Z ~ r.e.8.J.<.3 ",
"&.k.h.8.e.e.e.e.  ; e.e.e.e.e.q.e.e.e.e.e.e.e.e.e.e.e.b.m b G x u V.e.e.8.J.<.3 ",
"&.k.h.8.e.e.e.e.  ; e.e.e.e.e.e.e.e.e.e.e.e.e.e.e.e.e.r.x.L 0 ( N.e.e.e.8.J.<.3 ",
"&.k.h.8.e.e.e.e.  ; e.e.e.e.e.e.e.e.e.e.e.e.e.e.e.e.r.e.e.* O e.e.e.e.e.8.J.<.3 ",
"&.k.h.8.e.e.e.e.  ; q.e.e.e.e.e.e.e.e.e.e.e.e.e.e.e.e.e.e.& . e.e.e.e.e.8.J.<.3 ",
"&.k.h.8.e.e.e.e.  - e.e.e.e.r.q.e.e.e.e.e.e.e.e.r.e.e.e.e.& . e.e.e.e.e.8.J.<.3 ",
"&.k.h.8.e.e.e.e.  ; e.e.e.e.e.e.e.e.e.e.e.e.e.r.e.e.e.e.e.& . e.e.e.e.e.8.J.<.3 ",
"&.k.h.8.e.e.e.e.  ; e.e.e.e.e.e.e.e.e.e.e.e.r.e.e.e.e.e.e.& . e.e.e.e.e.8.J.<.3 ",
"&.k.h.8.e.e.e.e.  ; e.e.e.e.e.e.e.e.e.e.e.e.e.e.e.e.e.e.e.& . e.e.e.e.e.8.J.<.3 ",
"&.k.h.8.e.e.e.e.X , e.e.e.e.e.e.e.e.e.e.e.r.e.e.e.e.e.e.e.& . e.e.e.e.e.8.J.<.3 ",
"&.k.h.8.e.e.B.z.9 K n.a.e.e.e.e.e.e.e.e.e.e.e.e.e.e.e.e.e.& . e.e.e.e.e.8.J.<.3 ",
"&.k.h.8.e.7.T h F D z / e.e.e.e.e.e.e.e.r.e.e.e.e.e.e.e.e.& . e.e.e.e.e.8.J.<.3 ",
"&.k.h.8.e.l.j O.^.~.} k Z.e.e.e.e.e.e.r.e.e.e.e.e.e.e.e.e.& . e.e.e.e.e.8.J.<.3 ",
"&.k.h.8.e.R ' ^.^.^.~.v E 5.2.2.2.2.2.2.2.2.2.2.2.2.2.2.2.% . e.e.e.e.e.8.J.<.3 ",
"&.k.h.8.w._ [ ^.^.^.~.A W #                                 + e.e.e.e.e.8.J.<.3 ",
"&.k.h.8.q.Q N E.^.~.Y.s M.< = = = = = = = = = = = = = = = = @.e.e.e.e.e.8.J.<.3 ",
"&.k.h.8.q.C.B S | { c U e.e.e.e.e.e.e.e.e.e.e.e.e.e.e.e.e.e.e.e.e.e.e.e.8.J.<.3 ",
"&.k.h.8.q.9.c.Y f n ! A.e.e.e.e.e.e.e.e.e.e.e.e.e.e.e.e.e.e.e.e.e.e.e.e.8.J.<.3 ",
"&.k.h.8.e.q.i.e.e.e.e.6.e.e.e.e.e.e.e.e.e.e.e.e.e.e.e.e.e.e.e.e.e.e.e.e.8.J.<.3 ",
"&.k.h.8.e.e.q.i.e.e.e.e.e.e.e.e.e.e.e.e.e.e.e.e.e.e.e.e.e.e.e.e.e.e.e.e.8.J.<.3 ",
"&.k.h.8.e.e.e.q.0.e.e.e.e.e.e.r.e.e.e.e.e.e.e.e.e.e.e.e.e.e.e.e.e.e.e.e.8.J.<.3 ",
"&.k.h.8.e.e.e.e.w.8.e.e.e.e.r.e.e.e.e.e.e.e.e.e.e.e.e.e.e.e.e.e.e.e.e.e.8.J.<.3 ",
"%.f.g.8.8.8.8.8.8.8.8.8.8.8.8.8.8.8.8.8.8.8.8.8.8.8.8.8.8.8.8.8.8.8.8.8.8.H.,.3 ",
"-.I.P.J.K.K.K.K.K.K.K.K.K.K.K.K.K.K.K.K.K.K.K.K.K.K.K.K.K.K.K.K.K.K.K.K.J.U.4.1 ",
"e :.>.+.+.+.+.+.+.+.+.+.+.+.+.+.+.+.+.+.+.+.+.+.+.+.+.+.+.+.+.+.+.+.+.+.+.<.w 4 ",
"t q 2 2 2 2 2 2 2 2 2 2 2 2 2 2 2 2 2 2 2 2 2 2 2 2 2 2 2 2 2 2 2 2 2 2 2 2 5 6 "
};
