/* XPM */
static char *result[] = {
/* columns rows colors chars-per-pixel */
"40 40 171 2 ",
"   c #221E1F",
".  c #231E20",
"X  c #221F20",
"o  c #231F20",
"O  c #241F21",
"+  c #242021",
"@  c #252122",
"#  c #252223",
"$  c #262223",
"%  c #262324",
"&  c #272324",
"*  c #292628",
"=  c #2A2628",
"-  c #2B2728",
";  c #2A2729",
":  c #2B292A",
">  c #2C282A",
",  c #2C292B",
"<  c #2E2A2C",
"1  c #2F2B2D",
"2  c #312E30",
"3  c #333031",
"4  c #323032",
"5  c #323033",
"6  c #353134",
"7  c #353235",
"8  c #373335",
"9  c #373436",
"0  c #373537",
"q  c #373538",
"w  c #373638",
"e  c #383638",
"r  c #3A383A",
"t  c #3C393C",
"y  c #3E3C3F",
"u  c #3F3E43",
"i  c #403E41",
"p  c #423E41",
"a  c #413F42",
"s  c #414144",
"d  c #454448",
"f  c #474549",
"g  c #474649",
"h  c #4C4B4F",
"j  c #4F4D52",
"k  c #4F4E52",
"l  c #535154",
"z  c #525256",
"x  c #54555A",
"c  c #55555A",
"v  c #57555A",
"b  c #56565B",
"n  c #5A5A5F",
"m  c #5B5B61",
"M  c #5C5B60",
"N  c #5D5D62",
"B  c #5D5F64",
"V  c #5F5F65",
"C  c #5F6066",
"Z  c #616167",
"A  c #626267",
"S  c #616268",
"D  c #67676E",
"F  c #696A71",
"G  c #6B6C74",
"H  c #6E6F76",
"J  c #6F7179",
"K  c #71747C",
"L  c #74757D",
"P  c #74757E",
"I  c #537094",
"U  c #537095",
"Y  c #547094",
"T  c #547196",
"R  c #547296",
"E  c #5A7498",
"W  c #797A83",
"Q  c #7A7D85",
"!  c #7B7D86",
"~  c #7D7F89",
"^  c #6B84A3",
"/  c #7D8EA8",
"(  c #7A91AD",
")  c #7B91AD",
"_  c #7D93AF",
"`  c #7E94AF",
"'  c #81838C",
"]  c #81838D",
"[  c #858790",
"{  c #878994",
"}  c #868A94",
"|  c #898C96",
" . c #8A8C96",
".. c #8B8F99",
"X. c #8C909A",
"o. c #8F929D",
"O. c #8E939E",
"+. c #90939E",
"@. c #90939F",
"#. c #8C99AF",
"$. c #9195A1",
"%. c #9297A1",
"&. c #959AA7",
"*. c #969BA7",
"=. c #989DA9",
"-. c #9A9EAC",
";. c #9B9FAC",
":. c #8196B2",
">. c #8398B2",
",. c #8298B3",
"<. c #8398B3",
"1. c #8399B3",
"2. c #8499B3",
"3. c #869BB5",
"4. c #879BB5",
"5. c #8D9BB0",
"6. c #8E9AB0",
"7. c #8F9CB1",
"8. c #909CB1",
"9. c #929DB2",
"0. c #9DA1AE",
"q. c #9EA2AE",
"w. c #95A0B4",
"e. c #9DA2B0",
"r. c #9EA3B0",
"t. c #9EA4B0",
"y. c #9EA4B1",
"u. c #97A9BE",
"i. c #A0A4B2",
"p. c #A0A5B2",
"a. c #A0A6B3",
"s. c #A1A6B3",
"d. c #A2A7B4",
"f. c #A3A7B5",
"g. c #A2A7B6",
"h. c #A3A8B5",
"j. c #A3A8B6",
"k. c #A6ABB9",
"l. c #A6ACB9",
"z. c #A6ACBC",
"x. c #A8ADBC",
"c. c #A8AEBD",
"v. c #A9AEBD",
"b. c #A9AFBD",
"n. c #AAAEBD",
"m. c #A8AEBE",
"M. c #A8AFBE",
"N. c #A9AFBE",
"B. c #A9AFBF",
"V. c #AAAEBE",
"C. c #AAAFBE",
"Z. c #ABAFBE",
"A. c #ACAFBD",
"S. c #AAB0BD",
"D. c #A9B0BE",
"F. c #ABB0BE",
"G. c #ABB1BE",
"H. c #AAB0BF",
"J. c #ABB0BF",
"K. c #ACB0BE",
"L. c #ACB1BE",
"P. c #ADB1C0",
"I. c #AEB3C0",
"U. c #AFB3C0",
"Y. c #AFB4C0",
"T. c #B0B4C0",
"R. c #B0B4C1",
"E. c #B2B5C1",
"W. c #B2B5C2",
"Q. c #B4B6C2",
"!. c #B8B9C4",
/* pixels */
"4.>.<.:.:.:.:.:.:.:.:.:.:.:.:.:.:.:.:.:.:.:.:.:.:.:.:.:.:.:.:.:.:.:.:.:.:.2.) ` ",
">.S.H.c.c.c.c.c.c.c.c.c.c.c.c.c.c.c.c.c.c.c.c.c.c.c.c.c.c.c.c.c.c.c.c.c.c.U.8.) ",
"1.I.P.J.J.J.J.J.J.J.J.J.J.J.J.J.J.J.J.J.J.J.J.J.J.J.J.J.J.J.J.J.J.J.J.J.J.E.9.I ",
"<.L.H.c.c.c.c.c.c.c.c.c.c.c.c.c.c.c.c.c.c.c.c.c.c.c.c.c.c.c.N.N.N.c.c.c.c.Y.8.Y ",
"<.L.J.c.N.N.N.N.N.N.N.N.N.N.N.N.N.N.N.N.N.N.N.N.N.N.N.N.m.N.N.N.N.N.N.N.c.T.8.Y ",
"<.L.J.c.N.N.N.N.N.N.N.N.N.N.N.N.N.N.N.N.N.l.N.N.N.N.m.m.F.N.N.N.N.N.N.N.c.T.8.Y ",
"<.L.J.c.N.N.N.N.N.N.N.N.N.N.N.N.N.N.N.N.N.[ D j.N.m.C.Z.N.N.N.N.N.N.N.N.c.T.8.Y ",
"<.L.J.c.N.N.N.N.N.N.N.N.N.N.N.N.N.N.N.N.N.s.6 i ..V.C.N.N.N.N.N.N.m.N.N.c.T.8.Y ",
"<.L.J.c.N.N.N.N.N.N.N.N.N.N.N.N.N.N.N.N.N.N.N o # A p.N.N.N.N.N.N.K.m.N.c.T.8.Y ",
"<.L.J.c.N.N.N.N.N.N.N.N.N.N.N.N.N.N.N.N.N.N.o.X o o e | N.N.N.N.N.N.m.N.c.T.8.Y ",
"<.L.J.c.N.N.N.N.N.N.N.N.N.N.N.N.N.N.N.N.N.N.N.r o o   $ n a.N.N.N.N.N.N.c.T.8.Y ",
"<.L.J.c.N.N.N.N.N.N.N.N.N.N.N.N.N.N.N.N.N.+.L 8 o o o     0 ] N.N.N.N.N.c.T.8.Y ",
"<.L.J.c.N.N.N.N.N.N.N.N.N.N.N.N.N.c.0.F w # o   o o o o o   @ x ;.N.N.N.c.T.8.Y ",
"<.L.J.c.N.N.N.N.N.N.N.N.N.N.N.N.y.Z <   o o o o o o o o o o o   5 ~ x.N.c.T.8.Y ",
"<.L.J.c.N.N.N.N.N.N.N.N.N.N.x.! 5 o o o o o o o o o o o o o o   @ H H.N.c.T.8.Y ",
"<.L.J.c.N.N.N.N.N.N.N.N.N.h.N o   o o o o o o o o o o o o o o * P B.N.N.c.T.8.Y ",
"<.L.J.c.N.N.N.N.N.N.N.N.f.d + o o o o o o o o o o o o o o   & ' N.N.N.N.c.T.8.Y ",
"<.L.J.c.N.N.N.N.N.N.N.d.f   o o o o o o o o % g - o o o o > [ N.N.N.N.N.c.T.8.Y ",
"<.L.J.c.N.N.N.N.N.N.z.k o o o o o o o o 1 G -.k.t o o   , X.N.N.N.N.N.N.c.T.8.Y ",
"<.L.J.c.N.N.N.N.N.m.J o o o o o o   O V t.N.N.h.9 o o 7 @.N.N.N.N.N.N.N.c.T.8.Y ",
"<.L.J.c.N.N.N.N.N.%.: o o o o o o , Q b.N.N.N.e.2 o q *.N.N.N.N.N.N.N.N.c.T.8.Y ",
"<.L.J.c.N.N.N.N.N.h   o o o o . ; } N.N.N.N.B.&.= a =.N.N.N.N.N.N.N.N.N.c.T.8.Y ",
"<.L.J.c.N.N.N.N.O.o o o o o o @ W N.N.N.N.N.N.$.s i.N.N.N.N.N.N.N.N.N.N.c.T.8.Y ",
"<.L.J.c.N.N.N.N.c X o o o o   b c.N.N.N.N.B.N.g.d.N.N.N.N.N.N.N.N.N.N.N.c.T.8.Y ",
"<.L.J.c.N.N.N.0.2 o o o o o % q.N.N.N.N.N.N.N.N.N.N.N.N.N.N.N.N.N.N.N.N.c.T.8.Y ",
"<.L.J.c.N.m.D.{ o o o o o   m N.N.N.N.N.B.N.N.N.N.N.N.N.N.N.N.N.N.N.N.N.c.T.8.Y ",
"<.L.J.c.N.D.N.S   o o o o O  .N.N.N.N.B.N.N.N.N.N.N.N.N.N.N.N.N.N.N.N.N.c.T.8.Y ",
"<.L.J.c.N.N.N.z . o o o o 4 r.N.N.N.N.N.N.N.N.N.N.N.N.N.N.N.N.N.N.N.N.N.c.T.8.Y ",
"<.L.J.c.M.N.N.p . o o o o y b.N.B.N.N.N.N.N.N.N.N.N.N.N.N.N.N.N.N.N.N.N.c.T.8.Y ",
"<.L.J.c.m.N.N.3 . . . o o u N.N.N.N.N.N.N.N.N.N.N.N.N.N.N.N.N.N.N.N.N.N.c.T.8.Y ",
"<.L.J.c.m.N.N.l j v M B C K N.N.N.N.N.N.N.N.N.N.N.N.N.N.N.N.N.N.N.N.N.N.c.T.8.Y ",
"<.L.J.c.m.v.N.N.N.N.N.N.N.N.N.N.N.N.N.N.N.N.N.N.N.N.N.N.N.N.N.N.N.N.N.N.c.T.8.Y ",
"<.L.J.c.N.m.A.N.N.N.N.u.N.N.N.N.N.N.N.N.N.N.N.N.N.N.N.N.N.N.N.N.N.N.N.N.c.T.8.Y ",
"<.L.J.c.N.N.m.A.N.N.N.N.N.N.N.N.N.N.N.N.N.N.N.N.N.N.N.N.N.N.N.N.N.N.N.N.c.T.8.Y ",
"<.L.J.c.N.N.N.m.n.N.N.N.N.N.N.B.N.N.N.N.N.N.N.N.N.N.N.N.N.N.N.N.N.N.N.N.c.T.8.Y ",
"<.L.J.c.N.N.N.N.M.c.N.N.N.N.B.N.N.N.N.N.N.N.N.N.N.N.N.N.N.N.N.N.N.N.N.N.c.T.8.Y ",
",.G.H.c.c.c.c.c.c.c.c.c.c.c.c.c.c.c.c.c.c.c.c.c.c.c.c.c.c.c.c.c.c.c.c.c.c.Y.7.Y ",
"3.Q.W.T.R.R.R.R.R.R.R.R.R.R.R.R.R.R.R.R.R.R.R.R.R.R.R.R.R.R.R.R.R.R.R.R.T.!.w.I ",
"( 5.6.#.#.#.#.#.#.#.#.#.#.#.#.#.#.#.#.#.#.#.#.#.#.#.#.#.#.#.#.#.#.#.#.#.#.8./ T ",
"_ ^ U U U U U U U U U U U U U U U U U U U U U U U U U U U U U U U U U U U U R E "
};
