/* XPM */
static char *result[] = {
/* columns rows colors chars-per-pixel */
"40 40 193 2 ",
"   c #221E1F",
".  c #231E20",
"X  c #221F20",
"o  c #231F20",
"O  c #231F21",
"+  c #241F21",
"@  c #241F22",
"#  c #242021",
"$  c #252122",
"%  c #262223",
"&  c #262324",
"*  c #262425",
"=  c #272425",
"-  c #282426",
";  c #2A2829",
":  c #2B2829",
">  c #2C282A",
",  c #2C282B",
"<  c #2D2B2D",
"1  c #2E2A2C",
"2  c #2E2B2D",
"3  c #2F2B2D",
"4  c #302C2E",
"5  c #322E30",
"6  c #333133",
"7  c #343133",
"8  c #353335",
"9  c #363234",
"0  c #353337",
"q  c #363437",
"w  c #383538",
"e  c #39373A",
"r  c #3A373A",
"t  c #3B373A",
"y  c #3B3A3D",
"u  c #3B3A3E",
"i  c #3C3A3D",
"p  c #3D3B3E",
"a  c #3E3C3F",
"s  c #413E42",
"d  c #444347",
"f  c #474346",
"g  c #474549",
"h  c #484549",
"j  c #48494C",
"k  c #49484E",
"l  c #4D4C50",
"z  c #4F4D51",
"x  c #4F4D52",
"c  c #56565B",
"v  c #58565B",
"b  c #5A585E",
"n  c #5B595E",
"m  c #5B5B60",
"M  c #615F66",
"N  c #606167",
"B  c #626369",
"V  c #63636A",
"C  c #68686E",
"Z  c #686970",
"A  c #6B6B72",
"S  c #6C6D74",
"D  c #6E6F76",
"F  c #717178",
"G  c #717179",
"H  c #71737B",
"J  c #72747B",
"K  c #777880",
"L  c #7B7C86",
"P  c #7D7E88",
"I  c #678BB8",
"U  c #678BBA",
"Y  c #678CB8",
"T  c #688CB9",
"R  c #698DBB",
"E  c #698EBB",
"W  c #7091BE",
"Q  c #80818A",
"!  c #83858F",
"~  c #888A94",
"^  c #898C97",
"/  c #8A8C96",
"(  c #8F909B",
")  c #91949E",
"_  c #9295A1",
"`  c #9598A4",
"'  c #9A9DA8",
"]  c #9A9DA9",
"[  c #9EA1AD",
"{  c #A2A5B1",
"}  c #A2A7B4",
"|  c #A5A9B5",
" . c #A8ACBA",
".. c #A8ADBA",
"X. c #ACB0BE",
"o. c #ADB2BF",
"O. c #84A2C7",
"+. c #9AB3D1",
"@. c #9CB1D2",
"#. c #9CB3D2",
"$. c #9EB6D4",
"%. c #9FB7D4",
"&. c #ADB1C0",
"*. c #AEB1C0",
"=. c #B2B6C4",
"-. c #B2B6C6",
";. c #B8BECD",
":. c #B8BECE",
">. c #A7BBD6",
",. c #A7BCD7",
"<. c #A9BDD7",
"1. c #A9BED8",
"2. c #A9BFD8",
"3. c #ABBFD8",
"4. c #ACBFD9",
"5. c #AEBFDA",
"6. c #AFBFDA",
"7. c #BAC0CF",
"8. c #AEC1DA",
"9. c #AEC2DA",
"0. c #BDC2D2",
"q. c #BEC3D3",
"w. c #B1C0DC",
"e. c #B0C1DC",
"r. c #B2C3DD",
"t. c #B3C3DD",
"y. c #B4C3DD",
"u. c #B6C4DE",
"i. c #BAC8E0",
"p. c #BCD3ED",
"a. c #C0C4D5",
"s. c #C1C6D5",
"d. c #C0C5D6",
"f. c #C1C7D8",
"g. c #C2C8D8",
"h. c #C3C9D9",
"j. c #C4C9DB",
"k. c #C5CADB",
"l. c #C5CBDB",
"z. c #C5CCDB",
"x. c #C7CDDD",
"c. c #C7CDDE",
"v. c #C7CDDF",
"b. c #C8CDDE",
"n. c #C8CEE0",
"m. c #C9CFE0",
"M. c #C9CFE1",
"N. c #CBD1E2",
"B. c #CCD2E4",
"V. c #D0D7E9",
"C. c #D1D7E9",
"Z. c #D0D7EA",
"A. c #D1D7EA",
"S. c #D0D7EB",
"D. c #D2D8EB",
"F. c #D2D9EB",
"G. c #D3D9EB",
"H. c #D1D9EC",
"J. c #D1D9ED",
"K. c #D2D9EC",
"L. c #D3D9EC",
"P. c #D2D9ED",
"I. c #D2DAEC",
"U. c #D3DAEC",
"Y. c #D2DAED",
"T. c #D3DAED",
"R. c #D3DBED",
"E. c #D3DAEE",
"W. c #D4D9EC",
"Q. c #D4D9ED",
"!. c #D4DBEC",
"~. c #D4DAED",
"^. c #D5DAED",
"/. c #D4DBED",
"(. c #D5DBED",
"). c #D6DAEC",
"_. c #D7DAEC",
"`. c #D6DBED",
"'. c #D4DBEE",
"]. c #D5DBEE",
"[. c #D5DDED",
"{. c #D6DDED",
"}. c #D9DFEF",
"|. c #DADFEF",
" X c #D8DDF0",
".X c #DAE0F0",
"XX c #DBE0F0",
"oX c #DCE0F0",
"OX c #DCE0F1",
"+X c #DEE2F1",
"@X c #DEE2F2",
"#X c #E0E3F2",
"$X c #E6E7F5",
/* pixels */
"8.2.<.>.,.,.,.,.,.,.,.,.,.,.,.,.,.,.,.,.,.,.,.,.,.,.,.,.,.,.,.,.,.,.,.,.>.4.#.%.",
"1.!.'.H.K.K.K.K.K.K.K.K.K.K.K.K.K.K.K.K.K.K.K.K.K.K.K.K.K.K.K.K.K.K.K.K.H.|.t.#.",
"3.}. X].].].].].].].].].].].].].].].].].].].].].].].].].].].].].].].].].].+Xu.Y ",
"1.{.'.K.K.K.K.K.K.K.K.K.K.K.K.K.K.K.K.K.K.K.K.K.K.K.K.K.K.K.T.T.T.K.K.K.K..Xt.T ",
"1.{.].K.T.T.T.T.T.T.T.T.T.T.T.T.T.T.T.T.T.T.T.T.T.T.T.T.P.T.T.T.T.T.T.T.K.XXt.T ",
"1.{.].K.T.T.T.T.T.T.T.T.T.T.T.T.T.T.T.T.T.T.T.T.T.T.P.J.(.T.T.T.T.T.T.T.K.XXt.T ",
"1.{.].K.T.T.T.T.T.T.T.T.T.T.T.T.T.T.T.T.T.B.T.T.T.P.~.^.T.T.T.T.T.T.T.T.K.XXt.T ",
"1.{.].K.T.T.T.T.T.T.T.T.T.T.T.T.T.T.T.T.T.[ K M.Y.Q.~.T.T.T.T.T.T.J.T.T.K.XXt.T ",
"1.{.].K.T.T.T.T.T.T.T.T.T.T.T.T.T.T.T.T.T.l.w g  ./.T.T.T.T.T.T.T.`.P.T.K.XXt.T ",
"1.{.].K.T.T.T.T.T.T.T.T.T.T.T.T.T.T.T.T.T.T.A o & F k.T.T.T.T.T.T.T.J.T.K.XXt.T ",
"1.{.].K.T.T.T.T.T.T.T.T.T.T.T.T.T.T.T.T.T.T.X.X o o p | G.T.T.T.T.T.T.T.K.XXt.T ",
"1.{.].K.T.T.T.T.T.T.T.T.T.T.T.T.T.T.T.T.T.T.F.a o o   & C z.T.T.T.T.T.T.K.XXt.T ",
"1.{.].K.T.T.T.T.T.T.T.T.T.T.T.T.T.T.T.T.D.*.~ t o o o     y ] T.T.T.T.T.K.XXt.T ",
"1.{.].K.T.T.T.T.T.T.T.T.T.T.T.T.T.D.a.L u & o   o o o o o   $ N q.T.T.T.K.XXt.T ",
"1.{.].K.T.T.T.T.T.T.T.T.T.T.T.T.h.G 4   o o o o o o o o o o o   0 ` S.T.K.XXt.T ",
"1.{.].K.T.T.T.T.T.T.T.T.T.T.Z._ q o o o o o o o o o o o o o o   % Q K.T.K.XXt.T ",
"1.{.].K.T.T.T.T.T.T.T.T.T.m.A o   o o o o o o o o o o o o o o ; / T.T.T.K.XXt.T ",
"1.{.].K.T.T.T.T.T.T.T.T.b.l # o o o o o o o o o o o o o o   - ' K.T.T.T.K.XXt.T ",
"1.{.].K.T.T.T.T.T.T.P.x.x   o o o o o o o o = z > o o o o 1 [ T.T.T.T.T.K.XXt.T ",
"1.{.].K.T.T.T.T.T.P.V.b o o o o o o o o 5 P 0.N.s o o   2 ..T.T.T.T.T.T.K.XXt.T ",
"1.{.].K.T.T.T.T.T.I.! O o o o o o   @ D g.T.T.n.r o o e &.T.T.T.T.T.T.T.K.XXt.T ",
"1.{.].K.T.T.T.T.T.=.< o o o o o o 3 ) F.T.T.E.f.7 o i ;.K.T.T.T.T.T.T.T.K.XXt.T ",
"1.{.].K.T.T.T.T.U.c   o o o o . , } T.T.T.T.T.:.: h 7.T.T.T.T.T.T.T.T.T.K.XXt.T ",
"1.{.].K.T.T.T.T.o.o o o o o o % ( T.T.T.T.E.T.-.j j.T.T.T.T.T.T.T.T.T.T.K.XXt.T ",
"1.{.].K.T.T.T.L.B X o o o o   V A.T.T.T.T.T.T.v.c.T.T.T.T.T.T.T.T.T.T.T.K.XXt.T ",
"1.{.].K.T.P.R.d.6 o o o o o * s.T.T.T.T.E.T.T.T.T.T.T.T.T.T.T.T.T.T.T.T.K.XXt.T ",
"1.{.].K.T.R.T.{ o o o o o   Z T.T.T.T.E.T.T.T.T.T.T.T.T.T.T.T.T.T.T.T.T.K.XXt.T ",
"1.{.].K.T.T.T.J   o o o o + | T.T.T.T.T.T.T.T.T.T.T.T.T.T.T.T.T.T.T.T.T.K.XXt.T ",
"1.{.].K.Y.T.T.m . o o o o 8 h.T.E.T.T.T.T.T.T.T.T.T.T.T.T.T.T.T.T.T.T.T.K.XXt.T ",
"1.{.].K.P.T.T.f . o o o o d C.T.T.T.T.T.T.T.T.T.T.T.T.T.T.T.T.T.T.T.T.T.K.XXt.T ",
"1.{.].K.P.T.T.9 . . . o o k T.T.T.T.T.T.T.T.T.T.T.T.T.T.T.T.T.T.T.T.T.T.K.XXt.T ",
"1.{.].K.P.L.T.n v M C S H ^ T.T.T.T.T.T.T.T.T.T.T.T.T.T.T.T.T.T.T.T.T.T.K.XXt.T ",
"1.{.].K.T.P.).T.T.T.T.p.T.T.T.T.T.T.T.T.T.T.T.T.T.T.T.T.T.T.T.T.T.T.T.T.K.XXt.T ",
"1.{.].K.T.T.J._.T.T.T.T.T.T.T.T.T.T.T.T.T.T.T.T.T.T.T.T.T.T.T.T.T.T.T.T.K.XXt.T ",
"1.{.].K.T.T.T.P.W.T.T.T.T.T.T.E.T.T.T.T.T.T.T.T.T.T.T.T.T.T.T.T.T.T.T.T.K.XXt.T ",
"1.{.].K.T.T.T.T.Y.K.T.T.T.T.E.T.T.T.T.T.T.T.T.T.T.T.T.T.T.T.T.T.T.T.T.T.K.XXt.T ",
"<.[.'.K.K.K.K.K.K.K.K.K.K.K.K.K.K.K.K.K.K.K.K.K.K.K.K.K.K.K.K.K.K.K.K.K.K..Xr.T ",
"9.#X@XoXOXOXOXOXOXOXOXOXOXOXOXOXOXOXOXOXOXOXOXOXOXOXOXOXOXOXOXOXOXOXOXOXoX$Xi.I ",
"+.e.w.5.6.6.6.6.6.6.6.6.6.6.6.6.6.6.6.6.6.6.6.6.6.6.6.6.6.6.6.6.6.6.6.6.5.y.@.R ",
"$.O.U U U U U U U U U U U U U U U U U U U U U U U U U U U U U U U U U U U U E W "
};
