/* XPM */
static char *bc8d423315a347fdc4cb6c7a02f317c1FCQc0YTs20AB7OVU[] = {
/* columns rows colors chars-per-pixel */
"40 40 68 1 ",
"  c #010101",
". c #040404",
"X c #070808",
"o c #0A0A0B",
"O c #0B0B0C",
"+ c #151618",
"@ c #181819",
"# c #1F2023",
"$ c gray17",
"% c #282A2D",
"& c #2B2D30",
"* c #303136",
"= c #353639",
"- c #35373C",
"; c #36383D",
": c #44464B",
"> c #464950",
", c #4A4C53",
"< c #55585F",
"1 c #5C5E64",
"2 c #5D6068",
"3 c #646871",
"4 c #71747C",
"5 c #537094",
"6 c #537095",
"7 c #547094",
"8 c #547196",
"9 c #547296",
"0 c #5A7498",
"q c #7F848F",
"w c #6B84A3",
"e c #7D8EA8",
"r c #7A91AD",
"t c #7D93AF",
"y c #7E94AF",
"u c #80858E",
"i c #898D99",
"p c #8D929F",
"a c #8C99AF",
"s c #9196A3",
"d c #949AA7",
"f c #8196B2",
"g c #8398B2",
"h c #8399B3",
"j c #8499B3",
"k c #869BB5",
"l c #879BB5",
"z c #8D9BB0",
"x c #8F9CB1",
"c c #909CB1",
"v c #929DB2",
"b c #9CA2B0",
"n c #97A9BE",
"m c #A6ACBB",
"M c #A7ADBC",
"N c #A9AEBB",
"B c #A8AEBD",
"V c #A8AFBE",
"C c #AAB0BD",
"Z c #ABB1BE",
"A c #ACB1BE",
"S c #ADB1C0",
"D c #AEB3C0",
"F c #AFB4C0",
"G c #B0B4C1",
"H c #B2B5C2",
"J c #B4B6C2",
"K c #B8B9C4",
/* pixels */
"lgtfftthttfttyttttttrrtttyrytrttffettlrt",
"gCSmMDmDmmSSSDmmDSSDmmSSSSMMDDSDmmSSSDzt",
"gFDDSSSSSSSSSSSSSSSSSSSSSSSSSSSSSSSSSDl6",
"gADMmmSmSmmVSmmmmVVVmSmmSSSnSmSSSmmmSSc7",
"fSSSSSnmDmDmSSMSVVSSSmSMnSSSmnMSSNSBVGc7",
"hmSmmSmDCVmSmmSMVVSnmSSMMSSnSSMSNABSBSc7",
"hSSmDMSBMMDMSmDmmSSDSSmmCMDMnSSmVVNVBVc7",
"hSDmmSq         .+&1smSSMSMDCSmSAVVVVJc7",
"hSSMVVd1<1<<<<<<<:$  *iSSMSmSSnMVVANBGc7",
"ySSMVVVCmMMmSmSmVVbV4+ >MSSmmSSCVVNSBGc8",
"hCSMVSVVSSMSmSMSNVBVVC1 %bSSMVVSnBSmBGc7",
"hVSMVnSSmmSMSMSCVADVVCVqX&MMVVSmSSmSBGc7",
"hSSMMSSmSmVVVCnCABSmSmSVq ,VVSMSBABSVDc7",
"hCSMSMmSmSVVCVSSBAmSmDSnC2 pVVSMSBSmVDc7",
"ySSMMSMmSSnSSMSmAVSSDmACVC@-SmmSBAAAVVc7",
"hFSMSMSSVVVCMSmSVnSmMDMCMC4 aSSmNAVVVGc7",
"tSSVSVVVmSSnVVmSVNSNSmSSnmB 3VVNnBSmSSc7",
"fSVVmmSVSSSSVSVVVVBSBSSmVVS=-mBSSSBSmDc7",
"tASmVSSVmSVVVSSmmSSBSNVVVNS;#mSBSNABSDz8",
"tGSmVVVmVmmSVmVVSSmSNAVVANV1oSmSmABSmDc8",
"lGDSVVSSVVSVVVVmmSVVNSVVVVV<.mSSNSBVVHc7",
"tASSVVmVSmVVSVVSSBVVSNSnVVV<.SSmSmABVSc7",
"jASnVSmSVVVSSmVVnVVVBmSSmVB<XVmSNGNVNAc7",
"jVVVmSVVVSVmVmSVBVSVSSmSAVB1OnSVAVVVVJc7",
"jVSBVSBSVVVVSmSVVVSVVmnSVAm1XSmSmSNnBSc7",
"jASmVmSmVSSmSVVmSVVmSSVmSNN<XSSBSmSSVGc7",
"jADBSmBSmVSVVVSSmVVSVVSSBAS<XSmSmSVBVHc7",
"jCDmnSSmSVmVVVmVmSmSVVmSABm1omnSSABSVVc7",
"fASVVVAVSmVVVVVmVVVVSmmSABm<oSSSANSBVJc7",
"fBSmVVVVVmSVVVSSSVmSSBSmSVm<oSnSVANSVVc7",
"jASBNAVVVSSVSmmVVVVSNSmABVB1oBBVVVVVVAc7",
"fAAmGVVVVVVmSVSVVSVmSmSBABm1OSVVAVNNVJc7",
"lSSBSmBSBVNnSVSBSmSSmSVVVmV3%mSBSmSmVGc7",
"jVSmBVABSNnSBBBSmSSmSmSVVSmSSBmSmSSSAAc7",
"fSSBSBVVBVBSSSSSSmSmmSmmmSSVSBBBVVmSVGc7",
"jNSmmGmVSBAmnmSmBSmSSmVSVVVVBBSBVDVnMDc8",
"fVVVVVVVBBBVBBBVBBBBBBBBVmVVVBBBVVVVVAc8",
"lJGDGGGDGGGDGGGAGGGGGGGDDDDDGGGGGGDDGKv6",
"flczaazzzaaaazcaaaaaaaaalzzlaaaaaazzace8",
"ew66777766666777666666667666666676767770"
};
