/* XPM */
static char *_514f6bf9c0546e88b862d21fb3e2f47rKed0zkyLFO9nz6W[] = {
/* columns rows colors chars-per-pixel */
"40 40 77 1 ",
"  c #010101",
". c #020202",
"X c #050506",
"o c #09090A",
"O c gray4",
"+ c #0D0E0F",
"@ c #1A1B1E",
"# c #27282C",
"$ c gray17",
"% c #323439",
"& c #34363A",
"* c #36383C",
"= c #393B40",
"- c #3C3E43",
"; c #42444A",
": c #44464C",
"> c #47494E",
", c #52545B",
"< c #585B63",
"1 c #5C5F67",
"2 c #6A6D77",
"3 c #6C6F77",
"4 c #747882",
"5 c #7D818C",
"6 c #7E828D",
"7 c #678BBA",
"8 c #678CB8",
"9 c #688CB9",
"0 c #698DBB",
"q c #698EBB",
"w c #878B95",
"e c #9A9FAA",
"r c #9FA4B2",
"t c #84A2C7",
"y c #9CB3D2",
"u c #9EB6D4",
"i c #9FB7D4",
"p c #B0B6C6",
"a c #B5BBCC",
"s c #A7BBD6",
"d c #A7BCD7",
"f c #A9BFD8",
"g c #ACBFD9",
"h c #AFBFDA",
"j c #B9BFD0",
"k c #AEC1DA",
"l c #BDC4D6",
"z c #B1C0DC",
"x c #B0C1DC",
"c c #B3C3DD",
"v c #B4C3DD",
"b c #BAC8E0",
"n c #BCD3ED",
"m c #C2C7D7",
"M c #C3CADB",
"N c #CDD3E5",
"B c #CDD4E4",
"V c #D1D6E8",
"C c #D1D7EA",
"Z c #D2D9EC",
"A c #D2D9ED",
"S c #D3DAEC",
"D c #D3DAEE",
"F c #D4D9ED",
"G c #D4DBEC",
"H c #D6DBED",
"J c #D4DBEE",
"K c #D5DBEE",
"L c #D6DDED",
"P c #DADFEF",
"I c #D8DDF0",
"U c #DBE0F0",
"Y c #DCE0F0",
"T c #DCE0F1",
"R c #DEE2F2",
"E c #E0E3F2",
"W c #E6E7F5",
/* pixels */
"kffsssssfdddddddddddddddddssskssddddskyi",
"fGGAAAAAAFAAAAAGFAAAAAAAAFAZAAZZAAAAAPcy",
"fPIGGGGGGJJJGGGGGFFFGJJGFFLFSLSSSLLLZUv7",
"fLGAGAAAAAAAAAAAFAAZAAAAAAAAASSSAAAAAPvq",
"gIGAGGJADAGGGAAGGZAALAALDGAAADSDJALASUc9",
"fGJAJADGGADAAGGAGGGALAGAAAAJSGLAASASAUc9",
"dLJAADAGGDADAGAAALAGAGAAGDAGALDAJAALAPc9",
"fLJAGGADADGGAJAAAAZAAALADGGLAAAAAASSSPc9",
"fIGAAGr         X@*4aAAAAAAGDDAGALAAAUc9",
"fGGADGj2222222222,$  =pAGJDGAGADLAAAAUv9",
"fIGGDAGAAGAADAGAGAmNw@ <VDAAFAGDAJASAPc9",
"fGGFGADDGAGAGADDAGAVAA3 &MGDADGASAJAZPc9",
"fGJGGGAGAGAGDAAGGAGAGGAeo&AAGDAGASALSUc9",
"fIGAGADGGADGDGDGAGAAAGAGe 1GAGADJAJAAUc9",
"dIGAJDAADDAAAAGAGALAGAGAA3.pGAGDASALAPc9",
"fGHGAGGDAGGDGDDADDGAAGAGAA@;DDGAJAJSSPc9",
"fLGAJAJALALAALALAAGDGDAAGDw lAAAALALAIc9",
"fLGAAGAGAAAAAAAAGDGAADGDANN 6AALAAAALPv9",
"fGLAGAJAAAAAALAADGDAAGDGAAG-:GAAALAAAPz9",
"fLLAAJAGLALAAADAAADGDGAAAGD>#AGGAALAAPc9",
"fPGAJAGAALAAALALGDAGDADDADD2+DAGALALSPc9",
"fGGAAGAJAAAJAAAAGADGDGDGGGA2 GADAAAAAUc9",
"kIGAJAJAJAJAALAADDAAADAADAG2XAGDALASAPc9",
"sGGAAGAJAJAJAALAAGGDGDGDDGA2ODGAAALALPc9",
"fGGAGAGJALALAAALLALADGGAAGD2+GDALAAAZPc9",
"fIGAGAAAAAAALAAAAAAADADDADG2+ADGAAALGPv9",
"fPGAGAGDALAAALALAAAJAGAGGGD2+DAGLALAAPz9",
"fGGADDGAAALAAAAAALDGADDGDAA2+GADAAAAAPvq",
"fGGAAGDAALALAAAAJLAAGDAAADD2+GDALAAAFPv9",
"fIGAAADGAAAALALAAALAADGDGGA2+ADGAAALFPv9",
"fGJAAAAGALAAAAALAAAAAGDGDAG2+DAGLALZZPv7",
"gIJAAGADAALALAAALALADGAADGA2+GADZAZGFYv0",
"dPGAAAGGGGGnDDAGDAGGDAGDAAG2+GDDAAGDGIh0",
"dLGAGAAGFJAJAGADGADADGADGDD6%AAGGDGAGIv0",
"gIGGAGAAFGAGDGGDGDFIAAGGADAGGJFGDGDAFIh0",
"fGGAGAGGAAGAAADDAGGGGDDAGGADAADGAADGFIb0",
"dGGAAAGAGGGGAGGJGGFGHHFHAAGGFDGGAAHHGIh0",
"kEEIRIRIIIIIIIIIEIIIIIIIIIIRIIIEIIIIIWb0",
"yzzkhhhhhhhhhhhhhhhhhhhhhhhhhhhhhghhhhd0",
"ut77077700777000777770770777077700070070"
};
