/* XPM */
static char *_eb7314f95ed4867a5d5e9779d4d8b5cydIqkJwBrl96xB7Z[] = {
/* columns rows colors chars-per-pixel */
"40 40 143 2 ",
"   c black",
".  c #0A0A0B",
"X  c #0C0C0D",
"o  c #0D0E0F",
"O  c #101012",
"+  c #323439",
"@  c #37393E",
"#  c #133949",
"$  c #3A3C41",
"%  c #3E4046",
"&  c #414348",
"*  c #474A50",
"=  c #FF0101",
"-  c #FE0304",
";  c #FE0707",
":  c #FD0909",
">  c #FC0F10",
",  c #FC1012",
"<  c #F91B1E",
"1  c #F82023",
"2  c #F7292D",
"3  c #F62C2F",
"4  c #F53034",
"5  c #F53237",
"6  c #F33E43",
"7  c #F1454B",
"8  c #F04C53",
"9  c #EE5259",
"0  c #C35565",
"q  c #ED5961",
"w  c #EA6770",
"e  c #E06D79",
"r  c #E8707A",
"t  c #787C88",
"y  c #7B7F8A",
"u  c #E67E89",
"i  c #E57F8A",
"p  c #7C808B",
"a  c #678BBA",
"s  c #678CB8",
"d  c #688CB9",
"f  c #698DBB",
"g  c #698EBB",
"h  c #7091BE",
"j  c #1E98D6",
"k  c #338EC5",
"l  c #07A4E7",
"z  c #0BA3E4",
"x  c #0CA4E7",
"c  c #13A8E8",
"v  c #19AAE9",
"b  c #1CACE8",
"n  c #24ACE9",
"m  c #25AFE8",
"M  c #2DB2E8",
"N  c #47A4CF",
"B  c #6DB6DE",
"V  c #45BAE8",
"C  c #4DB9EB",
"Z  c #52BFE9",
"A  c #5EBDEC",
"S  c #55C0E8",
"D  c #69C7E9",
"F  c #7EC4EA",
"G  c #7CC4EC",
"H  c #75CCE9",
"J  c #848995",
"K  c #898E9A",
"L  c #8D919E",
"P  c #9296A4",
"I  c #D4808F",
"U  c #E5838E",
"Y  c #E48793",
"T  c #E38B97",
"R  c #DF9FAD",
"E  c #E194A1",
"W  c #E097A5",
"Q  c #DDA9B8",
"!  c #84A2C7",
"~  c #9CB1D2",
"^  c #9CB3D2",
"/  c #9EB6D4",
"(  c #9FB7D4",
")  c #A7BBD6",
"_  c #A7BCD7",
"`  c #A9BFD8",
"'  c #AEBFDA",
"]  c #AFBFDA",
"[  c #B8BFD0",
"{  c #D6B6C6",
"}  c #DAB9C9",
"|  c #D9BBCC",
" . c #D9BECE",
".. c #AEC1DA",
"X. c #BBC1D2",
"o. c #BFC5D7",
"O. c #B1C0DC",
"+. c #B0C1DC",
"@. c #B2C3DD",
"#. c #B3C3DD",
"$. c #B4C3DD",
"%. c #B6C4DE",
"&. c #80C4EB",
"*. c #8FC9EC",
"=. c #98CBEC",
"-. c #87D2E9",
";. c #97D8EA",
":. c #99D9EA",
">. c #BAC8E0",
",. c #BCD3ED",
"<. c #B8D5ED",
"1. c #C0C6D8",
"2. c #C2C9DA",
"3. c #C4CADB",
"4. c #D7C5D6",
"5. c #D7C8D9",
"6. c #D6C9DA",
"7. c #D6CBDC",
"8. c #D5CEE0",
"9. c #C1D7EE",
"0. c #CDD4E8",
"q. c #CEDAEE",
"w. c #D5D2E5",
"e. c #D4D6E8",
"r. c #D3D8EB",
"t. c #D1D9EC",
"y. c #D2D9ED",
"u. c #D3DBED",
"i. c #D3DAEE",
"p. c #D4D9ED",
"a. c #D4DBEC",
"s. c #D6DBED",
"d. c #D5DBEE",
"f. c #D6DDED",
"g. c #DADFEF",
"h. c #D8DDF0",
"j. c #DAE0F0",
"k. c #DBE0F0",
"l. c #DCE0F0",
"z. c #DCE0F1",
"x. c #DEE2F2",
"c. c #E0E3F2",
"v. c #E6E7F5",
/* pixels */
"..` ` ) ) ) ) ) ) ) ) ` ) ) ) ) ) ` ) ) ) ) ) ) ` ) ) ) ) ` ) ) .._ _ ) ) ' ^ ( ",
"` a.a.y.y.y.y.y.y.y.y.y.i.i.y.y.y.y.i.i.y.a.y.y.y.y.y.p.y.y.i.i.y.y.q.q.e.g.O.^ ",
"` g.h.a.a.a.a.a.a.a.i.i.y.a.a.a.i.a.y.a.a.i.i.i.a.a.a.a.i.i.a.a.a.a.f.f.y.j.>.a ",
"` f.a.y.a.y.y.y.y.p.a.y.y.y.a.y.a.y.y.y.y.p.i.y.y.y.y.y.i.y.i.a.y.y.y.y.y.j.$.a ",
"..h.a.y.a.a.i.y.y.a.i.i.i.a.a.y.a.a.i.y.a.i.y.a.y.i.y.y.i.y.a.y.a.i.a.y.a.l.+.s ",
"` a.a.y.i.y.i.a.i.a.y.a.y.y.i.i.y.a.a.y.a.y.i.a.a.a.y.a.a.p.i.a.y.y.i.y.a.l.$.f ",
") f.h.y.y.i.y.a.i.y.a.y.a.i.y.a.a.a.i.i.i.i.y.y.i.y.p.i.y.i.y.a.a.i.y.a.a.g.$.f ",
"` f.i.y.a.a.y.i.a.y.i.i.a.y.i.a.i.y.y.a.y.a.a.i.y.p.a.i.a.a.y.i.y.y.a.y.e.g.+.s ",
"` h.f.y.a.i.y.y.a.a.i.y.a.i.y.y.y.i.i.a.i.a.a.y.y.a.i.y.a.a.i.y.y.f.y.f.y.j.$.f ",
"` y.a.y.y.i.a.i.i.y.i.a.y.i.a.i.a.a.y.y.y.y.i.y.a.i.a.y.i.y.i.a.y.y.y.y.y.j.+.s ",
"` h.a.a.y.a.i.a.y.i.y.a.y.a.i.a.i.y.a.i.a.i.y.y.i.y.a.i.y.i.y.a.y.f.y.y.y.h.$.f ",
"` a.a.y.i.a.y.y.a.a.y.i.i.a.y.y.i.a.y.i.a.y.y.i.p.p.y.a.a.a.y.i.y.y.f.y.a.g.$.f ",
"` a.a.y.a.a.i.| u e.y.a.y.a.a.i.y.y.a.i.y.y.a.a.i.a.a.y.y.y.a.i.y.f.y.f.a.j.#.f ",
"` h.a.y.a.y.a.u = 9 a.y.a.y.y.i.a.i.y.y.i.a.i.y.y.y.i.i.a.i.a.y.y.y.y.y.a.j.#.s ",
") h.f.y.i.i.y.y.Y - 6 w.i.a.i.a.a.y.a.i.i.y.a.y.a.i.y.a.i.a.i.y.y.f.y.y.e.g.#.s ",
"` a.a.a.y.a.a.i.y.E : 4 6.y.y.y.i.i.a.y.a.y.i.i.a.y.i.a.y.y.i.a.y.y.a.y.a.j.#.f ",
"` f.a.y.a.y.y.i.a.y.Q , 1  .i.h.y.y.a.i.y.a.i.i.y.a.y.i.i.a.i.y.y.y.f.y.y.j.#.s ",
"` h.a.y.i.i.a.a.a.y.a.} < , { i.a.i.a.y.a.y.y.a.y.i.i.i.y.y.i.a.y.f.y.y.y.j.#.f ",
"` a.h.y.y.a.i.y.y.a.y.y.5.2 : W i.a.i.y.y.a.y.a.a.y.a.a.y.i.y.a.y.y.y.y.a.h.$.f ",
"` g.i.y.y.i.a.y.y.y.a.y.y.8.6 : T y.i.a.a.y.a.y.i.i.i.y.a.a.y.i.y.f.y.f.a.g.O.f ",
") g.y.y.y.a.i.i.y.y.a.i.i.y.e.8 - i A c n G 0.i.a.y.y.i.i.i.y.a.y.y.f.y.a.j.#.s ",
"` a.a.y.i.a.y.a.a.i.a.y.a.y.a.i.e k M D D c B i.i.i.a.a.y.a.y.i.y.f.y.y.e.j.#.f ",
"..h.a.a.i.y.a.y.i.a.i.y.a.i.y.i.G n ;.:.;.-.x <.y.a.i.y.a.y.a.i.y.y.a.y.a.g.$.f ",
"` a.a.y.a.y.i.a.y.y.i.a.y.i.a.a.V Z ;.:.;.;.m G y.i.a.y.i.i.a.y.y.f.y.a.y.h.$.s ",
") f.a.a.a.a.y.a.a.i.y.y.a.i.a.y.N V :.:.:.;.v =.a.i.y.a.i.i.y.a.y.y.y.y.a.g.#.s ",
"` f.a.y.i.y.y.i.y.i.a.i.a.y.[ + # z H :.;.Z j { a.y.i.a.y.a.y.i.f.y.f.y.y.h.#.f ",
"` h.a.y.y.i.y.a.y.a.a.y.i.p . O P &.l b c v 0 > Q a.a.y.a.y.a.i.y.y.y.f.a.h.$.s ",
"` a.a.y.a.a.y.i.i.a.y.X.$   * 2.i.a.9.F *.q.7.5 : E y.a.i.i.a.y.f.y.y.y.y.g.#.f ",
"` g.a.y.i.y.a.i.y.a.J O O K y.i.i.i.y.a.i.y.a.w.7 - i y.y.y.a.i.y.y.y.y.a.l.$.f ",
"` h.a.i.y.y.a.y.1.&   $ o.i.a.a.y.a.y.i.a.y.i.y.y.q = w a.i.a.y.f.y.f.y.a.j.O.s ",
"` a.i.a.y.y.i.L O . J i.y.a.i.y.a.y.a.i.a.i.a.y.a.y.r = 9 e.i.y.y.y.y.f.e.g.$.f ",
"` f.i.y.y.3.*   $ X.y.a.y.i.a.y.i.i.a.y.y.a.y.a.y.a.y.Y - 6 w.a.f.y.y.y.y.j.O.f ",
"` a.a.a.y.t . y a.p.y.,.a.a.i.y.i.y.a.a.i.y.a.i.y.y.a.i.W : 3 5.i.a.i.p.p.h.$.d ",
"` a.i.y.a.y.[ a.i.a.i.a.i.y.i.a.a.y.i.y.i.a.y.i.a.i.a.y.e.{ > Y i.p.i.a.p.x.$.f ",
"' h.i.a.i.y.a.y.p.y.a.y.i.a.y.i.a.i.y.a.y.y.a.a.i.a.i.y.p.a.5.s.y.i.y.a.a.h.] d ",
"` a.a.i.a.y.a.a.y.y.y.a.y.y.i.y.y.i.a.a.a.i.i.y.y.y.i.a.i.a.a.a.a.a.y.i.i.h.>.d ",
") a.a.y.y.y.a.a.y.p.a.a.y.a.a.i.a.a.p.p.a.s.p.a.y.y.a.a.a.i.a.a.y.y.a.a.i.h.O.f ",
"O.c.c.h.z.z.h.g.h.x.h.h.h.h.z.h.h.h.h.c.h.h.h.h.h.h.h.h.h.h.h.h.h.h.h.h.h.v.>.a ",
"^ O...' ' ' ' ' ] ] ] ] ] ] ] ] ] ] ] ] ] ] ] ] ] ] ] ] ] ] ] ] ] ] ] ] $.] ) f ",
"/ ! a a f f d a a d a a d f f f a a d f f f f a a f a f f f f f f a f a f d a f "
};
