/* XPM */
static char *a6c791f49e2b4ea0e098ff04387298401YHE2gwgeOkGtY4N[] = {
/* columns rows colors chars-per-pixel */
"40 40 137 2 ",
"   c black",
".  c #070808",
"X  c #090A0A",
"o  c #0B0B0C",
"O  c #0D0D0E",
"+  c #0F1011",
"@  c #282A2D",
"#  c #2C2E32",
"$  c #2E3034",
"%  c #323338",
"&  c #34363A",
"*  c #383A3F",
"=  c #133949",
"-  c #61646D",
";  c #65666E",
":  c #696C76",
">  c #6E727C",
",  c #71757F",
"<  c red",
"1  c #FC0506",
"2  c #FC0707",
"3  c #F90C0D",
"4  c #F90D0E",
"5  c #F71012",
"6  c #F41618",
"7  c #F21A1C",
"8  c #EF2124",
"9  c #EC262A",
"0  c #EB282C",
"q  c #E82E32",
"w  c #E73136",
"e  c #E63338",
"r  c #E4383C",
"t  c #BE4F5F",
"y  c #DF4248",
"u  c #DE444A",
"i  c #DC474D",
"p  c #D6535A",
"a  c #CF5C66",
"s  c #D35A62",
"d  c #D15D65",
"f  c #CD656E",
"g  c #CB6972",
"h  c #CA6B74",
"j  c #C06C79",
"k  c #C87079",
"l  c #537095",
"z  c #547094",
"x  c #547296",
"c  c #5A7498",
"v  c #757983",
"b  c #C57781",
"n  c #C37984",
"m  c #C27D88",
"M  c #6B84A3",
"N  c #7D8EA8",
"B  c #7B91AD",
"V  c #7D93AF",
"C  c #1E97D6",
"Z  c #338EC5",
"A  c #3E9BC5",
"S  c #06A2E6",
"D  c #0BA2E4",
"F  c #0BA3E6",
"G  c #12A4E5",
"H  c #15A6E5",
"J  c #1FA7E3",
"K  c #13A8E8",
"L  c #16AAE8",
"P  c #18AAE8",
"I  c #1CACE8",
"U  c #25AFE8",
"Y  c #28B0E8",
"T  c #2DB2E8",
"R  c #59A1C6",
"E  c #50AEDC",
"W  c #66ABCF",
"Q  c #75AFCF",
"!  c #7DB0CE",
"~  c #67AFD4",
"^  c #6DB2D5",
"/  c #43AEE0",
"(  c #45BAE8",
")  c #52BFE9",
"_  c #5EC3E9",
"`  c #69C7E9",
"'  c #75CCE9",
"]  c #BD8691",
"[  c #BB8B97",
"{  c #BC8894",
"}  c #8C99AF",
"|  c #9398A5",
" . c #949AA7",
".. c #969BA8",
"X. c #999FAC",
"o. c #8196B2",
"O. c #8398B2",
"+. c #8398B3",
"@. c #8399B3",
"#. c #879BB5",
"$. c #8D9BB0",
"%. c #8F9CB1",
"&. c #909CB1",
"*. c #929DB2",
"=. c #B596A3",
"-. c #B498A5",
";. c #B19EAB",
":. c #9CA1AF",
">. c #95A0B4",
",. c #97A9BE",
"<. c #B0A1AE",
"1. c #AFA3B1",
"2. c #AEA5B4",
"3. c #ADA7B6",
"4. c #ACA9B7",
"5. c #A5AABB",
"6. c #A6ACBA",
"7. c #A8AEBD",
"8. c #A9AEBD",
"9. c #A8AFBE",
"0. c #A9AFBF",
"q. c #ABAFBE",
"w. c #AAB0BD",
"e. c #ACB1BE",
"r. c #98B5CA",
"t. c #A8B3C3",
"y. c #ADB1C0",
"u. c #AEB3C0",
"i. c #AFB4C0",
"p. c #B0B4C0",
"a. c #B0B4C1",
"s. c #B4B6C2",
"d. c #B8B9C4",
"f. c #87D2E9",
"g. c #96D8E9",
"h. c #97D8EA",
"j. c #99D9EA",
/* pixels */
"#.O.V o.o.V o.o.o.o.o.o.o.o.o.o.o.o.o.o.V o.o.o.o.o.o.o.o.o.o.o.o.o.o.o.o.O.B V ",
"O.w.7.7.y.t.y.5.7.7.6.y.5.y.7.7.5.7.4.7.7.t.7.5.7.y.7.7.5.7.5.y.7.y.5.w.w.w.&.V ",
"O.i.u.y.7.t.7.w.7.7.t.y.w.w.w.7.7.t.y.y.7.y.u.w.7.e.7.y.w.7.w.w.7.7.7.q.i.a.&.z ",
"O.e.u.7.7.7.7.y.7.7.7.7.7.7.y.t.7.7.7.7.7.7.7.5.7.7.y.7.y.t.7.y.y.7.y.7.7.u.&.z ",
"#.e.w.7.7.5.y.5.q.7.e.y.w.7.7.7.y.7.7.7.y.7.y.7.7.7.7.7.7.7.7.7.7.7.7.7.w.a.&.z ",
"o.7.u.7.y.y.y.7.7.7.7.7.y.e.7.7.7.t.5.t.7.7.7.7.y.7.y.5.t.7.y.7.5.t.y.7.w.a.&.z ",
"#.7.7.w.q.7.t.7.7.7.y.7.t.7.t.5.7.7.y.y.e.7.w.7.7.7.y.t.y.7.7.7.7.y.y.w.y.w.&.z ",
"+.e.e.7.7.7.7.7.5.t.7.7.7.y.4.t.7.y.5.7.7.w.y.t.7.y.7.5.y.7.7.y.7.t.7.7.u.w.&.z ",
"+.e.u.7.7.y.7.y.7.7.7.7.7.7.7.7.w.7.7.5.7.7.w.w.5.7.7.y.y.t.7.7.y.7.7.7.5.w.&.z ",
"+.e.u.7.7.7.y.5.t.5.e.7.t.y.7.y.7.w.7.y.t.u.7.7.w.w.5.y.7.7.7.7.y.7.7.y.w.a.&.z ",
"o.e.7.7.y.t.7.q.7.7.7.w.7.y.q.7.w.t.7.7.7.y.q.7.7.7.t.7.7.y.7.7.7.7.y.7.w.a.&.z ",
"#.7.y.7.e.7.7.7.y.7.t.y.7.q.7.7.y.y.7.y.5.t.7.5.y.y.7.7.t.e.7.q.y.7.7.7.w.w.&.z ",
"o.e.7.7.y.5.7.q.7.7.w.7.u.7.7.7.t.7.y.7.7.7.t.7.7.7.7.7.7.7.7.y.t.5.7.7.w.a.&.z ",
"o.e.t.7.y.7.7.=.d 7.7.7.t.7.7.7.5.7.7.7.y.7.7.7.7.7.t.7.7.7.y.7.y.7.7.y.w.a.&.z ",
"#.e.u.7.7.t.7.f < u y.7.7.y.7.t.7.7.y.5.7.7.7.q.7.q.7.y.7.w.7.7.7.7.t.y.y.w.&.z ",
"o.e.y.7.7.y.7.7.g < w 4.t.7.7.7.7.7.7.y.t.y.e.7.7.7.t.y.w.7.7.7.y.7.7.7.w.a.&.z ",
"+.q.e.7.7.7.7.7.7.n 1 9 1.7.7.w.w.t.y.t.e.7.e.t.7.y.w.7.u.y.7.7.w.7.w.7.5.e.&.z ",
"+.7.u.7.7.t.7.y.7.t.] 3 7 -.w.7.7.w.7.7.7.7.7.7.y.7.7.7.7.7.t.t.7.w.y.t.w.a.&.z ",
"+.u.q.7.7.7.y.7.t.7.7.=.6 5 [ 7.y.7.7.7.e.7.5.t.t.7.7.5.t.4.7.7.7.7.7.7.y.w.&.z ",
"+.w.e.7.7.q.7.7.y.5.y.y.;.8 2 ] 5.y.5.y.7.7.7.y.5.y.7.y.5.t.7.y.7.y.7.7.7.w.&.z ",
"+.u.7.y.e.7.w.7.7.7.7.e.5.2.q 1 j e.w.w.y.t.y.7.7.y.7.7.y.7.7.7.7.7.y.t.y.a.&.z ",
"+.w.7.7.7.7.y.t.7.7.w.7.y.y.7.r < j E G J ~ 5.7.7.5.y.7.5.y.7.7.7.y.7.7.7.a.&.z ",
"+.e.y.t.7.7.y.5.y.7.7.u.7.7.7.7.d Z T ` _ L R 5.7.7.7.t.7.7.w.7.7.y.7.7.7.w.&.z ",
"+.e.7.5.5.t.7.y.7.t.7.7.7.7.y.7.~ U g.g.g.f.D r.w.7.y.7.t.u.7.w.5.y.7.t.y.a.&.z ",
"+.e.w.y.t.y.5.y.7.7.7.q.7.7.t.7./ ) j.j.j.j.U ~ 7.w.y.5.y.7.w.7.7.w.y.y.5.w.&.z ",
"+.e.y.6.7.7.t.7.7.7.q.7.e.7.y.7.A ( j.j.j.g.H ! u.7.5.y.7.7.7.w.w.7.t.7.7.i...x ",
"+.e.q.w.7.q.7.7.y.t.q.7.y.7.| @ = D ' j.h.) C =.7.7.y.7.t.y.u.7.7.q.7.q.y.e.&.x ",
"#.7.e.7.7.7.7.7.7.y.7.7.t.- X O v ^ S I K H t 3 { 7.t.7.5.7.t.7.7.7.y.7.7.w.&.x ",
"O.e.7.5.7.7.q.y.t.7.7...#   * X.7.7.t.~ Q t.1.0 1 b 7.t.y.t.7.7.y.t.7.7.w.a.&.z ",
"+.e.w.y.7.q.7.t.7.y.: o O > y.7.y.y.7.5.t.w.y.3.r < f y.7.7.7.7.7.7.7.7.7.a.&.z ",
"+.e.7.y.7.7.7.7.X.&   % X.y.t.7.t.7.7.7.w.7.w.7.7.i < p 7.q.7.q.y.7.7.t.7.e.&.z ",
"+.e.7.7.7.7.7.v O X : 7.7.t.7.y.7.7.u.7.7.w.7.7.y.7.s < y 7.7.7.7.7.7.y.w.a.&.z ",
"+.e.u.7.t.X.*   # ..y.,.5.t.7.7.7.t.5.y.7.7.7.7.7.t.7.g < e 3.7.t.7.7.7.7.a.&.z ",
"+.e.y.7.y.- . ; 7.7.y.7.7.y.7.7.y.5.7.7.y.7.t.y.y.7.y.7.m 1 8 <.w.t.y.7.w.e.&.z ",
"+.u.7.t.y.5.| 5.y.7.y.7.y.7.7.q.7.y.5.t.7.e.7.e.w.7.7.7.t.[ 4 g 7.7.7.y.7.a.&.z ",
"+.7.7.7.7.y.7.t.t.5.7.7.y.7.e.7.y.7.7.7.7.7.7.7.7.7.7.7.y.7.;.5.7.7.y.5.w.a.&.z ",
"o.q.u.7.7.7.y.7.7.y.7.7.5.t.7.7.y.7.7.y.7.t.y.7.7.7.w.y.7.7.y.t.7.7.7.7.7.i.&.z ",
"#.s.p.p.p.u.p.u.e.a.e.a.i.i.a.e.p.u.u.u.q.i.u.e.i.a.e.e.p.u.u.u.i.i.u.u.a.d.*.l ",
"B %.%.} %.} } } %.} } } } } } } } } } %.} } } %.%.%.#.} %.} } } %.} } } %.%.N z ",
"B M z l l l l l l l l l l l l l l l l l z z z z l l z z l l l l l l l l l l l c "
};
