/* XPM */
static char *_75782737bd44e91ae0eaf3371bd382bYZU1SOBmazd8dkPV[] = {
/* columns rows colors chars-per-pixel */
"40 40 127 2 ",
"   c black",
".  c #040405",
"X  c #0A0A0B",
"o  c #0D0E0F",
"O  c #111214",
"+  c #2D2E32",
"@  c #323439",
"#  c #36383C",
"$  c #595C64",
"%  c #656871",
"&  c #6A6D77",
"*  c #6C6F7A",
"=  c #6C707A",
"-  c #6D717A",
";  c #396D87",
":  c #45738C",
">  c #727680",
",  c #757984",
"<  c #777B86",
"1  c #797D88",
"2  c #7A7E89",
"3  c #678BBA",
"4  c #678CB8",
"5  c #688CB9",
"6  c #698DBB",
"7  c #698EBB",
"8  c #7C9FB6",
"9  c #7091BE",
"0  c #0BA6E8",
"q  c #10A6E7",
"w  c #12A8E7",
"e  c #18A9E7",
"r  c #11A7E8",
"t  c #13A8E8",
"y  c #17A8E9",
"u  c #19AAE8",
"i  c #1CAAE8",
"p  c #24AFE7",
"a  c #22ACEA",
"s  c #25ACE9",
"d  c #2AAEE9",
"f  c #28B0E8",
"g  c #31B0EA",
"h  c #37B1E9",
"j  c #35B4E8",
"k  c #3DB3EA",
"l  c #38B5E8",
"z  c #41B5EA",
"x  c #4DB9EB",
"c  c #50B8EB",
"v  c #53BFE8",
"b  c #5BBCEB",
"n  c #62BEEB",
"m  c #55C0E8",
"M  c #5BC2E8",
"N  c #66C6E9",
"B  c #6BC1EC",
"V  c #6CC8E9",
"C  c #73C2EB",
"Z  c #7BC4EC",
"A  c #77CCE9",
"S  c #7DCEE9",
"D  c #7ECFE9",
"F  c #83A2B9",
"G  c #84A2C7",
"H  c #9CB3D2",
"J  c #9EB6D4",
"K  c #9FB7D4",
"L  c #A7BBD6",
"P  c #A7BCD7",
"I  c #A9BDD7",
"U  c #A9BFD8",
"Y  c #AEBFDA",
"T  c #AFBFDA",
"R  c #B9BFD0",
"E  c #AEC1DA",
"W  c #B1C0DC",
"Q  c #B0C1DC",
"!  c #B2C3DD",
"~  c #B3C3DD",
"^  c #B4C3DD",
"/  c #B6C4DE",
"(  c #93CBEC",
")  c #97CCED",
"_  c #97CDED",
"`  c #9ECCEC",
"'  c #9DCEED",
"]  c #83D1E9",
"[  c #85D1E9",
"{  c #89D3E9",
"}  c #8FD5E9",
"|  c #91D6E9",
" . c #96D8E9",
".. c #99D9EA",
"X. c #A2CDEC",
"o. c #A5CFEC",
"O. c #A8CFEC",
"+. c #A8D0ED",
"@. c #B3D4ED",
"#. c #BCD3ED",
"$. c #B8D5EE",
"%. c #BCD6EE",
"&. c #CAD1E3",
"*. c #CCD1E3",
"=. c #C0D7EE",
"-. c #C6D8ED",
";. c #C8D8EE",
":. c #C9D9EF",
">. c #CFDAED",
",. c #CFDAEE",
"<. c #D3D9EC",
"1. c #D2D9ED",
"2. c #D3DBED",
"3. c #D3DAEE",
"4. c #D4D9ED",
"5. c #D4DBEC",
"6. c #D6DBED",
"7. c #D4DBEE",
"8. c #D5DBEE",
"9. c #D6DDED",
"0. c #DADFEF",
"q. c #D8DDF0",
"w. c #DAE0F0",
"e. c #DCE0F0",
"r. c #DCE0F1",
"t. c #E0E3F2",
"y. c #E6E7F5",
/* pixels */
"E U U L L L L L P U P P P P L L L U L L L L L U L L L L L U L L L L L L U L H K ",
"U 5.5.1.1.1.1.1.1.5.1.1.1.1.4.5.4.4.,.3.4.5.4.4.,.3.4.5.4.4.3.,.4.4.,.1.5.q.~ H ",
"U 0.q.5.5.5.5.5.5.5.7.7.5.5.5.5.5.5.1.5.5.5.7.7.1.5.5.5.7.5.1.1.7.7.5.1.9.r./ 5 ",
"U 9.5.1.5.1.1.1.1.1.1.1.1.1.1.1.5.1.1.1.1.1.1.1.1.1.1.1.1.1.1.9.5.5.1.4.1.w.W 5 ",
"Y q.5.1.5.5.7.1.5.3.1.1.1.3.3.5.5.4.5.3.1.5.3.1.1.3.4.4.1.1.5.7.4.1.5.4.1.w.~ 5 ",
"U 5.7.1.7.1.3.5.1.3.5.3.5.5.1.1.3.1.1.3.1.3.5.1.1.1.4.3.5.5.5.1.7.5.7.,.5.w.~ 5 ",
"L 9.7.1.1.3.1.5.1.5.3.5.3.1.5.3.1.1.5.5.5.5.3.3.1.1.7.4.3.5.3.1.1.5.5.<.1.w.~ 5 ",
"U 9.7.1.5.5.1.3.3.5.1.1.3.5.1.3.5.3.3.1.3.1.1.5.1.1.5.5.1.1.3.5.1.4.5.1.5.w.~ 5 ",
"U q.5.1.1.5.3.3.1.1.R * = = = = = = = = = = = = = = = = = R 7.1.5.5.1.1.1.q.~ 5 ",
"U 5.5.1.3.5.1.5.5.3.2                                     # 3.5.1.4.3.1.5.w.~ 5 ",
"U q.5.5.3.1.5.1.1.3.. > &.&.&.&.&.&.&.&.&.&.&.&.*.&.&.&.% o 1.5.7.,.7.5.5.r.~ 5 ",
"U 5.5.1.5.1.3.3.5.5.  < 5.1.3.5.1.1.1.7.1.7.1.1.1.5.1.5.& o 1.3.5.5.1.1.1.q.~ 5 ",
"U 5.5.1.5.5.1.5.3.1.  < 5.3.3.1.9.1.9.1.5.3.1.3.5.1.1.5.& o 5.3.5.7.4.1.1.r.~ 5 ",
"U q.1.4.5.1.3.5.3.5.  < 5.1.5.1.1.1.1.1.1.1.1.5.3.3.5.1.& o 5.1.1.4.1.1.5.w.~ 5 ",
"P q.9.4.7.3.1.1.1.1.  < 3.3.1.1.5.1.-._ X.,.1.3.1.5.1.5.8 ; %.1.5.7.5.<.1.w.~ 4 ",
"U 5.5.5.1.5.5.3.5.3.  < 1.5.5.3.1._ a u u h $.5.1.3.-.c y u a C 7.5.1.1.5.w.~ 4 ",
"U 9.9.1.1.1.1.5.9.1.  < 1.1.1.1.@.u M { ] j g ,.1.1.b f S { V r ( 1.5.4.4.q.~ 6 ",
"U 9.9.1.5.9.1.1.1.1.  < 9.1.9.1.B l ......| u o.9.:.t D ......m k 5.5.7.1.w.~ 4 ",
"U 1.7.1.3.1.9.1.5.1.  < 1.1.1.9.x m ........f Z 1.@.0  .......A y 1.7.5.5.r.~ 5 ",
"U w.7.1.3.5.1.1.1.1.  < 9.1.1.1.B h  .....} y +.1.:.r S ......v k 4.,.1.1.q.~ 4 ",
"U 9.5.1.1.1.9.5.5.9.  < 1.1.1.1.@.u v [ S h h 9.1.1.n s A [ N t _ 5.7.4.1.w.~ 5 ",
"L 9.5.1.5.1.1.1.1.1.  < 9.1.9.1.9.' d e e z %.1.9.1.;.b i u s Z 1.7.4.3.5.w.~ 5 ",
"U 5.5.5.9.1.1.1.9.1.  < 1.1.1.9.5.5.;.' +.,.1.1.1.1.1.1.F : %.5.5.5.5.1.1.0.~ 5 ",
"U q.5.3.1.1.9.1.1.1.  < 9.1.1.1.5.1.1.5.5.9.1.1.9.1.5.1.& o 5.1.1.5.5.1.5.w.~ 5 ",
"U 5.7.4.4.1.1.1.1.1.  , 1.9.1.1.1.1.1.1.1.1.1.1.1.1.1.9.& o 1.1.1.1.3.5.,.q.~ 5 ",
"U 5.5.3.1.1.5.1.9.1.  2 1.1.9.1.9.1.9.1.9.1.9.1.9.1.1.1.& o 9.1.5.1.1.5.5.w.~ 5 ",
"U q.9.4.3.5.5.1.1.1.  , 1.9.1.1.1.1.1.9.1.1.1.9.1.1.1.9.& o 1.1.4.3.4.,.5.w.^ 6 ",
"U 6.5.5.1.1.3.5.9.1.. @ $ $ $ $ $ $ $ $ $ $ $ $ $ $ $ $ + O 9.1.5.5.1.7.4.q.W 5 ",
"U q.5.1.1.3.1.5.1.1., X X X X X X X X X X X X X X X X X X 2 1.9.1.5.7.5.1.0.^ 4 ",
"U 5.5.1.1.5.1.3.9.1.1.9.1.1.9.1.1.9.1.1.9.1.1.1.1.1.9.1.1.1.1.1.4.7.4.1.<.0.^ 4 ",
"U 5.7.1.3.5.5.3.1.1.1.9.1.9.1.1.1.9.1.9.1.1.1.9.1.9.1.1.1.9.1.9.1.5.5.1.<.0.^ 6 ",
"E q.7.1.1.1.5.1.9.1.1.1.1.1.9.1.1.1.1.1.9.1.1.1.1.1.9.1.1.1.1.1.4.5.5.1.5.w.Q 6 ",
"L 0.9.1.5.1.5.5.5.7.3.#.1.1.5.3.5.3.1.1.5.3.1.5.3.3.1.5.1.7.1.1.5.5.3.1.5.q.^ 4 ",
"U 1.5.1.1.5.1.5.5.3.5.1.5.3.5.1.1.7.5.3.5.1.3.5.1.5.1.3.4.7.5.3.3.1.3.5.5.q.^ 6 ",
"E q.5.1.5.1.5.1.4.4.1.1.9.1.3.3.4.1.7.5.3.3.1.1.5.1.5.3.1.5.1.5.1.3.1.5.4.0.^ 6 ",
"I 5.5.1.1.5.1.1.4.4.1.1.1.1.7.1.5.4.5.5.1.5.5.3.3.3.5.1.5.1.5.7.5.5.1.3.5.0.^ 6 ",
"P 5.5.1.1.1.1.5.5.5.5.5.1.9.5.1.7.4.4.5.5.5.7.5.1.1.5.5.7.4.5.5.1.1.5.7.4.q./ 6 ",
"Q r.t.q.r.r.r.r.q.q.q.q.7.r.r.q.t.q.q.q.q.q.q.q.q.q.q.t.q.q.r.r.q.q.t.q.q.y./ 3 ",
"H Q Q Y T T T T T T T T T T T T T T T T T T T T T T T T T T T T T T T T T W J 6 ",
"K G 4 4 3 3 3 3 6 6 3 3 3 3 6 6 3 3 3 3 6 3 6 6 3 3 3 3 3 3 3 3 6 3 3 3 3 3 6 9 "
};
