/* XPM */
static char *fb262a2022e7474cf79b30dc4e223a0aJZzASkaJ1ZydHQ3j[] = {
/* columns rows colors chars-per-pixel */
"40 40 125 2 ",
"   c black",
".  c #030304",
"X  c #080809",
"o  c #0B0B0C",
"O  c #0E0E10",
"+  c #242528",
"@  c #282A2D",
"#  c #2B2D30",
"$  c #2E617B",
"%  c #38657D",
"&  c #484A50",
"*  c #51535A",
"=  c #55585F",
"-  c #565962",
";  c #565A62",
":  c #575A62",
">  c #5B5F67",
",  c #5F636B",
"<  c #61656E",
"1  c #537095",
"2  c #547094",
"3  c #547196",
"4  c #5A7498",
"5  c #66889E",
"6  c #6B84A3",
"7  c #7D8EA8",
"8  c #7A91AD",
"9  c #7B91AD",
"0  c #7D93AF",
"q  c #7E94AF",
"w  c #2EA8DF",
"e  c #36AADE",
"r  c #0FA5E6",
"t  c #0BA6E8",
"y  c #11A7E6",
"u  c #12A7E7",
"i  c #15A7E7",
"p  c #1BA6E4",
"a  c #1DA6E4",
"s  c #17A9E7",
"d  c #19A8E5",
"f  c #20A7E3",
"g  c #23A7E2",
"h  c #24AEE7",
"j  c #2AA8E2",
"k  c #2EA9E0",
"l  c #34ABE1",
"z  c #28B0E8",
"x  c #35B4E8",
"c  c #36B5E8",
"v  c #3BB7E8",
"b  c #44ACDD",
"n  c #4BADDA",
"m  c #4DAEDC",
"M  c #5FAED6",
"N  c #53AEDA",
"B  c #5AB0D9",
"V  c #7AACCA",
"C  c #7FACC9",
"Z  c #7DB2CF",
"A  c #66AFD5",
"S  c #68ABD0",
"D  c #79B1D0",
"F  c #7DB2D0",
"G  c #53BFE8",
"H  c #54C0E8",
"J  c #55C0E8",
"K  c #56C0E8",
"L  c #5BC2E8",
"P  c #66C6E9",
"I  c #6CC8E9",
"U  c #74CBE9",
"Y  c #77CCE9",
"T  c #7DCEE9",
"R  c #7ECFE9",
"E  c #8C99AF",
"W  c #949AA7",
"Q  c #8196B2",
"!  c #8398B2",
"~  c #8398B3",
"^  c #8399B3",
"/  c #879BB5",
"(  c #8D9BB0",
")  c #8F9CB1",
"_  c #909CB1",
"`  c #95A0B4",
"'  c #97A9BE",
"]  c #A1A7B6",
"[  c #A4A7B6",
"{  c #A8AEBD",
"}  c #A9AEBD",
"|  c #A8AFBE",
" . c #AAAEBE",
".. c #ABAFBE",
"X. c #AAB0BD",
"o. c #ABB1BE",
"O. c #ACB1BE",
"+. c #83AECA",
"@. c #88AEC9",
"#. c #82B2CF",
"$. c #8BB2CC",
"%. c #9DB3C6",
"&. c #93B2C9",
"*. c #97B3C9",
"=. c #97B5CB",
"-. c #9AB3C8",
";. c #A7B2C2",
":. c #A2B3C5",
">. c #A5B4C5",
",. c #A5B5C6",
"<. c #A8B1C1",
"1. c #AAB1C0",
"2. c #AEB3C0",
"3. c #AFB4C0",
"4. c #B0B4C1",
"5. c #B2B5C2",
"6. c #B4B6C2",
"7. c #B8B9C4",
"8. c #83D1E9",
"9. c #87D2E9",
"0. c #89D3E9",
"q. c #8FD5E9",
"w. c #91D6E9",
"e. c #97D8E9",
"r. c #99D9EA",
/* pixels */
"/ ! ^ Q Q Q Q Q Q Q Q Q Q Q Q Q Q Q Q Q Q Q Q Q Q Q Q Q Q Q Q Q Q Q Q Q Q ! 8 q ",
"! X. . .{ { { { {  .{ { { { {  .{ { { { {  .{ { { { {  .{ { { { { { { {  .3._ 0 ",
"! 3.2. .1.X.1. .1. .X.1.X.1.1. .1.X.X.1.X.1.1. . .X.1.X.1.1.1. .1.X.X.X.1.5.( 3 ",
"! O.1.{  .{ {  .{ {  .{ { {  .{  .{ {  .{ {  .{ { {  .{  .{ X. . .{  .{  .X._ 3 ",
"^ O. .{  .{ X.;. .| X. .X.|  .1. .{ 1.{  .| X.;. . . . .{ X.{ X. .| X. . .5._ 2 ",
"^ X.X.{ { X. . .{ X.;. .{  .{ X.|  .{ X.;.X.|  .{ ;.{ {  . . .;.{ 1.;. . .O._ 2 ",
"^ O.1. . .{  .{ X.{  .;.1.{  . .X.;. .{  .{ X.{ X.{ 1. .{ 1. . . .{ X.X. .X._ 2 ",
"^ O.1.{ | 1.{ X.|  .{ X.|  . .1.{ X.{  . . .{ X.{  .X.|  .{ X.{  . .X.X.O.O._ 2 ",
"^ O.1. .{ X.{  .|  .W - - - : : : : : - - - - - - - - - - W X.X.| X.1.{ { 3._ 3 ",
"~ O. . . .{ 1.{ X.;.<                                     #  .1. .{ {  . .3._ 3 ",
"! O.1. .;. .{ 1. .X.. > ] ] ] ] ] ] ] ] ] ] ] ] [ ] ] ] * o  . .{ 1.{  .{ 3.( 3 ",
"^ X. .{ X.|  .{  . .  , X. .X.{  .1.X.X.X.X. .{ X. .1. .= o ;.X.X.{  .;.{ 3._ 3 ",
"^ O.1. . .X.{ X.X.{   ,  . . . . . .X.X. .{ {  .{ X.X. .= o  . .{ 1.{ X.X.5._ 2 ",
"^ O. .{ X.{  . .{ 1.  ,  .X. .;. .X.{ 1.{  .X.;.X.|  . .= o |  .X. . .{  .O._ 2 ",
"~ O.1. .{  .{  . .;.  , X.{  .X. .1.:.V +.;.;.X.{ X.{ X.5 $ -. .1. .X.X. .X._ 2 ",
"~ O. . .1.{ X.;.| X.  , ;. .{ {  .F p i s w *.|  .{ %.b s s p M 1.1.X.X.X.O._ 2 ",
"^ O.1.{ X.| 1.{  . .  , {  .{  .&.i L 0.8.v j ;. .{ m z T 0.I u D  .X.;.{ O._ 2 ",
"^ X.X.{ ;. .{ X. .1.  , 1.{ 1.{ B c e.r.r.w.u $. .,.r T e.r.r.J l  . .X. .5._ 2 ",
"^ O.X. . .{  .{ X.;.  , {  .{ 1.b G r.r.r.r.z S | *.t e.r.r.r.U u  . .{ { 5._ 2 ",
"^ O.1.{ {  . . . .{   , X.| 1.{ B c e.r.r.q.u $.1.,.r T r.r.r.H l X.| 1.{ X._ 3 ",
"~ O.1. .1.{  .;.{ X.  ,  .{ X.{ *.i G 8.R c w ;. .X.N h Y 8.P u Z {  .{ X.5._ 2 ",
"~ O. . .{ X.{ X. .{   ,  . .{ 1. .#.f s s e -.X.X.X.%.n d s a A 1. .| X. .O._ 2 ",
"! O.1. . .{ X.{  . .  , X.;.1.{  . .:.C @.;. .{ { X.X.X.6 % %.X.X.1.X.X. .O._ 2 ",
"^ X. .{ {  .;.X.X.1.  , |  .{ X.X. . .X. . . .X.1.{ X.X.= o X. . .X. .X.X.O._ 2 ",
"^ O.1. . . .| X.{  .  , X.1. .{ ;.X.{  .X.| 1.{ {  .{ 1.- o { { X.{  .;. .3._ 2 ",
"^ O. . .{ { ;.{ X.{   ,  . .{  . .{ X. .;. .{ X.X.| X.{ = o |  .{ X.| X.{ 5._ 2 ",
"~ O.1. .;.X. . . . .  ,  .| X.;. . . .;. .{  .{ ;. . . .- o X.{  .| X.| { 5.( 3 ",
"~ O. . . .{ X.{ 1.X.. @ & & & & & & & & & & & & & & & & + o ;.X.{  .;. .{ X._ 3 ",
"^ O. .{ { | X.{ {  ., X X X X X X X X X X X X X X X X X X <  .{  .| X.{ { 5._ 2 ",
"^ X.X.{ {  .{ 1. .;.{ { X.|  .{ { X.X.{ ;.X. . .|  .{ X. . .{ X.{  .{ 1.O.O._ 2 ",
"^ O.1. .{  . .| | X.{ X.;. .{ 1.{  .{  . .| X.| X.;.X.{  .;.X.| X.X.X. . .O._ 2 ",
"^ O.X.{ {  .;.X. .{ 1.{  . .X.{  .;.X.| { 1.{  .{  .|  . .X.|  .{ X.{  .X.5._ 2 ",
"~ O.1. . .{ X. . . .{ ' X.{  .| { X.{  .| X.;. . .X.{ 1.1.{  .;. .{ X.{ ..O._ 2 ",
"~ O. . .{ 1.;. .{  . . .{ X.;.X. . .1.{  .;.X.|  .{  .{ {  .{ X. . .{ 1.{ O._ 3 ",
"! O.1. .X.{  .{  .X.{  .{  . .{ ;. .{  .{ X.{  .{  .| X.1.{ 1.{  .{  .| ..6._ 3 ",
"^ X. .{ {  .{  .| { X.;.X. .;. .X.{  . . .{ 1.{ X.{  .;.{  .{  .{  .;.X...O._ 3 ",
"^ X.1. . .{  . .{  .{ { { { { {  . .{  . . .{  .{ {  .{ { {  .{ { {  .{ { 2._ 3 ",
"/ 6.5.2.3.2.4.2.2.3.2.3.3.3.5.3.2.2.2.3.2.2.2.2.3.3.2.3.5.2.3.2.3.3.2.2.2.7._ 3 ",
"8 ( ( ( ( E E E ( ( E E E E ( ( E E E E ( ( E E ( ( E E ( E E E ( ( ( ( ( ( 7 3 ",
"0 6 1 1 1 1 1 1 1 1 1 1 1 1 1 1 1 1 1 1 1 1 1 1 1 1 1 1 1 1 1 1 1 1 1 1 1 1 3 4 "
};
