/* XPM */
static char *_893aa755de94eefbb954159aaa4b8586rKo0HaLShM9zvDu[] = {
/* columns rows colors chars-per-pixel */
"40 40 144 2 ",
"   c black",
".  c #080303",
"X  c #100B07",
"o  c #070E16",
"O  c #0A1321",
"+  c #2B2A28",
"@  c #482227",
"#  c #513B20",
"$  c #4A2830",
"%  c #5D4A36",
"&  c #5A473F",
"*  c #79533D",
"=  c #3E1740",
"-  c #481B40",
";  c #4E1B41",
":  c #463F57",
">  c #4B4741",
",  c #544541",
"<  c #5F4F59",
"1  c #6B514D",
"2  c #736158",
"3  c #585A6F",
"4  c #576474",
"5  c #55687D",
"6  c #716661",
"7  c #6A6D77",
"8  c #846655",
"9  c #9C867E",
"0  c #406995",
"q  c #597395",
"w  c #5E7196",
"e  c #657BA5",
"r  c #8E7F8C",
"t  c #6188AE",
"y  c #7185A0",
"u  c #678BB8",
"i  c #678BBA",
"p  c #678CB8",
"a  c #698EBB",
"s  c #768FB3",
"d  c #7E96B5",
"f  c #7091BE",
"g  c #0AA4E8",
"h  c #10A6E8",
"j  c #15A9E8",
"k  c #19A9E8",
"l  c #1EADE8",
"z  c #24AEE7",
"x  c #21ACE9",
"c  c #2AB0E7",
"v  c #30B0E9",
"b  c #44B6EA",
"n  c #42B8E8",
"m  c #4FB9EB",
"M  c #51BFE8",
"N  c #68B4E2",
"B  c #62BFEC",
"V  c #6CC9E5",
"C  c #60C4E9",
"Z  c #66C6E9",
"A  c #72C2EC",
"S  c #7DC5EC",
"D  c #70CAE8",
"F  c #9E8388",
"G  c #949295",
"H  c #AC978F",
"J  c #8399B3",
"K  c #94A0B5",
"L  c #B7ACA6",
"P  c #CBB8A7",
"I  c #C3BAB7",
"U  c #84A2C7",
"Y  c #94A5C1",
"T  c #9EA8C5",
"R  c #80B2DA",
"E  c #9AB3D1",
"W  c #9CB1D2",
"Q  c #9CB3D2",
"!  c #9EB6D4",
"~  c #9FB7D4",
"^  c #BCB9C0",
"/  c #A2B1D6",
"(  c #A7BBD6",
")  c #A7BCD7",
"_  c #A2B6D8",
"`  c #A9BFD8",
"'  c #AEBFDA",
"]  c #AEBEDB",
"[  c #B2BEDB",
"{  c #AEC1DA",
"}  c #B0C1DC",
"|  c #B2C3DD",
" . c #B3C3DD",
".. c #B4C3DD",
"X. c #B6C4DE",
"o. c #83C5EB",
"O. c #89C7EB",
"+. c #85C8ED",
"@. c #9ACDED",
"#. c #8BD3E9",
"$. c #93D6E9",
"%. c #97D8E9",
"&. c #97D8EA",
"*. c #98D8E9",
"=. c #99D9EA",
"-. c #9CDAE8",
";. c #AEC7E5",
":. c #A7D0ED",
">. c #BCD3ED",
",. c #CBC6CD",
"<. c #D1D2DE",
"1. c #D3D4DE",
"2. c #D2D4DF",
"3. c #F2E4CC",
"4. c #C5D3EB",
"5. c #C4D7ED",
"6. c #C3D8EE",
"7. c #CAD8ED",
"8. c #CBD9EE",
"9. c #CADAEE",
"0. c #CBDBEF",
"q. c #CFDAEE",
"w. c #D1D6E5",
"e. c #D3D6E5",
"r. c #D4D7E4",
"t. c #D6DDE9",
"y. c #D2D9ED",
"u. c #D3DBED",
"i. c #D3DAEE",
"p. c #D4D9ED",
"a. c #D4DBEC",
"s. c #D6DBED",
"d. c #D5DBEE",
"f. c #D5DDED",
"g. c #D6DDED",
"h. c #DADFEF",
"j. c #D8DDF0",
"k. c #DBE0F0",
"l. c #DCE0F0",
"z. c #DCE0F1",
"x. c #DEE2F2",
"c. c #E0E3F2",
"v. c #E6E7F5",
"b. c #F6FFFF",
/* pixels */
"{ ` ` ( ( ( ( ( ` ( ( ( ( ( ( ( ` ( ( ( ( ( ( ` ( ( ( ( ( ` ( ( ` ( ) ( ( ] Q _ ",
"` a.a.y.y.y.y.y.y.i.i.y.y.i.y.a.y.y.i.i.y.p.y.y.i.i.y.a.y.y.i.i.y.y.y.y.y.k.| Q ",
"` h.j.a.a.a.a.a.a.i.i.i.a.a.a.a.a.a.y.a.a.a.i.i.y.a.a.a.i.i.y.a.g.t.y.y.y.k...i ",
"` g.a.y.a.y.y.y.a.i.a.y.y.y.y.y.a.y.y.y.y.a.a.y.y.y.y.y.a.y.i.a.y.y.y.y.y.k.| a ",
"{ j.a.y.a.a.i.y.i.y.a.a.a.y.y.i.a.i.a.i.y.a.i.y.y.i.y.y.i.y.a.i.q.t.y.g.r.l...p ",
"` a.a.y.i.y.i.a.a.y.i.y.i.i.a.a.i.y.y.i.y.i.a.y.a.a.y.p.a.a.a.y.a.a.y.y.d.l.} a ",
"( g.j.y.y.i.y.a.a.i.y.i.y.a.i.y.y.y.a.a.a.a.i.i.i.y.i.p.i.a.i.y.q.u.d.y.y.k.| i ",
"` g.i.y.a.a.y.i.y.i.a.a.y.i.a.y.a.i.i.y.i.y.y.a.y.p.a.a.y.y.i.a.d.y.y.d.y.k...i ",
"` j.g.y.y.a.i.i.y.y.a.i.y.a.i.i.i.a.a.y.a.y.y.y.y.a.a.i.y.y.a.i.y.g.y.y.y.k.| a ",
"` y.a.y.i.a.y.a.a.i.a.y.i.a.y.a.y.y.i.i.i.i.a.y.a.i.y.i.a.i.a.y.g.y.y.y.r.k.| i ",
"` j.a.a.i.y.a.y.i.a.i.y.i.y.a.y.a.i.y.a.y.a.i.y.i.p.a.a.y.a.i.y.y.y.y.g.y.k.| a ",
"` a.a.y.a.y.i.i.y.y.i.a.a.y.i.i.a.y.i.a.y.i.a.y.i.a.i.y.a.y.i.a.g.y.y.y.y.k.| i ",
"` a.a.y.a.a.y.a.a.i.y.a.i.y.y.a.i.i.y.a.i.y.y.y.a.y.y.a.i.i.y.a.y.y.y.y.r.k...p ",
"` j.a.y.a.y.i.a.a.y.i.a.i.a.i.a.y.a.y.i.a.y.a.i.i.i.a.y.y.a.y.i.g.y.g.y.y.k...a ",
"( j.g.y.i.i.y.y.i.a.i.y.y.a.i.y.y.i.y.a.a.i.y.i.y.a.i.y.y.i.a.i.y.y.a.d.y.z.| p ",
"` a.a.a.y.a.a.i.y.P X         t a.a.y.i.y.i.a.a.y.i.y.w.r i.a.y.a.q.y.d.y.z...p ",
"` h.a.y.a.y.a.y.y.a.y.t.; [ y.i.i.a.y.a.a.y.a.y.a.y.g.e.@ 9.y.a.y.y.y.y.e.k.| a ",
"` j.a.y.y.a.y.g.a.y.a.t.; [ a.a.r.6 . o s r.2 d e.9 y #     5 y.g.y.g.y.y.k.| i ",
"` a.i.a.a.y.y.y.6.o.O.0.; [ i.y.9 e b.3.& ;.,.: G 3 q.<.@ 9.a.y.y.y.y.g.y.z.| i ",
"` g.i.y.y.a.a.+.g k j z = [ i.a.*       O _ y.H O { y.2.@ 9.y.a.g.y.y.y.y.z.| i ",
"` a.a.a.i.d.:.g D &.&.V = ] y.a.8 Y g.y.y.y.2.1 > q a.w.$ 0.g.y.q.a.a.y.e.k...p ",
"` a.i.a.a.y.C n &.&.=.:.- R a.y.L + 7 6 < 9.F w <.& / e.% 4 K a.d.a.y.y.y.l.| a ",
"` j.i.i.y.y.M M &.=.=.-.0 N a.y.y.^ 7 w [ <.G 4.a.I J a.,.7 T y.q.a.a.d.y.z.| p ",
"` a.a.a.y.a.S z $.=.=.#.k @.i.i.a.y.a.y.y.y.y.a.q.a.y.y.r.y.a.y.d.y.y.d.y.z...p ",
"( h.i.p.a.y.8.v c Z C l b 9.y.a.i.a.a.y.i.a.a.y.a.y.a.a.y.y.a.i.y.y.y.y.r.k.| a ",
"` a.a.y.a.y.y.5.B k x A q.y.i.a.y.y.i.y.i.y.i.i.y.a.y.y.a.i.a.y.g.y.g.y.d.k.| i ",
"` j.a.a.a.y.a.i.a.i.y.i.y.y.y.y.a.i.y.i.y.a.y.a.y.y.a.a.i.a.i.y.y.y.y.g.q.k.| i ",
"` a.i.a.i.i.a.y.y.i.a.a.y.a.a.a.a.y.i.a.y.i.i.a.a.y.y.y.y.y.i.a.g.y.y.y.y.k.| i ",
"` h.a.p.y.a.i.y.a.i.y.y.y.i.i.a.i.a.i.y.a.i.y.y.y.i.i.a.a.a.i.y.y.y.y.y.e.z.{ p ",
"` j.a.a.y.y.i.a.y.i.a.i.a.a.y.y.i.y.i.a.y.i.a.i.a.a.y.y.i.y.i.a.g.y.g.y.y.z...a ",
"` a.i.i.y.y.y.a.y.a.i.a.i.y.a.i.y.i.y.a.y.a.i.a.i.y.a.i.y.i.y.a.y.d.y.g.y.z.X.p ",
"` a.i.y.y.a.y.i.i.a.y.y.i.a.y.i.a.a.y.i.i.a.y.y.i.a.y.i.a.a.y.i.d.y.y.y.y.z.| i ",
"` j.a.a.y.y.g.a.a.y.y.>.y.y.a.y.y.y.g.y.g.y.y.y.g.y.g.y.y.y.g.y.g.y.g.y.a.j.X.a ",
"` a.a.y.g.y.y.a.y.a.a.y.g.y.g.y.y.g.y.y.y.y.y.g.y.y.y.y.y.g.y.y.y.y.y.y.a.z.| i ",
"` j.i.p.y.y.y.y.g.y.a.y.g.y.y.i.d.y.g.y.g.y.g.y.y.y.g.y.y.y.y.y.y.y.g.y.y.j.} a ",
"` a.a.y.g.y.y.y.y.y.y.a.y.y.i.y.y.y.y.y.y.y.y.y.y.g.y.y.y.g.y.y.y.g.y.y.r.h.X.a ",
"( a.g.y.y.y.e.y.y.y.e.y.y.a.y.y.y.e.y.y.r.y.y.y.y.y.e.y.y.y.y.y.r.d.y.y.y.k...a ",
"| c.z.j.z.z.z.z.z.z.z.z.j.z.c.j.z.z.z.z.z.z.z.z.k.k.k.k.z.z.z.z.z.z.z.z.z.v...i ",
"W | [ ] ] [ { ] { { ] ] [ ] [ ] ] [ | ] { ] ] { | { [ ] { { ] [ { { { ] ] ..Q a ",
"! U i i a i i i i i i i i i i a i i i i i i i i i i i i i i i i i i i i i i a f "
};
