/* XPM */
static char *_78c1560de274208cf039fcb9af33fb5BzfLjRO6TorH1WnS[] = {
/* columns rows colors chars-per-pixel */
"40 40 145 2 ",
"   c black",
".  c #080202",
"X  c #0E0A05",
"o  c #090F15",
"O  c #08111F",
"+  c #262523",
"@  c #4B3519",
"#  c #4A163C",
"$  c #472126",
"%  c #47252D",
"&  c #4C3C37",
"*  c #55422D",
"=  c #57433B",
"-  c #6F4932",
";  c #3E1740",
":  c #3E374F",
">  c #481B40",
",  c #4B4741",
"<  c #53444C",
"1  c #55585F",
"2  c #614742",
"3  c #66534A",
"4  c #775846",
"5  c #625651",
"6  c #4D4E62",
"7  c #475362",
"8  c #485A6E",
"9  c #515761",
"0  c #565967",
"q  c #786974",
"w  c #7B7879",
"e  c #856C61",
"r  c #897268",
"t  c #896E70",
"y  c #958075",
"u  c #496283",
"i  c #4D6183",
"p  c #5F728B",
"a  c #406995",
"s  c #4E7598",
"d  c #537094",
"f  c #537095",
"g  c #547094",
"h  c #547196",
"j  c #5A7498",
"k  c #697E96",
"l  c #677E9C",
"z  c #657BA5",
"x  c #788496",
"c  c #6B84A3",
"v  c #7B8BA4",
"b  c #7D8EA8",
"n  c #7A91AD",
"m  c #7B91AD",
"M  c #7D93AF",
"N  c #7E94AF",
"B  c #3AABDF",
"V  c #09A3E6",
"C  c #15A5E4",
"Z  c #15A9E8",
"A  c #1AABE8",
"S  c #21AAE2",
"D  c #24AEE7",
"F  c #29A8E1",
"G  c #2AB0E7",
"H  c #6D9EC4",
"J  c #57A2CE",
"K  c #53AEDA",
"L  c #54B1DC",
"P  c #6FADCF",
"I  c #6AACD0",
"U  c #68AFD4",
"Y  c #6FB2D5",
"T  c #44AFE0",
"R  c #41B8E8",
"E  c #51BFE8",
"W  c #6CC9E5",
"Q  c #60C4E9",
"!  c #66C6E9",
"~  c #70CAE8",
"^  c #8F8F8A",
"/  c #9B9087",
"(  c #9B989C",
")  c #AD9A86",
"_  c #A29993",
"`  c #A89F99",
"'  c #8089A4",
"]  c #8C99AF",
"[  c #8196B2",
"{  c #8593B6",
"}  c #8397B6",
"|  c #8398B2",
" . c #8398B3",
".. c #8399B3",
"X. c #8499B3",
"o. c #879BB5",
"O. c #8D9BB0",
"+. c #8E9AB0",
"@. c #8F9CB1",
"#. c #859CBA",
"$. c #909AB1",
"%. c #909CB1",
"&. c #929DB7",
"*. c #95A0B4",
"=. c #91A1BB",
"-. c #A9A3A7",
";. c #A9AAB2",
":. c #ADACB2",
">. c #AAADB7",
",. c #ACACB4",
"<. c #AEAFB6",
"1. c #AAADB9",
"2. c #A8AEBD",
"3. c #A9AEBD",
"4. c #AAAEBD",
"5. c #A8AEBE",
"6. c #ABAFBE",
"7. c #AAB0BD",
"8. c #ACB1BE",
"9. c #AFB5BE",
"0. c #9FACC0",
"q. c #89B2CC",
"w. c #9FB1C4",
"e. c #80B3D0",
"r. c #A7B1C1",
"t. c #A2B1C5",
"y. c #A6B5C6",
"u. c #ADB1C0",
"i. c #AEB3C0",
"p. c #AFB4C0",
"a. c #A9B9C4",
"s. c #A0B4C8",
"d. c #B0B4C0",
"f. c #B2B5C2",
"g. c #B4B6C2",
"h. c #B8B9C4",
"j. c #8BD3E9",
"k. c #9FDBE6",
"l. c #93D6E9",
"z. c #97D8EA",
"x. c #98D8E9",
"c. c #99D9EA",
"v. c #9CDAE8",
"b. c #F2E4CC",
"n. c #F6FFFF",
/* pixels */
"o.| o.[ [ [ [ [ [ [ [ [ [ [ [ [ [ [ [ [ [ [ [ [ [ [ [ [ [ [ [ [ [ [ [ [ [ [ m [ ",
"| 7.5.5.1.5.5.5.5.5.5.5.5.5.5.5.5.5.5.5.5.5.5.5.5.5.5.5.5.5.5.5.5.5.5.5.5.9.$.m ",
"| p.i.5.8.5.5.8.1.d.i.8.5.1.8.8.r.8.5.7.5.d.i.8.5.5.8.8.d.r.4.7.5.9.r.8.6.d.$.h ",
"| 8.r.5.5.5.5.5.5.5.5.5.5.5.5.5.5.5.5.1.1.5.5.5.1.5.5.5.5.5.5.1.5.6.5.5.6.9.$.h ",
"[ 8.6.5.1.5.8.r.8.r.5.7.5.5.4.5.5.1.5.1.8.r.5.r.5.1.6.5.5.r.5.6.6.r.6.8.5.g.%.g ",
"o.5.9.5.r.5.1.5.1.5.5.5.5.7.7.8.r.5.6.r.5.6.1.5.r.5.r.5.1.5.7.5.5.5.5.1.5.9.%.g ",
"[ 8.6.5.7.8.5.r.r.6.8.7.r.6.5.r.8.8.7.5.5.6.5.r.6.5.6.6.5.5.8.5.r.6.r.8.5.8.%.g ",
"X.8.8.5.5.5.5.8.5.5.5.7.4.5.5.5.5.5.5.5.5.7.5.8.6.6.6.r.1.r.7.5.1.5.5.5.1.9.%.g ",
"[ 8.r.5.8.5.5.6.5.r.6.5.6.5.5.5.5.5.7.4.6.r.5.r.5.7.5.1.5.5.5.8.6.8.5.r.5.9.$.g ",
"o.6.8.1.r.1.8.r.1.5.8.5.r.5.8.7.r.5.7.5.1.5.5.7.6.5.6.r.r.8.5.7.7.5.5.5.6.9.$.g ",
"o.8.i.5.5.4.5.8.5.6.7.5.5.1.5.6.6.5.r.6.7.r.5.1.6.5.7.8.1.5.5.5.5.5.5.8.6.d.$.f ",
"[ 6.5.5.r.5.5.7.1.r.5.5.r.8.5.7.7.4.5.5.5.8.r.5.5.5.5.5.5.7.6.r.r.8.1.r.5.9.$.h ",
"[ 8.i.5.5.5.5.5.8.r.r.5.5.1.5.4.7.5.5.r.5.5.8.5.r.8.6.r.r.5.8.7.4.4.7.5.6.9.%.g ",
"o.8.1.5.8.5.5.r.5.6.7.5.6.r.5.6.8.5.1.5.6.r.7.5.5.1.5.5.6.5.5.5.5.r.5.5.5.9.%.g ",
"[ 8.8.6.7.5.r.8.5.7.8.5.5.5.8.r.7.8.5.r.1.5.8.5.5.5.5.5.r.7.5.r.5.5.5.5.5.9.%.g ",
"| 6.r.5.5.5.5.1.5.) X         s 5.6.5.6.5.6.r.5.6.7.8.1.q 7.5.6.5.7.4.5.5.g.%.g ",
"X.8.r.1.4.5.5.5.4.5.5.9.# &.7.5.5.5.5.r.5.5.5.5.5.5.5.,.$ y.5.r.5.r.6.8.5.d.%.g ",
"| 8.8.5.1.r.5.7.1.r.5.9.# &.5.5.:.5 . o k ;.3 l 5.e p @     8 5.5.5.5.1.5.d.%.g ",
" .8.5.6.r.8.5.4.s.I P a.# &.r.5.r z n.b.= q.-.< ^ 6 r.,.$ y.5.5.7.8.r.5.5.d.$.h ",
" .8.9.5.5.5.r.Y V A Z S ; &.5.p.-       O } r.t o #.5.>.$ y.7.4.7.4.5.5.5.9.%.h ",
" .8.i.5.r.5.q.C ~ c.z.W ; =.7.5.4 v 5.5.7.5.;.2 , u 5.,.% y.8.5.r.5.4.5.5.9.%.g ",
" .8.5.5.5.5.L R v.v.v.v.# H 5.r./ + 9 1 < t.t u ,.& { >.* 7 x 5.5.5.7.7.5.9.%.g ",
"[ 8.d.5.r.5.T E z.c.c.v.a J 5.5.5.( 1 0 $.;.w 5.5._ k 6.` 1 ' 5.7.5.5.5.5.9.%.g ",
"o.6.5.5.5.5.U D l.c.c.j.A e.7.8.6.8.7.5.5.r.8.5.8.r.r.8.1.5.6.r.4.4.4.5.5.g.%.g ",
"[ 8.8.5.6.5.t.F G ! Q A B t.5.7.r.5.6.7.5.6.5.5.5.6.5.5.8.5.5.5.5.5.5.5.1.d.%.g ",
"| 8.5.5.7.5.5.t.K C S U t.5.5.5.6.5.5.5.4.r.5.7.7.5.6.r.7.5.8.r.7.8.r.6.5.9.%.g ",
"X.8.5.5.r.8.5.7.5.7.r.8.5.5.5.7.5.4.6.5.7.8.4.7.6.8.r.5.5.5.5.4.5.6.1.5.5.d.$.h ",
"[ 8.d.5.5.5.5.7.5.5.6.1.5.7.7.r.7.7.r.7.5.5.5.6.5.5.5.1.r.5.7.7.6.r.5.6.6.d.%.h ",
"X.8.r.1.1.5.5.6.5.5.5.5.r.5.7.8.5.8.5.5.r.8.5.r.1.5.8.5.6.7.7.8.1.r.5.r.5.g.%.g ",
"X.8.6.6.5.r.5.7.7.7.r.8.6.5.5.6.5.r.r.1.7.1.5.5.5.6.r.5.5.4.5.5.5.5.5.8.1.9.%.g ",
"X.8.6.5.5.1.5.7.5.4.5.5.5.1.6.5.5.6.6.5.6.5.5.7.r.6.7.6.r.8.5.r.7.r.6.5.5.9.%.g ",
"[ 8.8.5.r.5.5.r.6.r.5.6.r.7.r.5.1.r.8.5.r.5.5.8.5.5.5.5.5.1.5.6.5.5.7.5.5.d.%.g ",
"o.8.5.5.5.5.6.5.7.7.5.0.5.8.r.5.5.6.7.5.6.r.5.7.r.1.r.6.r.6.1.5.5.6.1.7.5.8.%.g ",
"[ 8.9.5.7.4.5.6.5.5.1.5.5.5.5.1.5.8.5.5.5.6.5.8.5.5.5.5.5.5.7.r.5.r.6.r.5.d.%.h ",
"| 8.5.6.5.5.6.5.5.r.5.r.r.1.r.5.5.r.6.5.1.6.5.7.r.5.8.r.7.5.5.5.1.6.5.5.5.9.$.g ",
"| 8.r.5.r.6.5.5.6.1.5.8.8.6.r.5.1.5.r.r.8.r.5.5.6.1.5.6.4.5.6.5.7.6.r.5.5.9.%.h ",
"| 8.5.5.6.5.5.5.5.5.5.5.5.5.5.5.5.5.5.5.5.5.5.5.5.6.5.5.5.5.5.5.5.5.5.5.5.8.%.h ",
"o.g.d.i.d.d.d.i.6.g.9.i.d.d.g.d.p.p.8.d.d.g.8.d.8.g.d.9.d.9.d.i.9.g.i.i.d.h.*.g ",
"m +.+.+.+.] ] ] ] ] ] ] ] ] ] ] ] ] ] ] ] ] ] ] ] ] ] ] +.+.] ] +.+.] ] $.] b h ",
"M c f f f f f f h h f f f f f f d g h g g f f f h h h f f f f f f f f f h h h j "
};
