/* XPM */
static char *result[] = {
/* columns rows colors chars-per-pixel */
"40 40 143 2 ",
"   c black",
".  c #010101",
"X  c #020202",
"o  c gray1",
"O  c #040404",
"+  c gray2",
"@  c #050506",
"#  c #060607",
"$  c #070707",
"%  c #070808",
"&  c #09090A",
"*  c #0A0A0B",
"=  c #0C0C0D",
"-  c #0D0E0F",
";  c #0F1011",
":  c #101012",
">  c #121314",
",  c #141516",
"<  c #151618",
"1  c #161719",
"2  c #18191B",
"3  c #1B1C1F",
"4  c #1D1E21",
"5  c #1E1F22",
"6  c #1E2022",
"7  c #202124",
"8  c #202225",
"9  c #222326",
"0  c #222427",
"q  c #27282C",
"w  c #2A2B2F",
"e  c #2A2C30",
"r  c #2D2F33",
"t  c #303236",
"y  c #333539",
"u  c #3D3F45",
"i  c #3E4045",
"p  c #46484E",
"a  c #46494F",
"s  c #494B52",
"d  c #4A4C53",
"f  c #4A4D53",
"g  c #4E5057",
"h  c #505259",
"j  c #52545C",
"k  c #54565E",
"l  c #54575E",
"z  c #575B62",
"x  c #595C64",
"c  c #5D6068",
"v  c #5D6169",
"b  c #676A73",
"n  c #676B74",
"m  c #696D76",
"M  c #6A6E77",
"N  c #71757F",
"B  c #537094",
"V  c #537095",
"C  c #547094",
"Z  c #547196",
"A  c #547296",
"S  c #5A7498",
"D  c #777C86",
"F  c #787C87",
"G  c #7A7E89",
"H  c #7B7F8A",
"J  c #6B84A3",
"K  c #7D8EA8",
"L  c #7A91AD",
"P  c #7B91AD",
"I  c #7D93AF",
"U  c #7E94AF",
"Y  c #838894",
"T  c #848994",
"R  c #868B97",
"E  c #8A8F9B",
"W  c #8C99AF",
"Q  c #9095A2",
"!  c #9096A2",
"~  c #9297A4",
"^  c #9298A5",
"/  c #959AA8",
"(  c #969CA9",
")  c #979CAA",
"_  c #989DAB",
"`  c #989EAB",
"'  c #999FAC",
"]  c #9A9FAD",
"[  c #8196B2",
"{  c #8398B2",
"}  c #8298B3",
"|  c #8398B3",
" . c #8399B3",
".. c #8499B3",
"X. c #869BB5",
"o. c #879BB5",
"O. c #8D9BB0",
"+. c #8E9AB0",
"@. c #8F9CB1",
"#. c #909CB1",
"$. c #929DB2",
"%. c #9BA1AE",
"&. c #9CA1AF",
"*. c #95A0B4",
"=. c #9DA3B1",
"-. c #97A9BE",
";. c #A0A6B4",
":. c #A2A7B6",
">. c #A3A9B7",
",. c #A6ACBA",
"<. c #A6ACBB",
"1. c #A7ADBC",
"2. c #A8AEBD",
"3. c #A9AEBD",
"4. c #A9AFBD",
"5. c #AAAEBD",
"6. c #A8AEBE",
"7. c #A8AFBE",
"8. c #A9AFBE",
"9. c #A9AFBF",
"0. c #AAAEBE",
"q. c #AAAFBE",
"w. c #ABAFBE",
"e. c #ACAFBD",
"r. c #AAB0BD",
"t. c #A9B0BE",
"y. c #AAB0BE",
"u. c #ABB0BE",
"i. c #ABB1BE",
"p. c #AAB0BF",
"a. c #ABB0BF",
"s. c #ACB0BE",
"d. c #ACB1BE",
"f. c #ADB1C0",
"g. c #AEB3C0",
"h. c #AFB3C0",
"j. c #AFB4C0",
"k. c #B0B4C0",
"l. c #B0B4C1",
"z. c #B2B5C1",
"x. c #B2B5C2",
"c. c #B4B6C2",
"v. c #B8B9C4",
/* pixels */
"o.{ | [ [ [ [ [ [ [ [ [ [ [ [ [ [ [ [ [ [ [ [ [ [ [ [ [ [ [ [ [ [ [ [ [ [ ..P U ",
"{ r.p.2.2.2.2.2.2.2.2.2.2.2.2.2.2.2.2.2.2.2.2.2.2.2.2.2.2.2.2.2.2.2.2.2.2.h.#.P ",
" .g.f.a.a.a.a.a.a.a.a.a.a.a.a.a.a.a.a.a.a.a.a.a.a.a.a.a.a.a.a.a.a.a.a.a.a.z.$.B ",
"| d.p.2.2.2.2.2.2.2.2.2.2.2.2.2.2.2.2.2.2.2.2.2.2.2.2.2.2.2.8.8.8.2.2.2.2.j.#.C ",
"| d.a.2.8.8.8.8.8.8.8.8.8.8.8.8.8.8.8.8.8.8.8.8.8.8.8.8.6.8.8.8.8.8.8.8.2.k.#.C ",
"| d.a.2.8.8.8.8.8.8.8.8.8.8.8.8.8.8.8.8.8.8.8.8.8.8.6.6.u.8.8.8.8.8.8.8.2.k.#.C ",
"| d.a.2.8.8.8.8.8.8.8.8.8.8.8.8.8.8.8.8.8.8.8.8.8.6.q.w.8.8.8.8.8.8.8.8.2.k.#.C ",
"| d.a.2.8.8.8.8.8.8.8.8.8.8.8.8.8.8.8.8.8.8.8.8.7.0.q.,.f ( 8.8.8.6.8.8.2.k.#.C ",
"| d.a.2.8.8.8.8.8.8.8.8.8.8.8.8.8.8.8.8.8.8.8.7.6.y.2.u . 3 ) 8.8.s.6.8.2.k.#.C ",
"| d.a.2.8.8.8.8.8.8.8.8.8.8.8.8.8.8.8.8.8.8.8.7.w.2.a .     5 ` 8.8.6.8.2.k.#.C ",
"| d.a.2.8.8.8.8.8.8.8.8.8.8.8.8.8.8.8.8.8.8.8.7.5.d X         h 8.8.8.8.2.k.#.C ",
"| d.a.2.8.8.8.8.8.8.8.8.8.8.8.8.8.8.8.8.8.8.8.7.l o         t :.8.8.8.8.2.k.#.C ",
"| d.a.2.8.8.8.8.8.8.8.8.8.8.8.8.8.8.8.8.8.6.t.x +         w =.8.8.8.8.8.2.k.#.C ",
"| d.a.2.8.8.8.8.8.8.8.8.8.8.8.8.8.8.8.6.8.8.v @         q %.8.8.8.8.8.8.2.k.#.C ",
"| d.a.2.8.8.8.8.8.8.8.8.8.8.8.8.8.8.8.8.8.n $         7 ' 8.8.8.8.8.9.8.2.k.#.C ",
"| d.a.2.8.8.8.8.8.8.8.8.8.8.8.6.8.8.8.8.M &         4 ^ 8.8.8.8.8.9.8.8.2.k.#.C ",
"| d.a.2.8.8.8.8.8.8.8.8.8.8.8.8.8.8.8.N *         3 ! 9.9.8.8.8.8.8.8.8.2.k.#.C ",
"| d.a.2.8.8.8.8.8.8.8.8.8.8.8.8.8.8.F -         < E 9.8.8.8.8.8.8.8.8.8.2.k.#.C ",
"| d.a.2.8.8.8.8.8.8.6.8.8.8.8.8.8.H ;         , R 8.8.8.8.8.8.8.8.8.8.8.2.k.#.C ",
"| d.a.2.8.8.8.8.8.6.8.8.8.8.9.6.T >         : Y 9.8.8.8.8.8.8.8.8.8.8.8.2.k.#.C ",
"| d.a.2.8.8.8.8.8.t.8.8.8.8.8.R 1 .       - G 9.8.8.8.8.8.8.8.8.8.8.8.8.2.k.#.C ",
"| d.a.2.8.8.8.8.8.8.8.8.8.8.E 2 .       = D 9.8.8.8.8.8.8.8.8.8.8.8.8.8.2.k.#.C ",
"| d.a.2.8.8.8.8.8.8.8.8.8.Q 5 .       & N 8.8.8.8.8.8.8.8.8.8.8.8.8.8.8.2.k.#.C ",
"| d.a.2.8.8.8.8.4.8.8.8.~ 8 .       % m 2.9.8.8.8.8.8.8.8.8.8.8.8.8.8.8.2.k.#.C ",
"| d.a.2.8.8.8.8.8.8.8._ 0 .       # b 2.8.8.8.8.8.8.8.8.8.8.8.8.8.8.8.8.2.k.#.C ",
"| d.a.2.8.6.t.6.8.8.] e .       + c 2.8.9.8.8.8.8.8.8.8.8.8.8.8.8.8.8.8.2.k.#.C ",
"| d.a.2.8.t.8.8.8.&.r .       O z 2.8.9.8.8.8.8.8.8.8.8.8.8.8.8.8.8.8.8.2.k.#.C ",
"| d.a.2.8.8.8.8.;.y .       o k 1.8.8.8.8.8.8.8.8.8.8.8.8.8.8.8.8.8.8.8.2.k.#.C ",
"| d.a.2.7.8.8.8.j .       X s <.9.8.8.8.8.8.8.8.8.8.8.8.8.8.8.8.8.8.8.8.2.k.#.C ",
"| d.a.2.6.8.8.8.) 9 .   . p ,.8.8.8.8.8.8.8.8.8.8.8.8.8.8.8.8.8.8.8.8.8.2.k.#.C ",
"| d.a.2.6.8.8.8.8.( 6 . i ,.8.8.8.8.8.8.8.8.8.8.8.8.8.8.8.8.8.8.8.8.8.8.2.k.#.C ",
"| d.a.2.6.3.8.8.8.8./ g >.8.8.8.8.8.8.8.8.8.8.8.8.8.8.8.8.8.8.8.8.8.8.8.2.k.#.C ",
"| d.a.2.8.6.e.8.8.8.8.-.8.8.8.8.8.8.8.8.8.8.8.8.8.8.8.8.8.8.8.8.8.8.8.8.2.k.#.C ",
"| d.a.2.8.8.6.e.8.8.8.8.8.8.8.8.8.8.8.8.8.8.8.8.8.8.8.8.8.8.8.8.8.8.8.8.2.k.#.C ",
"| d.a.2.8.8.8.6.5.8.8.8.8.8.8.9.8.8.8.8.8.8.8.8.8.8.8.8.8.8.8.8.8.8.8.8.2.k.#.C ",
"| d.a.2.8.8.8.8.7.2.8.8.8.8.9.8.8.8.8.8.8.8.8.8.8.8.8.8.8.8.8.8.8.8.8.8.2.k.#.C ",
"} i.p.2.2.2.2.2.2.2.2.2.2.2.2.2.2.2.2.2.2.2.2.2.2.2.2.2.2.2.2.2.2.2.2.2.2.j.@.C ",
"X.c.x.k.l.l.l.l.l.l.l.l.l.l.l.l.l.l.l.l.l.l.l.l.l.l.l.l.l.l.l.l.l.l.l.l.k.v.*.B ",
"L O.+.W W W W W W W W W W W W W W W W W W W W W W W W W W W W W W W W W W #.K Z ",
"I J V V V V V V V V V V V V V V V V V V V V V V V V V V V V V V V V V V V V A S "
};
