/* XPM */
static char *result[] = {
/* columns rows colors chars-per-pixel */
"40 40 156 2 ",
"   c black",
".  c #010101",
"X  c #020202",
"o  c #020303",
"O  c #030304",
"+  c #050506",
"@  c #060607",
"#  c #070707",
"$  c #070808",
"%  c #080909",
"&  c #09090A",
"*  c #0B0B0C",
"=  c #0C0D0E",
"-  c #0F0F11",
";  c #111113",
":  c #131415",
">  c #141516",
",  c #161719",
"<  c #191A1C",
"1  c #1A1B1E",
"2  c #1B1C1F",
"3  c #1E1F21",
"4  c #222326",
"5  c #242629",
"6  c #25262A",
"7  c #26272B",
"8  c #28292D",
"9  c #292A2E",
"0  c #2A2C2F",
"q  c #2B2C30",
"w  c #313237",
"e  c #34363B",
"r  c #35373B",
"t  c #383A3F",
"y  c #3C3F44",
"u  c #404248",
"i  c #4C4F56",
"p  c #4D5056",
"a  c #575A62",
"s  c #585B63",
"d  c #5B5E66",
"f  c #5D5F67",
"g  c #5D6068",
"h  c #61646D",
"j  c #636770",
"k  c #666972",
"l  c #686C75",
"z  c #696D76",
"x  c #6D717B",
"c  c #6F737D",
"v  c #747882",
"b  c #757983",
"n  c #678BB8",
"m  c #678BBA",
"M  c #678CB8",
"N  c #688CB9",
"B  c #698DBB",
"V  c #698EBB",
"C  c #7091BE",
"Z  c #808590",
"A  c #818591",
"S  c #848894",
"D  c #848995",
"F  c #8D929F",
"G  c #959AA7",
"H  c #969BA8",
"J  c #989DAB",
"K  c #999EAC",
"L  c #A4A9B8",
"P  c #A4A9B9",
"I  c #A7ADBC",
"U  c #84A2C7",
"Y  c #9AB3D1",
"T  c #9CB1D2",
"R  c #9CB3D2",
"E  c #9EB6D4",
"W  c #9FB7D4",
"Q  c #ACB2C1",
"!  c #B4BACA",
"~  c #B4BACB",
"^  c #B6BCCC",
"/  c #B7BDCD",
"(  c #A7BBD6",
")  c #A7BCD7",
"_  c #A9BDD7",
"`  c #A9BED8",
"'  c #A9BFD8",
"]  c #ABBFD8",
"[  c #ACBFD9",
"{  c #AEBFDA",
"}  c #AFBFDA",
"|  c #AEC1DA",
" . c #AEC2DA",
".. c #BAC0D1",
"X. c #BCC2D3",
"o. c #BDC3D4",
"O. c #BDC4D5",
"+. c #BEC5D6",
"@. c #BFC5D7",
"#. c #B1C0DC",
"$. c #B0C1DC",
"%. c #B2C3DD",
"&. c #B3C3DD",
"*. c #B4C3DD",
"=. c #B6C4DE",
"-. c #BAC8E0",
";. c #BCD3ED",
":. c #C0C6D8",
">. c #C2C8D9",
",. c #C2C9DA",
"<. c #C4CBDC",
"1. c #C8CFE1",
"2. c #CAD1E3",
"3. c #CCD2E5",
"4. c #CFD6E8",
"5. c #D0D6E8",
"6. c #D0D7E9",
"7. c #D1D7EA",
"8. c #D0D8EB",
"9. c #D1D8EB",
"0. c #D3D8EB",
"q. c #D2D9EB",
"w. c #D1D9EC",
"e. c #D1D9ED",
"r. c #D2D9EC",
"t. c #D3D9EC",
"y. c #D2D9ED",
"u. c #D3DAEC",
"i. c #D2DAED",
"p. c #D3DAED",
"a. c #D3DBED",
"s. c #D3DAEE",
"d. c #D4D9EC",
"f. c #D4D9ED",
"g. c #D4DBEC",
"h. c #D4DAED",
"j. c #D5DAED",
"k. c #D5DBED",
"l. c #D6DAEC",
"z. c #D7DAEC",
"x. c #D6DBED",
"c. c #D4DBEE",
"v. c #D5DBEE",
"b. c #D5DDED",
"n. c #D6DDED",
"m. c #D9DFEF",
"M. c #DADFEF",
"N. c #D8DDF0",
"B. c #DAE0F0",
"V. c #DBE0F0",
"C. c #DCE0F0",
"Z. c #DCE0F1",
"A. c #DEE2F1",
"S. c #DEE2F2",
"D. c #E0E3F2",
"F. c #E6E7F5",
/* pixels */
"| ' _ ( ) ) ) ) ) ) ) ) ) ) ) ) ) ) ) ) ) ) ) ) ) ) ) ) ) ) ) ) ) ) ) ) ( [ R W ",
"` g.c.w.r.r.r.r.r.r.r.r.r.r.r.r.r.r.r.r.r.r.r.r.r.r.r.r.r.r.r.r.r.r.r.r.w.M.&.R ",
"] m.N.v.v.v.v.v.v.v.v.v.v.v.v.v.v.v.v.v.v.v.v.v.v.v.v.v.v.v.v.v.v.v.v.v.v.A.=.M ",
"` n.c.r.r.r.r.r.r.r.r.r.r.r.r.r.r.r.r.r.r.r.r.r.r.r.r.r.r.r.p.p.p.r.r.r.r.B.&.N ",
"` n.v.r.p.p.p.p.p.p.p.p.p.p.p.p.p.p.p.p.p.p.p.p.p.p.p.p.y.p.p.p.p.p.p.p.r.V.&.N ",
"` n.v.r.p.p.p.p.p.p.p.p.p.p.p.p.p.p.p.p.p.p.p.p.p.p.y.e.k.p.p.p.p.p.p.p.r.V.&.N ",
"` n.v.r.p.p.p.p.p.p.p.p.p.p.p.p.p.p.p.p.p.p.p.p.p.y.h.j.p.p.p.p.p.p.p.p.r.V.&.N ",
"` n.v.r.p.p.p.p.p.p.p.p.p.p.p.p.p.p.p.p.p.p.p.p.i.f.5.g X.p.p.p.p.e.p.p.r.V.&.N ",
"` n.v.r.p.p.p.p.p.p.p.p.p.p.p.p.p.p.p.p.p.p.p.i.y.q.i . 4 o.p.p.p.x.y.p.r.V.&.N ",
"` n.v.r.p.p.p.p.p.p.p.p.p.p.p.p.p.p.p.p.p.p.p.i.0.s X     6 +.p.p.p.e.p.r.V.&.N ",
"` n.v.r.p.p.p.p.p.p.p.p.p.p.p.p.p.p.p.p.p.p.p.8.f o         j p.p.p.p.p.r.V.&.N ",
"` n.v.r.p.p.p.p.p.p.p.p.p.p.p.p.p.p.p.p.p.p.p.z O         y 2.p.p.p.p.p.r.V.&.N ",
"` n.v.r.p.p.p.p.p.p.p.p.p.p.p.p.p.p.p.p.p.y.c @         e <.p.p.p.p.p.p.r.V.&.N ",
"` n.v.r.p.p.p.p.p.p.p.p.p.p.p.p.p.p.p.y.p.b #         w >.p.p.p.p.p.p.p.r.V.&.N ",
"` n.v.r.p.p.p.p.p.p.p.p.p.p.p.p.p.p.p.p.A %         8 @.p.p.p.p.p.p.s.p.r.V.&.N ",
"` n.v.r.p.p.p.p.p.p.p.p.p.p.p.y.p.p.p.D *         5 / p.p.p.p.p.p.s.p.p.r.V.&.N ",
"` n.v.r.p.p.p.p.p.p.p.p.p.p.p.p.p.p.F =         4 ~ p.s.s.p.p.p.p.p.p.p.r.V.&.N ",
"` n.v.r.p.p.p.p.p.p.p.p.p.p.p.p.p.H ;         1 Q p.s.p.p.p.p.p.p.p.p.p.r.V.&.N ",
"` n.v.r.p.p.p.p.p.p.y.p.p.p.p.p.K :         < I p.p.p.p.p.p.p.p.p.p.p.p.r.V.&.N ",
"` n.v.r.p.p.p.p.p.y.p.p.p.p.s.P ,         > L p.s.p.p.p.p.p.p.p.p.p.p.p.r.V.&.N ",
"` n.v.r.p.p.p.p.p.a.p.p.p.p.I 2 .       ; J p.s.p.p.p.p.p.p.p.p.p.p.p.p.r.V.&.N ",
"` n.v.r.p.p.p.p.p.p.p.p.p.Q 3 .       - G p.s.p.p.p.p.p.p.p.p.p.p.p.p.p.r.V.&.N ",
"` n.v.r.p.p.p.p.p.p.p.p.! 6 .       * F p.p.p.p.p.p.p.p.p.p.p.p.p.p.p.p.r.V.&.N ",
"` n.v.r.p.p.p.p.u.p.p.^ 9 .       & S r.p.s.p.p.p.p.p.p.p.p.p.p.p.p.p.p.r.V.&.N ",
"` n.v.r.p.p.p.p.p.p.O.q .       $ Z r.p.p.p.p.p.p.p.p.p.p.p.p.p.p.p.p.p.r.V.&.N ",
"` n.v.r.p.y.a.y.p.:.r .       @ v 9.p.p.s.p.p.p.p.p.p.p.p.p.p.p.p.p.p.p.r.V.&.N ",
"` n.v.r.p.a.p.p.,.t .       + x 9.p.p.s.p.p.p.p.p.p.p.p.p.p.p.p.p.p.p.p.r.V.&.N ",
"` n.v.r.p.p.p.1.u .       O l 7.p.p.p.p.p.p.p.p.p.p.p.p.p.p.p.p.p.p.p.p.r.V.&.N ",
"` n.v.r.i.p.p.k X       o d 6.p.s.p.p.p.p.p.p.p.p.p.p.p.p.p.p.p.p.p.p.p.r.V.&.N ",
"` n.v.r.y.p.p.o.0 .   X a 4.p.p.p.p.p.p.p.p.p.p.p.p.p.p.p.p.p.p.p.p.p.p.r.V.&.N ",
"` n.v.r.y.p.p.p.X.7 . p 4.p.p.p.p.p.p.p.p.p.p.p.p.p.p.p.p.p.p.p.p.p.p.p.r.V.&.N ",
"` n.v.r.y.t.p.p.p...h 3.p.p.p.p.p.p.p.p.p.p.p.p.p.p.p.p.p.p.p.p.p.p.p.p.r.V.&.N ",
"` n.v.r.p.y.l.p.p.p.p.;.p.p.p.p.p.p.p.p.p.p.p.p.p.p.p.p.p.p.p.p.p.p.p.p.r.V.&.N ",
"` n.v.r.p.p.e.z.p.p.p.p.p.p.p.p.p.p.p.p.p.p.p.p.p.p.p.p.p.p.p.p.p.p.p.p.r.V.&.N ",
"` n.v.r.p.p.p.y.d.p.p.p.p.p.p.s.p.p.p.p.p.p.p.p.p.p.p.p.p.p.p.p.p.p.p.p.r.V.&.N ",
"` n.v.r.p.p.p.p.i.r.p.p.p.p.s.p.p.p.p.p.p.p.p.p.p.p.p.p.p.p.p.p.p.p.p.p.r.V.&.N ",
"_ b.c.r.r.r.r.r.r.r.r.r.r.r.r.r.r.r.r.r.r.r.r.r.r.r.r.r.r.r.r.r.r.r.r.r.r.B.%.N ",
" .D.S.C.Z.Z.Z.Z.Z.Z.Z.Z.Z.Z.Z.Z.Z.Z.Z.Z.Z.Z.Z.Z.Z.Z.Z.Z.Z.Z.Z.Z.Z.Z.Z.Z.C.F.-.n ",
"Y $.#.{ } } } } } } } } } } } } } } } } } } } } } } } } } } } } } } } } { *.T B ",
"E U m m m m m m m m m m m m m m m m m m m m m m m m m m m m m m m m m m m m V C "
};
