/* XPM */
static char *result[] = {
/* columns rows colors chars-per-pixel */
"40 40 177 2 ",
"   c #221E1F",
".  c #231E1F",
"X  c #221F1F",
"o  c #231E20",
"O  c #221F20",
"+  c #231F20",
"@  c #232021",
"#  c #242021",
"$  c #242122",
"%  c #252122",
"&  c #262223",
"*  c #272224",
"=  c #262324",
"-  c #262225",
";  c #272424",
":  c #292425",
">  c #292526",
",  c #292628",
"<  c #2B2829",
"1  c #2E2A2C",
"2  c #2E2B2D",
"3  c #302D2E",
"4  c #302D2F",
"5  c #312F31",
"6  c #323032",
"7  c #333033",
"8  c #333133",
"9  c #343133",
"0  c #343233",
"q  c #353134",
"w  c #353234",
"e  c #373336",
"r  c #383639",
"t  c #39373A",
"y  c #3A373A",
"u  c #3A383A",
"i  c #3D3B3F",
"p  c #3F3C40",
"a  c #3F3C41",
"s  c #403E41",
"d  c #413F41",
"f  c #423F42",
"g  c #424044",
"h  c #454548",
"j  c #47454A",
"k  c #49474A",
"l  c #49484B",
"z  c #4B4B4E",
"x  c #4B4B4F",
"c  c #4C4B4F",
"v  c #4F4E52",
"b  c #504E53",
"n  c #57565C",
"m  c #59595F",
"M  c #5A595F",
"N  c #595A5F",
"B  c #595960",
"V  c #5C5C62",
"C  c #5D5F65",
"Z  c #6C6D73",
"A  c #6F7077",
"S  c #707179",
"D  c #71737A",
"F  c #72727B",
"G  c #75777F",
"H  c #537094",
"J  c #537095",
"K  c #547094",
"L  c #547196",
"P  c #547296",
"I  c #5A7498",
"U  c #757980",
"Y  c #767880",
"T  c #777981",
"R  c #787A82",
"E  c #797B83",
"W  c #7C7E85",
"Q  c #7D7F88",
"!  c #6B84A3",
"~  c #7D8EA8",
"^  c #7A91AD",
"/  c #7B91AD",
"(  c #7D93AF",
")  c #7E94AF",
"_  c #80818B",
"`  c #83858E",
"'  c #858891",
"]  c #868892",
"[  c #858994",
"{  c #898A95",
"}  c #8B8C98",
"|  c #8A8E98",
" . c #8D909A",
".. c #8D919B",
"X. c #91959F",
"o. c #8B98AE",
"O. c #8C99AF",
"+. c #9295A0",
"@. c #9396A2",
"#. c #9397A3",
"$. c #9398A2",
"%. c #9398A3",
"&. c #9598A3",
"*. c #9598A5",
"=. c #959AA5",
"-. c #969AA6",
";. c #979BA7",
":. c #9A9FAB",
">. c #9B9FAB",
",. c #9A9EAC",
"<. c #9A9FAC",
"1. c #8196B2",
"2. c #8398B2",
"3. c #8298B3",
"4. c #8398B3",
"5. c #8399B3",
"6. c #8499B3",
"7. c #869BB5",
"8. c #879BB5",
"9. c #8D9BB0",
"0. c #8E9AB0",
"q. c #8E9BB0",
"w. c #909CB1",
"e. c #929DB2",
"r. c #9BA0AC",
"t. c #9CA1AD",
"y. c #9DA2AE",
"u. c #95A0B4",
"i. c #97A9BE",
"p. c #A0A4B1",
"a. c #A0A5B2",
"s. c #A0A4B3",
"d. c #A1A6B3",
"f. c #A2A7B4",
"g. c #A2A7B5",
"h. c #A5AAB8",
"j. c #A6ABB9",
"k. c #A6ABBA",
"l. c #A7ACBA",
"z. c #A7ADBA",
"x. c #A7ACBB",
"c. c #A7ADBB",
"v. c #A7ADBC",
"b. c #A7ADBD",
"n. c #A8ADBC",
"m. c #A8AEBD",
"M. c #A9AEBD",
"N. c #A9AFBD",
"B. c #AAAEBD",
"V. c #A8AEBE",
"C. c #A8AFBE",
"Z. c #A9AFBE",
"A. c #A9AFBF",
"S. c #AAAEBE",
"D. c #AAAFBE",
"F. c #ABAFBE",
"G. c #ACAFBD",
"H. c #AAB0BD",
"J. c #A9B0BE",
"K. c #A9B0BF",
"L. c #AAB0BE",
"P. c #ABB0BE",
"I. c #ABB1BE",
"U. c #AAB0BF",
"Y. c #ABB0BF",
"T. c #ACB0BE",
"R. c #ACB1BE",
"E. c #ADB1C0",
"W. c #AEB3C0",
"Q. c #AFB3C0",
"!. c #AFB4C0",
"~. c #B0B4C0",
"^. c #B0B4C1",
"/. c #B2B5C1",
"(. c #B2B5C2",
"). c #B4B6C2",
"_. c #B8B9C4",
/* pixels */
"8.2.4.1.1.1.1.1.1.1.1.1.1.1.1.1.1.1.1.1.1.1.1.1.1.1.1.1.1.1.1.1.1.1.1.1.1.6./ ) ",
"2.H.U.m.m.m.m.m.m.m.m.m.m.m.m.m.m.m.m.m.m.m.m.m.m.m.m.m.m.m.m.m.m.m.m.m.m.Q.w./ ",
"5.W.E.Y.Y.Y.Y.Y.Y.Y.Y.Y.Y.Y.Y.Y.Y.Y.P.Y.Y.P.Y.Y.Y.D.D.Y.Y.Y.Y.Y.Y.Y.P.Y.Y./.e.H ",
"4.R.U.m.m.m.m.m.m.m.m.m.m.m.m.m.m.m.m.m.m.m.m.v.v.v.v.m.m.m.Z.Z.Z.m.m.m.m.!.w.K ",
"4.R.Y.m.Z.Z.Z.Z.Z.Z.Z.Z.Z.m.Z.Z.m.Z.Z.Z.Z.Z.Z.Z.Z.Z.Z.Z.V.Z.Z.Z.Z.Z.Z.Z.m.~.w.K ",
"4.R.Y.m.Z.Z.Z.Z.Z.Z.Z.Z.Z.Z.Z.Z.Z.Z.Z.Z.Z.Z.Z.Z.Z.Z.V.V.P.Z.Z.Z.Z.Z.Z.Z.m.~.w.K ",
"4.R.Y.m.Z.Z.Z.Z.Z.Z.Z.Z.Z.Z.Z.Z.Z.Z.Z.Z.Z.Z.Z.Z.Z.V.D.F.Z.Z.Z.Z.Z.Z.Z.Z.m.~.w.K ",
"4.R.Y.m.Z.Z.Z.Z.Z.Z.Z.Z.Z.Z.Z.Z.Z.g.$.Z.Z.m.Z.Z.C.S.D.Z.Z.Z.Z.Z.Z.V.Z.Z.m.~.w.K ",
"4.R.Y.m.Z.Z.Z.Z.Z.Z.Z.Z.Z.Z.Z.m.] y X.Z.Z.Z.Z.C.V.L.Z.Z.Z.Z.Z.Z.Z.T.V.Z.m.~.w.K ",
"4.R.Y.m.Z.Z.Z.Z.Z.Z.Z.Z.Z.Z.d.m = s l.Z.Z.Z.Z.C.F.Z.Z.Z.Z.Z.Z.Z.Z.Z.b.Z.m.~.w.K ",
"4.R.Y.m.Z.Z.Z.Z.Z.Z.Z.Z.m._ 8 + O D Z.Z.Z.Z.Z.C.F.Z.Z.Z.M.Z.Z.Z.Z.Z.Z.Z.m.~.w.K ",
"4.R.Y.m.Z.Z.Z.Z.Z.Z.Z.y.n @   + % a.Z.Z.Z.Z.Z.C.m.Z.Z.Z.Z.J.Z.Z.Z.Z.Z.Z.m.~.w.K ",
"4.R.Y.m.Z.Z.Z.Z.Z.x.Q 3 + + + + k j.Z.Z.Z.V.J.Z.Z.Z.Z.Z.Z.Z.Z.Z.Z.Z.Z.Z.m.~.w.K ",
"4.R.Y.V.Z.Z.Z.Z.:.b # + + + + + & d V [ c.Z.Z.Z.Z.Z.Z.Z.Z.Z.Z.Z.Z.Z.Z.Z.N.~.w.K ",
"4.R.Y.m.Z.Z.k.G 2 + + + + + + + + +   % 7 F p.Z.Z.Z.Z.Z.Z.Z.Z.Z.Z.Z.A.Z.v.~.w.K ",
"4.R.Y.m.Z.M.N +   + + + + + + + + + + + +   9 R c.Z.Z.Z.Z.Z.Z.Z.Z.A.Z.Z.m.~.w.K ",
"4.R.Y.m.Z.Z.-.w   + + + + + + + + + + + + + O # j >.Z.A.A.Z.Z.Z.Z.Z.Z.Z.m.~.w.K ",
"4.R.Y.m.Z.Z.Z.;.p   + + + + + + + + + + + + + +   9 } Z.Z.Z.Z.Z.Z.Z.Z.Z.m.~.w.K ",
"4.R.Y.m.Z.Z.Z.Z.a.f + + + + + +     + + + + + + +   , { Z.Z.Z.Z.Z.Z.Z.Z.m.~.w.K ",
"4.R.Y.m.Z.m.m.Z.Z.s.l X + + + 0 W v > . o + + + + +   < | Z.Z.Z.Z.Z.Z.Z.m.~.w.K ",
"4.R.Y.m.Z.Z.Z.Z.Z.J.h.x # + + u l.N.r.M ; o + + + + +   4 t.Z.m.Z.Z.Z.Z.m.~.w.K ",
"4.R.Y.m.Z.Z.Z.Z.Z.Z.Z.h.m + + q d.Z.Z.Z...e   + + + + +   c k.Z.Z.Z.Z.Z.m.~.w.K ",
"4.R.Y.m.Z.Z.Z.Z.Z.Z.Z.Z.x.C % 1 ,.Z.Z.Z.Z.y.h + + + + + + $ E Z.Z.Z.Z.Z.m.~.w.K ",
"4.R.Y.m.Z.m.m.Z.N.Z.Z.m.Z.n.Z - #.Z.Z.Z.Z.A.f.a o + + + +   6 z.Z.Z.m.Z.m.~.w.K ",
"4.R.Y.m.Z.Z.Z.Z.Z.Z.Z.Z.Z.Z.N.A %.Z.Z.Z.Z.Z.Z.;.4 + + + + +   U Z.Z.Z.Z.m.~.w.K ",
"4.R.Y.m.Z.V.J.V.Z.Z.Z.Z.Z.Z.Z.Z.U.Z.Z.Z.A.A.Z.Z.Y   + + + + + g c.Z.Z.Z.m.~.w.K ",
"4.R.Y.m.Z.J.m.m.m.Z.Z.Z.Z.Z.Z.Z.Z.Z.Z.A.Z.Z.Z.Z.c.r   + + + + : *.Z.Z.Z.m.~.w.K ",
"4.R.Y.m.Z.Z.Z.Z.Z.Z.Z.Z.Z.Z.Z.Z.Z.Z.Z.Z.Z.Z.Z.Z.Z.S   + + + +   T Z.Z.Z.m.~.w.K ",
"4.R.Y.m.C.Z.Z.Z.Z.Z.Z.Z.Z.Z.Z.Z.A.Z.Z.Z.Z.Z.Z.Z.Z.@.* + + + + o B Z.Z.Z.m.~.w.K ",
"4.R.Y.v.V.Z.Z.Z.Z.Z.Z.Z.Z.Z.Z.Z.Z.Z.Z.Z.Z.Z.Z.Z.Z.h.t + + + + o z Z.Z.Z.m.~.w.K ",
"4.R.Y.m.V.Z.Z.Z.Z.Z.Z.Z.Z.Z.Z.m.Z.Z.Z.Z.Z.Z.Z.Z.Z.Z.i + + o o o y Z.Z.Z.m.~.w.K ",
"4.R.Y.m.V.M.Z.Z.Z.Z.L.Z.Z.K.Z.Z.Z.Z.Z.Z.Z.Z.Z.Z.Z.Z.g       .   5 Z.Z.Z.m.~.w.K ",
"4.R.Y.m.Z.V.G.Z.Z.Z.L.i.Z.Z.Z.Z.Z.Z.Z.Z.Z.Z.Z.Z.Z.Z.<.=.&.+. .' ` Z.Z.Z.m.~.w.K ",
"4.R.Y.m.Z.Z.V.G.Z.Z.Z.Z.Z.Z.Z.Z.Z.Z.Z.Z.Z.Z.Z.Z.Z.Z.Z.Z.Z.Z.Z.Z.Z.Z.Z.Z.m.~.w.K ",
"4.R.Y.m.Z.Z.Z.V.B.Z.Z.Z.Z.Z.Z.A.Z.Z.Z.Z.Z.Z.Z.Z.Z.Z.Z.Z.Z.Z.Z.Z.Z.Z.Z.Z.m.~.w.K ",
"4.R.Y.m.Z.Z.Z.Z.C.m.Z.Z.Z.Z.A.Z.Z.Z.Z.Z.Z.Z.Z.Z.Z.Z.Z.Z.Z.Z.m.Z.Z.Z.Z.Z.m.~.w.K ",
"3.I.U.m.m.m.m.m.m.m.m.m.m.m.m.m.m.m.m.m.m.m.m.m.m.m.m.m.m.m.m.m.m.m.m.m.m.!.q.K ",
"7.).(.~.^.^.^.^.^.^.^.^.^.^.^.^.^.^.^.^.^.^.^.^.^.^.^.^.^.^.^.^.^.~.^.^.~._.u.H ",
"^ 9.0.O.O.O.O.O.O.O.O.O.O.O.O.O.O.O.o.O.O.O.O.O.O.O.O.O.O.O.O.O.O.O.O.O.O.w.~ L ",
"( ! J J J J J J J J J J J J J J J J J J J J J J J J J J J J J J J J J J J J P I "
};
