/* XPM */
static char *result[] = {
/* columns rows colors chars-per-pixel */
"40 40 206 2 ",
"   c #221E1F",
".  c #231E1F",
"X  c #221F1F",
"o  c #231E20",
"O  c #221F20",
"+  c #231F20",
"@  c #231F21",
"#  c #232022",
"$  c #242021",
"%  c #242022",
"&  c #242122",
"*  c #252122",
"=  c #272324",
"-  c #272325",
";  c #272326",
":  c #262425",
">  c #282526",
",  c #2A2527",
"<  c #2A2628",
"1  c #2A2829",
"2  c #2D2A2C",
"3  c #2F2C2E",
"4  c #302E30",
"5  c #323031",
"6  c #323032",
"7  c #333032",
"8  c #343234",
"9  c #353335",
"0  c #363436",
"q  c #373437",
"w  c #373537",
"e  c #383637",
"r  c #383438",
"t  c #393639",
"y  c #3B373A",
"u  c #3C3A3D",
"i  c #3E3B3E",
"p  c #3E3C3F",
"a  c #3F3C3F",
"s  c #444246",
"d  c #454247",
"f  c #444347",
"g  c #474548",
"h  c #474549",
"j  c #494649",
"k  c #49484C",
"l  c #4B4A4F",
"z  c #4D4D51",
"x  c #4F4E53",
"c  c #504E52",
"v  c #525256",
"b  c #535256",
"n  c #545459",
"m  c #565559",
"M  c #5A595E",
"N  c #5A595F",
"B  c #63636A",
"V  c #66676D",
"C  c #66676E",
"Z  c #67676E",
"A  c #67676F",
"S  c #68676E",
"D  c #6A6B73",
"F  c #6C6E75",
"G  c #7E7F87",
"H  c #678BB8",
"J  c #678BBA",
"K  c #678CB8",
"L  c #688CB9",
"P  c #698DBB",
"I  c #698EBB",
"U  c #7091BE",
"Y  c #82848D",
"T  c #84858F",
"R  c #868791",
"E  c #858891",
"W  c #8A8C97",
"Q  c #8B8E98",
"!  c #8B8F98",
"~  c #8D909A",
"^  c #8E919B",
"/  c #8F919B",
"(  c #91939D",
")  c #9497A2",
"_  c #999BA7",
"`  c #9B9EA9",
"'  c #9FA2AD",
"]  c #A1A4B0",
"[  c #A3A5B2",
"{  c #A1A6B3",
"}  c #A6A9B7",
"|  c #A6AAB7",
" . c #A8ACB8",
".. c #AAAEBB",
"X. c #84A2C7",
"o. c #9AB3D1",
"O. c #9CB1D2",
"+. c #9CB3D2",
"@. c #9EB6D4",
"#. c #9FB7D4",
"$. c #AFB3C0",
"%. c #AFB3C1",
"&. c #B1B6C4",
"*. c #B2B7C6",
"=. c #B4B8C7",
"-. c #B4B9C8",
";. c #B4BAC9",
":. c #B6BAC9",
">. c #B5BACA",
",. c #B6BCCB",
"<. c #B7BCCB",
"1. c #B8BDCC",
"2. c #A7BBD6",
"3. c #A7BCD7",
"4. c #A9BDD7",
"5. c #A9BED8",
"6. c #A9BFD8",
"7. c #ABBFD8",
"8. c #ACBFD9",
"9. c #AEBED9",
"0. c #AEBFDA",
"q. c #AFBFDA",
"w. c #AEC1DA",
"e. c #AEC2DA",
"r. c #BCC2D1",
"t. c #BDC2D1",
"y. c #BDC2D3",
"u. c #BEC3D2",
"i. c #BEC4D4",
"p. c #BFC4D4",
"a. c #BFC5D5",
"s. c #B1C0DC",
"d. c #B0C1DC",
"f. c #B1C2DC",
"g. c #B3C2DC",
"h. c #B3C3DD",
"j. c #B4C3DD",
"k. c #B6C4DE",
"l. c #BAC8E0",
"z. c #BCD3ED",
"x. c #C0C6D5",
"c. c #C4C9D9",
"v. c #C4CADA",
"b. c #C4CADB",
"n. c #C5CADC",
"m. c #C5CCDC",
"M. c #C7CDDE",
"N. c #C7CEDF",
"B. c #CBD1E3",
"V. c #CBD2E3",
"C. c #CDD3E4",
"Z. c #CDD3E5",
"A. c #CDD4E5",
"S. c #CDD4E6",
"D. c #CFD4E6",
"F. c #CED5E6",
"G. c #CED4E7",
"H. c #CFD6E8",
"J. c #CFD6E9",
"K. c #D0D7E9",
"L. c #D1D8EA",
"P. c #D1D8EB",
"I. c #D2D8EB",
"U. c #D2D9EB",
"Y. c #D3D9EB",
"T. c #D0D8EC",
"R. c #D1D8EC",
"E. c #D1D9EC",
"W. c #D1D9ED",
"Q. c #D2D9EC",
"!. c #D3D9EC",
"~. c #D2D9ED",
"^. c #D3DAEC",
"/. c #D3DBEC",
"(. c #D2DAED",
"). c #D3DAED",
"_. c #D3DBED",
"`. c #D3DAEE",
"'. c #D4D9EC",
"]. c #D4D9ED",
"[. c #D4DBEC",
"{. c #D4DAED",
"}. c #D5DAED",
"|. c #D4DBED",
" X c #D5DBED",
".X c #D6DAEC",
"XX c #D7DAEC",
"oX c #D6DBED",
"OX c #D4DBEE",
"+X c #D5DBEE",
"@X c #D5DCEC",
"#X c #D5DDED",
"$X c #D6DDED",
"%X c #D9DFEF",
"&X c #DADFEF",
"*X c #D8DDF0",
"=X c #DBDFF0",
"-X c #DCDFF0",
";X c #DAE0F0",
":X c #DBE0F0",
">X c #DCE0F0",
",X c #DCE0F1",
"<X c #DEE2F1",
"1X c #DEE2F2",
"2X c #E0E3F2",
"3X c #E6E7F5",
/* pixels */
"w.6.4.2.3.3.3.3.3.3.3.3.3.3.3.3.3.3.3.3.3.3.3.3.3.3.3.3.3.3.3.3.3.3.3.3.2.8.+.#.",
"5.[.OXE.Q.Q.Q.Q.Q.Q.Q.Q.Q.Q.Q.Q.Q.Q.Q.Q.Q.Q.Q.Q.Q.Q.Q.Q.Q.Q.Q.Q.Q.Q.Q.Q.E.&Xh.+.",
"7.%X*X+X+X+X+X+X{.+X+X+X+X+X+X+X+X+X{.+X+X{.+X+X+X{.{.+X+X+X+X+X+X+X{.+X+X<Xk.K ",
"5.$XOXQ.Q.Q.Q.Q.Q.Q.Q.Q.Q.Q.Q.Q.P.Q.Q.Q.Q.Q.Q.P.P.P.P.Q.Q.Q.).).).Q.P.Q.Q.;Xh.L ",
"5.$X+XU.).).).).).).).).).Q.).).Q.).^.).).).).).).).).).~.).).).).).).).Q.:Xh.L ",
"5.$X+XQ.).).).).).).).^.).).).).).).^.).).).).).).).~.W. X).).).).).).).Q.:Xh.L ",
"5.$X+XQ.).).).).).).).!.).).).).).).!.).).).).!.).~.{.}.^.).).).).).).).Q.:Xh.L ",
"5.$X+XQ.).).).).).).).).).).).).).N.&.).).Q.).).(.].{.).^.).).).).R.).).Q.:Xh.L ",
"5.$X+XQ.).).).).).).).).).).).L.] a $.).).).).(.~.|.Q.).).).).!.).oX~.).Q.:Xh.L ",
"5.$X+XQ.).).).).).).).Q.).).m.C : h D.).).).).(.}.).).).).).).).).).T.).Q.:Xh.L ",
"5.$X+XQ.).).).).).).).).L._ w + O E ).).).).).Q.}.).).).!.).).).).).).).Q.:Xh.L ",
"5.$X+XQ.).).).).).).).x.B #   + * v.).).).).).Q.Q.).).).)._.).^.).).).).Q.:Xh.L ",
"5.$X+XQ.).).).).).H.) 5 + + + + c Z.).).).~._.!.).).).).).).).!.).).).).Q.:Xh.L ",
"5.$X+XR.).).).).r.M % + + + + + = g D { F.).).).).).).).).).).^.).).).).U.:Xh.L ",
"5.$X+XQ.).).G.W 4 + + + + + + + + +   * 0 R c.).).).).).).).).).).).`.).P.:Xh.L ",
"5.$X+XU.).L.V @   + + + + + + + + + + + +   w ^ H.).).).).).).).).`.).).Q.:Xh.L ",
"5.$X+XQ.).Q.:.t   + + + + + + + + + + + + + O % x u.).`.`.).).).).).).).Q.:Xh.L ",
"5.$X+XU.).).).1.s   + + + + + + + + + + + + + +   q } ).Q.).).).).).).).Q.:Xh.L ",
"5.$X+XQ.).Q.).).b.j + + + + + +     + + + + + + +   1 [ ^.).).).).).).).Q.:Xh.L ",
"5.$X+XQ.).Q.Q.).).n.v X + + + e ( N < . o + + + + +   2 | ).).).).).).).Q.:Xh.L ",
"5.$X+XI.).).).).)._.B.n $ + + p C.U.t.S > o + + + + +   6 a.).Q.).).).).Q.:Xh.L ",
"5.@X+XI.).).).).).).!.V.Z @ + r m.).!.!...y   + + + + +   m S.).).).).).Q.:Xh.L ",
"5.$X+XQ.).).).).).).).).J.F * 3 y.).!.).).p.z + + + + + + & / Q.).).).).U.:Xh.L ",
"5.@X+XP.).Q.Q.).^.).Q.Q.).K.G ; ;.).).).).`.M.d o + + + +   9 A.).).Q.).Q.:Xg.L ",
"5.$X+XQ.).).).).).).).).).).U.Y -.).).).).).).<.7 + + + + +   ! ).).).).Q.:Xh.L ",
"5.$X+XQ.).~._.~.).).Q.).).Q.).).~.).Q.).`.~.).).Q   + + + + + k H.).).).Q.:Xh.L ",
"5.$X+XQ.)./.Q.Q.Q.).).).).).).).).).).`.).).).).H.u   + + + + , >.!.).).Q.:Xh.L ",
"5.$X+XQ.).).).).).).).).).).).).).).).).).).).).).T   + + + +   ~ !.).).Q.:Xh.L ",
"5.@X+XP.(.^.).).).).).).).).).).`.).).).).).).).).*.- + + + + o A !.).).I.:Xh.L ",
"5.$X+XP.~.).).).).).).).).).).).).).).).).).).).).B.p + + + + o b ).).).Q.:Xh.L ",
"5.$X+XQ.~.).).).).).).).).).).Q.).).).).).).).).).U.f + + o o o i ).).).Q.:Xh.L ",
"5.$X+XQ.~.Y.).).^.).^.).).(.).).).).).).).Q.).Q.).).l       .   8 ).).).Q.:Xh.L ",
"5.$X{.Q.).Q..X).^.).^.z.).Q.).).).).).).).Q.).).).).i.,.=.%. .' ` ).).).Q.:Xh.L ",
"5.$X+XQ.).).W.XX).).).).).).).).).).).).).).).).).).).).^.).).Q.).!.).).Q.:Xh.L ",
"5.$X+XQ.).).).~.'.).).).).).).`.).).).).).).).!.).).).).).).Q.).).).).).Q.:Xh.L ",
"5.$X+XQ.).).).).(.Q.!.).).).`.).).).).).).).).^.).!.).).).).Q.).).).).).Q.:Xh.L ",
"4.#XOXQ.Q.I.Q.Q.Q.Q.I.Q.Q.Q.Q.Q.Q.Q.Q.Q.I.Q.Q.Q.Q.Q.Q.Q.Q.Q.Q.Q.Q.Q.Q.Q.Q.;Xf.L ",
"e.2X1X>X,X=X,X,X,X,X,X,X,X,X,X,X,X,X,X,X,X,X,X-X,X,X,X,X,X,X,X,X,X=X,X,X>X3Xl.H ",
"o.d.s.0.q.q.q.q.q.q.q.q.q.q.q.q.q.q.9.q.q.q.q.q.q.q.q.q.q.q.q.q.q.q.q.q.0.j.O.P ",
"@.X.J J J J J J J J J J J J J J J J J J J J J J J J J J J J J J J J J J J J I U "
};
